<svg width="52" height="53" viewBox="0 0 52 53" fill="none" xmlns="http://www.w3.org/2000/svg">
<ellipse cx="26" cy="26.5" rx="26" ry="26.5" fill="#FF7C1D"/>
<path d="M20.0051 39H32.0022C32.0022 39 32.0405 17 32.0022 15C31.9639 13 31.9639 13 31.0024 13C30.041 13 24.0426 13.0001 22.0046 13C19.9666 12.9999 19.9666 12.9999 20.0051 15C20.0436 17.0001 20.0051 39 20.0051 39ZM13.0068 39C10.9689 39 10.9742 39 11.0072 37C11.0403 35 11.0072 23 11.0072 21C11.0072 19 11.0072 19 13.0068 19C15.0063 19 37.001 19 39.0005 19C41 19 41 19 41 21C41 23 41 35 41 37C41 39 41 39 39.0005 39C37.001 39 15.0446 39 13.0068 39Z" stroke="black" stroke-width="2"/>
</svg>
