<svg width="162" height="167" viewBox="0 0 162 167" fill="none" xmlns="http://www.w3.org/2000/svg">
<path d="M149.999 27.7776H105.555V38.8887H149.999V155.555H105.555V166.666H161.11V38.8887C161.11 35.9418 159.94 33.1157 157.856 31.032C155.772 28.9482 152.946 27.7776 149.999 27.7776Z" fill="#D2D2D2"/>
<path d="M88.2222 0H11.7778C8.65412 0 5.65839 1.24087 3.44963 3.44963C1.24087 5.65839 0 8.65412 0 11.7778V166.667H100V11.7778C100 8.65412 98.7591 5.65839 96.5504 3.44963C94.3416 1.24087 91.3459 0 88.2222 0ZM88.8889 155.556H72.2222V138.889H27.7778V155.556H11.1111V11.7778C11.1111 11.6902 11.1284 11.6035 11.1619 11.5227C11.1954 11.4418 11.2445 11.3683 11.3064 11.3064C11.3683 11.2445 11.4418 11.1954 11.5227 11.1619C11.6035 11.1284 11.6902 11.1111 11.7778 11.1111H88.2222C88.3098 11.1111 88.3965 11.1284 88.4773 11.1619C88.5582 11.1954 88.6317 11.2445 88.6936 11.3064C88.7555 11.3683 88.8046 11.4418 88.8381 11.5227C88.8716 11.6035 88.8889 11.6902 88.8889 11.7778V155.556Z" fill="#D2D2D2"/>
<path d="M22.2227 27.7776H33.3338V38.8887H22.2227V27.7776Z" fill="#D2D2D2"/>
<path d="M44.4453 27.7776H55.5564V38.8887H44.4453V27.7776Z" fill="#D2D2D2"/>
<path d="M66.668 27.7776H77.7791V38.8887H66.668V27.7776Z" fill="#D2D2D2"/>
<path d="M22.2227 55.5554H33.3338V66.6665H22.2227V55.5554Z" fill="#D2D2D2"/>
<path d="M44.4453 55.5554H55.5564V66.6665H44.4453V55.5554Z" fill="#D2D2D2"/>
<path d="M66.668 55.5554H77.7791V66.6665H66.668V55.5554Z" fill="#D2D2D2"/>
<path d="M22.2227 83.3333H33.3338V94.4444H22.2227V83.3333Z" fill="#D2D2D2"/>
<path d="M44.4453 83.3333H55.5564V94.4444H44.4453V83.3333Z" fill="#D2D2D2"/>
<path d="M66.668 83.3333H77.7791V94.4444H66.668V83.3333Z" fill="#D2D2D2"/>
<path d="M22.2227 111.111H33.3338V122.222H22.2227V111.111Z" fill="#D2D2D2"/>
<path d="M44.4453 111.111H55.5564V122.222H44.4453V111.111Z" fill="#D2D2D2"/>
<path d="M66.668 111.111H77.7791V122.222H66.668V111.111Z" fill="#D2D2D2"/>
<path d="M105.555 55.5554H116.666V66.6665H105.555V55.5554Z" fill="#D2D2D2"/>
<path d="M127.777 55.5554H138.888V66.6665H127.777V55.5554Z" fill="#D2D2D2"/>
<path d="M105.555 83.3333H116.666V94.4444H105.555V83.3333Z" fill="#D2D2D2"/>
<path d="M127.777 83.3333H138.888V94.4444H127.777V83.3333Z" fill="#D2D2D2"/>
<path d="M105.555 111.111H116.666V122.222H105.555V111.111Z" fill="#D2D2D2"/>
<path d="M127.777 111.111H138.888V122.222H127.777V111.111Z" fill="#D2D2D2"/>
</svg>
