<svg width="124" height="92" viewBox="0 0 124 92" fill="none" xmlns="http://www.w3.org/2000/svg">
<rect width="109" height="74" fill="#00317A"/>
<g clip-path="url(#clip0_505_83)">
<path d="M20.2531 24.1852C20.3623 24.1753 20.4723 24.1869 20.5769 24.2195C20.6816 24.2521 20.7788 24.305 20.863 24.3751C20.9472 24.4453 21.0168 24.5313 21.0677 24.6284C21.1187 24.7254 21.15 24.8316 21.1599 24.9407L21.7163 31.0605C21.7262 31.1696 21.7146 31.2797 21.682 31.3843C21.6494 31.489 21.5965 31.5862 21.5263 31.6704C21.4562 31.7546 21.3701 31.8241 21.2731 31.8751C21.176 31.926 21.0699 31.9574 20.9608 31.9673C20.8516 31.9773 20.7416 31.9656 20.6369 31.933C20.5323 31.9004 20.4351 31.8475 20.3509 31.7774C20.2667 31.7072 20.1971 31.6212 20.1462 31.5241C20.0952 31.4271 20.0639 31.321 20.0539 31.2118L19.4976 25.092C19.4876 24.9829 19.4993 24.8728 19.5319 24.7682C19.5645 24.6635 19.6173 24.5663 19.6875 24.4821C19.7577 24.3979 19.8437 24.3284 19.9408 24.2774C20.0378 24.2265 20.1439 24.1951 20.2531 24.1852Z" fill="#1BA94C"/>
<path d="M19.217 10.2733C15.3761 10.2733 12.2628 13.3866 12.2628 17.2275C12.2628 21.0685 15.3761 24.1818 19.217 24.1818C23.058 24.1818 26.1713 21.0685 26.1713 17.2275C26.1713 13.3866 23.058 10.2733 19.217 10.2733ZM10.5938 17.2275C10.5938 12.4653 14.4548 8.60425 19.217 8.60425C23.9793 8.60425 27.8403 12.4653 27.8403 17.2275C27.8403 21.9898 23.9793 25.8508 19.217 25.8508C14.4548 25.8508 10.5938 21.9898 10.5938 17.2275Z" fill="#1BA94C"/>
<path d="M23.3238 22.9429C23.5432 22.9138 23.7652 22.9731 23.9409 23.1077C24.1166 23.2423 24.2316 23.4412 24.2607 23.6606L25.6071 33.8083C25.6277 33.9639 25.6039 34.1222 25.5386 34.265C25.4733 34.4078 25.369 34.5293 25.2377 34.6154C25.1065 34.7016 24.9536 34.749 24.7966 34.7521C24.6396 34.7553 24.4849 34.7141 24.3503 34.6333L19.2164 31.5534L14.0824 34.6339C13.9478 34.7147 13.793 34.7559 13.636 34.7528C13.4789 34.7496 13.326 34.7021 13.1947 34.6159C13.0634 34.5296 12.9591 34.4081 12.8938 34.2652C12.8286 34.1224 12.8049 33.964 12.8257 33.8083L14.172 23.6717C14.2012 23.4523 14.3163 23.2535 14.492 23.1189C14.6678 22.9844 14.8898 22.9252 15.1092 22.9543C15.3286 22.9834 15.5274 23.0986 15.662 23.2743C15.7965 23.4501 15.8557 23.6721 15.8266 23.8915L14.7083 32.3123L18.7869 29.8644C18.9166 29.7865 19.0651 29.7453 19.2164 29.7453C19.3677 29.7453 19.5161 29.7865 19.6459 29.8644L23.725 32.3123L22.6067 23.8803C22.5776 23.661 22.6368 23.4391 22.7713 23.2634C22.9058 23.0878 23.1045 22.9721 23.3238 22.9429Z" fill="#1BA94C"/>
</g>
<g clip-path="url(#clip1_505_83)">
<rect width="27.25" height="38.5" transform="translate(81.75)" fill="#303031"/>
<rect x="80.5801" y="-1.17004" width="57.75" height="57.75" transform="rotate(45 80.5801 -1.17004)" fill="#A9C5EF"/>
</g>
<path d="M15.0029 64.3303C15.0029 64.5842 14.9395 64.801 14.8125 64.9807C14.6875 65.1584 14.5117 65.2942 14.2852 65.3879C14.0586 65.4817 13.792 65.5286 13.4854 65.5286C13.3232 65.5286 13.1699 65.5208 13.0254 65.5051C12.8809 65.4895 12.748 65.467 12.627 65.4377C12.5059 65.4084 12.3994 65.3723 12.3076 65.3293V64.8518C12.4541 64.9124 12.6328 64.969 12.8438 65.0217C13.0547 65.0725 13.2754 65.0979 13.5059 65.0979C13.7207 65.0979 13.9023 65.0696 14.0508 65.0129C14.1992 64.9543 14.3115 64.8713 14.3877 64.7639C14.4658 64.6545 14.5049 64.5237 14.5049 64.3713C14.5049 64.2249 14.4727 64.1028 14.4082 64.0051C14.3438 63.9055 14.2363 63.8157 14.0859 63.7356C13.9375 63.6536 13.7344 63.5667 13.4766 63.4749C13.2949 63.4104 13.1348 63.3401 12.9961 63.2639C12.8574 63.1858 12.7412 63.0979 12.6475 63.0002C12.5537 62.9026 12.4824 62.7893 12.4336 62.6604C12.3867 62.5315 12.3633 62.384 12.3633 62.218C12.3633 61.9895 12.4209 61.7942 12.5361 61.6321C12.6533 61.468 12.8145 61.343 13.0195 61.2571C13.2266 61.1692 13.4639 61.1252 13.7314 61.1252C13.96 61.1252 14.1709 61.1467 14.3643 61.1897C14.5596 61.2327 14.7383 61.2903 14.9004 61.3625L14.7451 61.7903C14.5908 61.7258 14.4268 61.6721 14.2529 61.6292C14.0811 61.5862 13.9033 61.5647 13.7197 61.5647C13.5361 61.5647 13.3809 61.592 13.2539 61.6467C13.1289 61.6995 13.0332 61.7747 12.9668 61.8723C12.9004 61.97 12.8672 62.0862 12.8672 62.2209C12.8672 62.3713 12.8984 62.4963 12.9609 62.5959C13.0254 62.6956 13.127 62.7844 13.2656 62.8625C13.4062 62.9387 13.5918 63.0188 13.8223 63.1028C14.0742 63.1946 14.2881 63.2922 14.4639 63.3958C14.6396 63.4973 14.7734 63.6223 14.8652 63.7708C14.957 63.9172 15.0029 64.1038 15.0029 64.3303ZM17.9742 63.8586C17.9742 64.1223 17.94 64.3577 17.8717 64.5647C17.8033 64.7717 17.7047 64.9465 17.5758 65.0891C17.4469 65.2317 17.2906 65.3411 17.107 65.4172C16.9254 65.4915 16.7193 65.5286 16.4889 65.5286C16.274 65.5286 16.0768 65.4915 15.8971 65.4172C15.7193 65.3411 15.565 65.2317 15.4342 65.0891C15.3053 64.9465 15.2047 64.7717 15.1324 64.5647C15.0621 64.3577 15.027 64.1223 15.027 63.8586C15.027 63.5071 15.0865 63.2083 15.2057 62.9622C15.3248 62.7141 15.4947 62.5256 15.7154 62.3967C15.9381 62.2659 16.2027 62.2004 16.5094 62.2004C16.8023 62.2004 17.0582 62.2659 17.277 62.3967C17.4977 62.5276 17.6686 62.717 17.7896 62.9651C17.9127 63.2112 17.9742 63.509 17.9742 63.8586ZM15.5309 63.8586C15.5309 64.1165 15.565 64.3401 15.6334 64.5295C15.7018 64.719 15.8072 64.8655 15.9498 64.969C16.0924 65.0725 16.276 65.1243 16.5006 65.1243C16.7232 65.1243 16.9059 65.0725 17.0484 64.969C17.193 64.8655 17.2994 64.719 17.3678 64.5295C17.4361 64.3401 17.4703 64.1165 17.4703 63.8586C17.4703 63.6028 17.4361 63.3821 17.3678 63.1965C17.2994 63.009 17.1939 62.8645 17.0514 62.7629C16.9088 62.6614 16.7242 62.6106 16.4977 62.6106C16.1637 62.6106 15.9186 62.7209 15.7623 62.9417C15.608 63.1624 15.5309 63.468 15.5309 63.8586ZM19.6447 62.6399H18.8449V65.47H18.3586V62.6399H17.7902V62.4055L18.3586 62.2444V62.0305C18.3586 61.761 18.3986 61.5422 18.4787 61.3743C18.5588 61.2043 18.675 61.0793 18.8273 60.9993C18.9797 60.9192 19.1652 60.8792 19.384 60.8792C19.507 60.8792 19.6193 60.8899 19.7209 60.9114C19.8244 60.9329 19.9152 60.9573 19.9934 60.9846L19.8674 61.3684C19.801 61.3469 19.7258 61.3274 19.6418 61.3098C19.5598 61.2903 19.4758 61.2805 19.3898 61.2805C19.2043 61.2805 19.0666 61.3411 18.9768 61.4622C18.8889 61.5813 18.8449 61.7688 18.8449 62.0247V62.259H19.6447V62.6399ZM20.6736 65.1301C20.7537 65.1301 20.8357 65.1233 20.9197 65.1096C21.0037 65.0959 21.0721 65.0793 21.1248 65.0598V65.4377C21.0682 65.4631 20.9891 65.4846 20.8875 65.5022C20.7879 65.5198 20.6902 65.5286 20.5945 65.5286C20.4246 65.5286 20.2703 65.4993 20.1316 65.4407C19.993 65.3801 19.8816 65.2786 19.7977 65.136C19.7156 64.9934 19.6746 64.7961 19.6746 64.5442V62.6399H19.2176V62.4026L19.6775 62.2122L19.8709 61.5149H20.1639V62.259H21.1043V62.6399H20.1639V64.5295C20.1639 64.7307 20.2098 64.8811 20.3016 64.9807C20.3953 65.0803 20.5193 65.1301 20.6736 65.1301ZM23.7885 65.4641L23.2172 63.595C23.1918 63.5149 23.1674 63.4368 23.1439 63.3606C23.1225 63.2825 23.102 63.2083 23.0824 63.1379C23.0648 63.0657 23.0482 62.9993 23.0326 62.9387C23.0189 62.8762 23.0072 62.8225 22.9975 62.7776H22.977C22.9691 62.8225 22.9584 62.8762 22.9447 62.9387C22.9311 62.9993 22.9145 63.0657 22.8949 63.1379C22.8773 63.2102 22.8578 63.2864 22.8363 63.3665C22.8148 63.4446 22.7904 63.5237 22.7631 63.6038L22.1654 65.4641H21.6176L20.7328 62.2532H21.2367L21.6996 64.0256C21.7309 64.1428 21.7602 64.259 21.7875 64.3743C21.8168 64.4875 21.8412 64.595 21.8607 64.6965C21.8822 64.7961 21.8979 64.8831 21.9076 64.9573H21.9311C21.9428 64.9084 21.9555 64.8499 21.9691 64.7815C21.9848 64.7131 22.0014 64.6409 22.0189 64.5647C22.0385 64.4866 22.059 64.4094 22.0805 64.3333C22.102 64.2551 22.1234 64.1819 22.1449 64.1135L22.7367 62.2532H23.2611L23.8324 64.1106C23.8617 64.2043 23.89 64.302 23.9174 64.4036C23.9467 64.5051 23.973 64.6038 23.9965 64.6995C24.0199 64.7932 24.0365 64.8772 24.0463 64.9514H24.0697C24.0775 64.885 24.0922 64.803 24.1137 64.7053C24.1352 64.6077 24.1596 64.5002 24.1869 64.3831C24.2162 64.2659 24.2465 64.1467 24.2777 64.0256L24.7465 62.2532H25.2416L24.3539 65.4641H23.7885ZM26.4287 62.2063C26.8115 62.2063 27.0957 62.2922 27.2812 62.4641C27.4668 62.636 27.5596 62.9104 27.5596 63.2874V65.47H27.2051L27.1113 64.9954H27.0879C26.998 65.1125 26.9043 65.2112 26.8066 65.2913C26.709 65.3694 26.5957 65.429 26.4668 65.47C26.3398 65.509 26.1836 65.5286 25.998 65.5286C25.8027 65.5286 25.6289 65.4944 25.4766 65.426C25.3262 65.3577 25.207 65.2542 25.1191 65.1155C25.0332 64.9768 24.9902 64.801 24.9902 64.5881C24.9902 64.2678 25.1172 64.0217 25.3711 63.8499C25.625 63.678 26.0117 63.5842 26.5312 63.5686L27.085 63.5452V63.3489C27.085 63.0715 27.0254 62.8772 26.9062 62.7659C26.7871 62.6545 26.6191 62.5989 26.4023 62.5989C26.2344 62.5989 26.0742 62.6233 25.9219 62.6721C25.7695 62.7209 25.625 62.7786 25.4883 62.845L25.3389 62.4758C25.4834 62.4016 25.6494 62.3381 25.8369 62.2854C26.0244 62.2327 26.2217 62.2063 26.4287 62.2063ZM27.0791 63.8879L26.5898 63.9084C26.1895 63.9241 25.9072 63.9895 25.7432 64.1047C25.5791 64.22 25.4971 64.3831 25.4971 64.594C25.4971 64.7776 25.5527 64.9133 25.6641 65.0012C25.7754 65.0891 25.9229 65.1331 26.1064 65.1331C26.3916 65.1331 26.625 65.054 26.8066 64.8958C26.9883 64.7375 27.0791 64.5002 27.0791 64.1838V63.8879ZM29.4205 62.2004C29.485 62.2004 29.5523 62.2043 29.6227 62.2122C29.693 62.218 29.7555 62.2268 29.8102 62.2385L29.7486 62.6897C29.6959 62.676 29.6373 62.6653 29.5729 62.6575C29.5084 62.6497 29.4479 62.6458 29.3912 62.6458C29.2623 62.6458 29.1402 62.6721 29.025 62.7249C28.9117 62.7756 28.8121 62.8499 28.7262 62.9475C28.6402 63.0432 28.5729 63.1594 28.524 63.2961C28.4752 63.4309 28.4508 63.5813 28.4508 63.7473V65.47H27.9615V62.259H28.3658L28.4186 62.8508H28.4391C28.5055 62.7317 28.5855 62.6233 28.6793 62.5256C28.773 62.426 28.8814 62.3469 29.0045 62.2883C29.1295 62.2297 29.2682 62.2004 29.4205 62.2004ZM31.0529 62.2004C31.3264 62.2004 31.5607 62.261 31.7561 62.3821C31.9514 62.5032 32.1008 62.6731 32.2043 62.8918C32.3078 63.1086 32.3596 63.3625 32.3596 63.6536V63.9553H30.1418C30.1477 64.3323 30.2414 64.6194 30.423 64.8167C30.6047 65.0139 30.8605 65.1125 31.1906 65.1125C31.3937 65.1125 31.5734 65.094 31.7297 65.0569C31.8859 65.0198 32.048 64.9651 32.216 64.8928V65.3206C32.0539 65.3928 31.8928 65.4456 31.7326 65.4788C31.5744 65.512 31.3869 65.5286 31.1701 65.5286C30.8615 65.5286 30.592 65.4661 30.3615 65.3411C30.133 65.2141 29.9553 65.0286 29.8283 64.7844C29.7014 64.5403 29.6379 64.2415 29.6379 63.8879C29.6379 63.5422 29.6955 63.2434 29.8107 62.9915C29.9279 62.7375 30.092 62.5422 30.3029 62.4055C30.5158 62.2688 30.7658 62.2004 31.0529 62.2004ZM31.0471 62.5989C30.7873 62.5989 30.5803 62.6838 30.426 62.8538C30.2717 63.0237 30.1799 63.261 30.1506 63.5657H31.8498C31.8479 63.3743 31.8176 63.2063 31.759 63.0618C31.7023 62.9153 31.6154 62.802 31.4982 62.7219C31.3811 62.6399 31.2307 62.5989 31.0471 62.5989ZM36.0023 65.47H33.6176V61.1868H36.0023V61.6262H34.1156V63.012H35.8939V63.4456H34.1156V65.0305H36.0023V65.47ZM37.7988 62.2004C38.1797 62.2004 38.4678 62.2942 38.6631 62.4817C38.8584 62.6672 38.9561 62.9661 38.9561 63.3782V65.47H38.4756V63.4104C38.4756 63.1428 38.4141 62.9426 38.291 62.8098C38.1699 62.677 37.9834 62.6106 37.7314 62.6106C37.376 62.6106 37.126 62.7112 36.9814 62.9124C36.8369 63.1135 36.7646 63.4055 36.7646 63.7883V65.47H36.2783V62.259H36.6709L36.7441 62.7219H36.7705C36.8389 62.6086 36.9258 62.5139 37.0312 62.4377C37.1367 62.3596 37.2549 62.301 37.3857 62.262C37.5166 62.2209 37.6543 62.2004 37.7988 62.2004ZM40.2545 66.9114C39.8326 66.9114 39.5074 66.8323 39.2789 66.6741C39.0504 66.5178 38.9361 66.2981 38.9361 66.0149C38.9361 65.8137 38.9996 65.6418 39.1266 65.4993C39.2555 65.3567 39.4332 65.262 39.6598 65.2151C39.5758 65.176 39.5035 65.1174 39.443 65.0393C39.3844 64.9612 39.3551 64.8713 39.3551 64.7698C39.3551 64.6526 39.3873 64.55 39.4518 64.4622C39.5182 64.3723 39.6187 64.2864 39.7535 64.2043C39.5855 64.136 39.4488 64.0208 39.3434 63.8586C39.2398 63.6946 39.1881 63.5042 39.1881 63.2874C39.1881 63.0569 39.2359 62.8606 39.3316 62.6985C39.4273 62.5344 39.566 62.4094 39.7477 62.3235C39.9293 62.2375 40.149 62.1946 40.4068 62.1946C40.4635 62.1946 40.5201 62.1975 40.5768 62.2034C40.6354 62.2073 40.691 62.2141 40.7437 62.2239C40.7965 62.2317 40.8424 62.2415 40.8814 62.2532H41.983V62.5667L41.3912 62.6399C41.4498 62.7161 41.4986 62.8079 41.5377 62.9153C41.5768 63.0227 41.5963 63.1418 41.5963 63.2727C41.5963 63.593 41.4879 63.8479 41.2711 64.0374C41.0543 64.2249 40.7564 64.3186 40.3775 64.3186C40.2877 64.3186 40.1959 64.3108 40.1021 64.2952C40.0064 64.3479 39.9332 64.4065 39.8824 64.4709C39.8336 64.5354 39.8092 64.6096 39.8092 64.6936C39.8092 64.7561 39.8277 64.8059 39.8648 64.843C39.9039 64.8801 39.9596 64.9075 40.0318 64.925C40.1041 64.9407 40.191 64.9485 40.2926 64.9485H40.858C41.2076 64.9485 41.4752 65.0217 41.6607 65.1682C41.8482 65.3147 41.942 65.5286 41.942 65.8098C41.942 66.1653 41.7975 66.4377 41.5084 66.6272C41.2193 66.8167 40.8014 66.9114 40.2545 66.9114ZM40.2691 66.5305C40.5348 66.5305 40.7545 66.5032 40.9283 66.4485C41.1041 66.3958 41.235 66.3186 41.3209 66.217C41.4088 66.1174 41.4527 65.9983 41.4527 65.8596C41.4527 65.7307 41.4234 65.6331 41.3648 65.5667C41.3062 65.5022 41.2203 65.4592 41.107 65.4377C40.9937 65.4143 40.8551 65.4026 40.691 65.4026H40.1344C39.9898 65.4026 39.8639 65.425 39.7564 65.47C39.649 65.5149 39.566 65.5813 39.5074 65.6692C39.4508 65.7571 39.4225 65.8665 39.4225 65.9973C39.4225 66.1711 39.4957 66.303 39.6422 66.3928C39.7887 66.4846 39.9977 66.5305 40.2691 66.5305ZM40.3951 63.9641C40.6275 63.9641 40.8023 63.9055 40.9195 63.7883C41.0367 63.6711 41.0953 63.5002 41.0953 63.2756C41.0953 63.0354 41.0357 62.8557 40.9166 62.7366C40.7975 62.6155 40.6217 62.5549 40.3893 62.5549C40.1666 62.5549 39.9947 62.6174 39.8736 62.7424C39.7545 62.8655 39.6949 63.0461 39.6949 63.2844C39.6949 63.5032 39.7555 63.6711 39.8766 63.7883C39.9977 63.9055 40.1705 63.9641 40.3951 63.9641ZM42.5021 62.259V65.47H42.0158V62.259H42.5021ZM42.2648 61.0579C42.3449 61.0579 42.4133 61.0842 42.4699 61.137C42.5285 61.1877 42.5578 61.2678 42.5578 61.3772C42.5578 61.4846 42.5285 61.5647 42.4699 61.6174C42.4133 61.6702 42.3449 61.6965 42.2648 61.6965C42.1809 61.6965 42.1105 61.6702 42.0539 61.6174C41.9992 61.5647 41.9719 61.4846 41.9719 61.3772C41.9719 61.2678 41.9992 61.1877 42.0539 61.137C42.1105 61.0842 42.1809 61.0579 42.2648 61.0579ZM44.4539 62.2004C44.8348 62.2004 45.1229 62.2942 45.3182 62.4817C45.5135 62.6672 45.6111 62.9661 45.6111 63.3782V65.47H45.1307V63.4104C45.1307 63.1428 45.0691 62.9426 44.9461 62.8098C44.825 62.677 44.6385 62.6106 44.3865 62.6106C44.0311 62.6106 43.7811 62.7112 43.6365 62.9124C43.492 63.1135 43.4197 63.4055 43.4197 63.7883V65.47H42.9334V62.259H43.326L43.3992 62.7219H43.4256C43.4939 62.6086 43.5809 62.5139 43.6863 62.4377C43.7918 62.3596 43.91 62.301 44.0408 62.262C44.1717 62.2209 44.3094 62.2004 44.4539 62.2004ZM47.2494 62.2004C47.5229 62.2004 47.7572 62.261 47.9525 62.3821C48.1479 62.5032 48.2973 62.6731 48.4008 62.8918C48.5043 63.1086 48.5561 63.3625 48.5561 63.6536V63.9553H46.3383C46.3441 64.3323 46.4379 64.6194 46.6195 64.8167C46.8012 65.0139 47.057 65.1125 47.3871 65.1125C47.5902 65.1125 47.7699 65.094 47.9262 65.0569C48.0824 65.0198 48.2445 64.9651 48.4125 64.8928V65.3206C48.2504 65.3928 48.0893 65.4456 47.9291 65.4788C47.7709 65.512 47.5834 65.5286 47.3666 65.5286C47.058 65.5286 46.7885 65.4661 46.558 65.3411C46.3295 65.2141 46.1518 65.0286 46.0248 64.7844C45.8979 64.5403 45.8344 64.2415 45.8344 63.8879C45.8344 63.5422 45.892 63.2434 46.0072 62.9915C46.1244 62.7375 46.2885 62.5422 46.4994 62.4055C46.7123 62.2688 46.9623 62.2004 47.2494 62.2004ZM47.2436 62.5989C46.9838 62.5989 46.7768 62.6838 46.6225 62.8538C46.4682 63.0237 46.3764 63.261 46.3471 63.5657H48.0463C48.0443 63.3743 48.0141 63.2063 47.9555 63.0618C47.8988 62.9153 47.8119 62.802 47.6947 62.7219C47.5775 62.6399 47.4271 62.5989 47.2436 62.5989ZM50.0186 62.2004C50.292 62.2004 50.5264 62.261 50.7217 62.3821C50.917 62.5032 51.0664 62.6731 51.1699 62.8918C51.2734 63.1086 51.3252 63.3625 51.3252 63.6536V63.9553H49.1074C49.1133 64.3323 49.207 64.6194 49.3887 64.8167C49.5703 65.0139 49.8262 65.1125 50.1562 65.1125C50.3594 65.1125 50.5391 65.094 50.6953 65.0569C50.8516 65.0198 51.0137 64.9651 51.1816 64.8928V65.3206C51.0195 65.3928 50.8584 65.4456 50.6982 65.4788C50.54 65.512 50.3525 65.5286 50.1357 65.5286C49.8271 65.5286 49.5576 65.4661 49.3271 65.3411C49.0986 65.2141 48.9209 65.0286 48.7939 64.7844C48.667 64.5403 48.6035 64.2415 48.6035 63.8879C48.6035 63.5422 48.6611 63.2434 48.7764 62.9915C48.8936 62.7375 49.0576 62.5422 49.2686 62.4055C49.4814 62.2688 49.7314 62.2004 50.0186 62.2004ZM50.0127 62.5989C49.7529 62.5989 49.5459 62.6838 49.3916 62.8538C49.2373 63.0237 49.1455 63.261 49.1162 63.5657H50.8154C50.8135 63.3743 50.7832 63.2063 50.7246 63.0618C50.668 62.9153 50.5811 62.802 50.4639 62.7219C50.3467 62.6399 50.1963 62.5989 50.0127 62.5989ZM53.0104 62.2004C53.0748 62.2004 53.1422 62.2043 53.2125 62.2122C53.2828 62.218 53.3453 62.2268 53.4 62.2385L53.3385 62.6897C53.2857 62.676 53.2271 62.6653 53.1627 62.6575C53.0982 62.6497 53.0377 62.6458 52.9811 62.6458C52.8521 62.6458 52.7301 62.6721 52.6148 62.7249C52.5016 62.7756 52.402 62.8499 52.316 62.9475C52.2301 63.0432 52.1627 63.1594 52.1139 63.2961C52.065 63.4309 52.0406 63.5813 52.0406 63.7473V65.47H51.5514V62.259H51.9557L52.0084 62.8508H52.0289C52.0953 62.7317 52.1754 62.6233 52.2691 62.5256C52.3629 62.426 52.4713 62.3469 52.5943 62.2883C52.7193 62.2297 52.858 62.2004 53.0104 62.2004ZM54.4383 65.47V61.1868H54.9363V65.47H54.4383ZM56.9613 62.2004C57.3422 62.2004 57.6303 62.2942 57.8256 62.4817C58.0209 62.6672 58.1186 62.9661 58.1186 63.3782V65.47H57.6381V63.4104C57.6381 63.1428 57.5766 62.9426 57.4535 62.8098C57.3324 62.677 57.1459 62.6106 56.8939 62.6106C56.5385 62.6106 56.2885 62.7112 56.1439 62.9124C55.9994 63.1135 55.9271 63.4055 55.9271 63.7883V65.47H55.4408V62.259H55.8334L55.9066 62.7219H55.933C56.0014 62.6086 56.0883 62.5139 56.1937 62.4377C56.2992 62.3596 56.4174 62.301 56.5482 62.262C56.6791 62.2209 56.8168 62.2004 56.9613 62.2004ZM59.5576 65.1301C59.6377 65.1301 59.7197 65.1233 59.8037 65.1096C59.8877 65.0959 59.9561 65.0793 60.0088 65.0598V65.4377C59.9521 65.4631 59.873 65.4846 59.7715 65.5022C59.6719 65.5198 59.5742 65.5286 59.4785 65.5286C59.3086 65.5286 59.1543 65.4993 59.0156 65.4407C58.877 65.3801 58.7656 65.2786 58.6816 65.136C58.5996 64.9934 58.5586 64.7961 58.5586 64.5442V62.6399H58.1016V62.4026L58.5615 62.2122L58.7549 61.5149H59.0479V62.259H59.9883V62.6399H59.0479V64.5295C59.0479 64.7307 59.0938 64.8811 59.1855 64.9807C59.2793 65.0803 59.4033 65.1301 59.5576 65.1301ZM61.2955 62.2004C61.5689 62.2004 61.8033 62.261 61.9986 62.3821C62.1939 62.5032 62.3434 62.6731 62.4469 62.8918C62.5504 63.1086 62.6021 63.3625 62.6021 63.6536V63.9553H60.3844C60.3902 64.3323 60.484 64.6194 60.6656 64.8167C60.8473 65.0139 61.1031 65.1125 61.4332 65.1125C61.6363 65.1125 61.816 65.094 61.9723 65.0569C62.1285 65.0198 62.2906 64.9651 62.4586 64.8928V65.3206C62.2965 65.3928 62.1353 65.4456 61.9752 65.4788C61.817 65.512 61.6295 65.5286 61.4127 65.5286C61.1041 65.5286 60.8346 65.4661 60.6041 65.3411C60.3756 65.2141 60.1978 65.0286 60.0709 64.7844C59.9439 64.5403 59.8805 64.2415 59.8805 63.8879C59.8805 63.5422 59.9381 63.2434 60.0533 62.9915C60.1705 62.7375 60.3346 62.5422 60.5455 62.4055C60.7584 62.2688 61.0084 62.2004 61.2955 62.2004ZM61.2896 62.5989C61.0299 62.5989 60.8228 62.6838 60.6686 62.8538C60.5143 63.0237 60.4225 63.261 60.3932 63.5657H62.0924C62.0904 63.3743 62.0602 63.2063 62.0016 63.0618C61.9449 62.9153 61.858 62.802 61.7408 62.7219C61.6236 62.6399 61.4732 62.5989 61.2896 62.5989ZM64.2873 62.2004C64.3518 62.2004 64.4191 62.2043 64.4895 62.2122C64.5598 62.218 64.6223 62.2268 64.677 62.2385L64.6154 62.6897C64.5627 62.676 64.5041 62.6653 64.4396 62.6575C64.3752 62.6497 64.3146 62.6458 64.258 62.6458C64.1291 62.6458 64.007 62.6721 63.8918 62.7249C63.7785 62.7756 63.6789 62.8499 63.593 62.9475C63.507 63.0432 63.4396 63.1594 63.3908 63.2961C63.342 63.4309 63.3176 63.5813 63.3176 63.7473V65.47H62.8283V62.259H63.2326L63.2854 62.8508H63.3059C63.3723 62.7317 63.4523 62.6233 63.5461 62.5256C63.6398 62.426 63.7482 62.3469 63.8713 62.2883C63.9963 62.2297 64.135 62.2004 64.2873 62.2004ZM66.2039 62.2004C66.5848 62.2004 66.8729 62.2942 67.0682 62.4817C67.2635 62.6672 67.3611 62.9661 67.3611 63.3782V65.47H66.8807V63.4104C66.8807 63.1428 66.8191 62.9426 66.6961 62.8098C66.575 62.677 66.3885 62.6106 66.1365 62.6106C65.7811 62.6106 65.5311 62.7112 65.3865 62.9124C65.242 63.1135 65.1697 63.4055 65.1697 63.7883V65.47H64.6834V62.259H65.076L65.1492 62.7219H65.1756C65.2439 62.6086 65.3309 62.5139 65.4363 62.4377C65.5418 62.3596 65.66 62.301 65.7908 62.262C65.9217 62.2209 66.0594 62.2004 66.2039 62.2004Z" fill="white"/>
<path d="M19.2854 84.3145L16.8296 91.8101H14.4456L12 84.3145H14.2764L15.2966 88.1135C15.3342 88.2571 15.377 88.4417 15.4248 88.6672C15.4761 88.8894 15.5222 89.1116 15.5632 89.3337C15.6077 89.5559 15.635 89.7371 15.6453 89.8772C15.6589 89.7371 15.6846 89.5576 15.7222 89.3389C15.7598 89.1201 15.8008 88.9014 15.8452 88.6826C15.8931 88.4604 15.9375 88.2776 15.9785 88.134L17.0193 84.3145H19.2854ZM22.5974 85.8987C23.1614 85.8987 23.6484 85.9978 24.0586 86.196C24.4688 86.3909 24.7849 86.6848 25.0071 87.0779C25.2292 87.4709 25.3403 87.9631 25.3403 88.5544V89.4465H21.7566C21.7737 89.7507 21.8865 90.0002 22.095 90.1951C22.3069 90.3899 22.6179 90.4873 23.0281 90.4873C23.3904 90.4873 23.7219 90.4514 24.0227 90.3796C24.3269 90.3079 24.6396 90.1968 24.9609 90.0464V91.4871C24.6807 91.634 24.3748 91.7417 24.0432 91.8101C23.7117 91.8784 23.293 91.9126 22.7871 91.9126C22.2026 91.9126 21.6797 91.8083 21.2183 91.5999C20.7568 91.3914 20.3928 91.0684 20.1262 90.6309C19.863 90.1934 19.7314 89.6311 19.7314 88.9441C19.7314 88.2468 19.8511 87.6743 20.0903 87.2266C20.3296 86.7754 20.6646 86.4421 21.0952 86.2268C21.5259 86.0081 22.0266 85.8987 22.5974 85.8987ZM22.6692 87.2625C22.4333 87.2625 22.2351 87.3376 22.0745 87.488C21.9172 87.635 21.825 87.8674 21.7976 88.1853H23.5203C23.5168 88.0144 23.4827 87.8589 23.4177 87.7188C23.3528 87.5786 23.2571 87.4675 23.1306 87.3855C23.0076 87.3035 22.8538 87.2625 22.6692 87.2625ZM29.9802 85.8987C30.0896 85.8987 30.2041 85.9072 30.3237 85.9243C30.4434 85.938 30.5322 85.95 30.5903 85.9602L30.4109 87.8521C30.3459 87.835 30.2622 87.8213 30.1597 87.811C30.0571 87.7974 29.9136 87.7905 29.729 87.7905C29.6025 87.7905 29.4675 87.8025 29.324 87.8264C29.1804 87.8503 29.0437 87.9016 28.9138 87.9802C28.7874 88.0554 28.6831 88.1716 28.6011 88.3289C28.519 88.4827 28.478 88.6912 28.478 88.9543V91.8101H26.4734V86.0012H27.9653L28.2781 86.9292H28.3755C28.4814 86.7378 28.6165 86.5652 28.7805 86.4114C28.948 86.2542 29.1343 86.1294 29.3394 86.0371C29.5479 85.9448 29.7615 85.8987 29.9802 85.8987ZM33.4204 86.0012V91.8101H31.4158V86.0012H33.4204ZM32.4258 83.6633C32.7129 83.6633 32.9624 83.7231 33.1743 83.8428C33.3896 83.9624 33.4973 84.2 33.4973 84.5554C33.4973 84.9006 33.3896 85.1348 33.1743 85.2578C32.9624 85.3774 32.7129 85.4373 32.4258 85.4373C32.1318 85.4373 31.8806 85.3774 31.6721 85.2578C31.467 85.1348 31.3645 84.9006 31.3645 84.5554C31.3645 84.2 31.467 83.9624 31.6721 83.8428C31.8806 83.7231 32.1318 83.6633 32.4258 83.6633ZM38.3679 87.5034H37.1323V91.8101H35.1277V87.5034H34.3586V86.519L35.1687 86.0269V85.9294C35.1687 85.427 35.2354 85.0186 35.3687 84.7041C35.502 84.3862 35.7139 84.1521 36.0044 84.0017C36.2949 83.8513 36.6743 83.7761 37.1426 83.7761C37.4434 83.7761 37.7151 83.8 37.9578 83.8479C38.2039 83.8958 38.4602 83.9641 38.7268 84.053L38.2961 85.3501C38.197 85.3228 38.0859 85.2988 37.9629 85.2783C37.8433 85.2578 37.7134 85.2476 37.5732 85.2476C37.4194 85.2476 37.3066 85.2954 37.2349 85.3911C37.1665 85.4834 37.1323 85.6355 37.1323 85.8474V86.0012H38.3679V87.5034ZM41.1724 86.0012V91.8101H39.1677V86.0012H41.1724ZM40.1777 83.6633C40.4648 83.6633 40.7144 83.7231 40.9263 83.8428C41.1416 83.9624 41.2493 84.2 41.2493 84.5554C41.2493 84.9006 41.1416 85.1348 40.9263 85.2578C40.7144 85.3774 40.4648 85.4373 40.1777 85.4373C39.8838 85.4373 39.6326 85.3774 39.4241 85.2578C39.219 85.1348 39.1165 84.9006 39.1165 84.5554C39.1165 84.2 39.219 83.9624 39.4241 83.8428C39.6326 83.7231 39.8838 83.6633 40.1777 83.6633ZM45.1868 85.8987C45.7507 85.8987 46.2378 85.9978 46.6479 86.196C47.0581 86.3909 47.3743 86.6848 47.5964 87.0779C47.8186 87.4709 47.9297 87.9631 47.9297 88.5544V89.4465H44.3459C44.363 89.7507 44.4758 90.0002 44.6843 90.1951C44.8962 90.3899 45.2073 90.4873 45.6174 90.4873C45.9797 90.4873 46.3113 90.4514 46.6121 90.3796C46.9163 90.3079 47.229 90.1968 47.5503 90.0464V91.4871C47.27 91.634 46.9641 91.7417 46.6326 91.8101C46.301 91.8784 45.8823 91.9126 45.3765 91.9126C44.792 91.9126 44.269 91.8083 43.8076 91.5999C43.3462 91.3914 42.9822 91.0684 42.7156 90.6309C42.4524 90.1934 42.3208 89.6311 42.3208 88.9441C42.3208 88.2468 42.4404 87.6743 42.6797 87.2266C42.9189 86.7754 43.2539 86.4421 43.6846 86.2268C44.1152 86.0081 44.616 85.8987 45.1868 85.8987ZM45.2585 87.2625C45.0227 87.2625 44.8245 87.3376 44.6638 87.488C44.5066 87.635 44.4143 87.8674 44.387 88.1853H46.1096C46.1062 88.0144 46.072 87.8589 46.0071 87.7188C45.9421 87.5786 45.8464 87.4675 45.72 87.3855C45.5969 87.3035 45.4431 87.2625 45.2585 87.2625ZM50.8674 91.9126C50.2693 91.9126 49.7771 91.658 49.3909 91.1487C49.0046 90.6394 48.8115 89.8943 48.8115 88.9133C48.8115 87.9221 49.0098 87.1719 49.4062 86.6626C49.8027 86.1533 50.3154 85.8987 50.9443 85.8987C51.2041 85.8987 51.428 85.9363 51.616 86.0115C51.804 86.0867 51.9663 86.1892 52.103 86.3191C52.2432 86.4456 52.3645 86.5891 52.467 86.7498H52.5081C52.4841 86.6028 52.4619 86.4011 52.4414 86.1448C52.4209 85.885 52.4106 85.6321 52.4106 85.386V83.8325H54.4307V91.8101H52.9182L52.4875 91.0769H52.4106C52.3184 91.2307 52.2021 91.3708 52.062 91.4973C51.9253 91.6238 51.7578 91.7246 51.5596 91.7998C51.3647 91.875 51.134 91.9126 50.8674 91.9126ZM51.6877 90.3284C52.009 90.3284 52.2346 90.2275 52.3645 90.0259C52.4978 89.8208 52.5696 89.5098 52.5798 89.0928V88.9338C52.5798 88.4758 52.5149 88.1255 52.385 87.8828C52.2585 87.6367 52.0193 87.5137 51.6672 87.5137C51.428 87.5137 51.2297 87.6299 51.0725 87.8623C50.9153 88.0947 50.8367 88.4553 50.8367 88.9441C50.8367 89.426 50.9153 89.7781 51.0725 90.0002C51.2332 90.219 51.4382 90.3284 51.6877 90.3284Z" fill="white"/>
<rect width="25.5018" height="18" transform="translate(83.498 49)" fill="#A9C5EF"/>
<path d="M88.7336 56.1891C89.2519 56.1891 89.6789 56.2516 90.0149 56.3766C90.3534 56.5016 90.6047 56.6904 90.7688 56.943C90.9328 57.1956 91.0149 57.5146 91.0149 57.9C91.0149 58.1604 90.9654 58.3883 90.8664 58.5836C90.7675 58.7789 90.6373 58.9443 90.4758 59.0797C90.3144 59.2151 90.1399 59.3258 89.9524 59.4117L91.6321 61.9H90.2883L88.925 59.7086H88.2805V61.9H87.0696V56.1891H88.7336ZM88.6477 57.1813H88.2805V58.7242H88.6711C89.0722 58.7242 89.3586 58.6578 89.5305 58.525C89.705 58.3896 89.7922 58.1917 89.7922 57.9313C89.7922 57.6604 89.6985 57.4677 89.511 57.3531C89.3261 57.2386 89.0383 57.1813 88.6477 57.1813ZM97.5344 59.0367C97.5344 59.4768 97.4797 59.8779 97.3703 60.2399C97.261 60.5992 97.0943 60.9091 96.8703 61.1696C96.649 61.43 96.3677 61.6305 96.0266 61.7711C95.6854 61.9091 95.2818 61.9781 94.8157 61.9781C94.3495 61.9781 93.9459 61.9091 93.6047 61.7711C93.2636 61.6305 92.981 61.43 92.7571 61.1696C92.5357 60.9091 92.3703 60.5979 92.261 60.236C92.1516 59.874 92.0969 59.4716 92.0969 59.0289C92.0969 58.4378 92.1933 57.9235 92.386 57.486C92.5813 57.0459 92.8808 56.7047 93.2844 56.4625C93.6881 56.2203 94.2011 56.0992 94.8235 56.0992C95.4433 56.0992 95.9524 56.2203 96.3508 56.4625C96.7519 56.7047 97.0487 57.0459 97.2414 57.486C97.4368 57.9261 97.5344 58.443 97.5344 59.0367ZM93.3664 59.0367C93.3664 59.4352 93.4159 59.7789 93.5149 60.068C93.6164 60.3545 93.774 60.5758 93.9875 60.7321C94.2011 60.8857 94.4771 60.9625 94.8157 60.9625C95.1594 60.9625 95.4381 60.8857 95.6516 60.7321C95.8651 60.5758 96.0201 60.3545 96.1164 60.068C96.2154 59.7789 96.2649 59.4352 96.2649 59.0367C96.2649 58.4378 96.1529 57.9664 95.9289 57.6227C95.705 57.2789 95.3365 57.1071 94.8235 57.1071C94.4823 57.1071 94.2037 57.1852 93.9875 57.3414C93.774 57.4951 93.6164 57.7164 93.5149 58.0055C93.4159 58.292 93.3664 58.6357 93.3664 59.0367ZM98.718 61.9V56.1891H99.9289V60.9H102.245V61.9H98.718ZM106.531 61.9H103.241V56.1891H106.531V57.1813H104.452V58.4352H106.386V59.4274H104.452V60.9H106.531V61.9Z" fill="#00317A"/>
<mask id="path-8-inside-1_505_83" fill="white">
<path d="M74.498 49H83.498V67H74.498V49Z"/>
</mask>
<path d="M74.498 49V40H65.498V49H74.498ZM74.498 67H65.498V76H74.498V67ZM74.498 58H83.498V40H74.498V58ZM83.498 58H74.498V76H83.498V58ZM83.498 67V49H65.498V67H83.498Z" fill="url(#paint0_diamond_505_83)" mask="url(#path-8-inside-1_505_83)"/>
<defs>
<radialGradient id="paint0_diamond_505_83" cx="0" cy="0" r="1" gradientUnits="userSpaceOnUse" gradientTransform="translate(74.498 58) scale(9)">
<stop offset="1" stop-opacity="0"/>
<stop offset="1" stop-color="#A9C5EF"/>
</radialGradient>
<clipPath id="clip0_505_83">
<rect width="17.2466" height="26.1481" fill="white" transform="translate(10.5938 8.60425)"/>
</clipPath>
<clipPath id="clip1_505_83">
<rect width="27.25" height="38.5" fill="white" transform="translate(81.75)"/>
</clipPath>
</defs>
</svg>
