<svg width="196" height="196" viewBox="0 0 196 196" fill="none" xmlns="http://www.w3.org/2000/svg">
<path d="M18.2016 185.904C17.6845 185.461 16.5309 184.055 17.4203 182.421C17.7465 181.822 18.4391 181.525 19.0663 181.262C19.6931 180.997 20.3521 180.768 20.8711 180.327C21.8495 179.494 22.1196 178.111 22.7688 177.001C23.5143 175.726 24.9059 174.771 26.3763 174.838C28.06 174.914 29.4645 176.289 30.1007 177.857C30.7373 179.425 30.7597 181.166 30.7726 182.86C30.7801 183.796 30.7385 184.852 30.0509 185.484C29.4171 186.067 28.463 186.074 27.6041 186.048C24.5371 185.953 21.4697 185.859 18.4027 185.765" fill="#F5F5F5"/>
<path d="M35.8001 160.601H11.6016L15.9606 186.593C16.1511 187.728 16.9724 188.603 18.0264 188.907C18.0543 188.916 18.0829 188.922 18.1111 188.93C18.1832 188.949 18.2526 188.973 18.3267 188.986C18.4863 189.019 18.6513 189.036 18.8187 189.042C18.8198 189.051 18.8214 189.059 18.8226 189.067L18.9406 189.049H18.9414H29.7261C29.9291 189.049 30.1271 189.028 30.3188 188.989C31.5924 188.792 32.612 187.77 32.7668 186.449L34.8683 168.54L34.9632 167.829H34.9518L35.784 160.736L35.8001 160.601ZM31.2353 177.181H28.752L29.0024 169.638H31.8797L31.2353 177.181ZM32.1208 169.638H34.4983L33.6131 177.181H31.4764L32.1208 169.638ZM25.026 185.543L24.8751 178.99H28.4513L28.2337 185.543H25.026ZM21.1601 178.99H24.6348L24.7857 185.543H21.6693L21.1601 178.99ZM21.4286 185.543H18.5153C18.2385 183.773 17.8783 181.474 17.4882 178.99H20.9194L21.4286 185.543ZM21.0194 177.181L20.4333 169.638H24.4196L24.5932 177.181H21.0194ZM24.8335 177.181L24.6599 169.638H28.7621L28.5117 177.181H24.8335ZM24.6179 167.829L24.4572 160.843H29.0542L28.8221 167.829H24.6179ZM24.3776 167.829H20.2926L19.7497 160.843H24.2169L24.3776 167.829ZM20.0515 167.829H15.7293C15.5764 166.864 15.431 165.95 15.3001 165.129C14.8493 162.304 14.6795 161.243 14.5855 160.843H19.5086L20.0515 167.829ZM20.1922 169.638L20.7783 177.181H17.2036C17.0833 176.415 16.9618 175.641 16.8399 174.866C16.5596 173.086 16.2789 171.306 16.0155 169.638H20.1922ZM16.961 177.181H14.6258L13.3605 169.638H15.7724C16.1409 171.969 16.5498 174.563 16.961 177.181ZM17.2448 178.99C17.6007 181.258 17.9512 183.494 18.2718 185.543H16.0284L14.9292 178.99H17.2448ZM28.474 185.543L28.6916 178.99H31.0804L30.5207 185.543H28.474ZM29.0624 167.829L29.2945 160.843H32.6312L32.0346 167.829H29.0624ZM14.3569 160.843C14.453 161.348 14.8944 164.097 15.4863 167.829H13.0571L11.8854 160.843H14.3569ZM32.632 185.543H30.7617L31.3215 178.99H33.4007L32.632 185.543ZM34.7104 167.829H32.2752L32.8723 160.843H35.5304L34.7104 167.829Z" fill="#E0E0E0"/>
<path d="M182.91 49.9604H150.295V79.1397H182.91V49.9604Z" fill="#FAFAFA"/>
<path d="M182.909 79.1397C182.909 79.1397 182.904 78.9527 182.901 78.5979C182.899 78.24 182.896 77.7163 182.892 77.0346C182.888 75.6646 182.881 73.6623 182.873 71.1115C182.864 66.0132 182.851 58.7282 182.835 49.9604L182.909 50.0341C173.517 50.038 162.307 50.0423 150.297 50.0474H150.294L150.381 49.9604C150.378 60.5761 150.374 70.5655 150.371 79.1397L150.294 79.0628C160.024 79.0789 168.167 79.0922 173.883 79.1017C176.743 79.1103 178.995 79.1173 180.537 79.122C181.305 79.126 181.895 79.1291 182.298 79.1311C182.495 79.133 182.646 79.1346 182.752 79.1354C182.855 79.1365 182.909 79.1397 182.909 79.1397C182.909 79.1397 182.861 79.1424 182.761 79.144C182.657 79.1452 182.509 79.1463 182.316 79.1483C181.916 79.1503 181.331 79.1534 180.569 79.1573C179.032 79.162 176.786 79.1691 173.933 79.1777C168.205 79.1871 160.044 79.2004 150.294 79.2165H150.218V79.1397C150.214 70.5659 150.211 60.5761 150.207 49.9604V49.8734H150.294H150.297C162.307 49.8781 173.516 49.8828 182.909 49.8867H182.983V49.9608C182.967 58.7478 182.954 66.0492 182.945 71.1586C182.937 73.7019 182.93 75.6991 182.926 77.0648C182.922 77.7406 182.919 78.2593 182.917 78.614C182.915 78.9633 182.909 79.1397 182.909 79.1397Z" fill="#E0E0E0"/>
<path d="M162.801 55.1449C162.801 55.1932 161.084 55.232 158.967 55.232C156.849 55.232 155.133 55.1928 155.133 55.1449C155.133 55.0967 156.849 55.0579 158.967 55.0579C161.084 55.0575 162.801 55.0967 162.801 55.1449Z" fill="#E0E0E0"/>
<path d="M176.619 57.3359C176.619 57.3841 171.903 57.4229 166.087 57.4229C160.268 57.4229 155.553 57.3841 155.553 57.3359C155.553 57.2877 160.268 57.2488 166.087 57.2488C171.903 57.2485 176.619 57.2877 176.619 57.3359Z" fill="#E0E0E0"/>
<path d="M156.561 61.0469H155.188V62.4209H156.561V61.0469Z" fill="#E0E0E0"/>
<path d="M159.944 61.0469H158.57V62.4209H159.944V61.0469Z" fill="#E0E0E0"/>
<path d="M163.39 60.9846H162.016V62.3586H163.39V60.9846Z" fill="#E0E0E0"/>
<path d="M166.708 61.0469H165.334V62.4209H166.708V61.0469Z" fill="#E0E0E0"/>
<path d="M170.091 61.0469H168.717V62.4209H170.091V61.0469Z" fill="#E0E0E0"/>
<path d="M173.474 61.0469H172.1V62.4209H173.474V61.0469Z" fill="#E0E0E0"/>
<path d="M176.856 61.0469H175.482V62.4209H176.856V61.0469Z" fill="#EBEBEB"/>
<path d="M156.561 63.9681H155.188V65.342H156.561V63.9681Z" fill="#EBEBEB"/>
<path d="M159.944 63.9681H158.57V65.342H159.944V63.9681Z" fill="#E0E0E0"/>
<path d="M163.327 63.9681H161.953V65.342H163.327V63.9681Z" fill="#EBEBEB"/>
<path d="M166.708 63.9681H165.334V65.342H166.708V63.9681Z" fill="#E0E0E0"/>
<path d="M170.091 63.9681H168.717V65.342H170.091V63.9681Z" fill="#E0E0E0"/>
<path d="M173.536 63.9058H172.162V65.2797H173.536V63.9058Z" fill="#E0E0E0"/>
<path d="M176.856 63.9681H175.482V65.342H176.856V63.9681Z" fill="#E0E0E0"/>
<path d="M156.561 66.8893H155.188V68.2632H156.561V66.8893Z" fill="#E0E0E0"/>
<path d="M160.007 66.827H158.633V68.2009H160.007V66.827Z" fill="#E0E0E0"/>
<path d="M163.327 66.8893H161.953V68.2632H163.327V66.8893Z" fill="#E0E0E0"/>
<path d="M166.708 66.8893H165.334V68.2632H166.708V66.8893Z" fill="#EBEBEB"/>
<path d="M170.091 66.8893H168.717V68.2632H170.091V66.8893Z" fill="#E0E0E0"/>
<path d="M173.474 66.8893H172.1V68.2632H173.474V66.8893Z" fill="#E0E0E0"/>
<path d="M176.856 66.8893H175.482V68.2632H176.856V66.8893Z" fill="#E0E0E0"/>
<path d="M156.561 69.8105H155.188V71.1844H156.561V69.8105Z" fill="#E0E0E0"/>
<path d="M159.944 69.8105H158.57V71.1844H159.944V69.8105Z" fill="#E0E0E0"/>
<path d="M163.327 69.8105H161.953V71.1844H163.327V69.8105Z" fill="#E0E0E0"/>
<path d="M166.77 69.7482H165.396V71.1221H166.77V69.7482Z" fill="#E0E0E0"/>
<path d="M170.091 69.8105H168.717V71.1844H170.091V69.8105Z" fill="#E0E0E0"/>
<path d="M173.474 69.8105H172.1V71.1844H173.474V69.8105Z" fill="#EBEBEB"/>
<path d="M176.856 69.8105H175.482V71.1844H176.856V69.8105Z" fill="#E0E0E0"/>
<path d="M156.561 72.7316H155.188V74.1056H156.561V72.7316Z" fill="#E0E0E0"/>
<path d="M159.944 72.7316H158.57V74.1056H159.944V72.7316Z" fill="#EBEBEB"/>
<path d="M163.327 72.7316H161.953V74.1056H163.327V72.7316Z" fill="#E0E0E0"/>
<path d="M166.708 72.7316H165.334V74.1056H166.708V72.7316Z" fill="#E0E0E0"/>
<path d="M170.091 72.7316H168.717V74.1056H170.091V72.7316Z" fill="#E0E0E0"/>
<path d="M173.536 72.6693H172.162V74.0433H173.536V72.6693Z" fill="#E0E0E0"/>
<path d="M176.856 72.7316H175.482V74.1056H176.856V72.7316Z" fill="#E0E0E0"/>
<path d="M176.621 31.0906C177.663 24.6098 173.253 18.5116 166.773 17.4698C160.292 16.4281 154.194 20.8373 153.152 27.3181C152.11 33.7989 156.519 39.8971 163 40.9388C169.481 41.9806 175.579 37.5713 176.621 31.0906Z" fill="#E0E0E0"/>
<path d="M165.008 39.8354C170.948 39.8354 175.764 35.0198 175.764 29.0793C175.764 23.1389 170.948 18.3232 165.008 18.3232C159.068 18.3232 154.252 23.1389 154.252 29.0793C154.252 35.0198 159.068 39.8354 165.008 39.8354Z" fill="white"/>
<path d="M154.143 28.4341C154.143 28.4341 154.147 28.4937 154.147 28.6097C154.147 28.7293 154.146 28.9006 154.145 29.1244C154.144 29.2377 154.143 29.3643 154.142 29.5035C154.148 29.6427 154.167 29.7944 154.181 29.959C154.196 30.1236 154.212 30.3008 154.229 30.4902C154.239 30.6807 154.297 30.8767 154.331 31.0884C154.466 31.9351 154.791 32.9468 155.338 34.0327C155.889 35.1142 156.713 36.2608 157.872 37.2639C158.018 37.3882 158.165 37.5136 158.314 37.641C158.471 37.7586 158.636 37.8684 158.799 37.9844C158.966 38.0946 159.123 38.2255 159.304 38.3219C159.482 38.4223 159.662 38.5238 159.844 38.6261C159.936 38.6771 160.027 38.728 160.12 38.7794C160.216 38.8217 160.313 38.8645 160.41 38.9076C160.605 38.9934 160.802 39.0801 161.001 39.1679C161.202 39.2494 161.414 39.307 161.623 39.3788C161.835 39.4415 162.041 39.5313 162.263 39.5689C162.704 39.661 163.147 39.7821 163.612 39.8155C163.843 39.8386 164.075 39.8766 164.31 39.8884C164.546 39.8915 164.784 39.895 165.024 39.8982C165.143 39.8978 165.264 39.9064 165.384 39.8986C165.504 39.888 165.625 39.8774 165.746 39.8668C165.988 39.8429 166.233 39.8307 166.476 39.797C166.959 39.699 167.456 39.6351 167.936 39.4709L168.301 39.3635C168.362 39.3451 168.424 39.329 168.484 39.3082L168.661 39.2365C168.898 39.1408 169.137 39.044 169.377 38.9472C169.612 38.839 169.839 38.71 170.072 38.5916C170.186 38.5285 170.308 38.476 170.418 38.4039L170.749 38.1879C171.206 37.917 171.612 37.5673 172.036 37.2326C172.23 37.0452 172.425 36.8566 172.621 36.6673L172.768 36.525L172.902 36.3698L173.169 36.057L173.438 35.743L173.677 35.4039L173.916 35.0625L174.036 34.8912C174.073 34.832 174.106 34.77 174.141 34.7093C174.278 34.4658 174.416 34.2212 174.555 33.9758C174.669 33.7179 174.783 33.4596 174.898 33.1997C175.319 32.1448 175.583 31.0127 175.675 29.8485C175.736 28.6823 175.623 27.5247 175.344 26.4236C175.264 26.1511 175.184 25.8795 175.105 25.609C174.999 25.3475 174.894 25.0868 174.79 24.8277L174.711 24.6337L174.614 24.4483L174.421 24.0782L174.228 23.7105L174.003 23.364L173.779 23.0186L173.666 22.8473L173.539 22.687C173.369 22.4738 173.201 22.2613 173.032 22.05C172.656 21.6627 172.299 21.2629 171.882 20.9344L171.581 20.6768C171.482 20.5906 171.368 20.5228 171.263 20.4452C171.047 20.2974 170.839 20.1398 170.62 20.0018C170.395 19.8744 170.171 19.7474 169.949 19.6212L169.782 19.5267C169.725 19.4985 169.665 19.4746 169.608 19.4479L169.26 19.2939C168.806 19.0681 168.321 18.9399 167.855 18.7796C167.618 18.7141 167.377 18.6702 167.14 18.6149C167.021 18.5887 166.903 18.5624 166.785 18.5361C166.667 18.5126 166.547 18.5056 166.428 18.4895C166.19 18.4616 165.954 18.4338 165.719 18.406C165.484 18.3872 165.249 18.3942 165.017 18.3872C164.551 18.3593 164.096 18.4217 163.648 18.4554C163.422 18.4636 163.206 18.5255 162.988 18.56C162.771 18.6039 162.553 18.6333 162.343 18.6882C162.135 18.749 161.929 18.8093 161.724 18.8689C161.622 18.8987 161.52 18.9285 161.419 18.9579C161.321 18.9967 161.223 19.0355 161.126 19.074C160.932 19.152 160.74 19.2288 160.55 19.3052C160.359 19.3778 160.186 19.4867 160.006 19.5741C159.829 19.6678 159.651 19.7545 159.481 19.8509C159.316 19.9575 159.154 20.0626 158.993 20.1668C157.713 21.01 156.746 22.039 156.058 23.0394C155.374 24.0441 154.919 25.0049 154.675 25.8265C154.613 26.0316 154.53 26.2185 154.496 26.4063C154.454 26.5917 154.415 26.765 154.378 26.9265C154.343 27.088 154.304 27.2358 154.281 27.373C154.263 27.511 154.248 27.6364 154.234 27.7489C154.205 27.9708 154.184 28.1405 154.169 28.2593C154.154 28.3753 154.143 28.4341 154.143 28.4341C154.143 28.4341 154.146 28.3749 154.158 28.2593C154.17 28.1401 154.188 27.9696 154.211 27.7466C154.223 27.6337 154.237 27.5074 154.252 27.3687C154.274 27.2307 154.311 27.0821 154.345 26.9198C154.379 26.7575 154.417 26.5831 154.457 26.3965C154.49 26.208 154.571 26.0194 154.632 25.8132C154.871 24.9857 155.321 24.0171 156.004 23.0022C156.691 21.992 157.66 20.9516 158.947 20.0971C159.109 19.9916 159.272 19.885 159.437 19.7772C159.609 19.6792 159.788 19.591 159.967 19.4961C160.148 19.4075 160.321 19.297 160.515 19.2233C160.706 19.1457 160.899 19.0673 161.094 18.9885C161.192 18.9493 161.29 18.9101 161.389 18.8705C161.491 18.8403 161.594 18.8101 161.697 18.7796C161.903 18.7188 162.111 18.6576 162.321 18.5957C162.533 18.54 162.753 18.5095 162.971 18.4648C163.191 18.4291 163.41 18.3664 163.637 18.3574C164.09 18.3221 164.549 18.2582 165.019 18.2852C165.254 18.2919 165.491 18.2841 165.728 18.3029C165.965 18.3303 166.204 18.3578 166.444 18.3856C166.564 18.4017 166.686 18.4087 166.805 18.4322C166.924 18.4585 167.043 18.4844 167.163 18.511C167.402 18.5663 167.646 18.6106 167.886 18.6765C168.357 18.8372 168.847 18.9665 169.306 19.1935L169.658 19.3487C169.716 19.3754 169.776 19.3993 169.834 19.4279L170.002 19.5232C170.227 19.6502 170.454 19.778 170.682 19.9066C170.903 20.0457 171.114 20.2045 171.332 20.3538C171.439 20.4322 171.553 20.5004 171.654 20.5875L171.958 20.8474C172.38 21.179 172.741 21.5824 173.122 21.974C173.292 22.1876 173.463 22.402 173.634 22.6176L173.763 22.7795L173.878 22.9528L174.105 23.3017L174.332 23.6521L174.528 24.0237L174.723 24.3977L174.82 24.5851L174.901 24.7811C175.006 25.0433 175.113 25.3068 175.219 25.571C175.3 25.8446 175.38 26.119 175.462 26.3946C175.745 27.5078 175.859 28.6787 175.797 29.8579C175.704 31.0347 175.437 32.1797 175.011 33.2463C174.894 33.509 174.778 33.7704 174.663 34.0307C174.523 34.2788 174.383 34.5258 174.244 34.772C174.209 34.8331 174.175 34.8955 174.139 34.9554L174.017 35.1287L173.775 35.4737L173.533 35.8163L173.261 36.1338L172.99 36.4497L172.855 36.6065L172.706 36.75C172.507 36.9413 172.31 37.1314 172.114 37.3208C171.686 37.6591 171.274 38.0115 170.813 38.2851L170.477 38.503C170.366 38.576 170.244 38.6289 170.128 38.6924C169.892 38.8119 169.662 38.9417 169.425 39.0507C169.182 39.1483 168.941 39.2455 168.701 39.3419L168.522 39.414C168.461 39.4348 168.398 39.4509 168.337 39.4697L167.968 39.5775C167.483 39.7425 166.98 39.8068 166.493 39.9044C166.246 39.9381 165.999 39.9503 165.755 39.9738C165.633 39.9844 165.511 39.9946 165.39 40.0048C165.268 40.0126 165.147 40.0036 165.025 40.004C164.784 40.0001 164.544 39.9962 164.305 39.9922C164.068 39.9797 163.833 39.9413 163.6 39.917C163.13 39.8821 162.684 39.7594 162.24 39.6649C162.015 39.6261 161.807 39.5356 161.594 39.4717C161.383 39.3988 161.169 39.3396 160.967 39.2569C160.766 39.1679 160.568 39.0801 160.372 38.9926C160.273 38.9491 160.176 38.9056 160.078 38.8625C159.985 38.8104 159.893 38.7586 159.801 38.7073C159.618 38.6034 159.437 38.5007 159.257 38.3988C159.075 38.3008 158.918 38.1683 158.749 38.0565C158.585 37.9389 158.419 37.828 158.261 37.7088C158.112 37.5803 157.964 37.4529 157.817 37.3274C156.652 36.3121 155.828 35.1538 155.278 34.0625C154.734 32.9672 154.414 31.948 154.286 31.0962C154.252 30.8837 154.197 30.6862 154.189 30.4949C154.174 30.3047 154.159 30.1268 154.146 29.9614C154.134 29.7959 154.116 29.6438 154.113 29.5043C154.116 29.3647 154.119 29.2381 154.122 29.1244C154.128 28.9006 154.132 28.7289 154.136 28.6094C154.139 28.4933 154.143 28.4341 154.143 28.4341Z" fill="#EBEBEB"/>
<path d="M169.908 29.3741C169.908 29.3831 169.773 29.3918 169.526 29.3992C169.255 29.4047 168.902 29.4118 168.474 29.4204C167.582 29.4325 166.338 29.4412 164.935 29.4435H164.866V29.3741C164.866 29.1495 164.865 28.9127 164.865 28.6724C164.865 27.1048 164.873 25.6862 164.886 24.6591C164.895 24.1641 164.902 23.7544 164.908 23.4432C164.916 23.1558 164.926 22.9971 164.935 22.9971C164.945 22.9971 164.954 23.1558 164.962 23.4432C164.968 23.7544 164.976 24.1641 164.985 24.6591C164.997 25.6862 165.006 27.1048 165.006 28.6724C165.005 28.9127 165.005 29.1495 165.005 29.3741L164.936 29.3047C166.339 29.3071 167.583 29.3153 168.475 29.3279C168.903 29.3365 169.256 29.3436 169.527 29.349C169.772 29.3569 169.908 29.3651 169.908 29.3741Z" fill="#E0E0E0"/>
<path d="M164.968 19.9987C165.007 19.9987 165.038 20.4056 165.038 20.9073C165.038 21.4095 165.007 21.8164 164.968 21.8164C164.93 21.8164 164.898 21.4095 164.898 20.9073C164.898 20.4056 164.93 19.9987 164.968 19.9987Z" fill="#E0E0E0"/>
<path d="M169.898 21.4585C169.925 21.4859 169.664 21.7917 169.314 22.1413C168.964 22.4914 168.658 22.7525 168.631 22.7254C168.603 22.698 168.865 22.3922 169.215 22.0425C169.565 21.6925 169.87 21.431 169.898 21.4585Z" fill="#E0E0E0"/>
<path d="M172.782 24.6074C172.8 24.6427 172.457 24.8493 172.036 25.1049C171.616 25.3601 171.274 25.5694 171.251 25.5376C171.229 25.5071 171.537 25.2436 171.963 24.9853C172.39 24.7262 172.765 24.5737 172.782 24.6074Z" fill="#E0E0E0"/>
<path d="M174.471 29.2804C174.471 29.3192 173.916 29.3506 173.232 29.3506C172.547 29.3506 171.992 29.3192 171.992 29.2804C171.992 29.2416 172.547 29.2103 173.232 29.2103C173.916 29.2103 174.471 29.2416 174.471 29.2804Z" fill="#E0E0E0"/>
<path d="M157.284 29.115C157.284 29.1534 156.76 29.1852 156.114 29.1852C155.467 29.1852 154.943 29.1538 154.943 29.115C154.943 29.0762 155.467 29.0449 156.114 29.0449C156.76 29.0449 157.284 29.0762 157.284 29.115Z" fill="#E0E0E0"/>
<path d="M158.5 32.594C158.526 32.623 158.13 32.9825 157.616 33.3964C157.102 33.8104 156.666 34.1208 156.644 34.0899C156.62 34.0589 157.016 33.6998 157.528 33.2874C158.039 32.875 158.475 32.565 158.5 32.594Z" fill="#E0E0E0"/>
<path d="M161.499 35.2843C161.531 35.3078 161.237 35.7594 160.896 36.3278C160.555 36.8954 160.294 37.3666 160.257 37.349C160.224 37.3329 160.43 36.8296 160.776 36.2553C161.121 35.681 161.469 35.262 161.499 35.2843Z" fill="#E0E0E0"/>
<path d="M164.968 38.7547C164.93 38.7547 164.898 38.1996 164.898 37.5152C164.898 36.8308 164.93 36.2757 164.968 36.2757C165.007 36.2757 165.038 36.8304 165.038 37.5152C165.038 38.1996 165.007 38.7547 164.968 38.7547Z" fill="#E0E0E0"/>
<path d="M170.312 37.1032C170.292 37.1342 169.807 36.8555 169.29 36.4031C168.771 35.9523 168.428 35.5101 168.457 35.4862C168.487 35.4595 168.871 35.8539 169.382 36.2976C169.891 36.743 170.334 37.0695 170.312 37.1032Z" fill="#E0E0E0"/>
<path d="M172.818 34.4031C172.79 34.4305 172.423 34.1071 171.997 33.6814C171.571 33.2553 171.248 32.888 171.275 32.8606C171.303 32.8331 171.67 33.1561 172.096 33.5822C172.522 34.0083 172.845 34.3757 172.818 34.4031Z" fill="#E0E0E0"/>
<path d="M158.386 25.7826C158.359 25.81 158.035 25.5298 157.662 25.1574C157.289 24.7846 157.01 24.4604 157.037 24.4329C157.064 24.4055 157.389 24.6854 157.761 25.0582C158.133 25.4306 158.413 25.7552 158.386 25.7826Z" fill="#E0E0E0"/>
<path d="M161.481 22.5231C161.454 22.5506 161.135 22.2773 160.769 21.9132C160.403 21.549 160.129 21.2315 160.156 21.204C160.183 21.1766 160.502 21.4498 160.868 21.814C161.234 22.1782 161.508 22.4957 161.481 22.5231Z" fill="#E0E0E0"/>
<path d="M155.378 29.1852C155.378 23.4596 159.853 18.7807 165.495 18.4499C165.283 18.4373 165.071 18.4295 164.856 18.4295C158.915 18.4295 154.1 23.2452 154.1 29.1856C154.1 35.126 158.915 39.9413 164.856 39.9413C165.071 39.9413 165.283 39.9331 165.495 39.9209C159.852 39.5893 155.378 34.9108 155.378 29.1852Z" fill="#F5F5F5"/>
<path d="M45.1773 19.6055H14.8965V67.4593H45.1773V19.6055Z" fill="#E0E0E0"/>
<path d="M44.2587 20.5043H15.7129V66.6725H44.2587V20.5043Z" fill="#F5F5F5"/>
<path d="M41.3669 23.1938H29.9844V40.8566H41.3669V23.1938Z" fill="white"/>
<path d="M36.2815 24.7556C36.2815 24.9904 36.0914 25.1805 35.8566 25.1805C35.6218 25.1805 35.4316 24.9904 35.4316 24.7556C35.4316 24.5207 35.6218 24.3306 35.8566 24.3306C36.0914 24.3306 36.2815 24.5207 36.2815 24.7556Z" fill="#E0E0E0"/>
<path d="M29.8962 45.7723H18.5137V63.435H29.8962V45.7723Z" fill="white"/>
<path d="M24.8108 47.3336C24.8108 47.5684 24.6207 47.7585 24.3859 47.7585C24.1511 47.7585 23.9609 47.5684 23.9609 47.3336C23.9609 47.0992 24.1511 46.9087 24.3859 46.9087C24.6207 46.9091 24.8108 47.0992 24.8108 47.3336Z" fill="#E0E0E0"/>
<path d="M28.0806 23.1938H18.3594V36.9864H28.0806V23.1938Z" fill="white"/>
<path d="M23.5728 24.4467C23.5728 24.6415 23.4148 24.7995 23.22 24.7995C23.0252 24.7995 22.8672 24.6415 22.8672 24.4467C22.8672 24.2518 23.0252 24.0939 23.22 24.0939C23.4148 24.0939 23.5728 24.2518 23.5728 24.4467Z" fill="#E0E0E0"/>
<path d="M41.7419 46.0153L31.3457 47.1881L31.9955 52.9481L42.3917 51.7753L41.7419 46.0153Z" fill="white"/>
<path d="M37.0264 47.6938C37.0264 47.8925 36.8652 48.0536 36.6665 48.0536C36.4678 48.0536 36.3066 47.8925 36.3066 47.6938C36.3066 47.495 36.4678 47.3339 36.6665 47.3339C36.8652 47.3335 37.0264 47.495 37.0264 47.6938Z" fill="#E0E0E0"/>
<path d="M28.3784 49.8009C28.3784 49.8475 26.5909 49.8855 24.3867 49.8855C22.1817 49.8855 20.3945 49.8475 20.3945 49.8009C20.3945 49.7542 22.1817 49.7162 24.3867 49.7162C26.5909 49.7162 28.3784 49.7542 28.3784 49.8009Z" fill="#E0E0E0"/>
<path d="M28.3784 51.0647C28.3784 51.1117 26.5909 51.1497 24.3867 51.1497C22.1817 51.1497 20.3945 51.1117 20.3945 51.0647C20.3945 51.018 22.1817 50.98 24.3867 50.98C26.5909 50.98 28.3784 51.0176 28.3784 51.0647Z" fill="#E0E0E0"/>
<path d="M28.3784 52.3285C28.3784 52.3751 26.5909 52.4131 24.3867 52.4131C22.1817 52.4131 20.3945 52.3751 20.3945 52.3285C20.3945 52.2814 22.1817 52.2438 24.3867 52.2438C26.5909 52.2434 28.3784 52.2814 28.3784 52.3285Z" fill="#E0E0E0"/>
<path d="M28.3784 53.5919C28.3784 53.6389 26.5909 53.6765 24.3867 53.6765C22.1817 53.6765 20.3945 53.6385 20.3945 53.5919C20.3945 53.5452 22.1817 53.5072 24.3867 53.5072C26.5909 53.5072 28.3784 53.5452 28.3784 53.5919Z" fill="#E0E0E0"/>
<path d="M28.3784 54.8557C28.3784 54.9027 26.5909 54.9407 24.3867 54.9407C22.1817 54.9407 20.3945 54.9027 20.3945 54.8557C20.3945 54.809 22.1817 54.771 24.3867 54.771C26.5909 54.771 28.3784 54.809 28.3784 54.8557Z" fill="#E0E0E0"/>
<path d="M28.3784 56.1195C28.3784 56.1665 26.5909 56.2041 24.3867 56.2041C22.1817 56.2041 20.3945 56.1661 20.3945 56.1195C20.3945 56.0728 22.1817 56.0348 24.3867 56.0348C26.5909 56.0344 28.3784 56.0724 28.3784 56.1195Z" fill="#E0E0E0"/>
<path d="M28.3784 57.3833C28.3784 57.4303 26.5909 57.4679 24.3867 57.4679C22.1817 57.4679 20.3945 57.4299 20.3945 57.3833C20.3945 57.3366 22.1817 57.2986 24.3867 57.2986C26.5909 57.2982 28.3784 57.3362 28.3784 57.3833Z" fill="#E0E0E0"/>
<path d="M40.7668 48.4473C40.7735 48.4935 39.0087 48.7808 36.826 49.089C34.6426 49.3971 32.8676 49.6091 32.8613 49.5629C32.8547 49.5166 34.6191 49.2293 36.8025 48.9212C38.9852 48.6131 40.7601 48.401 40.7668 48.4473Z" fill="#E0E0E0"/>
<path d="M40.927 49.2375C40.9336 49.2838 39.1688 49.5711 36.9862 49.8792C34.8027 50.1873 33.0278 50.3994 33.0215 50.3532C33.0152 50.3069 34.7792 50.0196 36.9627 49.7115C39.1449 49.4034 40.9203 49.1913 40.927 49.2375Z" fill="#E0E0E0"/>
<path d="M41.0715 49.9675C41.0782 50.0137 39.3134 50.3014 37.1307 50.6092C34.9473 50.9173 33.1727 51.1293 33.166 51.0831C33.1594 51.0368 34.9238 50.7495 37.1072 50.4414C39.2895 50.1333 41.0648 49.9212 41.0715 49.9675Z" fill="#E0E0E0"/>
<path d="M40.3672 26.8888C40.3672 26.9359 38.348 26.9735 35.8576 26.9735C33.3665 26.9735 31.3477 26.9355 31.3477 26.8888C31.3477 26.8422 33.3665 26.8041 35.8576 26.8041C38.3476 26.8041 40.3672 26.8422 40.3672 26.8888Z" fill="#E0E0E0"/>
<path d="M40.3672 27.6403C40.3672 27.6869 38.348 27.7249 35.8576 27.7249C33.3665 27.7249 31.3477 27.6869 31.3477 27.6403C31.3477 27.5936 33.3665 27.5556 35.8576 27.5556C38.3476 27.5556 40.3672 27.5932 40.3672 27.6403Z" fill="#E0E0E0"/>
<path d="M40.3672 28.3917C40.3672 28.4388 38.348 28.4764 35.8576 28.4764C33.3665 28.4764 31.3477 28.4384 31.3477 28.3917C31.3477 28.3451 33.3665 28.3071 35.8576 28.3071C38.3476 28.3067 40.3672 28.3447 40.3672 28.3917Z" fill="#E0E0E0"/>
<path d="M40.3672 29.1428C40.3672 29.1895 38.348 29.2275 35.8576 29.2275C33.3665 29.2275 31.3477 29.1895 31.3477 29.1428C31.3477 29.0962 33.3665 29.0582 35.8576 29.0582C38.3476 29.0582 40.3672 29.0962 40.3672 29.1428Z" fill="#E0E0E0"/>
<path d="M40.3672 29.8943C40.3672 29.941 38.348 29.979 35.8576 29.979C33.3665 29.979 31.3477 29.941 31.3477 29.8943C31.3477 29.8477 33.3665 29.8096 35.8576 29.8096C38.3476 29.8096 40.3672 29.8477 40.3672 29.8943Z" fill="#E0E0E0"/>
<path d="M40.3672 30.6458C40.3672 30.6924 38.348 30.7304 35.8576 30.7304C33.3665 30.7304 31.3477 30.6924 31.3477 30.6458C31.3477 30.5991 33.3665 30.5611 35.8576 30.5611C38.3476 30.5611 40.3672 30.5991 40.3672 30.6458Z" fill="#E0E0E0"/>
<path d="M40.3672 31.3972C40.3672 31.4439 38.348 31.4819 35.8576 31.4819C33.3665 31.4819 31.3477 31.4439 31.3477 31.3972C31.3477 31.3506 33.3665 31.3126 35.8576 31.3126C38.3476 31.3126 40.3672 31.3506 40.3672 31.3972Z" fill="#E0E0E0"/>
<path d="M40.3672 33.6269C40.3672 33.6739 38.348 33.7116 35.8576 33.7116C33.3665 33.7116 31.3477 33.6736 31.3477 33.6269C31.3477 33.5803 33.3665 33.5422 35.8576 33.5422C38.3476 33.5422 40.3672 33.5803 40.3672 33.6269Z" fill="#E0E0E0"/>
<path d="M40.4297 34.4207C40.4297 34.4674 38.4105 34.5054 35.9201 34.5054C33.429 34.5054 31.4102 34.4674 31.4102 34.4207C31.4102 34.3741 33.429 34.3361 35.9201 34.3361C38.4105 34.3357 40.4297 34.3737 40.4297 34.4207Z" fill="#E0E0E0"/>
<path d="M40.4941 35.2141C40.4941 35.2612 38.4749 35.2988 35.9846 35.2988C33.4934 35.2988 31.4746 35.2608 31.4746 35.2141C31.4746 35.1675 33.4934 35.1295 35.9846 35.1295C38.4749 35.1295 40.4941 35.1675 40.4941 35.2141Z" fill="#E0E0E0"/>
<path d="M40.5566 36.008C40.5566 36.0546 38.5374 36.0926 36.0471 36.0926C33.5559 36.0926 31.5371 36.0546 31.5371 36.008C31.5371 35.9613 33.5559 35.9233 36.0471 35.9233C38.5374 35.9233 40.5566 35.9613 40.5566 36.008Z" fill="#E0E0E0"/>
<path d="M40.6211 36.8013C40.6211 36.848 38.6019 36.886 36.1115 36.886C33.6204 36.886 31.6016 36.848 31.6016 36.8013C31.6016 36.7547 33.6204 36.7167 36.1115 36.7167C38.6019 36.7167 40.6211 36.7547 40.6211 36.8013Z" fill="#E0E0E0"/>
<path d="M40.6836 37.5951C40.6836 37.6421 38.6644 37.6798 36.174 37.6798C33.6829 37.6798 31.6641 37.6418 31.6641 37.5951C31.6641 37.5485 33.6829 37.5104 36.174 37.5104C38.6644 37.5104 40.6836 37.5485 40.6836 37.5951Z" fill="#E0E0E0"/>
<path d="M188.215 189.078C188.215 189.135 147.821 189.18 98.0036 189.18C48.169 189.18 7.7832 189.134 7.7832 189.078C7.7832 189.022 48.1686 188.976 98.0036 188.976C147.821 188.976 188.215 189.022 188.215 189.078Z" fill="#263238"/>
<path d="M139.654 147.58H57.2822C55.283 147.58 53.6621 145.959 53.6621 143.96V24.0092C53.6621 22.0096 55.283 20.3891 57.2822 20.3891H139.654C141.653 20.3891 143.274 22.01 143.274 24.0092V143.96C143.274 145.959 141.653 147.58 139.654 147.58Z" fill="#E0E0E0"/>
<path d="M139.653 147.58C139.653 147.58 139.746 147.572 139.93 147.562C140.114 147.549 140.388 147.507 140.737 147.405C141.082 147.292 141.501 147.102 141.921 146.763C142.336 146.424 142.752 145.928 143.008 145.266C143.143 144.938 143.219 144.565 143.243 144.171C143.264 143.776 143.248 143.356 143.252 142.917C143.251 142.038 143.249 141.078 143.248 140.037C143.245 137.956 143.243 135.554 143.24 132.851C143.233 122.036 143.224 106.389 143.213 87.0546C143.209 77.3871 143.206 66.7976 143.202 55.4296C143.201 49.7456 143.199 43.8668 143.198 37.8116C143.197 34.7837 143.196 31.712 143.196 28.598C143.194 27.0417 143.191 25.4753 143.189 23.8987C143.174 23.1253 142.877 22.3668 142.39 21.7635C141.892 21.1688 141.202 20.7266 140.437 20.5596C140.055 20.4726 139.666 20.4648 139.262 20.4699C138.861 20.4699 138.46 20.4699 138.058 20.4699C137.254 20.4699 136.448 20.4703 135.639 20.4703C134.022 20.4706 132.395 20.4706 130.758 20.471C127.486 20.4714 124.175 20.4718 120.83 20.4722C114.139 20.473 107.308 20.4738 100.353 20.4746C86.4439 20.475 72.0426 20.4757 57.2924 20.4761C56.39 20.473 55.4971 20.8289 54.8491 21.4518C54.1956 22.0684 53.7958 22.941 53.7578 23.8352C53.7397 25.6596 53.7527 27.4933 53.7487 29.313C53.7487 32.9558 53.7484 36.5748 53.7484 40.1671C53.748 47.352 53.7476 54.4316 53.7472 61.388C53.7456 75.3009 53.7437 88.7206 53.7421 101.504C53.7393 114.288 53.7366 126.436 53.7339 137.805C53.7335 139.226 53.7331 140.635 53.7327 142.032C53.7358 142.729 53.7244 143.429 53.7397 144.114C53.7625 144.793 53.9957 145.456 54.3822 146.006C54.7695 146.557 55.3144 146.987 55.929 147.244C56.2383 147.369 56.5629 147.45 56.8918 147.49C57.2199 147.519 57.5586 147.512 57.8953 147.513C59.2407 147.513 60.5735 147.514 61.8926 147.514C67.1697 147.516 72.2339 147.518 77.0677 147.519C96.4023 147.531 112.048 147.541 122.862 147.547C128.267 147.554 132.465 147.559 135.312 147.563C136.734 147.567 137.819 147.57 138.55 147.572C139.279 147.574 139.653 147.58 139.653 147.58C139.653 147.58 139.279 147.586 138.55 147.589C137.819 147.591 136.734 147.594 135.312 147.598C132.464 147.601 128.267 147.607 122.861 147.614C112.048 147.621 96.4019 147.63 77.0673 147.642C72.2335 147.644 67.1693 147.645 61.8922 147.647C60.5731 147.648 59.2403 147.648 57.8949 147.648C57.559 147.648 57.2223 147.655 56.8765 147.625C56.5347 147.583 56.1972 147.5 55.8761 147.37C55.2372 147.104 54.6711 146.657 54.2685 146.085C53.8663 145.514 53.6237 144.824 53.5994 144.119C53.5833 143.421 53.5947 142.731 53.5908 142.031C53.5904 140.635 53.59 139.225 53.5896 137.804C53.5872 126.436 53.5845 114.288 53.5818 101.504C53.5802 88.7198 53.5786 75.2997 53.5767 61.3872C53.5763 54.4308 53.5759 47.3513 53.5755 40.1663C53.5755 36.574 53.5751 32.9551 53.5751 29.3122C53.579 27.489 53.5661 25.6674 53.5841 23.8262C53.6241 22.8881 54.0439 21.972 54.7291 21.3256C55.4085 20.6725 56.3469 20.2986 57.292 20.3021C72.0422 20.3025 86.4435 20.3033 100.353 20.304C107.308 20.3048 114.139 20.3056 120.83 20.306C124.175 20.3064 127.485 20.3068 130.758 20.3076C132.394 20.308 134.021 20.308 135.639 20.3084C136.447 20.3084 137.254 20.3088 138.057 20.3088C138.459 20.3088 138.861 20.3088 139.261 20.3088C139.658 20.304 140.074 20.3115 140.472 20.4028C141.272 20.5784 141.993 21.0402 142.512 21.6619C143.021 22.2919 143.331 23.0857 143.347 23.8932C143.348 25.4714 143.35 27.0398 143.351 28.5976C143.351 31.7112 143.35 34.7834 143.349 37.8112C143.348 43.8668 143.346 49.7452 143.345 55.4292C143.341 66.7972 143.338 77.3867 143.334 87.0542C143.323 106.389 143.313 122.036 143.307 132.851C143.304 135.554 143.302 137.955 143.299 140.037C143.298 141.078 143.296 142.038 143.295 142.917C143.29 143.356 143.305 143.773 143.282 144.173C143.256 144.571 143.178 144.947 143.041 145.278C142.779 145.946 142.357 146.443 141.938 146.783C141.513 147.122 141.09 147.311 140.743 147.421C140.391 147.521 140.115 147.56 139.931 147.57C139.746 147.579 139.653 147.58 139.653 147.58Z" fill="#263238"/>
<g opacity="0.3">
<path d="M61.4785 144.706H136.688L135.863 129.063V120.736L61.4785 132.359V144.706Z" fill="black"/>
</g>
<g opacity="0.3">
<path d="M121.079 20.6486L122.788 25.7176V28.2009H120.861L121.079 20.6486Z" fill="black"/>
</g>
<path d="M57.6582 25.4852V142.323H118.609H139.277V25.4852H57.6582Z" fill="white"/>
<path d="M139.276 121.431C139.276 121.431 139.272 121.279 139.27 120.981C139.268 120.682 139.266 120.238 139.264 119.654C139.261 118.481 139.257 116.744 139.252 114.482C139.247 109.954 139.24 103.323 139.23 94.9056C139.223 78.0669 139.212 54.0812 139.199 25.4851L139.276 25.562C115.161 25.5647 87.2549 25.5682 57.6569 25.5718L57.7436 25.4851C57.7436 25.5181 57.7436 25.5533 57.7436 25.589C57.7353 70.5036 57.7279 111.521 57.722 142.323L57.6569 142.258C76.433 142.27 91.6704 142.28 102.215 142.286C107.486 142.294 111.584 142.3 114.366 142.304C115.755 142.308 116.815 142.311 117.529 142.313C118.243 142.316 118.608 142.323 118.608 142.323C118.608 142.323 118.243 142.329 117.529 142.333C116.815 142.335 115.754 142.338 114.366 142.342C111.584 142.346 107.486 142.352 102.215 142.36C91.67 142.367 76.433 142.377 57.6569 142.389H57.5919V142.323C57.586 111.521 57.5785 70.5044 57.5703 25.5898C57.5703 25.5541 57.5703 25.5185 57.5703 25.4859V25.3993H57.6569C87.2549 25.4028 115.161 25.4063 139.276 25.4091H139.352V25.4859C139.34 54.0819 139.329 78.0676 139.321 94.9064C139.312 103.324 139.305 109.955 139.3 114.483C139.294 116.745 139.291 118.482 139.288 119.655C139.285 120.239 139.283 120.683 139.282 120.982C139.28 121.279 139.276 121.431 139.276 121.431Z" fill="#263238"/>
<path d="M121.08 29.1989H79.7832V19.7007C79.7832 18.3315 80.8933 17.2209 82.263 17.2209H118.6C119.969 17.2209 121.08 18.3311 121.08 19.7007V29.1989Z" fill="#263238"/>
<path d="M105.686 12.7165H95.1758L96.4043 21.7258H104.322L105.686 12.7165Z" fill="#263238"/>
<path d="M118.427 17.221C118.427 17.2688 110.369 17.3076 100.432 17.3076C90.4912 17.3076 82.4355 17.2688 82.4355 17.221C82.4355 17.1731 90.4912 17.1343 100.432 17.1343C110.369 17.1343 118.427 17.1731 118.427 17.221Z" fill="#455A64"/>
<path d="M80.7077 27.2663C80.6599 27.2663 80.6211 25.5721 80.6211 23.4824C80.6211 21.3918 80.6599 19.698 80.7077 19.698C80.7556 19.698 80.7944 21.3918 80.7944 23.4824C80.7944 25.5721 80.7556 27.2663 80.7077 27.2663Z" fill="#455A64"/>
<path d="M119.743 26.3702C119.695 26.3702 119.656 24.832 119.656 22.9348C119.656 21.0371 119.695 19.4993 119.743 19.4993C119.791 19.4993 119.83 21.0371 119.83 22.9348C119.83 24.832 119.791 26.3702 119.743 26.3702Z" fill="#455A64"/>
<path d="M117.751 27.9637C117.751 28.0115 109.48 28.0503 99.2796 28.0503C89.0755 28.0503 80.8066 28.0115 80.8066 27.9637C80.8066 27.9159 89.0759 27.8771 99.2796 27.8771C109.48 27.8771 117.751 27.9159 117.751 27.9637Z" fill="#455A64"/>
<path d="M128.942 47.9083H83.8672V50.6789H128.942V47.9083Z" fill="#E0E0E0"/>
<path d="M104.316 53.568H83.8672V56.3194H104.316V53.568Z" fill="#E0E0E0"/>
<path d="M77.7668 57.1461H70.3737C69.5375 57.1461 68.8594 56.4684 68.8594 55.6318V48.2387C68.8594 47.4026 69.5371 46.7244 70.3737 46.7244H77.7668C78.6029 46.7244 79.2811 47.4022 79.2811 48.2387V55.6318C79.2811 56.4684 78.6033 57.1461 77.7668 57.1461Z" fill="#FF7C1D"/>
<path d="M73.9212 54.4182L71.002 52.1623L71.7891 51.1435L73.7467 52.6562L76.5307 49.4528L77.5025 50.2975L73.9212 54.4182Z" fill="white"/>
<path d="M128.942 65.063H83.8672V67.8336H128.942V65.063Z" fill="#E0E0E0"/>
<path d="M104.316 70.7227H83.8672V73.4742H104.316V70.7227Z" fill="#E0E0E0"/>
<path d="M77.7668 74.3009H70.3737C69.5375 74.3009 68.8594 73.6231 68.8594 72.7866V65.3934C68.8594 64.5573 69.5371 63.8792 70.3737 63.8792H77.7668C78.6029 63.8792 79.2811 64.5569 79.2811 65.3934V72.7866C79.2811 73.6231 78.6033 74.3009 77.7668 74.3009Z" fill="#FF7C1D"/>
<path d="M73.9212 71.5729L71.002 69.317L71.7891 68.2982L73.7467 69.8109L76.5307 66.6075L77.5025 67.4522L73.9212 71.5729Z" fill="white"/>
<path d="M128.942 83.4431H83.8672V86.2138H128.942V83.4431Z" fill="#E0E0E0"/>
<path d="M104.316 89.1028H83.8672V91.8542H104.316V89.1028Z" fill="#E0E0E0"/>
<path d="M128.942 100.436H83.8672V103.206H128.942V100.436Z" fill="#E0E0E0"/>
<path d="M104.316 106.095H83.8672V108.847H104.316V106.095Z" fill="#E0E0E0"/>
<path d="M77.7668 92.6814H70.3737C69.5375 92.6814 68.8594 92.0036 68.8594 91.1671V83.7739C68.8594 82.9378 69.5371 82.2596 70.3737 82.2596H77.7668C78.6029 82.2596 79.2811 82.9374 79.2811 83.7739V91.1671C79.2811 92.0032 78.6033 92.6814 77.7668 92.6814Z" fill="#FF7C1D"/>
<path d="M73.9212 89.9534L71.002 87.6975L71.7891 86.6787L73.7467 88.1914L76.5307 84.988L77.5025 85.8323L73.9212 89.9534Z" fill="white"/>
<path d="M77.9164 110.334H70.2253C69.3751 110.334 68.6836 109.642 68.6836 108.792V101.101C68.6836 100.251 69.3755 99.5594 70.2253 99.5594H77.9164C78.7666 99.5594 79.4585 100.251 79.4585 101.101V108.792C79.4585 109.642 78.767 110.334 77.9164 110.334ZM70.2257 99.9126C69.5703 99.9126 69.0372 100.446 69.0372 101.101V108.792C69.0372 109.447 69.5703 109.981 70.2257 109.981H77.9168C78.5722 109.981 79.1053 109.448 79.1053 108.792V101.101C79.1053 100.446 78.5722 99.9126 77.9168 99.9126H70.2257Z" fill="#FF7C1D"/>
<path d="M128.942 119.873H83.8672V122.643H128.942V119.873Z" fill="#E0E0E0"/>
<path d="M104.316 125.533H83.8672V128.284H104.316V125.533Z" fill="#E0E0E0"/>
<path d="M77.9164 129.771H70.2253C69.3751 129.771 68.6836 129.08 68.6836 128.229V120.538C68.6836 119.688 69.3755 118.997 70.2253 118.997H77.9164C78.7666 118.997 79.4585 119.688 79.4585 120.538V128.229C79.4585 129.08 78.767 129.771 77.9164 129.771ZM70.2257 119.35C69.5703 119.35 69.0372 119.883 69.0372 120.538V128.229C69.0372 128.885 69.5703 129.418 70.2257 129.418H77.9168C78.5722 129.418 79.1053 128.885 79.1053 128.229V120.538C79.1053 119.883 78.5722 119.35 77.9168 119.35H70.2257Z" fill="#FF7C1D"/>
<path d="M123.383 37.1796H78.4434V41.0271H123.383V37.1796Z" fill="#FF7C1D"/>
<path d="M86.1978 179.832C86.1978 179.832 84.845 170.532 84.9579 165.12C85.0708 159.709 84.9512 153.621 84.9512 153.621H85.5745C85.5745 153.621 85.1523 164.362 85.6117 170.84C86.0708 177.313 87.2805 179.832 87.2805 179.832H86.1978Z" fill="#263238"/>
<path d="M90.2285 143.156C90.1031 142.839 89.949 142.508 89.6605 142.325C89.265 142.075 88.7468 142.179 88.305 142.335C86.4214 143.001 84.7519 146.513 83.9902 148.36L86.4908 156.785C91.0047 152.598 91.7863 147.105 90.2285 143.156Z" fill="#455A64"/>
<path d="M89.5132 142.666C89.5163 142.668 89.5038 142.705 89.4767 142.776C89.4446 142.857 89.4038 142.958 89.3544 143.083C89.2447 143.348 89.091 143.733 88.9072 144.212C88.5387 145.169 88.0699 146.506 87.6504 148.013C87.2329 149.521 86.9452 150.909 86.7676 151.919C86.6787 152.424 86.6116 152.834 86.5689 153.118C86.5473 153.25 86.5297 153.358 86.5156 153.444C86.5023 153.518 86.4936 153.557 86.4901 153.557C86.4866 153.556 86.4881 153.516 86.4952 153.441C86.5042 153.355 86.5156 153.246 86.5293 153.112C86.5599 152.827 86.6159 152.415 86.6959 151.907C86.855 150.892 87.1326 149.498 87.5512 147.986C87.9719 146.474 88.4528 145.136 88.8394 144.185C89.0322 143.709 89.1965 143.327 89.3176 143.067C89.3744 142.945 89.4211 142.846 89.4579 142.767C89.4912 142.699 89.5101 142.664 89.5132 142.666Z" fill="#263238"/>
<path d="M85.3791 158.805C83.0354 157.51 81.654 155.074 81.525 152.399C81.4348 150.529 82.0095 148.695 82.6602 146.939C82.7167 146.787 82.7837 146.623 82.9248 146.543C83.1216 146.432 83.3674 146.531 83.5638 146.643C85.267 147.612 86.2988 149.461 86.848 151.343C87.2133 152.595 87.4026 153.915 87.2337 155.208C87.0647 156.502 86.3254 157.909 85.3791 158.805Z" fill="#455A64"/>
<path d="M85.3794 158.805C85.3759 158.805 85.3727 158.767 85.3704 158.693C85.3688 158.607 85.3669 158.5 85.3641 158.369C85.3633 158.089 85.352 157.682 85.3288 157.181C85.2838 156.179 85.1524 154.798 84.8937 153.289C84.6338 151.78 84.3183 150.428 84.0858 149.452C83.9713 148.974 83.8773 148.582 83.8083 148.295C83.7789 148.167 83.755 148.063 83.7361 147.979C83.7209 147.907 83.7142 147.868 83.7177 147.868C83.7212 147.867 83.7342 147.903 83.7561 147.974C83.7801 148.056 83.8102 148.159 83.8471 148.285C83.9243 148.555 84.0305 148.947 84.1564 149.434C84.4072 150.407 84.7346 151.758 84.9952 153.272C85.2548 154.785 85.3751 156.173 85.4014 157.178C85.4151 157.681 85.4155 158.088 85.4037 158.369C85.3982 158.5 85.3939 158.608 85.3904 158.693C85.3869 158.767 85.3829 158.806 85.3794 158.805Z" fill="#263238"/>
<g opacity="0.3">
<path d="M85.3791 158.805C83.0354 157.51 81.654 155.074 81.525 152.399C81.4348 150.529 82.0095 148.695 82.6602 146.939C82.7167 146.787 82.7837 146.623 82.9248 146.543C83.1216 146.432 83.3674 146.531 83.5638 146.643C85.267 147.612 86.2988 149.461 86.848 151.343C87.2133 152.595 87.4026 153.915 87.2337 155.208C87.0647 156.502 86.3254 157.909 85.3791 158.805Z" fill="black"/>
</g>
<path d="M88.0234 173.036C90.3304 173.543 92.2296 175.17 94.4554 175.961C95.9277 176.485 97.5929 176.67 98.7686 177.699C98.4863 176.987 97.8176 176.513 97.168 176.107C95.3378 174.964 93.3782 174.028 91.3386 173.324C90.2915 172.963 89.1555 172.661 88.0885 172.959" fill="#455A64"/>
<path d="M84.6891 175.091C81.8001 175.045 78.7581 172.585 75.8828 172.438C78.8922 171.467 83.2007 172.26 84.6891 175.091Z" fill="#455A64"/>
<path d="M85.8164 168.161C87.2833 167.633 88.894 167.607 90.4349 167.847C91.9759 168.086 93.4639 168.58 94.9437 169.072C94.7956 168.07 93.9837 167.316 93.2213 166.649C92.6474 166.147 92.0692 165.642 91.4106 165.257C90.7521 164.873 90.001 164.613 89.2394 164.645C88.3205 164.684 87.4456 165.158 86.8427 165.852C86.2402 166.547 85.916 167.247 85.8164 168.161Z" fill="#455A64"/>
<path d="M79.8877 164.971C78.0692 163.419 75.3146 163.57 72.9238 163.624C76.5988 165.381 80.5588 167.79 83.7238 170.355C83.821 168.665 82.1852 166.933 79.8877 164.971Z" fill="#455A64"/>
<g opacity="0.3">
<path d="M79.8877 164.971C78.0692 163.419 75.3146 163.57 72.9238 163.624C76.5988 165.381 80.5588 167.79 83.7238 170.355C83.821 168.665 82.1852 166.933 79.8877 164.971Z" fill="black"/>
</g>
<path d="M86.6347 162.828C87.5493 162.219 88.4744 161.637 89.4317 161.203C90.3889 160.768 91.2819 160.075 92.2062 159.574C93.405 158.925 94.4434 158.023 95.5437 157.218C96.6441 156.413 97.8526 155.687 99.1991 155.474C98.1011 155.247 96.9541 155.371 95.8726 155.666C94.7911 155.961 93.7637 156.424 92.7417 156.885C91.3231 157.524 89.8797 158.179 88.7202 159.216C87.5606 160.253 86.5124 161.277 86.6347 162.828Z" fill="#455A64"/>
<path d="M94.4021 175.091C94.4005 175.095 94.3688 175.081 94.3108 175.052C94.2426 175.017 94.1595 174.973 94.0587 174.921C93.8412 174.806 93.5287 174.634 93.1356 174.436C92.9407 174.334 92.7251 174.226 92.4911 174.117C92.2594 174.001 92.0078 173.888 91.7408 173.772C91.2073 173.545 90.6119 173.307 89.9619 173.152C89.3144 172.994 88.6687 172.958 88.1089 173.106C87.8263 173.174 87.5605 173.241 87.3238 173.34C87.0862 173.436 86.8745 173.549 86.6899 173.665C86.3199 173.898 86.0611 174.146 85.8934 174.324C85.726 174.503 85.6444 174.612 85.637 174.607C85.6343 174.605 85.6519 174.576 85.6887 174.522C85.7248 174.468 85.7832 174.391 85.8632 174.297C86.0235 174.108 86.2779 173.849 86.6499 173.604C86.8353 173.482 87.0494 173.363 87.2908 173.261C87.5319 173.156 87.804 173.084 88.0866 173.013C88.6589 172.857 89.3296 172.89 89.9855 173.052C90.6452 173.209 91.2442 173.451 91.7785 173.685C92.0458 173.804 92.2971 173.921 92.528 174.039C92.7616 174.153 92.976 174.264 93.1689 174.371C93.5589 174.578 93.8663 174.759 94.0779 174.886C94.1748 174.945 94.2551 174.994 94.3206 175.033C94.3762 175.069 94.4041 175.088 94.4021 175.091Z" fill="#263238"/>
<path d="M82.5333 173.66C82.5361 173.653 82.6 173.672 82.7144 173.713C82.8293 173.752 82.9908 173.821 83.1852 173.917C83.5741 174.11 84.0853 174.436 84.5655 174.896C85.0445 175.358 85.3914 175.856 85.5988 176.237C85.703 176.427 85.7787 176.585 85.8222 176.699C85.8673 176.811 85.8889 176.875 85.8822 176.877C85.8657 176.885 85.7575 176.64 85.5357 176.273C85.3146 175.906 84.9645 175.425 84.4937 174.971C84.0218 174.519 83.5263 174.188 83.1507 173.982C82.7756 173.775 82.5267 173.677 82.5333 173.66Z" fill="#263238"/>
<path d="M76.1407 164.826C76.1418 164.823 76.1842 164.836 76.2637 164.863C76.3531 164.894 76.468 164.936 76.6107 164.986C76.7647 165.043 76.9474 165.11 77.1575 165.188C77.3707 165.267 77.602 165.384 77.8639 165.499C78.9039 165.971 80.288 166.766 81.6251 167.895C82.2845 168.469 82.8803 169.052 83.3789 169.622C83.8756 170.193 84.2962 170.731 84.6239 171.199C84.9536 171.667 85.2041 172.056 85.3754 172.325C85.4565 172.452 85.522 172.555 85.573 172.635C85.6176 172.706 85.64 172.744 85.6369 172.747C85.6341 172.749 85.6063 172.714 85.5557 172.647C85.5051 172.58 85.4318 172.479 85.3417 172.347C85.1598 172.085 84.9007 171.702 84.5647 171.242C84.2304 170.78 83.8058 170.25 83.308 169.685C82.8082 169.122 82.2135 168.544 81.5581 167.974C80.2296 166.852 78.8607 166.052 77.8329 165.565C77.5742 165.446 77.3457 165.325 77.1355 165.241C76.9286 165.157 76.7486 165.085 76.5965 165.024C76.4574 164.966 76.3445 164.919 76.2571 164.882C76.1795 164.849 76.1395 164.83 76.1407 164.826Z" fill="#263238"/>
<path d="M90.1523 166.537C90.1504 166.544 90.0684 166.533 89.9218 166.507C89.8423 166.493 89.7545 166.477 89.6565 166.458C89.5534 166.439 89.4326 166.438 89.3017 166.424C88.7823 166.387 88.0253 166.429 87.3162 166.816C86.9583 166.997 86.6584 167.241 86.4127 167.486C86.1633 167.729 85.9744 167.983 85.8317 168.204C85.542 168.648 85.4523 168.968 85.4346 168.963C85.4291 168.961 85.4452 168.879 85.4934 168.737C85.5463 168.597 85.6283 168.395 85.7698 168.166C85.907 167.936 86.0936 167.673 86.3448 167.42C86.5922 167.165 86.8991 166.912 87.2676 166.725C87.9991 166.326 88.7819 166.294 89.3076 166.352C89.4405 166.37 89.5624 166.376 89.6659 166.402C89.7635 166.426 89.8513 166.448 89.9305 166.468C90.0755 166.506 90.1543 166.531 90.1523 166.537Z" fill="#263238"/>
<path d="M93.0562 157.53C93.0578 157.533 93.0201 157.556 92.9468 157.597C92.8637 157.642 92.7567 157.7 92.6246 157.773C92.3443 157.923 91.941 158.146 91.451 158.435C90.9633 158.727 90.3886 159.087 89.7775 159.524C89.1679 159.962 88.5133 160.471 87.9088 161.09C87.6109 161.401 87.3361 161.726 87.1444 162.079C86.9551 162.442 86.7744 162.794 86.6082 163.131C86.2742 163.805 86.0021 164.425 85.8054 164.958C85.6094 165.491 85.4875 165.935 85.4149 166.244C85.3408 166.554 85.3142 166.728 85.304 166.726C85.3005 166.726 85.3044 166.682 85.3154 166.598C85.3259 166.515 85.3436 166.392 85.3753 166.236C85.4361 165.923 85.5482 165.473 85.7364 164.933C85.9253 164.394 86.1919 163.767 86.5223 163.089C86.687 162.749 86.8661 162.397 87.0543 162.032C87.253 161.663 87.5321 161.333 87.834 161.018C88.4459 160.392 89.106 159.883 89.7218 159.446C90.3392 159.012 90.9198 158.657 91.4137 158.372C91.91 158.09 92.3192 157.877 92.6058 157.736C92.7418 157.672 92.8516 157.619 92.9374 157.578C93.0139 157.544 93.0546 157.526 93.0562 157.53Z" fill="#263238"/>
<path d="M84.9556 166.277C84.9485 166.278 84.9285 166.191 84.8983 166.034C84.8646 165.855 84.8223 165.632 84.7721 165.366C84.662 164.803 84.4938 164.029 84.2257 163.198C83.9599 162.366 83.6369 161.642 83.4005 161.12C83.2884 160.874 83.1939 160.667 83.1187 160.501C83.0528 160.355 83.0199 160.272 83.0261 160.269C83.0324 160.266 83.0779 160.342 83.1547 160.483C83.2316 160.624 83.3394 160.831 83.4664 161.089C83.72 161.604 84.0559 162.328 84.3237 163.166C84.5938 164.004 84.7517 164.786 84.8435 165.353C84.8885 165.637 84.9211 165.867 84.9379 166.027C84.956 166.187 84.9626 166.276 84.9556 166.277Z" fill="#263238"/>
<path d="M84.7446 159.704C84.6721 158.613 84.3165 157.552 83.8049 156.586C82.4028 153.935 79.7673 151.969 76.8262 151.381C78.9798 154.591 81.1335 157.801 83.2871 161.011L84.1213 162.729C84.6909 161.795 84.8171 160.796 84.7446 159.704Z" fill="#455A64"/>
<path d="M94.0113 178.682H78.9883V181.345H94.0113V178.682Z" fill="#FF7C1D"/>
<path d="M80.1113 180.816L81.3904 189.078H91.3641L92.8905 180.816H80.1113Z" fill="#FF7C1D"/>
<path d="M94.0039 181.348C94.0039 181.377 90.615 181.401 86.4359 181.401C82.2552 181.401 78.8672 181.377 78.8672 181.348C78.8672 181.319 82.2552 181.295 86.4359 181.295C90.615 181.295 94.0039 181.318 94.0039 181.348Z" fill="#263238"/>
<path d="M149.575 86.0781L148.779 84.1875C149.252 82.7109 149.293 81.0735 148.788 79.4608C147.595 75.6564 143.629 73.3421 139.728 74.1668C135.222 75.1202 132.499 79.7379 133.89 84.1656C135.071 87.9245 138.958 90.2333 142.825 89.4787C144.744 89.104 146.346 88.0668 147.459 86.6607L147.457 86.6646L149.575 86.0781Z" fill="white"/>
<path d="M149.576 86.0781C149.579 86.0797 149.535 86.0938 149.447 86.1209C149.348 86.1503 149.216 86.1899 149.048 86.2404C148.678 86.3482 148.149 86.5019 147.468 86.7002C147.448 86.7061 147.428 86.6947 147.422 86.6751C147.42 86.6665 147.42 86.6571 147.424 86.6497L147.425 86.6458L147.489 86.6838C146.891 87.4486 145.936 88.3823 144.51 89.0142C143.802 89.3309 142.985 89.5579 142.091 89.6544C141.198 89.7429 140.228 89.6767 139.257 89.4117C138.287 89.1428 137.319 88.6696 136.453 87.9895C135.59 87.3102 134.815 86.4278 134.292 85.3651C133.76 84.3094 133.457 83.0978 133.443 81.8492C133.42 80.5991 133.736 79.3201 134.337 78.1672C134.94 76.9978 135.825 76.0014 136.875 75.2985C137.918 74.5847 139.104 74.1543 140.285 73.9881C141.469 73.8152 142.646 73.963 143.702 74.297C144.761 74.6349 145.702 75.1774 146.473 75.8356C147.242 76.4973 147.842 77.2691 148.27 78.0633C148.368 78.2668 148.464 78.4667 148.558 78.6635C148.647 78.8622 148.709 79.0684 148.785 79.2644C148.929 79.6599 149.019 80.0562 149.088 80.438C149.356 81.9766 149.113 83.2867 148.814 84.1989L148.813 84.1738C149.061 84.7841 149.253 85.2608 149.389 85.5956C149.449 85.7481 149.497 85.8684 149.533 85.9586C149.564 86.0389 149.579 86.0793 149.576 86.0781C149.573 86.0766 149.553 86.0334 149.515 85.9507C149.475 85.8602 149.42 85.7394 149.352 85.5862C149.21 85.2604 149.006 84.7963 148.746 84.2016C148.742 84.1938 148.742 84.184 148.745 84.1761C149.025 83.2671 149.249 81.9711 148.971 80.458C148.9 80.0825 148.808 79.6928 148.664 79.3048C148.588 79.1123 148.526 78.91 148.436 78.7156C148.342 78.5227 148.247 78.3267 148.15 78.1276C147.724 77.3503 147.13 76.5964 146.373 75.9508C145.614 75.3091 144.689 74.7815 143.651 74.4545C142.617 74.1311 141.465 73.99 140.308 74.1617C139.154 74.3272 137.995 74.7501 136.978 75.4479C135.953 76.1351 135.09 77.1088 134.5 78.2515C133.913 79.3773 133.603 80.6266 133.624 81.8473C133.637 83.0668 133.932 84.2522 134.448 85.2847C134.958 86.3247 135.713 87.1895 136.555 87.8578C137.401 88.5266 138.348 88.9946 139.297 89.2627C140.249 89.5269 141.199 89.5975 142.077 89.5164C142.955 89.4274 143.762 89.2102 144.461 88.9045C145.87 88.2949 146.824 87.3847 147.43 86.6371C147.442 86.6207 147.466 86.6179 147.482 86.6305C147.496 86.641 147.5 86.6599 147.493 86.6751L147.492 86.6791L147.448 86.6281C148.124 86.4505 148.649 86.3129 149.016 86.2165C149.191 86.1722 149.327 86.1373 149.429 86.1111C149.524 86.0879 149.573 86.0766 149.576 86.0781Z" fill="#263238"/>
<path d="M138.669 82.8731C139.14 82.8731 139.523 82.4907 139.523 82.019C139.523 81.5472 139.14 81.1648 138.669 81.1648C138.197 81.1648 137.814 81.5472 137.814 82.019C137.814 82.4907 138.197 82.8731 138.669 82.8731Z" fill="#263238"/>
<path d="M142.4 82.019C142.4 82.4909 142.018 82.8731 141.546 82.8731C141.074 82.8731 140.691 82.4905 140.691 82.019C140.691 81.547 141.074 81.1648 141.546 81.1648C142.018 81.1648 142.4 81.5474 142.4 82.019Z" fill="#263238"/>
<path d="M144.348 82.8731C144.82 82.8731 145.202 82.4907 145.202 82.019C145.202 81.5472 144.82 81.1648 144.348 81.1648C143.877 81.1648 143.494 81.5472 143.494 82.019C143.494 82.4907 143.877 82.8731 144.348 82.8731Z" fill="#263238"/>
<path d="M45.8274 69.9665L46.199 67.7858C45.5412 66.6337 45.1833 65.2915 45.2307 63.8682C45.3672 59.7753 48.7956 56.568 52.8885 56.7044C56.9813 56.8408 60.1887 60.2692 60.0523 64.3621C59.9159 68.455 56.4874 71.6623 52.3945 71.5259C50.6854 71.4691 49.1323 70.8364 47.9109 69.8231L47.9132 69.8266L45.8274 69.9665Z" fill="white"/>
<path d="M45.8281 69.9665C45.8262 69.9685 45.8697 69.9673 45.9583 69.9634C46.0547 69.9587 46.186 69.952 46.355 69.9438C46.718 69.9238 47.2417 69.8948 47.9167 69.8572C47.9335 69.8564 47.9469 69.8415 47.9457 69.8246C47.9453 69.8187 47.943 69.8129 47.9398 69.8082L47.9375 69.8046L47.8924 69.8466C48.6019 70.4424 49.6811 71.1186 51.1362 71.4267C51.4984 71.5016 51.8814 71.5529 52.2804 71.5733C52.48 71.5867 52.6838 71.5722 52.8908 71.5729C52.9943 71.5694 53.0989 71.5745 53.204 71.5639C53.3087 71.5518 53.4141 71.5396 53.5203 71.5275C54.3698 71.4318 55.2624 71.1809 56.1138 70.7352C56.9644 70.2915 57.7724 69.6541 58.4372 68.8403C59.1024 68.0285 59.6218 67.0391 59.9021 65.9454C60.1859 64.8533 60.2028 63.6585 59.9487 62.4954C59.8358 61.909 59.6097 61.3453 59.3568 60.7922C59.0703 60.2559 58.752 59.7236 58.3368 59.2602C57.9468 58.7828 57.4784 58.3849 56.9974 58.0215C56.4968 57.6852 55.9813 57.3735 55.4258 57.1685C54.3294 56.7302 53.157 56.5546 52.0417 56.6546C50.9257 56.7475 49.8704 57.0905 48.9649 57.606C48.057 58.1207 47.2977 58.8047 46.7183 59.5621C45.5514 61.0865 45.1315 62.8576 45.1817 64.3249C45.2284 65.8082 45.7027 66.994 46.1727 67.8023L46.1688 67.7811C46.0563 68.4895 45.9696 69.0375 45.9093 69.4165C45.8822 69.5937 45.8614 69.7309 45.8462 69.8313C45.832 69.9226 45.8262 69.9685 45.8281 69.9665C45.8281 69.9665 45.8403 69.9152 45.8587 69.8199C45.8779 69.7184 45.9042 69.5792 45.9379 69.3997C46.0057 69.0269 46.1041 68.4879 46.2311 67.7913C46.2327 67.7839 46.2307 67.776 46.2272 67.7701C45.7725 66.9618 45.3158 65.7854 45.2809 64.3217C45.2421 62.8733 45.6662 61.1332 46.8191 59.6401C47.3918 58.898 48.1401 58.2293 49.0323 57.7267C49.9229 57.2234 50.9578 56.8894 52.0523 56.8008C53.146 56.7044 54.2949 56.8788 55.3682 57.3088C55.9123 57.5095 56.4168 57.8161 56.9072 58.1454C57.378 58.5017 57.8374 58.8913 58.2192 59.3594C58.6261 59.8133 58.9378 60.3351 59.2188 60.86C59.4662 61.4017 59.6888 61.9536 59.7998 62.5279C60.0495 63.6667 60.035 64.8384 59.759 65.9093C59.4866 66.9818 58.9793 67.9532 58.329 68.7521C57.6791 69.553 56.888 70.1821 56.0534 70.6216C55.2185 71.0633 54.3424 71.3146 53.5062 71.4134C53.4016 71.4263 53.2977 71.4389 53.1946 71.4514C53.0915 71.4624 52.988 71.4581 52.8865 71.462C52.6826 71.4624 52.4815 71.4785 52.2847 71.4663C51.8908 71.4487 51.5129 71.4009 51.155 71.3299C49.7175 71.0371 48.6435 70.3797 47.9312 69.7991C47.9179 69.7882 47.8987 69.7897 47.8873 69.8031C47.8779 69.814 47.8779 69.8301 47.8857 69.8411L47.8881 69.8442L47.9112 69.7952C47.246 69.8481 46.7301 69.8889 46.3722 69.9175C46.2001 69.932 46.0665 69.9434 45.9685 69.9516C45.8783 69.9599 45.8281 69.9665 45.8281 69.9665Z" fill="#263238"/>
<path d="M49.4375 64.6247L50.256 63.8062L51.8346 65.2096L54.9329 62.228L55.693 63.0465L51.7178 66.7878L49.4375 64.6247Z" fill="#FF725E"/>
<path d="M180.875 150.104C180.885 150.012 180.893 149.92 180.897 149.828C180.976 148.064 180.26 146.374 179.57 144.748C177.721 140.388 175.932 135.763 176.452 131.058C177.139 124.837 181.714 119.691 183.347 113.674C183.539 112.966 184.189 112.479 184.925 112.479C186.029 112.479 186.831 113.549 186.492 114.597C184.673 120.224 180.524 125.157 179.872 131.058C179.353 135.763 181.142 140.388 182.99 144.748C183.68 146.374 184.396 148.064 184.317 149.828C184.239 151.592 183.104 153.446 181.356 153.729H181.187H177.937H155.359C154.453 153.729 153.719 152.996 153.719 152.094V151.739C153.719 150.836 154.453 150.104 155.359 150.104H180.875Z" fill="#455A64"/>
<path d="M186.103 189.078H148.377C147.851 189.078 147.36 188.819 147.032 188.367C146.656 187.849 146.553 187.168 146.757 186.545L157.496 153.637L158.056 153.82L147.317 186.728C147.172 187.172 147.244 187.656 147.509 188.021C147.725 188.318 148.041 188.489 148.377 188.489H186.103C186.434 188.489 186.737 188.331 186.955 188.043C187.219 187.695 187.304 187.225 187.181 186.786L177.952 153.808L178.519 153.649L187.748 186.627C187.92 187.243 187.799 187.905 187.424 188.4C187.098 188.831 186.616 189.078 186.103 189.078Z" fill="#E0E0E0"/>
<path d="M133.191 129.347C133.191 129.347 134.565 126.008 135.922 125.302C137.28 124.596 139.008 124.144 139.008 124.144H145.05L145.11 128.056C145.11 128.056 144.238 128.931 143.042 128.765C141.846 128.6 138.86 127.862 138.86 127.862L137.386 127.943L136.028 129.685C136.028 129.685 134.925 130.02 135.313 128.976C135.701 127.933 135.874 127.473 135.874 127.473C135.874 127.473 134.57 129.503 134.069 129.596C133.569 129.69 133.191 129.347 133.191 129.347Z" fill="#6F4439"/>
<path d="M158.164 116.756L153.356 123.672L145.051 124.144L144.938 127.939L151.195 129.171C154.446 129.81 157.803 128.814 160.178 126.504L161.093 118.139L158.164 116.756Z" fill="#AE7461"/>
<path d="M154.434 174.116L160.022 179.581C160.022 179.581 155.987 187.371 156.916 188.487L168.582 177.509L160.246 168.618L154.434 174.116Z" fill="#263238"/>
<path d="M163.178 175.71C163.459 175.556 163.842 175.649 163.994 175.913C164.146 176.178 164.033 176.571 163.754 176.73C163.476 176.889 163.012 176.792 162.892 176.511C162.772 176.229 162.929 175.773 163.235 175.683" fill="#E0E0E0"/>
<path d="M168.582 177.509L167.705 176.647L156.847 187.495C156.847 187.495 156.53 188.197 156.916 188.487L168.582 177.509Z" fill="#455A64"/>
<path d="M159.781 179.703C159.834 179.756 160.142 179.512 160.586 179.421C161.029 179.318 161.393 179.415 161.426 179.345C161.468 179.285 161.079 179.044 160.542 179.163C160.006 179.277 159.722 179.666 159.781 179.703Z" fill="white"/>
<path d="M159.008 181.332C159.045 181.396 159.378 181.256 159.787 181.301C160.197 181.334 160.479 181.534 160.534 181.478C160.595 181.436 160.337 181.084 159.826 181.038C159.317 180.987 158.961 181.28 159.008 181.332Z" fill="white"/>
<path d="M159.624 183.368C159.686 183.331 159.511 182.988 159.086 182.831C158.662 182.671 158.283 182.808 158.301 182.875C158.311 182.95 158.634 182.945 158.981 183.079C159.331 183.204 159.562 183.416 159.624 183.368Z" fill="white"/>
<path d="M158.654 178.309C158.725 178.336 158.916 178.016 159.257 177.734C159.593 177.445 159.94 177.311 159.926 177.237C159.922 177.167 159.489 177.198 159.091 177.536C158.691 177.871 158.586 178.294 158.654 178.309Z" fill="white"/>
<path d="M155.091 135.161C154.07 135.161 129.174 142.413 126.481 144.864C123.787 147.316 121.771 177.651 121.771 177.651L132.21 181.23C132.21 181.23 134.41 166.415 135.744 161.629C136.804 157.826 136.56 154.274 136.56 154.274L157.228 145.273L155.091 135.161Z" fill="#263238"/>
<path d="M155.719 136.765C155.255 136.969 137.167 144.692 135.467 149.866C134.082 154.082 135.693 157.795 137.628 160.696C139.812 163.972 155.833 178.591 155.833 178.591L164.875 172.125L149.373 156.116C149.373 156.116 157.506 151.095 157.785 151.095C158.064 151.095 166.519 150.536 169.199 150.232C171.702 149.949 173.071 146.36 173.071 146.36L175.303 136.071L158.528 132.199L155.719 136.765Z" fill="#263238"/>
<path d="M155.719 136.765C155.719 136.765 155.777 136.662 155.896 136.464C156.017 136.265 156.194 135.972 156.428 135.587C156.9 134.814 157.597 133.672 158.505 132.184L158.516 132.167L158.535 132.172C162.276 133.029 168.04 134.35 175.316 136.018L175.368 136.029L175.357 136.082C174.688 139.175 173.938 142.65 173.133 146.373L173.132 146.379L173.13 146.383C172.748 147.303 172.232 148.189 171.538 148.962C171.19 149.346 170.78 149.687 170.311 149.938C170.195 150.003 170.077 150.065 169.948 150.105C169.821 150.146 169.7 150.211 169.565 150.228C169.433 150.252 169.3 150.284 169.168 150.303L168.771 150.345C166.654 150.554 164.463 150.71 162.21 150.875C161.084 150.951 159.942 151.029 158.785 151.108C158.495 151.126 158.205 151.143 157.913 151.161L157.801 151.166C157.777 151.165 157.78 151.174 157.769 151.174C157.762 151.175 157.74 151.187 157.726 151.193C157.664 151.22 157.599 151.256 157.535 151.289L157.152 151.501C156.643 151.79 156.135 152.091 155.625 152.395C153.588 153.613 151.518 154.882 149.412 156.179L149.427 156.063C153.287 160.05 157.354 164.249 161.533 168.563C162.674 169.742 163.808 170.912 164.93 172.072L164.992 172.135L164.92 172.187C161.836 174.391 158.815 176.551 155.877 178.651L155.827 178.687L155.782 178.645C152.545 175.678 149.436 172.774 146.484 169.952C145.009 168.542 143.574 167.15 142.193 165.769C140.814 164.389 139.474 163.033 138.267 161.621C138.109 161.451 137.979 161.256 137.835 161.075C137.695 160.891 137.551 160.709 137.433 160.513C137.183 160.13 136.945 159.742 136.725 159.348C136.281 158.561 135.899 157.754 135.601 156.929C135.304 156.105 135.087 155.264 134.978 154.422C134.871 153.579 134.869 152.739 134.961 151.925C135.049 151.11 135.237 150.323 135.524 149.585C135.842 148.852 136.345 148.248 136.859 147.697C137.913 146.61 139.068 145.733 140.195 144.949C142.458 143.388 144.619 142.178 146.524 141.157C148.432 140.139 150.098 139.325 151.462 138.677C152.827 138.03 153.892 137.553 154.614 137.235C154.975 137.079 155.25 136.96 155.437 136.879C155.623 136.801 155.719 136.765 155.719 136.765C155.719 136.765 155.626 136.81 155.443 136.893C155.256 136.977 154.983 137.1 154.625 137.261C153.906 137.587 152.845 138.071 151.485 138.726C150.125 139.38 148.463 140.201 146.56 141.225C144.66 142.252 142.504 143.467 140.251 145.03C139.129 145.815 137.979 146.692 136.936 147.771C136.429 148.318 135.933 148.918 135.627 149.629C135.349 150.35 135.161 151.136 135.076 151.94C134.986 152.744 134.99 153.575 135.097 154.408C135.206 155.241 135.422 156.072 135.718 156.889C136.015 157.705 136.395 158.506 136.836 159.286C137.055 159.678 137.292 160.063 137.542 160.444C137.66 160.64 137.802 160.818 137.94 160.999C138.082 161.178 138.209 161.368 138.367 161.538C139.57 162.941 140.911 164.296 142.291 165.674C143.671 167.052 145.107 168.441 146.583 169.85C149.536 172.669 152.646 175.571 155.884 178.536L155.79 178.53C158.728 176.429 161.748 174.269 164.831 172.064L164.82 172.179C163.698 171.02 162.565 169.85 161.423 168.671C157.246 164.356 153.18 160.156 149.32 156.168L149.255 156.101L149.334 156.053C151.441 154.756 153.512 153.488 155.551 152.271C156.062 151.967 156.57 151.666 157.081 151.376L157.467 151.163C157.534 151.129 157.596 151.094 157.668 151.063C157.688 151.054 157.697 151.047 157.726 151.038C157.75 151.031 157.787 151.022 157.8 151.023L157.906 151.018C158.197 151.001 158.487 150.984 158.776 150.966C159.932 150.888 161.074 150.811 162.201 150.735C164.453 150.573 166.644 150.419 168.758 150.212C169.292 150.178 169.796 150.071 170.25 149.822C170.702 149.581 171.101 149.251 171.442 148.875C172.123 148.12 172.638 147.24 173.013 146.338L173.01 146.347C173.821 142.626 174.578 139.152 175.252 136.06L175.292 136.124C168.022 134.434 162.261 133.095 158.523 132.227L158.553 132.214C157.633 133.697 156.927 134.836 156.449 135.607C156.211 135.989 156.03 136.278 155.906 136.476C155.784 136.669 155.719 136.765 155.719 136.765Z" fill="#455A64"/>
<path d="M157.365 87.2874C156.55 87.4533 155.654 86.9225 155.407 86.1291C155.16 85.3353 155.598 84.3902 156.363 84.0644C155.805 83.585 155.602 82.7359 155.882 82.0558C156.161 81.3757 156.903 80.9155 157.636 80.9664C157.603 80.2412 157.975 79.5102 158.58 79.1095C159.185 78.7085 160.003 78.6521 160.658 78.9657C161.397 78.2107 162.683 78.0727 163.566 78.6529C164.257 78.4616 165.056 78.7689 165.441 79.3737C165.826 79.9786 165.766 80.8324 165.3 81.3773" fill="#263238"/>
<path d="M164.075 80.2891L163.704 80.322C159.968 80.6521 157.112 83.7955 157.141 87.5462C157.168 91.0346 157.242 94.8879 157.429 96.7441C157.817 100.587 161.718 100.845 161.718 100.845L161.802 105.496L171.114 104.381L170.457 87.5442C170.448 83.5192 168.099 80.1691 164.075 80.2891Z" fill="#AE7461"/>
<path d="M161.713 100.845C161.713 100.845 164.156 100.773 166.596 98.9212C166.596 98.9212 165.606 101.865 161.736 101.858L161.713 100.845Z" fill="#6F4439"/>
<path d="M158.53 91.1137C158.545 91.4046 158.804 91.632 159.109 91.6214C159.413 91.6108 159.647 91.367 159.632 91.0761C159.616 90.7852 159.357 90.5579 159.053 90.5681C158.749 90.5787 158.514 90.8229 158.53 91.1137Z" fill="#263238"/>
<path d="M158.134 89.3553C158.209 89.4211 158.598 89.0761 159.189 89.0252C159.779 88.966 160.24 89.2318 160.298 89.1538C160.326 89.1189 160.246 88.9954 160.045 88.8747C159.847 88.7539 159.517 88.6489 159.149 88.683C158.781 88.7175 158.483 88.8805 158.317 89.035C158.148 89.1914 158.098 89.3262 158.134 89.3553Z" fill="#263238"/>
<path d="M163.844 90.8076C163.86 91.0985 164.119 91.3254 164.423 91.3149C164.727 91.3047 164.961 91.0605 164.946 90.7696C164.931 90.4787 164.671 90.2514 164.368 90.262C164.064 90.2721 163.829 90.5168 163.844 90.8076Z" fill="#263238"/>
<path d="M163.956 88.9519C164.031 89.0173 164.421 88.6728 165.011 88.6222C165.601 88.563 166.062 88.8288 166.12 88.7508C166.149 88.7159 166.069 88.5924 165.867 88.4721C165.669 88.3517 165.34 88.2463 164.972 88.2804C164.604 88.3149 164.306 88.4779 164.14 88.6324C163.971 88.7876 163.92 88.9229 163.956 88.9519Z" fill="#263238"/>
<path d="M162.197 93.5261C162.197 93.492 161.824 93.4611 161.222 93.4375C161.069 93.4352 160.924 93.4179 160.889 93.3172C160.844 93.2114 160.893 93.0428 160.95 92.8609C161.06 92.483 161.174 92.0871 161.295 91.672C161.77 89.9805 162.1 88.5948 162.032 88.5764C161.964 88.5579 161.523 89.9139 161.047 91.6053C160.934 92.022 160.825 92.4195 160.722 92.7994C160.68 92.9762 160.599 93.1792 160.696 93.3987C160.747 93.5081 160.865 93.5802 160.964 93.5975C161.064 93.6183 161.149 93.6128 161.223 93.6104C161.826 93.59 162.198 93.5599 162.197 93.5261Z" fill="#263238"/>
<path d="M163.241 86.7222C163.332 86.8652 163.825 86.6579 164.447 86.5826C165.067 86.4932 165.603 86.5642 165.646 86.4035C165.664 86.327 165.542 86.2024 165.306 86.102C165.072 86.0017 164.725 85.9389 164.353 85.9879C163.98 86.0377 163.667 86.1879 163.474 86.3447C163.279 86.5023 163.2 86.654 163.241 86.7222Z" fill="#263238"/>
<path d="M157.891 86.9197C158.027 87.0428 158.503 86.8605 159.089 86.8021C159.674 86.7265 160.181 86.7966 160.283 86.6461C160.327 86.5736 160.237 86.4458 160.008 86.338C159.783 86.2302 159.416 86.1585 159.014 86.2043C158.612 86.2506 158.273 86.4031 158.081 86.5587C157.886 86.7151 157.83 86.8594 157.891 86.9197Z" fill="#263238"/>
<path d="M157.355 85.7488C157.355 85.7488 158.157 83.2498 159.269 82.5846C160.615 81.7798 161.357 83.2698 162.664 82.7767C163.972 82.2835 165.257 81.5117 166.718 82.4266C168.318 83.4282 167.685 84.2859 167.929 85.9848C168.916 92.8726 170.353 94.7182 170.425 91.4262C170.433 91.0655 171.398 90.6939 171.412 89.1718C171.429 87.1981 171.295 84.8159 170.735 83.4658C170.264 82.3278 169.525 81.5783 168.249 80.7924C166.236 79.5521 163.638 79.7512 161.892 80.0844C160.146 80.418 156.928 82.7461 157.355 85.7488Z" fill="#263238"/>
<path d="M170.169 91.3439C170.141 90.748 170.611 90.2337 171.208 90.2376C171.931 90.2423 172.766 90.5791 172.849 92.0663C172.998 94.7041 170.319 94.3089 170.31 94.2337C170.304 94.1823 170.222 92.4481 170.169 91.3439Z" fill="#AE7461"/>
<path d="M170.83 93.2086C170.841 93.1996 170.878 93.2384 170.958 93.2693C171.035 93.2999 171.167 93.3164 171.301 93.2572C171.574 93.1392 171.784 92.6837 171.77 92.2074C171.764 91.9671 171.701 91.7413 171.604 91.5567C171.513 91.3681 171.381 91.2403 171.239 91.2235C171.098 91.1988 171.003 91.2886 170.975 91.3646C170.944 91.4403 170.963 91.492 170.95 91.4975C170.943 91.5045 170.891 91.4563 170.906 91.3462C170.914 91.2933 170.941 91.2294 171 91.1753C171.061 91.1204 171.152 91.0886 171.25 91.0937C171.455 91.0965 171.648 91.2733 171.753 91.4755C171.87 91.6782 171.947 91.9318 171.954 92.2015C171.967 92.7342 171.723 93.247 171.348 93.3783C171.165 93.4371 171.007 93.3901 170.924 93.3324C170.839 93.2721 170.821 93.2141 170.83 93.2086Z" fill="#6F4439"/>
<path d="M169.669 86.2522C169.348 86.5156 169.008 86.788 168.6 86.8652C168.192 86.9425 167.7 86.7476 167.595 86.3458C167.548 86.1655 167.573 85.9491 167.441 85.8182C167.282 85.6622 167.021 85.7382 166.804 85.7814C166.046 85.9299 165.078 85.1644 164.817 84.4376C164.648 84.7469 164.229 84.8731 163.916 84.7089C163.604 84.5446 163.487 84.4458 163.233 84.2016C162.978 83.9574 162.633 83.7496 162.29 83.8296C162.098 83.8743 161.926 84.0064 161.729 84.0064C161.381 84.0064 161.176 83.6167 161.094 83.2785C161.011 82.9402 160.935 82.5438 160.626 82.3835C160.34 82.2346 159.998 82.3655 159.684 82.4407C159.37 82.5156 158.953 82.4772 158.844 82.1734C158.787 82.0143 158.842 81.8363 158.92 81.6861C159.272 81.0052 160.14 80.6399 160.873 80.8633C161.054 79.9715 161.807 79.2232 162.7 79.0484C163.593 78.8735 164.573 79.2828 165.076 80.0405C165.588 79.487 166.376 79.204 167.123 79.3063C167.87 79.4086 168.553 79.8931 168.897 80.5638C169.522 80.3388 170.274 80.5219 170.725 81.0088C171.177 81.496 171.302 82.2589 171.031 82.8649C171.528 83.093 171.974 83.5274 172.032 84.0707C172.09 84.6144 171.607 85.2036 171.069 85.1067C171.319 85.5117 171.197 86.1024 170.807 86.3756C170.417 86.6489 169.821 86.5618 169.525 86.1887" fill="#263238"/>
<path d="M160.745 81.654C160.743 81.6544 160.745 81.6704 160.75 81.7022C160.756 81.7335 160.762 81.781 160.779 81.8414C160.814 81.9605 160.878 82.1361 161.015 82.3314C161.152 82.5234 161.356 82.7406 161.653 82.9017C161.944 83.0652 162.334 83.1745 162.758 83.1138L162.708 83.0597C162.646 83.2917 162.692 83.5599 162.825 83.7814C162.952 84.0071 163.137 84.2008 163.332 84.3886C163.431 84.4779 163.52 84.5857 163.653 84.6645C163.782 84.7398 163.932 84.7766 164.083 84.7825C164.383 84.7943 164.71 84.6728 164.903 84.4042L164.802 84.385C164.916 84.9021 165.259 85.3987 165.76 85.6763C166.026 85.835 166.345 85.9181 166.649 85.8829C166.953 85.8531 167.228 85.7386 167.483 85.6206L167.41 85.5959C167.58 85.9103 167.822 86.1702 168.105 86.3529C168.382 86.5355 168.738 86.6257 169.043 86.5214C169.652 86.3352 170.018 85.7825 170.058 85.289L170.001 85.3219C170.324 85.4626 170.656 85.4493 170.917 85.3748C171.181 85.3019 171.382 85.1663 171.522 85.0381C171.663 84.9072 171.741 84.779 171.787 84.6908C171.829 84.5999 171.845 84.5501 171.842 84.5489C171.828 84.5391 171.772 84.7567 171.492 85.0052C171.352 85.1243 171.155 85.2494 170.9 85.3133C170.649 85.3795 170.333 85.3842 170.035 85.2486L169.983 85.2251L169.978 85.2815C169.934 85.7425 169.58 86.2592 169.015 86.4254C168.738 86.5167 168.425 86.436 168.162 86.2631C167.898 86.0906 167.667 85.8401 167.509 85.5446L167.484 85.4975L167.436 85.5195C167.184 85.6347 166.919 85.7425 166.637 85.7692C166.356 85.8002 166.07 85.7265 165.816 85.5763C165.343 85.3141 165.021 84.8492 164.911 84.3599L164.884 84.2369L164.811 84.3403C164.648 84.5701 164.356 84.6841 164.087 84.6743C163.951 84.67 163.818 84.6379 163.705 84.5732C163.595 84.5113 163.503 84.405 163.402 84.3149C163.208 84.131 163.028 83.9448 162.907 83.7347C162.782 83.5277 162.74 83.2925 162.792 83.0824L162.808 83.0177L162.742 83.0279C162.344 83.0907 161.969 82.993 161.685 82.8409C161.396 82.6916 161.192 82.4858 161.054 82.3039C160.78 81.9256 160.764 81.6461 160.745 81.654Z" fill="#455A64"/>
<path d="M162.248 95.4195C162.254 95.3203 162.914 95.3979 163.449 94.8903C163.986 94.3838 163.997 93.6723 164.089 93.6786C164.132 93.6743 164.199 93.8503 164.171 94.1478C164.146 94.4399 164.001 94.8534 163.674 95.1639C163.346 95.4732 162.945 95.5751 162.672 95.5653C162.393 95.5575 162.239 95.4642 162.248 95.4195Z" fill="#263238"/>
<path d="M124.145 173.747L122.929 182.186C122.929 182.186 113.472 183.647 113.088 185.182L130.263 188.389L132.726 175.327L124.145 173.747Z" fill="#263238"/>
<path d="M128.37 182.472C128.686 182.621 128.851 183.017 128.716 183.321C128.581 183.625 128.162 183.779 127.842 183.636C127.523 183.493 127.31 183.022 127.48 182.735C127.651 182.449 128.154 182.294 128.43 182.505" fill="#E0E0E0"/>
<path d="M130.263 188.389L130.457 187.062L113.917 184.483C113.917 184.483 113.095 184.656 113.088 185.182L130.263 188.389Z" fill="#455A64"/>
<path d="M122.666 182.051C122.655 182.131 123.067 182.245 123.433 182.578C123.808 182.902 123.958 183.285 124.041 183.268C124.121 183.267 124.083 182.769 123.632 182.374C123.186 181.975 122.662 181.975 122.666 182.051Z" fill="white"/>
<path d="M120.735 182.42C120.701 182.494 121.04 182.697 121.264 183.086C121.499 183.469 121.504 183.846 121.588 183.858C121.665 183.885 121.808 183.431 121.521 182.952C121.238 182.47 120.75 182.345 120.735 182.42Z" fill="white"/>
<path d="M119.338 184.271C119.411 184.302 119.6 183.928 119.465 183.452C119.332 182.976 118.968 182.73 118.92 182.79C118.861 182.846 119.073 183.128 119.178 183.519C119.293 183.908 119.256 184.248 119.338 184.271Z" fill="white"/>
<path d="M123.167 180.162C123.189 180.241 123.594 180.203 124.063 180.322C124.534 180.432 124.875 180.652 124.931 180.592C124.99 180.543 124.684 180.182 124.13 180.049C123.577 179.912 123.138 180.092 123.167 180.162Z" fill="white"/>
<path d="M161.379 106.095L161.732 104.499L171.113 99.8401L171.931 101.117C171.931 101.117 175.442 103.974 176.786 106.453C178.13 108.933 176.536 129.236 176.312 132.199C175.86 138.17 173.629 145.985 173.629 145.985C173.629 145.985 170.618 143.889 161.762 140.253C152.906 136.617 152.432 134.971 152.432 134.971L157.65 128.353L161.379 106.095Z" fill="#FF7C1D"/>
<path d="M161.521 106.654C161.468 106.948 157.229 117.13 157.229 117.13C157.229 117.13 159.432 118.359 159.739 118.421C160.046 118.482 161.521 106.654 161.521 106.654Z" fill="#FF7C1D"/>
<path d="M161.093 108.323C161.135 108.33 160.758 110.917 160.253 114.102C159.747 117.287 159.303 119.863 159.261 119.856C159.219 119.85 159.595 117.263 160.101 114.078C160.607 110.893 161.051 108.317 161.093 108.323Z" fill="#263238"/>
<path d="M131.332 128.693C131.332 128.693 133.859 124.965 135.365 124.31C136.871 123.655 138.755 123.301 138.755 123.301L145.109 124.15L144.996 127.945C144.996 127.945 143.996 128.816 142.728 128.549C141.46 128.283 138.318 127.27 138.318 127.27L136.734 127.246L135.15 129.009C135.15 129.009 133.944 129.286 134.437 128.197C134.931 127.109 135.151 126.63 135.151 126.63C135.151 126.63 133.603 128.706 133.06 128.769C132.517 128.832 131.332 128.693 131.332 128.693Z" fill="#AE7461"/>
<path d="M164.536 113.76L160.131 123.997L145.049 124.144L144.936 127.938C144.936 127.938 159.48 133.066 163.352 132.07C167.225 131.074 173.648 117.379 173.648 117.379L164.536 113.76Z" fill="#AE7461"/>
<path d="M168.104 105.123C167.692 105.496 166.329 107.097 164.875 110.577C163.42 114.057 161.379 118.124 161.379 118.124L171.777 122.268C171.777 122.268 174.147 116.815 175.247 114.388C176.085 112.541 176.671 108.907 175.908 107.149C175.145 105.39 171.725 101.839 168.104 105.123Z" fill="#FF7C1D"/>
<path d="M168.104 105.123C168.104 105.123 168.135 105.09 168.199 105.031C168.265 104.974 168.358 104.883 168.493 104.778C168.759 104.568 169.172 104.268 169.775 104.021C170.375 103.787 171.198 103.63 172.107 103.848C173.014 104.052 173.959 104.61 174.772 105.441C175.178 105.858 175.559 106.341 175.858 106.907C176.151 107.482 176.276 108.151 176.311 108.833C176.376 110.201 176.181 111.664 175.769 113.144C175.57 113.889 175.228 114.608 174.909 115.338C174.587 116.071 174.258 116.82 173.923 117.582C173.253 119.105 172.558 120.683 171.847 122.3L171.817 122.368L171.748 122.34C171.701 122.322 171.649 122.301 171.597 122.281C167.915 120.81 164.427 119.417 161.353 118.189L161.283 118.161L161.317 118.094C162.288 116.147 163.148 114.334 163.885 112.709C164.628 111.088 165.188 109.622 165.802 108.48C166.398 107.331 166.961 106.473 167.388 105.92C167.601 105.643 167.778 105.441 167.903 105.31C168.029 105.18 168.104 105.123 168.104 105.123C168.105 105.124 168.089 105.141 168.058 105.175C168.022 105.213 167.977 105.262 167.919 105.325C167.8 105.46 167.629 105.666 167.423 105.946C167.009 106.505 166.46 107.366 165.876 108.517C165.275 109.659 164.726 111.126 163.99 112.755C163.261 114.386 162.408 116.203 161.441 118.155L161.405 118.059C164.481 119.283 167.97 120.671 171.655 122.137C171.706 122.158 171.758 122.178 171.805 122.197L171.706 122.238C172.419 120.621 173.115 119.043 173.786 117.52C174.122 116.758 174.452 116.01 174.776 115.277C175.098 114.542 175.434 113.84 175.634 113.104C176.046 111.642 176.243 110.188 176.184 108.839C176.153 108.166 176.033 107.515 175.753 106.961C175.465 106.408 175.092 105.928 174.695 105.516C173.898 104.692 172.974 104.138 172.088 103.931C171.2 103.709 170.392 103.854 169.796 104.076C169.198 104.312 168.783 104.601 168.512 104.803C168.375 104.903 168.279 104.991 168.209 105.043C168.142 105.098 168.104 105.123 168.104 105.123Z" fill="#263238"/>
<path d="M137.999 125.217C138.003 125.266 137.217 125.197 136.391 125.624C135.556 126.036 135.146 126.71 135.109 126.677C135.094 126.669 135.172 126.489 135.369 126.245C135.564 126.001 135.892 125.705 136.322 125.487C136.752 125.27 137.185 125.182 137.497 125.17C137.81 125.156 138.001 125.2 137.999 125.217Z" fill="#6F4439"/>
<path d="M162.471 118.56C162.474 118.561 162.463 118.597 162.438 118.665C162.407 118.745 162.368 118.843 162.321 118.964C162.207 119.239 162.053 119.615 161.86 120.085C161.448 121.059 160.874 122.417 160.195 124.024L160.177 124.066L160.132 124.066C158.76 124.082 157.2 124.1 155.551 124.119C152.658 124.138 150.04 124.155 148.125 124.168C147.188 124.167 146.423 124.166 145.874 124.166C145.621 124.162 145.417 124.16 145.262 124.157C145.123 124.154 145.049 124.149 145.049 124.144C145.049 124.139 145.122 124.133 145.262 124.126C145.417 124.121 145.62 124.115 145.874 124.106C146.422 124.095 147.186 124.079 148.124 124.06C150.039 124.035 152.657 124.002 155.549 123.965C157.199 123.952 158.759 123.939 160.13 123.928L160.068 123.97C160.768 122.371 161.359 121.021 161.784 120.052C161.992 119.589 162.158 119.218 162.28 118.947C162.336 118.829 162.38 118.734 162.417 118.656C162.449 118.591 162.467 118.558 162.471 118.56Z" fill="#6F4439"/>
<path d="M29.0223 132.199H26.1191V189.004H29.0223V132.199Z" fill="#455A64"/>
<path d="M148.188 132.599H145.285V189.01H148.188V132.599Z" fill="#455A64"/>
<path d="M151.064 131.639H18.8652V135.066H151.064V131.639Z" fill="#455A64"/>
<path d="M149.792 135.067C149.792 135.109 134.365 135.144 115.34 135.144C96.308 135.144 80.8848 135.109 80.8848 135.067C80.8848 135.024 96.308 134.99 115.34 134.99C134.366 134.99 149.792 135.024 149.792 135.067Z" fill="#263238"/>
<path d="M111.739 111.588C112.087 111.522 112.422 111.751 112.488 112.099L116.065 131.057H133.461C133.721 131.057 133.932 131.267 133.932 131.527C133.932 131.787 133.721 131.998 133.461 131.998H115.011V131.923L114.927 131.939L111.228 112.336C111.162 111.989 111.391 111.653 111.739 111.588Z" fill="#263238"/>
<path d="M24.5561 67.3522C26.2115 64.916 28.5902 63.386 31.5192 63.0759C33.1719 62.9011 33.8873 63.1837 35.108 63.3993C36.3287 63.6145 37.4612 64.1582 38.262 65.1041C39.2134 66.2276 40.0425 67.5067 40.3322 68.95C40.6297 70.4326 40.6458 71.9077 40.469 73.1401C40.2538 74.6368 39.4474 76.9676 38.6717 78.2659L36.1589 78.801C34.0547 79.0609 31.921 79.3208 29.8219 79.0229C27.7227 78.7246 25.6263 77.7963 24.3644 76.0927C22.6114 73.7254 22.9007 69.7889 24.5561 67.3522Z" fill="#263238"/>
<path d="M27.9556 67.0241L32.8697 64.5447L34.2143 64.5808C37.2099 64.3244 39.5698 67.4432 39.8057 69.8669C40.0676 72.5596 40.2816 75.8575 40.0304 77.8821C39.5255 81.9527 36.1464 82.5889 36.1464 82.5889C36.1464 82.5889 36.7129 87.3364 36.8579 88.6751L28.7008 86.182L26.7306 68.5118C26.691 67.7732 27.2229 67.1268 27.9556 67.0241Z" fill="#FFBF9D"/>
<path d="M33.9557 77.4811C33.9647 77.2683 34.0651 77.0715 34.2031 76.9304C34.4786 76.6481 34.9126 76.5842 35.2517 76.7763C35.5907 76.9684 35.8138 77.4039 35.7911 77.8296C35.6339 78.0919 35.3744 78.2828 35.0729 78.3361C35.0263 78.3443 34.9788 78.3502 34.931 78.3533C34.7001 78.3678 34.459 78.311 34.2681 78.1569C34.0776 78.0033 33.9447 77.7442 33.9557 77.4811Z" fill="#FF9A6C"/>
<path d="M39.0255 73.5035C39.0447 73.7775 38.8283 74.0194 38.5426 74.0445C38.2576 74.0696 38.0102 73.8685 37.9914 73.5949C37.9722 73.3209 38.1886 73.0786 38.4736 73.0535C38.7593 73.0284 39.0063 73.2299 39.0255 73.5035Z" fill="#263238"/>
<path d="M39.0125 71.2954C38.9506 71.3652 38.5472 71.0876 37.9882 71.108C37.43 71.1206 37.0294 71.422 36.9667 71.3554C36.9357 71.326 36.9972 71.2017 37.1713 71.0657C37.3426 70.9304 37.6382 70.7944 37.9863 70.7838C38.3344 70.774 38.6315 70.892 38.8044 71.0175C38.9808 71.1437 39.0435 71.264 39.0125 71.2954Z" fill="#263238"/>
<path d="M35.8277 75.9747C35.8241 75.9429 36.1691 75.8712 36.7297 75.7803C36.8719 75.7607 37.006 75.7277 37.0268 75.6293C37.057 75.5251 36.9919 75.3734 36.917 75.2099C36.7712 74.8693 36.6183 74.5121 36.458 74.1378C35.8194 72.6109 35.3518 71.3534 35.4137 71.3283C35.4756 71.3032 36.0433 72.5204 36.6818 74.0472C36.8359 74.4239 36.9833 74.783 37.1232 75.1264C37.1828 75.2867 37.282 75.4674 37.2165 75.6838C37.1816 75.7916 37.0797 75.8728 36.9892 75.9006C36.8986 75.9316 36.8186 75.9359 36.7481 75.9426C36.182 75.9919 35.8308 76.0064 35.8277 75.9747Z" fill="#263238"/>
<path d="M36.1512 82.5838C36.1512 82.5838 33.4335 82.8523 30.6797 81.3223C30.6797 81.3223 32.2199 84.0797 36.259 83.5626L36.1512 82.5838Z" fill="#FF9A6C"/>
<path d="M39.0152 69.5843C38.9258 69.7238 38.495 69.6474 37.9964 69.7058C37.4962 69.7485 37.0881 69.91 36.9741 69.7909C36.9231 69.7325 36.9733 69.5976 37.1418 69.4545C37.3081 69.3122 37.5985 69.1754 37.9419 69.1405C38.2849 69.106 38.5962 69.1813 38.7863 69.2879C38.9791 69.3946 39.0536 69.5169 39.0152 69.5843Z" fill="#263238"/>
<path d="M33.2894 73.9226C33.2992 74.197 33.5399 74.4149 33.8264 74.4094C34.1126 74.4043 34.3372 74.1786 34.327 73.9042C34.3168 73.6298 34.0765 73.4118 33.7903 73.4169C33.5038 73.422 33.2796 73.6482 33.2894 73.9226Z" fill="#263238"/>
<path d="M31.469 71.7513C31.538 71.814 31.91 71.4957 32.4678 71.4569C33.0245 71.4106 33.4541 71.6682 33.5098 71.5953C33.5372 71.5631 33.4631 71.4455 33.2757 71.3287C33.0911 71.2123 32.7826 71.108 32.4357 71.1343C32.0884 71.1613 31.8053 71.3099 31.647 71.453C31.4847 71.5968 31.4353 71.7231 31.469 71.7513Z" fill="#263238"/>
<path d="M32.2045 69.7807C32.3213 69.9014 32.745 69.7462 33.2625 69.7117C33.7787 69.6611 34.2237 69.7446 34.3173 69.6066C34.3581 69.54 34.2821 69.4169 34.0837 69.3071C33.8885 69.1978 33.5674 69.1174 33.2119 69.1464C32.8568 69.1762 32.5545 69.3075 32.3816 69.4475C32.2056 69.5874 32.1527 69.7215 32.2045 69.7807Z" fill="#263238"/>
<path d="M28.0257 75.2209C28.0147 74.9194 27.6419 74.2205 27.3424 74.184C26.5431 74.0872 25.1119 74.1997 25.1676 76.2197C25.2436 78.9809 28.0002 78.3349 28.0029 78.2557C28.0045 78.1938 28.0637 76.262 28.0257 75.2209Z" fill="#FFBF9D"/>
<path d="M27.2128 77.2683C27.2003 77.2597 27.1658 77.3032 27.0854 77.3428C27.007 77.3812 26.8714 77.4102 26.726 77.36C26.4312 77.2608 26.1732 76.8046 26.1462 76.3075C26.1321 76.0562 26.1783 75.8155 26.2618 75.6148C26.3406 75.4106 26.4672 75.2659 26.6135 75.2358C26.7585 75.1981 26.8651 75.2832 26.9008 75.3596C26.94 75.4361 26.9239 75.4917 26.9384 75.4961C26.9463 75.5027 26.9964 75.4482 26.9714 75.3349C26.9584 75.2805 26.9243 75.2162 26.8577 75.1648C26.7899 75.1127 26.6919 75.088 26.5899 75.1017C26.3775 75.1225 26.1913 75.3236 26.0992 75.5435C25.9957 75.765 25.938 76.0354 25.9537 76.3177C25.9866 76.8735 26.2857 77.3863 26.6879 77.4909C26.8835 77.536 27.0439 77.4733 27.1258 77.4055C27.2097 77.3349 27.2226 77.2726 27.2128 77.2683Z" fill="#FF9A6C"/>
<path d="M27.2312 74.2021L27.9937 74.8638C32.3888 71.9728 36.858 64.1034 35.7035 64.4252C35.7035 64.4252 33.564 63.7604 31.3574 64.3417C29.1513 64.923 25.0019 66.4232 25.3026 69.0598C25.6033 71.6956 27.2312 74.2021 27.2312 74.2021Z" fill="#263238"/>
<path d="M25.9397 63.1641C27.0095 63.7894 27.9629 65.6126 27.5254 66.7721C27.723 67.9846 27.2553 69.2848 26.3306 70.0935C25.4058 70.9022 24.055 71.1927 22.8798 70.8352C22.068 70.5882 21.3455 70.0429 20.9092 69.3154C20.3914 68.4526 20.2942 67.3832 20.4792 66.3942C20.7065 65.1759 21.3749 64.0136 22.4133 63.3378C23.4517 62.662 24.87 62.5385 25.9397 63.1641Z" fill="#263238"/>
<path d="M25.6975 74.2087C25.7038 74.2209 25.8837 74.1452 26.2004 73.9912C26.5175 73.8375 26.9703 73.6027 27.5179 73.2895C28.6093 72.6638 30.0883 71.7085 31.4779 70.3616C32.8691 69.0151 33.8354 67.5188 34.343 66.3609C34.601 65.7827 34.764 65.2962 34.8546 64.9548C34.9459 64.6133 34.9781 64.4205 34.9659 64.4177C34.9263 64.406 34.7542 65.1716 34.209 66.2986C33.6735 67.4259 32.7045 68.8834 31.3321 70.2123C29.9609 71.5419 28.5097 72.5078 27.4427 73.1629C26.9076 73.4906 26.467 73.7442 26.1624 73.9198C25.8574 74.0947 25.6904 74.195 25.6975 74.2087Z" fill="#455A64"/>
<path d="M23.2882 72.1358C23.3262 72.1374 23.3423 71.6215 23.4964 70.8109C23.6481 70.001 23.9762 68.8999 24.5732 67.7925C25.1749 66.687 25.9181 65.8105 26.5136 65.2409C27.1086 64.6686 27.5316 64.3734 27.5097 64.3429C27.5014 64.3311 27.3901 64.3958 27.1945 64.5243C26.9969 64.6494 26.7276 64.8564 26.4128 65.1327C25.7825 65.6827 25.0032 66.5639 24.3893 67.6929C23.7794 68.8238 23.467 69.9575 23.3505 70.7862C23.291 71.2005 23.2647 71.5392 23.2678 71.7732C23.2674 72.0068 23.2737 72.1354 23.2882 72.1358Z" fill="#455A64"/>
<path d="M26.2207 78.5403C26.2207 79.1115 26.6837 79.5744 27.2548 79.5744C27.8259 79.5744 28.2889 79.1115 28.2889 78.5403C28.2889 77.9692 27.8259 77.5062 27.2548 77.5062C26.6837 77.5062 26.2207 77.9692 26.2207 78.5403Z" fill="#263238"/>
<path d="M35.9581 77.9194C35.9468 77.8218 35.3011 77.9343 34.7457 77.4627C34.1886 76.9923 34.14 76.2914 34.0491 76.3024C34.0071 76.3004 33.9507 76.478 33.9942 76.7696C34.0346 77.0562 34.1992 77.456 34.5391 77.7449C34.8797 78.0323 35.28 78.1111 35.5485 78.0864C35.8225 78.0628 35.9699 77.9629 35.9581 77.9194Z" fill="#263238"/>
<path d="M21.2255 113.075C21.2255 113.075 18.142 123.954 19.9738 129.86C21.0726 133.403 36.495 152.922 37.2379 153.762C37.7549 154.346 30.6437 172.785 29.3426 176.626L37.5189 180.589C37.5189 180.589 47.7505 158.834 48.3758 155.021C49.179 150.125 37.6691 129.179 38.092 128.898L42.2292 120.269L38.7957 111.382C38.7957 111.382 24.325 111.539 21.3701 111.775L21.2255 113.075Z" fill="#263238"/>
<path d="M39.1132 119.49C39.1132 119.49 59.0605 126.567 61.3094 127.765C63.7613 129.071 65.6131 133.652 63.5689 137.547C61.5246 141.441 43.5914 152.59 43.5914 152.59L39.1132 145.775L52.0911 135.553L38.0422 132.243L33.4668 126.821L39.1132 119.49Z" fill="#263238"/>
<path d="M48.377 154.896C48.3492 154.894 48.4691 154.401 48.3672 153.51C48.2751 152.62 47.9289 151.363 47.3574 149.866C47.0732 149.116 46.7326 148.306 46.3735 147.431C46.1912 146.997 46.0187 146.534 45.8388 146.066C45.6612 145.6 45.4507 145.125 45.2418 144.638C44.3911 142.694 43.4225 140.568 42.4041 138.34C40.7585 134.763 39.2379 131.459 38.018 128.808L38.0059 128.782L38.0125 128.755C38.5315 126.605 38.9886 124.847 39.3351 123.631C39.51 123.023 39.6577 122.551 39.7726 122.235C39.8345 122.078 39.8784 121.957 39.9223 121.881C39.967 121.805 39.9909 121.768 39.9945 121.771C39.9976 121.773 39.9804 121.815 39.9447 121.892C39.9094 121.969 39.8726 122.093 39.8189 122.251C39.7193 122.571 39.5864 123.045 39.4253 123.656C39.1062 124.877 38.673 126.641 38.1725 128.792L38.167 128.739C39.4088 131.371 40.9486 134.671 42.5895 138.255C43.6079 140.485 44.5719 142.612 45.4143 144.564C45.6216 145.054 45.8286 145.527 46.0066 146.003C46.1849 146.476 46.3508 146.93 46.5303 147.368C46.8815 148.243 47.2155 149.059 47.4923 149.815C48.0489 151.325 48.377 152.599 48.446 153.502C48.5248 154.406 48.377 154.896 48.377 154.896Z" fill="#455A64"/>
<path opacity="0.3" d="M39.3948 123.587C39.3556 123.73 39.3948 128.827 39.3948 128.827L41.9542 133.165L39.9103 132.684L38.0918 128.898L39.3948 123.587Z" fill="black"/>
<path d="M50.7142 122.808C50.1384 122.243 48.4501 120.657 47.2635 119.546C46.8095 119.121 47.1024 118.361 47.7241 118.348L61.3845 118.069C61.5871 118.065 61.7816 118.15 61.9164 118.301L64.7718 121.508C65.1641 121.949 64.8619 122.647 64.272 122.662L51.2164 123.005C51.029 123.009 50.8483 122.939 50.7142 122.808Z" fill="#455A64"/>
<path d="M46.8468 120.353C46.8468 120.353 48.4344 119.648 50.0216 119.49C51.6092 119.332 52.403 120.001 53.2533 119.921C54.1035 119.842 56.4281 120.069 56.4281 120.693C56.4281 121.317 53.1964 121.543 53.1964 121.543L56.031 122.45C56.031 122.45 59.2626 122.054 59.3195 122.45C59.3763 122.847 56.4281 123.244 55.0674 123.414C53.7068 123.584 45.826 123.698 44.6924 123.414C43.5583 123.131 35.5078 118.255 35.5078 118.255L39.3631 114.286L46.8468 120.353Z" fill="#FFBF9D"/>
<path d="M26.9934 84.8656C26.9934 84.8656 23.2854 85.4321 22.0173 89.4697C20.9628 92.8263 22.9742 106.621 23.8291 109.112C24.6841 111.602 33.8898 119.618 34.6989 118.936C35.508 118.255 39.994 114.286 39.994 114.286L32.7918 105.774C32.7918 105.774 33.1732 95.6672 32.6966 93.7601C32.2199 91.8534 28.9957 84.6747 26.9934 84.8656Z" fill="#FF7C1D"/>
<path d="M22.4916 101.69C23.0185 106.481 21.9899 108.54 21.9899 108.54C21.1569 109.171 20.739 110.214 20.6492 110.995C20.6002 111.421 20.942 111.789 21.3705 111.774L38.7961 111.381C38.7961 111.381 41.2347 111.614 41.183 109.302C41.1249 106.721 41.836 97.6527 40.8992 94.0878C40.5758 92.8577 36.5966 86.8593 36.5966 86.8593L28.2897 82.149L27.4108 84.4129C27.4108 84.4129 24.7754 85.3748 23.5716 86.9264C22.6198 88.1529 22.2854 88.9993 21.904 90.3132C21.1831 92.7958 22.209 99.1207 22.4916 101.69Z" fill="#FF7C1D"/>
<path d="M66.3041 93.6942C66.3041 93.6942 66.152 93.5578 65.6236 93.7283C65.0952 93.8989 63.593 94.6362 62.9117 94.8118C62.2304 94.9874 60.7534 95.5562 60.7534 95.5562C60.7534 95.5562 59.9309 95.4614 58.8867 96.1834C57.842 96.9055 54.8945 98.8526 54.8945 98.8526L55.9071 101.719C55.9071 101.719 57.0458 101.528 57.3696 101.624C57.6934 101.72 58.6573 101.78 59.4586 101.539C60.2598 101.298 61.3445 100.865 61.3445 100.865C61.3445 100.865 62.4009 100.951 62.6781 100.568C62.9552 100.185 62.6573 99.4923 62.6573 99.4923C62.6573 99.4923 63.6941 98.5413 63.2484 98.0066C62.8031 97.4719 62.2488 96.88 62.2488 96.88C62.2488 96.88 65.3241 95.2501 65.905 94.8181C66.4852 94.3865 66.5997 94.04 66.3041 93.6942Z" fill="#FFBF9D"/>
<path d="M54.8952 98.8525L45.3311 102.071L41.4668 104.024L46.8913 106.948L55.9077 101.719L54.8952 98.8525Z" fill="#FFBF9D"/>
<path d="M60.6889 96.4892C60.7367 96.4723 60.9476 97.6103 60.5713 98.9537C60.5564 99.0054 60.5415 99.0568 60.5274 99.105L60.4478 98.9753C61.082 99.0893 61.6469 99.2011 62.0534 99.292C62.4713 99.3755 62.692 99.5515 62.6712 99.5731C62.6559 99.5942 62.4376 99.4751 62.0279 99.4296C61.6171 99.3747 61.0464 99.2865 60.4121 99.1756L60.3008 99.156L60.3325 99.0458C60.3459 98.9992 60.3604 98.9494 60.3745 98.8992C60.7394 97.6029 60.6254 96.4904 60.6889 96.4892Z" fill="#FF9A6C"/>
<path d="M60.6425 97.8494C60.6495 97.8326 60.7279 97.8408 60.8397 97.9137C60.9486 97.9851 61.0905 98.1313 61.1513 98.3594L61.0486 98.2881C61.2089 98.2591 61.394 98.2391 61.59 98.2352C62.2916 98.2199 62.8287 98.4351 62.8095 98.4853C62.7938 98.5425 62.2583 98.4237 61.5939 98.4394C61.4069 98.4433 61.2297 98.4551 61.0745 98.4704L60.9874 98.479L60.9718 98.399C60.8985 98.0278 60.615 97.8843 60.6425 97.8494Z" fill="#FF9A6C"/>
<path d="M62.0833 97.1156C62.1163 97.1646 61.8587 97.3826 61.627 97.7142C61.3911 98.0431 61.2711 98.3579 61.2139 98.3434C61.161 98.3347 61.1994 97.9619 61.4604 97.5962C61.7188 97.2289 62.0575 97.0686 62.0833 97.1156Z" fill="#FF9A6C"/>
<path d="M36.416 84.7559L37.3764 87.336C38.4219 88.3274 41.0252 91.1129 41.5195 93.0302C42.1659 95.5374 45.08 101.84 45.08 101.84C45.08 101.84 51.6883 99.0227 52.1442 99.4853C52.6001 99.9478 54.9153 105.379 54.1536 106.518C53.392 107.658 46.6433 110.645 43.9134 109.974C41.1835 109.303 38.5948 105.351 38.5948 105.351L36.416 84.7559Z" fill="#FF7C1D"/>
<path d="M40.7544 93.0557C40.7677 93.051 40.8437 93.2603 40.9703 93.6441C41.0378 93.835 41.1103 94.0714 41.1691 94.3528C41.233 94.6327 41.3181 94.9494 41.3647 95.3085C41.496 96.0208 41.5595 96.8812 41.5921 97.8357C41.6077 98.7906 41.5748 99.84 41.5062 100.937C41.3557 103.131 41.2001 105.11 41.2177 106.547C41.2103 106.907 41.2318 107.23 41.2393 107.515C41.244 107.801 41.2624 108.046 41.2796 108.246C41.3094 108.646 41.3192 108.869 41.3055 108.871C41.2918 108.873 41.2549 108.654 41.2005 108.254C41.1707 108.054 41.1409 107.809 41.1252 107.522C41.1068 107.236 41.075 106.91 41.0734 106.549C41.019 105.105 41.1522 103.113 41.3024 100.925C41.371 99.8298 41.4094 98.7871 41.4039 97.8389C41.3819 96.8918 41.3341 96.038 41.222 95.3305C41.019 93.9106 40.7097 93.069 40.7544 93.0557Z" fill="#263238"/>
<path d="M44.9786 105.576C44.9221 105.575 44.8888 104.717 44.9041 103.659C44.9194 102.601 44.9774 101.745 45.0339 101.746C45.0903 101.746 45.1236 102.604 45.1083 103.662C45.093 104.72 45.035 105.577 44.9786 105.576Z" fill="#263238"/>
<path d="M32.6498 92.6069C32.6568 92.6073 32.6619 92.6868 32.665 92.8385C32.667 93.0122 32.6694 93.2317 32.6725 93.5014C32.6807 94.1043 32.6917 94.9306 32.7054 95.9393C32.7297 97.9965 32.8371 100.844 32.7525 103.986C32.7446 104.761 32.8136 105.533 33.1547 106.169C33.4961 106.804 34.0084 107.317 34.4498 107.833C35.3424 108.853 36.1484 109.774 36.832 110.555C37.491 111.319 38.0307 111.945 38.4247 112.402C38.5976 112.609 38.7383 112.777 38.85 112.911C38.9457 113.028 38.9931 113.092 38.9876 113.097C38.9821 113.102 38.9245 113.047 38.8187 112.938C38.6995 112.811 38.5494 112.651 38.3643 112.454C37.9582 112.007 37.402 111.396 36.7226 110.65C36.0296 109.877 35.2119 108.965 34.3071 107.957C33.8638 107.445 33.3452 106.938 32.9771 106.263C32.609 105.581 32.5396 104.769 32.5474 103.985C32.6321 100.844 32.5474 98.0012 32.56 95.9404C32.56 94.9103 32.5721 94.0765 32.5921 93.5006C32.6008 93.2125 32.6129 92.9891 32.6231 92.8378C32.6337 92.6857 32.6427 92.6065 32.6498 92.6069Z" fill="#263238"/>
<path d="M26.6659 84.8653C26.6745 84.8884 26.2707 85.0021 25.6133 85.3576C24.965 85.7151 24.0528 86.3454 23.261 87.4219C22.865 87.955 22.504 88.5967 22.2535 89.336C22.1214 89.7029 22.0309 90.0973 21.9646 90.5065C21.9074 90.9158 21.8741 91.3497 21.8454 91.7895C21.7917 92.6715 21.7898 93.601 21.8501 94.5606C21.914 95.5182 22.0469 96.5124 22.1485 97.5312C22.3637 99.5684 22.5691 101.508 22.7557 103.276C22.9379 105.042 23.081 106.636 23.4464 107.923C23.7972 109.212 24.3393 110.169 24.7999 110.753C25.0285 111.049 25.2292 111.259 25.3691 111.397C25.5103 111.535 25.5863 111.606 25.5812 111.612C25.5789 111.615 25.5573 111.6 25.5165 111.569C25.4765 111.538 25.4154 111.493 25.3409 111.428C25.1908 111.298 24.9787 111.094 24.7376 110.803C24.2519 110.226 23.6808 109.265 23.3072 107.962C22.9195 106.663 22.7608 105.058 22.5687 103.296C22.377 101.529 22.1665 99.5896 21.9454 97.5531C21.8439 96.5335 21.7126 95.5437 21.6502 94.5731C21.5918 93.6045 21.5977 92.6668 21.6573 91.7774C21.689 91.3317 21.7247 90.9021 21.787 90.4791C21.858 90.0589 21.9548 89.6551 22.0936 89.2804C22.3574 88.525 22.7341 87.8739 23.1453 87.3356C23.9681 86.2498 24.9085 85.6281 25.5761 85.2878C25.9128 85.1177 26.1857 85.0075 26.3754 84.9495C26.5639 84.8876 26.6639 84.8586 26.6659 84.8653Z" fill="#263238"/>
<path d="M36.5411 87.4223C36.5329 87.4336 36.3902 87.3478 36.1377 87.1816C35.8531 86.9883 35.498 86.7468 35.075 86.4599L35.1879 86.4035C35.1828 86.946 35.1769 87.5814 35.1707 88.2807L35.1695 88.4297L35.0354 88.3623C34.3604 88.0228 33.6168 87.6488 32.8343 87.2557C31.3334 86.4944 29.9798 85.7951 29.0049 85.2796C28.5486 85.0338 28.1636 84.8264 27.8548 84.6598C27.5854 84.5093 27.4392 84.4203 27.4455 84.4078C27.4518 84.3952 27.6101 84.4603 27.8904 84.5889C28.2072 84.7398 28.6015 84.9276 29.0696 85.1506C30.0613 85.6328 31.4251 86.3121 32.9265 87.0734C33.7061 87.4724 34.447 87.8515 35.1197 88.1957L34.9841 88.2768C35.0068 87.5783 35.0276 86.9428 35.0452 86.4007L35.0499 86.2619L35.1585 86.3439C35.5666 86.652 35.9088 86.9107 36.1836 87.1181C36.4219 87.3039 36.5493 87.4113 36.5411 87.4223Z" fill="#263238"/>
<path d="M39.6289 174.565L36.4067 181.311C36.4067 181.311 42.5925 186.981 42.1256 188.288L28.0371 182.265L32.6008 171.538L39.6289 174.565Z" fill="#263238"/>
<path d="M32.2992 178.872C31.9961 178.825 31.6825 179.035 31.6335 179.322C31.5845 179.609 31.815 179.926 32.1177 179.977C32.4199 180.028 32.8048 179.788 32.8201 179.496C32.8354 179.204 32.5438 178.846 32.24 178.866" fill="#E0E0E0"/>
<path d="M28.0371 182.265L28.542 181.202L41.861 187.375C41.861 187.375 42.3769 187.901 42.1256 188.288L28.0371 182.265Z" fill="#455A64"/>
<path d="M36.6633 181.341C36.6332 181.405 36.276 181.287 35.8476 181.352C35.4168 181.405 35.1204 181.612 35.0683 181.559C35.0103 181.52 35.2808 181.175 35.8017 181.106C36.3215 181.032 36.7041 181.288 36.6633 181.341Z" fill="white"/>
<path d="M37.8934 182.55C37.8816 182.62 37.5362 182.603 37.1838 182.779C36.8259 182.944 36.6382 183.216 36.5711 183.184C36.5021 183.166 36.619 182.765 37.0615 182.556C37.5021 182.342 37.9188 182.488 37.8934 182.55Z" fill="white"/>
<path d="M38.0099 184.581C37.9413 184.568 37.986 184.202 38.3165 183.922C38.645 183.639 39.0299 183.637 39.0354 183.704C39.0511 183.774 38.7598 183.875 38.4925 184.11C38.2189 184.338 38.0809 184.603 38.0099 184.581Z" fill="white"/>
</svg>
