<svg width="124" height="92" viewBox="0 0 124 92" fill="none" xmlns="http://www.w3.org/2000/svg">
<rect width="109" height="74" fill="#1BA94C"/>
<g clip-path="url(#clip0_505_69)">
<path d="M20.2531 24.1852C20.3623 24.1753 20.4723 24.1869 20.5769 24.2195C20.6816 24.2521 20.7788 24.305 20.863 24.3751C20.9472 24.4453 21.0168 24.5313 21.0677 24.6284C21.1187 24.7254 21.15 24.8316 21.1599 24.9407L21.7163 31.0605C21.7262 31.1696 21.7146 31.2797 21.682 31.3843C21.6494 31.489 21.5965 31.5862 21.5263 31.6704C21.4562 31.7546 21.3701 31.8241 21.2731 31.8751C21.176 31.926 21.0699 31.9574 20.9608 31.9673C20.8516 31.9773 20.7416 31.9656 20.6369 31.933C20.5323 31.9004 20.4351 31.8475 20.3509 31.7774C20.2667 31.7072 20.1971 31.6212 20.1462 31.5241C20.0952 31.4271 20.0639 31.321 20.0539 31.2118L19.4976 25.092C19.4876 24.9829 19.4993 24.8728 19.5319 24.7682C19.5645 24.6635 19.6173 24.5663 19.6875 24.4821C19.7577 24.3979 19.8437 24.3284 19.9408 24.2774C20.0378 24.2265 20.1439 24.1951 20.2531 24.1852Z" fill="#1BA94C"/>
<path d="M19.217 10.2733C15.3761 10.2733 12.2628 13.3866 12.2628 17.2275C12.2628 21.0685 15.3761 24.1818 19.217 24.1818C23.058 24.1818 26.1713 21.0685 26.1713 17.2275C26.1713 13.3866 23.058 10.2733 19.217 10.2733ZM10.5938 17.2275C10.5938 12.4653 14.4548 8.60425 19.217 8.60425C23.9793 8.60425 27.8403 12.4653 27.8403 17.2275C27.8403 21.9898 23.9793 25.8508 19.217 25.8508C14.4548 25.8508 10.5938 21.9898 10.5938 17.2275Z" fill="#1BA94C"/>
<path d="M23.3238 22.9429C23.5432 22.9138 23.7652 22.9731 23.9409 23.1077C24.1166 23.2423 24.2316 23.4412 24.2607 23.6606L25.6071 33.8083C25.6277 33.9639 25.6039 34.1222 25.5386 34.265C25.4733 34.4078 25.369 34.5293 25.2377 34.6154C25.1065 34.7016 24.9536 34.749 24.7966 34.7521C24.6396 34.7553 24.4849 34.7141 24.3503 34.6333L19.2164 31.5534L14.0824 34.6339C13.9478 34.7147 13.793 34.7559 13.636 34.7528C13.4789 34.7496 13.326 34.7021 13.1947 34.6159C13.0634 34.5296 12.9591 34.4081 12.8938 34.2652C12.8286 34.1224 12.8049 33.964 12.8257 33.8083L14.172 23.6717C14.2012 23.4523 14.3163 23.2535 14.492 23.1189C14.6678 22.9844 14.8898 22.9252 15.1092 22.9543C15.3286 22.9834 15.5274 23.0986 15.662 23.2743C15.7965 23.4501 15.8557 23.6721 15.8266 23.8915L14.7083 32.3123L18.7869 29.8644C18.9166 29.7865 19.0651 29.7453 19.2164 29.7453C19.3677 29.7453 19.5161 29.7865 19.6459 29.8644L23.725 32.3123L22.6067 23.8803C22.5776 23.661 22.6368 23.4391 22.7713 23.2634C22.9058 23.0878 23.1045 22.9721 23.3238 22.9429Z" fill="#1BA94C"/>
</g>
<g clip-path="url(#clip1_505_69)">
<rect width="27.25" height="38.5" transform="translate(81.75)" fill="#303031"/>
<rect x="80.5801" y="-1.17004" width="57.75" height="57.75" transform="rotate(45 80.5801 -1.17004)" fill="#7EE79A"/>
</g>
<path d="M13.7051 61.1868C14.2578 61.1868 14.6611 61.2952 14.915 61.512C15.1709 61.7268 15.2988 62.0354 15.2988 62.4377C15.2988 62.6194 15.2686 62.7922 15.208 62.9563C15.1494 63.1184 15.0537 63.262 14.9209 63.387C14.7881 63.51 14.6133 63.6077 14.3965 63.6799C14.1816 63.7502 13.918 63.7854 13.6055 63.7854H13.084V65.47H12.5859V61.1868H13.7051ZM13.6582 61.6116H13.084V63.3577H13.5498C13.8232 63.3577 14.0508 63.3284 14.2324 63.2698C14.416 63.2112 14.5537 63.1165 14.6455 62.9856C14.7373 62.8528 14.7832 62.677 14.7832 62.4583C14.7832 62.1731 14.6924 61.9612 14.5107 61.8225C14.3291 61.6819 14.0449 61.6116 13.6582 61.6116ZM16.9811 62.2004C17.0455 62.2004 17.1129 62.2043 17.1832 62.2122C17.2535 62.218 17.316 62.2268 17.3707 62.2385L17.3092 62.6897C17.2564 62.676 17.1979 62.6653 17.1334 62.6575C17.0689 62.6497 17.0084 62.6458 16.9518 62.6458C16.8229 62.6458 16.7008 62.6721 16.5855 62.7249C16.4723 62.7756 16.3727 62.8499 16.2867 62.9475C16.2008 63.0432 16.1334 63.1594 16.0846 63.2961C16.0357 63.4309 16.0113 63.5813 16.0113 63.7473V65.47H15.5221V62.259H15.9264L15.9791 62.8508H15.9996C16.066 62.7317 16.1461 62.6233 16.2398 62.5256C16.3336 62.426 16.442 62.3469 16.565 62.2883C16.69 62.2297 16.8287 62.2004 16.9811 62.2004ZM20.1457 63.8586C20.1457 64.1223 20.1115 64.3577 20.0432 64.5647C19.9748 64.7717 19.8762 64.9465 19.7473 65.0891C19.6184 65.2317 19.4621 65.3411 19.2785 65.4172C19.0969 65.4915 18.8908 65.5286 18.6604 65.5286C18.4455 65.5286 18.2482 65.4915 18.0686 65.4172C17.8908 65.3411 17.7365 65.2317 17.6057 65.0891C17.4768 64.9465 17.3762 64.7717 17.3039 64.5647C17.2336 64.3577 17.1984 64.1223 17.1984 63.8586C17.1984 63.5071 17.258 63.2083 17.3771 62.9622C17.4963 62.7141 17.6662 62.5256 17.8869 62.3967C18.1096 62.2659 18.3742 62.2004 18.6809 62.2004C18.9738 62.2004 19.2297 62.2659 19.4484 62.3967C19.6691 62.5276 19.84 62.717 19.9611 62.9651C20.0842 63.2112 20.1457 63.509 20.1457 63.8586ZM17.7023 63.8586C17.7023 64.1165 17.7365 64.3401 17.8049 64.5295C17.8732 64.719 17.9787 64.8655 18.1213 64.969C18.2639 65.0725 18.4475 65.1243 18.6721 65.1243C18.8947 65.1243 19.0773 65.0725 19.2199 64.969C19.3645 64.8655 19.4709 64.719 19.5393 64.5295C19.6076 64.3401 19.6418 64.1165 19.6418 63.8586C19.6418 63.6028 19.6076 63.3821 19.5393 63.1965C19.4709 63.009 19.3654 62.8645 19.2229 62.7629C19.0803 62.6614 18.8957 62.6106 18.6691 62.6106C18.3352 62.6106 18.09 62.7209 17.9338 62.9417C17.7795 63.1624 17.7023 63.468 17.7023 63.8586ZM20.8729 60.9114V62.051C20.8729 62.1819 20.8689 62.3088 20.8611 62.4319C20.8553 62.5549 20.8504 62.6506 20.8465 62.719H20.8729C20.9607 62.5745 21.0877 62.4524 21.2537 62.3528C21.4197 62.2532 21.6316 62.2034 21.8895 62.2034C22.2918 62.2034 22.6121 62.343 22.8504 62.6223C23.0906 62.8997 23.2107 63.3127 23.2107 63.8616C23.2107 64.2229 23.1561 64.5276 23.0467 64.7756C22.9373 65.0237 22.783 65.2112 22.5838 65.3381C22.3846 65.4651 22.1492 65.5286 21.8777 65.5286C21.6238 65.5286 21.4148 65.4817 21.2508 65.3879C21.0887 65.2922 20.9637 65.176 20.8758 65.0393H20.8377L20.7381 65.47H20.3865V60.9114H20.8729ZM21.8104 62.6106C21.5779 62.6106 21.3934 62.6565 21.2566 62.7483C21.1199 62.8381 21.0213 62.9749 20.9607 63.1584C20.9021 63.3401 20.8729 63.5706 20.8729 63.8499V63.8762C20.8729 64.2805 20.9402 64.5901 21.075 64.8049C21.2098 65.0178 21.4549 65.1243 21.8104 65.1243C22.1092 65.1243 22.3328 65.0149 22.4812 64.7961C22.6316 64.5774 22.7068 64.2649 22.7068 63.8586C22.7068 63.4446 22.6326 63.1331 22.4842 62.9241C22.3377 62.7151 22.1131 62.6106 21.8104 62.6106ZM23.9496 65.47H23.4604V60.9114H23.9496V65.47ZM25.6143 62.2004C25.8877 62.2004 26.1221 62.261 26.3174 62.3821C26.5127 62.5032 26.6621 62.6731 26.7656 62.8918C26.8691 63.1086 26.9209 63.3625 26.9209 63.6536V63.9553H24.7031C24.709 64.3323 24.8027 64.6194 24.9844 64.8167C25.166 65.0139 25.4219 65.1125 25.752 65.1125C25.9551 65.1125 26.1348 65.094 26.291 65.0569C26.4473 65.0198 26.6094 64.9651 26.7773 64.8928V65.3206C26.6152 65.3928 26.4541 65.4456 26.2939 65.4788C26.1357 65.512 25.9482 65.5286 25.7314 65.5286C25.4229 65.5286 25.1533 65.4661 24.9229 65.3411C24.6943 65.2141 24.5166 65.0286 24.3896 64.7844C24.2627 64.5403 24.1992 64.2415 24.1992 63.8879C24.1992 63.5422 24.2568 63.2434 24.3721 62.9915C24.4893 62.7375 24.6533 62.5422 24.8643 62.4055C25.0771 62.2688 25.3271 62.2004 25.6143 62.2004ZM25.6084 62.5989C25.3486 62.5989 25.1416 62.6838 24.9873 62.8538C24.833 63.0237 24.7412 63.261 24.7119 63.5657H26.4111C26.4092 63.3743 26.3789 63.2063 26.3203 63.0618C26.2637 62.9153 26.1768 62.802 26.0596 62.7219C25.9424 62.6399 25.792 62.5989 25.6084 62.5989ZM30.6334 62.2004C30.9869 62.2004 31.2535 62.2932 31.4332 62.4788C31.6129 62.6624 31.7027 62.9583 31.7027 63.3665V65.47H31.2223V63.3899C31.2223 63.1301 31.1656 62.9358 31.0523 62.8069C30.941 62.676 30.775 62.6106 30.5543 62.6106C30.2437 62.6106 30.0182 62.7004 29.8775 62.8801C29.7369 63.0598 29.6666 63.3245 29.6666 63.6741V65.47H29.1832V63.3899C29.1832 63.2161 29.1578 63.0715 29.107 62.9563C29.0582 62.8411 28.984 62.7551 28.8844 62.6985C28.7867 62.6399 28.6627 62.6106 28.5123 62.6106C28.2994 62.6106 28.1285 62.6545 27.9996 62.7424C27.8707 62.8303 27.777 62.9612 27.7184 63.135C27.6617 63.3069 27.6334 63.5188 27.6334 63.7708V65.47H27.1471V62.259H27.5396L27.6129 62.7131H27.6393C27.7037 62.6018 27.7848 62.5081 27.8824 62.4319C27.9801 62.3557 28.0895 62.2981 28.2105 62.259C28.3316 62.22 28.4605 62.2004 28.5973 62.2004C28.8414 62.2004 29.0455 62.2463 29.2096 62.3381C29.3756 62.428 29.4957 62.5657 29.5699 62.7512H29.5963C29.7018 62.5657 29.8463 62.428 30.0299 62.3381C30.2135 62.2463 30.4146 62.2004 30.6334 62.2004ZM35.5506 64.3303C35.5506 64.5842 35.4871 64.801 35.3602 64.9807C35.2352 65.1584 35.0594 65.2942 34.8328 65.3879C34.6063 65.4817 34.3396 65.5286 34.033 65.5286C33.8709 65.5286 33.7176 65.5208 33.573 65.5051C33.4285 65.4895 33.2957 65.467 33.1746 65.4377C33.0535 65.4084 32.9471 65.3723 32.8553 65.3293V64.8518C33.0018 64.9124 33.1805 64.969 33.3914 65.0217C33.6023 65.0725 33.823 65.0979 34.0535 65.0979C34.2684 65.0979 34.45 65.0696 34.5984 65.0129C34.7469 64.9543 34.8592 64.8713 34.9354 64.7639C35.0135 64.6545 35.0525 64.5237 35.0525 64.3713C35.0525 64.2249 35.0203 64.1028 34.9559 64.0051C34.8914 63.9055 34.784 63.8157 34.6336 63.7356C34.4852 63.6536 34.282 63.5667 34.0242 63.4749C33.8426 63.4104 33.6824 63.3401 33.5438 63.2639C33.4051 63.1858 33.2889 63.0979 33.1951 63.0002C33.1014 62.9026 33.0301 62.7893 32.9813 62.6604C32.9344 62.5315 32.9109 62.384 32.9109 62.218C32.9109 61.9895 32.9686 61.7942 33.0838 61.6321C33.201 61.468 33.3621 61.343 33.5672 61.2571C33.7742 61.1692 34.0115 61.1252 34.2791 61.1252C34.5076 61.1252 34.7186 61.1467 34.9119 61.1897C35.1072 61.2327 35.2859 61.2903 35.448 61.3625L35.2928 61.7903C35.1385 61.7258 34.9744 61.6721 34.8006 61.6292C34.6287 61.5862 34.451 61.5647 34.2674 61.5647C34.0838 61.5647 33.9285 61.592 33.8016 61.6467C33.6766 61.6995 33.5809 61.7747 33.5145 61.8723C33.448 61.97 33.4148 62.0862 33.4148 62.2209C33.4148 62.3713 33.4461 62.4963 33.5086 62.5959C33.573 62.6956 33.6746 62.7844 33.8133 62.8625C33.9539 62.9387 34.1395 63.0188 34.3699 63.1028C34.6219 63.1946 34.8357 63.2922 35.0115 63.3958C35.1873 63.4973 35.3211 63.6223 35.4129 63.7708C35.5047 63.9172 35.5506 64.1038 35.5506 64.3303ZM38.5219 63.8586C38.5219 64.1223 38.4877 64.3577 38.4193 64.5647C38.351 64.7717 38.2523 64.9465 38.1234 65.0891C37.9945 65.2317 37.8383 65.3411 37.6547 65.4172C37.473 65.4915 37.267 65.5286 37.0365 65.5286C36.8217 65.5286 36.6244 65.4915 36.4447 65.4172C36.267 65.3411 36.1127 65.2317 35.9818 65.0891C35.8529 64.9465 35.7523 64.7717 35.6801 64.5647C35.6098 64.3577 35.5746 64.1223 35.5746 63.8586C35.5746 63.5071 35.6342 63.2083 35.7533 62.9622C35.8725 62.7141 36.0424 62.5256 36.2631 62.3967C36.4857 62.2659 36.7504 62.2004 37.057 62.2004C37.35 62.2004 37.6059 62.2659 37.8246 62.3967C38.0453 62.5276 38.2162 62.717 38.3373 62.9651C38.4604 63.2112 38.5219 63.509 38.5219 63.8586ZM36.0785 63.8586C36.0785 64.1165 36.1127 64.3401 36.1811 64.5295C36.2494 64.719 36.3549 64.8655 36.4975 64.969C36.64 65.0725 36.8236 65.1243 37.0482 65.1243C37.2709 65.1243 37.4535 65.0725 37.5961 64.969C37.7406 64.8655 37.8471 64.719 37.9154 64.5295C37.9838 64.3401 38.018 64.1165 38.018 63.8586C38.018 63.6028 37.9838 63.3821 37.9154 63.1965C37.8471 63.009 37.7416 62.8645 37.599 62.7629C37.4564 62.6614 37.2719 62.6106 37.0453 62.6106C36.7113 62.6106 36.4662 62.7209 36.31 62.9417C36.1557 63.1624 36.0785 63.468 36.0785 63.8586ZM39.252 65.47H38.7627V60.9114H39.252V65.47ZM40.3863 65.47L39.1676 62.259H39.6891L40.3951 64.2014C40.4439 64.3342 40.4937 64.4807 40.5445 64.6409C40.5953 64.801 40.6305 64.9299 40.65 65.0276H40.6705C40.6939 64.9299 40.733 64.801 40.7877 64.6409C40.8424 64.4788 40.8922 64.3323 40.9371 64.2014L41.6432 62.259H42.1646L40.943 65.47H40.3863ZM42.5666 62.259V65.47H42.0803V62.259H42.5666ZM42.3293 61.0579C42.4094 61.0579 42.4777 61.0842 42.5344 61.137C42.593 61.1877 42.6223 61.2678 42.6223 61.3772C42.6223 61.4846 42.593 61.5647 42.5344 61.6174C42.4777 61.6702 42.4094 61.6965 42.3293 61.6965C42.2453 61.6965 42.175 61.6702 42.1184 61.6174C42.0637 61.5647 42.0363 61.4846 42.0363 61.3772C42.0363 61.2678 42.0637 61.1877 42.1184 61.137C42.175 61.0842 42.2453 61.0579 42.3293 61.0579ZM44.5184 62.2004C44.8992 62.2004 45.1873 62.2942 45.3826 62.4817C45.5779 62.6672 45.6756 62.9661 45.6756 63.3782V65.47H45.1951V63.4104C45.1951 63.1428 45.1336 62.9426 45.0105 62.8098C44.8895 62.677 44.7029 62.6106 44.451 62.6106C44.0955 62.6106 43.8455 62.7112 43.701 62.9124C43.5564 63.1135 43.4842 63.4055 43.4842 63.7883V65.47H42.9979V62.259H43.3904L43.4637 62.7219H43.49C43.5584 62.6086 43.6453 62.5139 43.7508 62.4377C43.8562 62.3596 43.9744 62.301 44.1053 62.262C44.2361 62.2209 44.3738 62.2004 44.5184 62.2004ZM46.974 66.9114C46.5521 66.9114 46.227 66.8323 45.9984 66.6741C45.7699 66.5178 45.6557 66.2981 45.6557 66.0149C45.6557 65.8137 45.7191 65.6418 45.8461 65.4993C45.975 65.3567 46.1527 65.262 46.3793 65.2151C46.2953 65.176 46.223 65.1174 46.1625 65.0393C46.1039 64.9612 46.0746 64.8713 46.0746 64.7698C46.0746 64.6526 46.1068 64.55 46.1713 64.4622C46.2377 64.3723 46.3383 64.2864 46.473 64.2043C46.3051 64.136 46.1684 64.0208 46.0629 63.8586C45.9594 63.6946 45.9076 63.5042 45.9076 63.2874C45.9076 63.0569 45.9555 62.8606 46.0512 62.6985C46.1469 62.5344 46.2855 62.4094 46.4672 62.3235C46.6488 62.2375 46.8686 62.1946 47.1264 62.1946C47.183 62.1946 47.2396 62.1975 47.2963 62.2034C47.3549 62.2073 47.4105 62.2141 47.4633 62.2239C47.516 62.2317 47.5619 62.2415 47.601 62.2532H48.7025V62.5667L48.1107 62.6399C48.1693 62.7161 48.2182 62.8079 48.2572 62.9153C48.2963 63.0227 48.3158 63.1418 48.3158 63.2727C48.3158 63.593 48.2074 63.8479 47.9906 64.0374C47.7738 64.2249 47.476 64.3186 47.0971 64.3186C47.0072 64.3186 46.9154 64.3108 46.8217 64.2952C46.726 64.3479 46.6527 64.4065 46.602 64.4709C46.5531 64.5354 46.5287 64.6096 46.5287 64.6936C46.5287 64.7561 46.5473 64.8059 46.5844 64.843C46.6234 64.8801 46.6791 64.9075 46.7514 64.925C46.8236 64.9407 46.9105 64.9485 47.0121 64.9485H47.5775C47.9271 64.9485 48.1947 65.0217 48.3803 65.1682C48.5678 65.3147 48.6615 65.5286 48.6615 65.8098C48.6615 66.1653 48.517 66.4377 48.2279 66.6272C47.9389 66.8167 47.5209 66.9114 46.974 66.9114ZM46.9887 66.5305C47.2543 66.5305 47.474 66.5032 47.6479 66.4485C47.8236 66.3958 47.9545 66.3186 48.0404 66.217C48.1283 66.1174 48.1723 65.9983 48.1723 65.8596C48.1723 65.7307 48.143 65.6331 48.0844 65.5667C48.0258 65.5022 47.9398 65.4592 47.8266 65.4377C47.7133 65.4143 47.5746 65.4026 47.4105 65.4026H46.8539C46.7094 65.4026 46.5834 65.425 46.476 65.47C46.3686 65.5149 46.2855 65.5813 46.227 65.6692C46.1703 65.7571 46.142 65.8665 46.142 65.9973C46.142 66.1711 46.2152 66.303 46.3617 66.3928C46.5082 66.4846 46.7172 66.5305 46.9887 66.5305ZM47.1146 63.9641C47.3471 63.9641 47.5219 63.9055 47.6391 63.7883C47.7562 63.6711 47.8148 63.5002 47.8148 63.2756C47.8148 63.0354 47.7553 62.8557 47.6361 62.7366C47.517 62.6155 47.3412 62.5549 47.1088 62.5549C46.8861 62.5549 46.7143 62.6174 46.5932 62.7424C46.474 62.8655 46.4145 63.0461 46.4145 63.2844C46.4145 63.5032 46.475 63.6711 46.5961 63.7883C46.7172 63.9055 46.89 63.9641 47.1146 63.9641ZM49.4215 63.8264C49.4215 63.4963 49.4527 63.175 49.5152 62.8625C49.5797 62.55 49.6773 62.2522 49.8082 61.969C49.9391 61.6858 50.1041 61.425 50.3033 61.1868H50.7691C50.4859 61.5579 50.273 61.97 50.1305 62.4231C49.9879 62.8762 49.9166 63.342 49.9166 63.8206C49.9166 64.1331 49.9479 64.4417 50.0104 64.7463C50.0748 65.0491 50.1695 65.3411 50.2945 65.6223C50.4215 65.9036 50.5777 66.1692 50.7633 66.4192H50.3033C50.1041 66.1848 49.9391 65.929 49.8082 65.6516C49.6773 65.3762 49.5797 65.0842 49.5152 64.7756C49.4527 64.467 49.4215 64.1506 49.4215 63.8264ZM50.9367 61.1868H52.1496C52.6848 61.1868 53.0871 61.2668 53.3566 61.427C53.6262 61.5872 53.7609 61.8596 53.7609 62.2444C53.7609 62.4104 53.7287 62.5598 53.6643 62.6926C53.6018 62.8235 53.51 62.9319 53.3889 63.0178C53.2678 63.1038 53.1184 63.1633 52.9406 63.1965V63.2258C53.1281 63.2551 53.2941 63.3088 53.4387 63.387C53.5832 63.4651 53.6965 63.5745 53.7785 63.7151C53.8605 63.8557 53.9016 64.0344 53.9016 64.2512C53.9016 64.5149 53.84 64.7375 53.717 64.9192C53.5959 65.1008 53.424 65.2385 53.2014 65.3323C52.9787 65.4241 52.715 65.47 52.4104 65.47H50.9367V61.1868ZM51.4348 63.0237H52.2551C52.6281 63.0237 52.8859 62.9622 53.0285 62.8391C53.173 62.7161 53.2453 62.5364 53.2453 62.3C53.2453 62.0559 53.1594 61.8801 52.9875 61.7727C52.8176 61.6653 52.5461 61.6116 52.173 61.6116H51.4348V63.0237ZM51.4348 63.4426V65.0452H52.3254C52.7062 65.0452 52.9758 64.9709 53.134 64.8225C53.2922 64.6721 53.3713 64.47 53.3713 64.2161C53.3713 64.054 53.3352 63.9153 53.2629 63.8C53.1926 63.6848 53.0773 63.5969 52.9172 63.5364C52.759 63.4739 52.5471 63.4426 52.2814 63.4426H51.4348ZM55.3436 62.2063C55.7264 62.2063 56.0105 62.2922 56.1961 62.4641C56.3816 62.636 56.4744 62.9104 56.4744 63.2874V65.47H56.1199L56.0262 64.9954H56.0027C55.9129 65.1125 55.8191 65.2112 55.7215 65.2913C55.6238 65.3694 55.5105 65.429 55.3816 65.47C55.2547 65.509 55.0984 65.5286 54.9129 65.5286C54.7176 65.5286 54.5438 65.4944 54.3914 65.426C54.241 65.3577 54.1219 65.2542 54.034 65.1155C53.948 64.9768 53.9051 64.801 53.9051 64.5881C53.9051 64.2678 54.032 64.0217 54.2859 63.8499C54.5398 63.678 54.9266 63.5842 55.4461 63.5686L55.9998 63.5452V63.3489C55.9998 63.0715 55.9402 62.8772 55.8211 62.7659C55.702 62.6545 55.534 62.5989 55.3172 62.5989C55.1492 62.5989 54.9891 62.6233 54.8367 62.6721C54.6844 62.7209 54.5398 62.7786 54.4031 62.845L54.2537 62.4758C54.3982 62.4016 54.5643 62.3381 54.7518 62.2854C54.9393 62.2327 55.1365 62.2063 55.3436 62.2063ZM55.9939 63.8879L55.5047 63.9084C55.1043 63.9241 54.8221 63.9895 54.658 64.1047C54.4939 64.22 54.4119 64.3831 54.4119 64.594C54.4119 64.7776 54.4676 64.9133 54.5789 65.0012C54.6902 65.0891 54.8377 65.1331 55.0213 65.1331C55.3064 65.1331 55.5398 65.054 55.7215 64.8958C55.9031 64.7375 55.9939 64.5002 55.9939 64.1838V63.8879ZM58.9535 64.5911C58.9535 64.7961 58.9018 64.969 58.7982 65.1096C58.6967 65.2483 58.5502 65.3528 58.3588 65.4231C58.1693 65.4934 57.9428 65.5286 57.6791 65.5286C57.4545 65.5286 57.2602 65.511 57.0961 65.4758C56.932 65.4407 56.7885 65.3909 56.6654 65.3264V64.8782C56.7963 64.9426 56.9525 65.0012 57.1342 65.054C57.3158 65.1067 57.5014 65.1331 57.6908 65.1331C57.9682 65.1331 58.1693 65.0881 58.2943 64.9983C58.4193 64.9084 58.4818 64.7864 58.4818 64.6321C58.4818 64.5442 58.4564 64.467 58.4057 64.4006C58.3568 64.3323 58.2738 64.2668 58.1566 64.2043C58.0395 64.1399 57.8773 64.0696 57.6703 63.9934C57.4652 63.9153 57.2875 63.8381 57.1371 63.762C56.9887 63.6838 56.8734 63.5891 56.7914 63.4778C56.7113 63.3665 56.6713 63.2219 56.6713 63.0442C56.6713 62.7727 56.7807 62.5647 56.9994 62.4202C57.2201 62.2737 57.5092 62.2004 57.8666 62.2004C58.06 62.2004 58.2406 62.22 58.4086 62.259C58.5785 62.2961 58.7367 62.3469 58.8832 62.4114L58.7191 62.801C58.5863 62.7444 58.4447 62.6965 58.2943 62.6575C58.1439 62.6184 57.9906 62.5989 57.8344 62.5989C57.6098 62.5989 57.4369 62.636 57.3158 62.7102C57.1967 62.7844 57.1371 62.886 57.1371 63.0149C57.1371 63.1145 57.1645 63.1965 57.2191 63.261C57.2758 63.3254 57.3656 63.386 57.4887 63.4426C57.6117 63.4993 57.7738 63.5657 57.975 63.6418C58.1762 63.7161 58.35 63.7932 58.4965 63.8733C58.643 63.9514 58.7553 64.0471 58.8334 64.1604C58.9135 64.2717 58.9535 64.4153 58.9535 64.5911ZM59.6221 62.259V65.47H59.1357V62.259H59.6221ZM59.3848 61.0579C59.4648 61.0579 59.5332 61.0842 59.5898 61.137C59.6484 61.1877 59.6777 61.2678 59.6777 61.3772C59.6777 61.4846 59.6484 61.5647 59.5898 61.6174C59.5332 61.6702 59.4648 61.6965 59.3848 61.6965C59.3008 61.6965 59.2305 61.6702 59.1738 61.6174C59.1191 61.5647 59.0918 61.4846 59.0918 61.3772C59.0918 61.2678 59.1191 61.1877 59.1738 61.137C59.2305 61.0842 59.3008 61.0579 59.3848 61.0579ZM61.3395 65.5286C61.0504 65.5286 60.7955 65.469 60.5748 65.3499C60.3541 65.2307 60.1822 65.0491 60.0592 64.8049C59.9361 64.5608 59.8746 64.2532 59.8746 63.8821C59.8746 63.4934 59.9391 63.176 60.068 62.9299C60.1988 62.6819 60.3785 62.4983 60.607 62.3792C60.8355 62.26 61.0953 62.2004 61.3863 62.2004C61.5465 62.2004 61.7008 62.217 61.8492 62.2502C61.9996 62.2815 62.1227 62.3215 62.2184 62.3704L62.0719 62.7776C61.9742 62.7385 61.8609 62.7034 61.732 62.6721C61.6051 62.6409 61.4859 62.6252 61.3746 62.6252C61.152 62.6252 60.9664 62.6731 60.818 62.7688C60.6715 62.8645 60.5611 63.0051 60.4869 63.1907C60.4146 63.3762 60.3785 63.6047 60.3785 63.8762C60.3785 64.136 60.4137 64.3577 60.484 64.5413C60.5562 64.7249 60.6627 64.8655 60.8033 64.9631C60.9459 65.0588 61.1236 65.1067 61.3365 65.1067C61.5064 65.1067 61.6598 65.0891 61.7965 65.054C61.9332 65.0168 62.0572 64.9739 62.1686 64.925V65.3586C62.0611 65.4133 61.941 65.4553 61.8082 65.4846C61.6773 65.5139 61.5211 65.5286 61.3395 65.5286ZM63.3469 63.8206C63.3469 64.1467 63.3146 64.4651 63.2502 64.7756C63.1877 65.0842 63.091 65.3772 62.9602 65.6545C62.8312 65.9319 62.6662 66.1868 62.465 66.4192H62.0051C62.1926 66.1711 62.3488 65.9055 62.4738 65.6223C62.6008 65.3391 62.6955 65.0461 62.758 64.7434C62.8225 64.4387 62.8547 64.1301 62.8547 63.8176C62.8547 63.4993 62.8225 63.1858 62.758 62.8772C62.6936 62.5686 62.5979 62.2717 62.4709 61.9866C62.3459 61.7014 62.1887 61.4348 61.9992 61.1868H62.465C62.6662 61.427 62.8312 61.6887 62.9602 61.9719C63.091 62.2532 63.1877 62.55 63.2502 62.8625C63.3146 63.1731 63.3469 63.4924 63.3469 63.8206Z" fill="white"/>
<path d="M19.2854 84.3145L16.8296 91.8101H14.4456L12 84.3145H14.2764L15.2966 88.1135C15.3342 88.2571 15.377 88.4417 15.4248 88.6672C15.4761 88.8894 15.5222 89.1116 15.5632 89.3337C15.6077 89.5559 15.635 89.7371 15.6453 89.8772C15.6589 89.7371 15.6846 89.5576 15.7222 89.3389C15.7598 89.1201 15.8008 88.9014 15.8452 88.6826C15.8931 88.4604 15.9375 88.2776 15.9785 88.134L17.0193 84.3145H19.2854ZM22.5974 85.8987C23.1614 85.8987 23.6484 85.9978 24.0586 86.196C24.4688 86.3909 24.7849 86.6848 25.0071 87.0779C25.2292 87.4709 25.3403 87.9631 25.3403 88.5544V89.4465H21.7566C21.7737 89.7507 21.8865 90.0002 22.095 90.1951C22.3069 90.3899 22.6179 90.4873 23.0281 90.4873C23.3904 90.4873 23.7219 90.4514 24.0227 90.3796C24.3269 90.3079 24.6396 90.1968 24.9609 90.0464V91.4871C24.6807 91.634 24.3748 91.7417 24.0432 91.8101C23.7117 91.8784 23.293 91.9126 22.7871 91.9126C22.2026 91.9126 21.6797 91.8083 21.2183 91.5999C20.7568 91.3914 20.3928 91.0684 20.1262 90.6309C19.863 90.1934 19.7314 89.6311 19.7314 88.9441C19.7314 88.2468 19.8511 87.6743 20.0903 87.2266C20.3296 86.7754 20.6646 86.4421 21.0952 86.2268C21.5259 86.0081 22.0266 85.8987 22.5974 85.8987ZM22.6692 87.2625C22.4333 87.2625 22.2351 87.3376 22.0745 87.488C21.9172 87.635 21.825 87.8674 21.7976 88.1853H23.5203C23.5168 88.0144 23.4827 87.8589 23.4177 87.7188C23.3528 87.5786 23.2571 87.4675 23.1306 87.3855C23.0076 87.3035 22.8538 87.2625 22.6692 87.2625ZM29.9802 85.8987C30.0896 85.8987 30.2041 85.9072 30.3237 85.9243C30.4434 85.938 30.5322 85.95 30.5903 85.9602L30.4109 87.8521C30.3459 87.835 30.2622 87.8213 30.1597 87.811C30.0571 87.7974 29.9136 87.7905 29.729 87.7905C29.6025 87.7905 29.4675 87.8025 29.324 87.8264C29.1804 87.8503 29.0437 87.9016 28.9138 87.9802C28.7874 88.0554 28.6831 88.1716 28.6011 88.3289C28.519 88.4827 28.478 88.6912 28.478 88.9543V91.8101H26.4734V86.0012H27.9653L28.2781 86.9292H28.3755C28.4814 86.7378 28.6165 86.5652 28.7805 86.4114C28.948 86.2542 29.1343 86.1294 29.3394 86.0371C29.5479 85.9448 29.7615 85.8987 29.9802 85.8987ZM33.4204 86.0012V91.8101H31.4158V86.0012H33.4204ZM32.4258 83.6633C32.7129 83.6633 32.9624 83.7231 33.1743 83.8428C33.3896 83.9624 33.4973 84.2 33.4973 84.5554C33.4973 84.9006 33.3896 85.1348 33.1743 85.2578C32.9624 85.3774 32.7129 85.4373 32.4258 85.4373C32.1318 85.4373 31.8806 85.3774 31.6721 85.2578C31.467 85.1348 31.3645 84.9006 31.3645 84.5554C31.3645 84.2 31.467 83.9624 31.6721 83.8428C31.8806 83.7231 32.1318 83.6633 32.4258 83.6633ZM38.3679 87.5034H37.1323V91.8101H35.1277V87.5034H34.3586V86.519L35.1687 86.0269V85.9294C35.1687 85.427 35.2354 85.0186 35.3687 84.7041C35.502 84.3862 35.7139 84.1521 36.0044 84.0017C36.2949 83.8513 36.6743 83.7761 37.1426 83.7761C37.4434 83.7761 37.7151 83.8 37.9578 83.8479C38.2039 83.8958 38.4602 83.9641 38.7268 84.053L38.2961 85.3501C38.197 85.3228 38.0859 85.2988 37.9629 85.2783C37.8433 85.2578 37.7134 85.2476 37.5732 85.2476C37.4194 85.2476 37.3066 85.2954 37.2349 85.3911C37.1665 85.4834 37.1323 85.6355 37.1323 85.8474V86.0012H38.3679V87.5034ZM41.1724 86.0012V91.8101H39.1677V86.0012H41.1724ZM40.1777 83.6633C40.4648 83.6633 40.7144 83.7231 40.9263 83.8428C41.1416 83.9624 41.2493 84.2 41.2493 84.5554C41.2493 84.9006 41.1416 85.1348 40.9263 85.2578C40.7144 85.3774 40.4648 85.4373 40.1777 85.4373C39.8838 85.4373 39.6326 85.3774 39.4241 85.2578C39.219 85.1348 39.1165 84.9006 39.1165 84.5554C39.1165 84.2 39.219 83.9624 39.4241 83.8428C39.6326 83.7231 39.8838 83.6633 40.1777 83.6633ZM45.1868 85.8987C45.7507 85.8987 46.2378 85.9978 46.6479 86.196C47.0581 86.3909 47.3743 86.6848 47.5964 87.0779C47.8186 87.4709 47.9297 87.9631 47.9297 88.5544V89.4465H44.3459C44.363 89.7507 44.4758 90.0002 44.6843 90.1951C44.8962 90.3899 45.2073 90.4873 45.6174 90.4873C45.9797 90.4873 46.3113 90.4514 46.6121 90.3796C46.9163 90.3079 47.229 90.1968 47.5503 90.0464V91.4871C47.27 91.634 46.9641 91.7417 46.6326 91.8101C46.301 91.8784 45.8823 91.9126 45.3765 91.9126C44.792 91.9126 44.269 91.8083 43.8076 91.5999C43.3462 91.3914 42.9822 91.0684 42.7156 90.6309C42.4524 90.1934 42.3208 89.6311 42.3208 88.9441C42.3208 88.2468 42.4404 87.6743 42.6797 87.2266C42.9189 86.7754 43.2539 86.4421 43.6846 86.2268C44.1152 86.0081 44.616 85.8987 45.1868 85.8987ZM45.2585 87.2625C45.0227 87.2625 44.8245 87.3376 44.6638 87.488C44.5066 87.635 44.4143 87.8674 44.387 88.1853H46.1096C46.1062 88.0144 46.072 87.8589 46.0071 87.7188C45.9421 87.5786 45.8464 87.4675 45.72 87.3855C45.5969 87.3035 45.4431 87.2625 45.2585 87.2625ZM50.8674 91.9126C50.2693 91.9126 49.7771 91.658 49.3909 91.1487C49.0046 90.6394 48.8115 89.8943 48.8115 88.9133C48.8115 87.9221 49.0098 87.1719 49.4062 86.6626C49.8027 86.1533 50.3154 85.8987 50.9443 85.8987C51.2041 85.8987 51.428 85.9363 51.616 86.0115C51.804 86.0867 51.9663 86.1892 52.103 86.3191C52.2432 86.4456 52.3645 86.5891 52.467 86.7498H52.5081C52.4841 86.6028 52.4619 86.4011 52.4414 86.1448C52.4209 85.885 52.4106 85.6321 52.4106 85.386V83.8325H54.4307V91.8101H52.9182L52.4875 91.0769H52.4106C52.3184 91.2307 52.2021 91.3708 52.062 91.4973C51.9253 91.6238 51.7578 91.7246 51.5596 91.7998C51.3647 91.875 51.134 91.9126 50.8674 91.9126ZM51.6877 90.3284C52.009 90.3284 52.2346 90.2275 52.3645 90.0259C52.4978 89.8208 52.5696 89.5098 52.5798 89.0928V88.9338C52.5798 88.4758 52.5149 88.1255 52.385 87.8828C52.2585 87.6367 52.0193 87.5137 51.6672 87.5137C51.428 87.5137 51.2297 87.6299 51.0725 87.8623C50.9153 88.0947 50.8367 88.4553 50.8367 88.9441C50.8367 89.426 50.9153 89.7781 51.0725 90.0002C51.2332 90.219 51.4382 90.3284 51.6877 90.3284Z" fill="white"/>
<rect width="26.3653" height="18" transform="translate(82.6348 49)" fill="#7EE79A"/>
<path d="M88.8123 60.3141C88.8123 60.6526 88.7303 60.9469 88.5662 61.1969C88.4021 61.4469 88.1625 61.6396 87.8474 61.775C87.5349 61.9104 87.1547 61.9781 86.7068 61.9781C86.5089 61.9781 86.3149 61.9651 86.1248 61.9391C85.9373 61.913 85.7563 61.8753 85.5818 61.8258C85.4099 61.7737 85.2459 61.7099 85.0896 61.6344V60.5094C85.3605 60.6292 85.6417 60.7373 85.9334 60.8336C86.225 60.93 86.5141 60.9781 86.8006 60.9781C86.9985 60.9781 87.1573 60.9521 87.2771 60.9C87.3995 60.8479 87.4881 60.7763 87.5428 60.6852C87.5974 60.594 87.6248 60.4899 87.6248 60.3727C87.6248 60.2295 87.5766 60.1071 87.4803 60.0055C87.3839 59.9039 87.2511 59.8089 87.0818 59.7203C86.9151 59.6318 86.7263 59.5367 86.5154 59.4352C86.3826 59.3727 86.2381 59.2972 86.0818 59.2086C85.9256 59.1175 85.7771 59.0068 85.6365 58.8766C85.4959 58.7464 85.38 58.5888 85.2888 58.4039C85.2003 58.2164 85.156 57.9925 85.156 57.7321C85.156 57.3909 85.2342 57.0992 85.3904 56.8571C85.5467 56.6149 85.7693 56.43 86.0584 56.3024C86.35 56.1722 86.6938 56.1071 87.0896 56.1071C87.3865 56.1071 87.6691 56.1422 87.9373 56.2125C88.2081 56.2802 88.4907 56.3792 88.7849 56.5094L88.3943 57.4508C88.1313 57.344 87.8956 57.262 87.6873 57.2047C87.4789 57.1448 87.2667 57.1149 87.0506 57.1149C86.8995 57.1149 86.7706 57.1396 86.6638 57.1891C86.5571 57.236 86.4763 57.3037 86.4217 57.3922C86.367 57.4781 86.3396 57.5784 86.3396 57.693C86.3396 57.8284 86.3787 57.943 86.4568 58.0367C86.5375 58.1279 86.6573 58.2164 86.8162 58.3024C86.9776 58.3883 87.1782 58.4886 87.4178 58.6031C87.7094 58.7412 87.9581 58.8857 88.1638 59.0367C88.3722 59.1852 88.5323 59.361 88.6443 59.5641C88.7563 59.7646 88.8123 60.0146 88.8123 60.3141ZM94.4412 61.9H93.0662L91.5701 59.4938L91.0584 59.861V61.9H89.8474V56.1891H91.0584V58.8024C91.1391 58.6904 91.2185 58.5784 91.2967 58.4664C91.3748 58.3545 91.4542 58.2425 91.5349 58.1305L93.0818 56.1891H94.4256L92.4334 58.7164L94.4412 61.9ZM95.1599 61.9V56.1891H96.3709V61.9H95.1599ZM97.8084 61.9V56.1891H99.0193V60.9H101.336V61.9H97.8084ZM102.332 61.9V56.1891H103.543V60.9H105.859V61.9H102.332Z" fill="#1BA94C"/>
<mask id="path-8-inside-1_505_69" fill="white">
<path d="M73.6348 49H82.6348V67H73.6348V49Z"/>
</mask>
<path d="M73.6348 49V40H64.6348V49H73.6348ZM73.6348 67H64.6348V76H73.6348V67ZM73.6348 58H82.6348V40H73.6348V58ZM82.6348 58H73.6348V76H82.6348V58ZM82.6348 67V49H64.6348V67H82.6348Z" fill="url(#paint0_diamond_505_69)" mask="url(#path-8-inside-1_505_69)"/>
<defs>
<radialGradient id="paint0_diamond_505_69" cx="0" cy="0" r="1" gradientUnits="userSpaceOnUse" gradientTransform="translate(73.6348 58) scale(9)">
<stop offset="1" stop-opacity="0"/>
<stop offset="1" stop-color="#7EE79A"/>
</radialGradient>
<clipPath id="clip0_505_69">
<rect width="17.2466" height="26.1481" fill="white" transform="translate(10.5938 8.60425)"/>
</clipPath>
<clipPath id="clip1_505_69">
<rect width="27.25" height="38.5" fill="white" transform="translate(81.75)"/>
</clipPath>
</defs>
</svg>
