<svg id="outline" height="300" viewBox="0 0 512 512" width="300" xmlns="http://www.w3.org/2000/svg" version="1.1" xmlns:xlink="http://www.w3.org/1999/xlink" xmlns:svgjs="http://svgjs.dev/svgjs"><g transform="matrix(1,0,0,1,0,0)"><g><path d="m494.625 403.515c-1.488-2.198-3.97-3.515-6.625-3.515h-8v-241c0-12.682-10.318-23-23-23h-33v-62c0-9.925-8.075-18-18-18h-300c-9.925 0-18 8.075-18 18v62h-33c-12.682 0-23 10.318-23 23v241h-8c-2.655 0-5.136 1.317-6.625 3.515-1.488 2.198-1.789 4.991-.803 7.456l9.56 23.899c5.134 12.836 17.384 21.13 31.209 21.13h397.318c13.825 0 26.075-8.294 31.209-21.129l9.56-23.899c.986-2.466.685-5.259-.803-7.457zm-37.625-251.515c3.86 0 7 3.14 7 7v241h-8v-232c0-4.418-3.582-8-8-8h-24v-8zm-145 248c-3.03 0-5.8 1.712-7.155 4.422l-5.789 11.578h-86.111l-5.789-11.578c-1.356-2.71-4.126-4.422-7.156-4.422h-128v-224h16v190c0 9.925 8.075 18 18 18h300c9.925 0 18-8.075 18-18v-190h16v224zm96-280v246c0 1.103-.897 2-2 2h-300c-1.103 0-2-.897-2-2v-246zm0-46v30h-184v-32h182c1.103 0 2 .897 2 2zm-302-2h102v32h-104v-30c0-1.103.897-2 2-2zm-58 87c0-3.86 3.14-7 7-7h33v8h-24c-4.418 0-8 3.582-8 8v232h-8zm423.013 269.928c-2.69 6.726-9.109 11.072-16.354 11.072h-397.318c-7.244 0-13.663-4.346-16.354-11.072l-5.171-12.928h159.239l5.789 11.578c1.356 2.71 4.126 4.422 7.156 4.422h96c3.03 0 5.8-1.712 7.155-4.422l5.789-11.578h159.239z" fill="#ff7c1dff" data-original-color="#000000ff" stroke="none"/><path d="m368 136h-85.069c-10.827 0-20.519 4.952-26.931 12.709-6.412-7.757-16.104-12.709-26.931-12.709h-85.069c-4.418 0-8 3.582-8 8v136c0 4.418 3.582 8 8 8h224c4.418 0 8-3.582 8-8v-136c0-4.418-3.582-8-8-8zm-120 136h-96v-120h77.069c10.438 0 18.931 8.492 18.931 18.931zm112 0h-96v-101.069c0-10.438 8.492-18.931 18.931-18.931h77.069z" fill="#ff7c1dff" data-original-color="#000000ff" stroke="none"/><path d="m320 184h24c4.418 0 8-3.582 8-8s-3.582-8-8-8h-24c-4.418 0-8 3.582-8 8s3.582 8 8 8z" fill="#ff7c1dff" data-original-color="#000000ff" stroke="none"/><path d="m280 208h64c4.418 0 8-3.582 8-8s-3.582-8-8-8h-64c-4.418 0-8 3.582-8 8s3.582 8 8 8z" fill="#ff7c1dff" data-original-color="#000000ff" stroke="none"/><path d="m280 232h64c4.418 0 8-3.582 8-8s-3.582-8-8-8h-64c-4.418 0-8 3.582-8 8s3.582 8 8 8z" fill="#ff7c1dff" data-original-color="#000000ff" stroke="none"/><path d="m280 256h64c4.418 0 8-3.582 8-8s-3.582-8-8-8h-64c-4.418 0-8 3.582-8 8s3.582 8 8 8z" fill="#ff7c1dff" data-original-color="#000000ff" stroke="none"/><path d="m232 168h-24c-4.418 0-8 3.582-8 8s3.582 8 8 8h24c4.418 0 8-3.582 8-8s-3.582-8-8-8z" fill="#ff7c1dff" data-original-color="#000000ff" stroke="none"/><path d="m232 192h-64c-4.418 0-8 3.582-8 8s3.582 8 8 8h64c4.418 0 8-3.582 8-8s-3.582-8-8-8z" fill="#ff7c1dff" data-original-color="#000000ff" stroke="none"/><path d="m232 216h-64c-4.418 0-8 3.582-8 8s3.582 8 8 8h64c4.418 0 8-3.582 8-8s-3.582-8-8-8z" fill="#ff7c1dff" data-original-color="#000000ff" stroke="none"/><path d="m232 240h-64c-4.418 0-8 3.582-8 8s3.582 8 8 8h64c4.418 0 8-3.582 8-8s-3.582-8-8-8z" fill="#ff7c1dff" data-original-color="#000000ff" stroke="none"/><path d="m144 344c4.418 0 8-3.582 8-8h24v16c0 2.882 1.55 5.542 4.059 6.961 1.224.693 2.583 1.039 3.941 1.039 1.426 0 2.851-.381 4.116-1.14l38.1-22.86h133.784c0 4.418 3.582 8 8 8s8-3.582 8-8v-16c0-4.418-3.582-8-8-8s-8 3.582-8 8h-133.784l-38.1-22.86c-2.472-1.483-5.549-1.521-8.058-.102-2.508 1.42-4.058 4.08-4.058 6.962v16h-24c0-4.418-3.582-8-8-8s-8 3.582-8 8v16c0 4.418 3.582 8 8 8zm48-25.871 16.451 9.871-16.451 9.871z" fill="#ff7c1dff" data-original-color="#000000ff" stroke="none"/><path d="m120 96h8c4.418 0 8-3.582 8-8s-3.582-8-8-8h-8c-4.418 0-8 3.582-8 8s3.582 8 8 8z" fill="#ff7c1dff" data-original-color="#000000ff" stroke="none"/><path d="m152 96h8c4.418 0 8-3.582 8-8s-3.582-8-8-8h-8c-4.418 0-8 3.582-8 8s3.582 8 8 8z" fill="#ff7c1dff" data-original-color="#000000ff" stroke="none"/><path d="m184 96h8c4.418 0 8-3.582 8-8s-3.582-8-8-8h-8c-4.418 0-8 3.582-8 8s3.582 8 8 8z" fill="#ff7c1dff" data-original-color="#000000ff" stroke="none"/><path d="m240 96h16c4.418 0 8-3.582 8-8s-3.582-8-8-8h-16c-4.418 0-8 3.582-8 8s3.582 8 8 8z" fill="#ff7c1dff" data-original-color="#000000ff" stroke="none"/><path d="m280 96h112c4.418 0 8-3.582 8-8s-3.582-8-8-8h-112c-4.418 0-8 3.582-8 8s3.582 8 8 8z" fill="#ff7c1dff" data-original-color="#000000ff" stroke="none"/></g></g></svg>