<svg width="14" height="14" viewBox="0 0 14 14" fill="none" xmlns="http://www.w3.org/2000/svg">
<path d="M6.28436 8.32669L2.45284 6.45349C1.633 6.05309 1.633 4.88549 2.45228 4.48509L6.11244 2.69645C6.34922 2.58061 6.60933 2.52039 6.87292 2.52039C7.13652 2.52039 7.39663 2.58061 7.6334 2.69645L11.298 4.48677C12.1173 4.88717 12.1173 6.05533 11.298 6.45573L7.63564 8.24605C7.15348 8.48125 6.59068 8.48125 6.10908 8.24605L3.78228 7.10869M11.918 5.46453L11.8995 8.49637" stroke="white" stroke-width="1.44" stroke-linecap="round" stroke-linejoin="round"/>
<path d="M3.78322 7.10925V9.89301C3.78203 10.1283 3.85046 10.3587 3.9799 10.5552C4.10934 10.7517 4.294 10.9055 4.51066 10.9973C6.06466 11.6385 7.61194 11.6469 9.15306 11.0007C9.36814 10.9083 9.55127 10.7546 9.67962 10.5588C9.80798 10.363 9.87589 10.1338 9.8749 9.89973V7.16021" stroke="white" stroke-width="1.44" stroke-linecap="round" stroke-linejoin="round"/>
</svg>
