<svg width="2000" height="2000" viewBox="0 0 2000 2000" fill="none" xmlns="http://www.w3.org/2000/svg">
<mask id="mask0_1378_1108" style="mask-type:luminance" maskUnits="userSpaceOnUse" x="0" y="0" width="2000" height="2000">
<path d="M2000 0H0V2000H2000V0Z" fill="white"/>
</mask>
<g mask="url(#mask0_1378_1108)">
<mask id="mask1_1378_1108" style="mask-type:luminance" maskUnits="userSpaceOnUse" x="-1664" y="13" width="4264" height="2398">
<path d="M-1663.2 13.2002H2599.2V2410.8H-1663.2V13.2002Z" fill="white"/>
</mask>
<g mask="url(#mask1_1378_1108)">
<mask id="mask2_1378_1108" style="mask-type:luminance" maskUnits="userSpaceOnUse" x="-640" y="-449" width="3840" height="2090">
<path d="M3200 -448H-640V1640H3200V-448Z" fill="white"/>
</mask>
<g mask="url(#mask2_1378_1108)">
<path d="M1831.88 1427.81H1524.25V1403.34H1831.88V1427.81Z" fill="#212120"/>
<path d="M1923.82 1409.2C1915.38 1420.45 1908.36 1432.76 1902.99 1445.75C1883.8 1433.46 1863.13 1423.34 1841.29 1416.82C1801.79 1405.03 1760.02 1405.4 1719.28 1408.22C1707.58 1409.02 1600.38 1409.1 1600.38 1408V1383.53H1719.55C1737.71 1383.53 1755.76 1381.13 1773.79 1379.31C1790.58 1377.61 1803.94 1380.2 1820.38 1381.11C1860.63 1383.34 1900.97 1395.65 1941.74 1388.95C1935.23 1395.19 1929.23 1401.98 1923.82 1409.2Z" fill="#ABAFAF"/>
<mask id="mask3_1378_1108" style="mask-type:luminance" maskUnits="userSpaceOnUse" x="-1664" y="4" width="4264" height="2398">
<path d="M-1663.2 4.32031H2599.2V2401.92H-1663.2V4.32031Z" fill="white"/>
</mask>
<g mask="url(#mask3_1378_1108)">
<path d="M253.39 849.873L243.571 844.611L233.669 849.715L235.641 838.751L227.727 830.91L238.764 829.398L243.774 819.448L248.624 829.477L259.635 831.168L251.596 838.879L253.39 849.873Z" fill="white"/>
<path d="M253.39 849.873L243.571 844.611L233.669 849.715L235.641 838.751L227.727 830.91L238.764 829.398L243.774 819.448L248.624 829.477L259.635 831.168L251.596 838.879L253.39 849.873Z" stroke="black" stroke-width="1.0903" stroke-miterlimit="10"/>
<path d="M524.78 341.997C522.047 349.607 513.666 353.558 506.056 350.824C498.447 348.093 494.495 339.71 497.228 332.1C497.4 331.621 497.656 331.204 497.869 330.754C492.167 329.724 486.457 329.265 480.805 329.355C480.958 329.874 481.153 330.372 481.252 330.917C482.689 338.874 477.405 346.486 469.448 347.923C461.495 349.363 453.88 344.078 452.441 336.122C452.345 335.588 452.356 335.065 452.319 334.535C446.907 336.473 441.698 338.932 436.761 341.874C437.185 342.27 437.632 342.631 438.015 343.086C443.238 349.256 442.467 358.493 436.299 363.716C430.125 368.937 420.89 368.169 415.668 361.998C415.276 361.538 414.987 361.029 414.663 360.536C410.952 364.891 407.636 369.651 404.779 374.775C405.406 374.91 406.034 375.018 406.656 375.243C414.263 377.975 418.215 386.358 415.483 393.967C412.749 401.575 404.366 405.527 396.757 402.796C396.123 402.567 395.553 402.245 394.972 401.943C393.889 407.764 393.406 413.595 393.493 419.367C394.172 419.137 394.848 418.901 395.573 418.77C403.53 417.333 411.144 422.616 412.581 430.572C414.017 438.527 408.735 446.144 400.779 447.581C400.05 447.711 399.331 447.73 398.612 447.752C400.585 453.296 403.103 458.633 406.126 463.681C406.628 463.098 407.137 462.521 407.743 462.008C413.913 456.786 423.151 457.554 428.373 463.724C433.595 469.895 432.828 479.133 426.655 484.356C426.053 484.867 425.402 485.269 424.747 485.665C429.198 489.448 434.063 492.823 439.314 495.717C439.455 494.931 439.621 494.145 439.9 493.368C442.631 485.759 451.014 481.807 458.624 484.54C466.231 487.273 470.185 495.655 467.452 503.265C467.184 504.009 466.822 504.684 466.454 505.357C472.348 506.428 478.251 506.881 484.087 506.754C483.822 506.009 483.574 505.252 483.429 504.449C481.989 496.492 487.275 488.878 495.231 487.441C503.185 486.003 510.801 491.288 512.239 499.242C512.372 499.991 512.394 500.731 512.412 501.468C517.942 499.462 523.258 496.9 528.287 493.849C527.725 493.359 527.161 492.868 526.665 492.281C521.442 486.108 522.211 476.873 528.381 471.651C534.553 466.425 543.79 467.196 549.012 473.367C549.471 473.908 549.823 474.499 550.188 475.081C553.899 470.659 557.21 465.83 560.042 460.626C559.37 460.488 558.69 460.362 558.025 460.124C550.415 457.391 546.463 449.007 549.197 441.4C551.929 433.791 560.314 429.838 567.921 432.57C568.509 432.782 569.03 433.083 569.574 433.361C570.592 427.585 571.022 421.802 570.892 416.084C570.303 416.27 569.729 416.482 569.105 416.593C561.15 418.032 553.534 412.747 552.098 404.792C550.659 396.836 555.945 389.223 563.899 387.785C564.45 387.686 564.989 387.694 565.533 387.657C563.562 382.264 561.069 377.072 558.101 372.155C557.719 372.56 557.372 372.99 556.938 373.358C550.767 378.581 541.529 377.811 536.307 371.64C531.084 365.469 531.852 356.232 538.023 351.01C538.425 350.672 538.869 350.427 539.294 350.14C534.967 346.501 530.243 343.252 525.166 340.45C525.043 340.967 524.964 341.487 524.78 341.997ZM538.39 438.253C527.252 469.257 493.088 485.364 462.083 474.23C431.077 463.091 414.971 428.925 426.109 397.922C437.244 366.914 471.41 350.809 502.416 361.945C533.421 373.082 549.527 407.248 538.39 438.253Z" fill="#92E2A9"/>
<path d="M362.639 721.486C361.213 710.993 368.569 701.334 379.06 699.909C389.555 698.486 399.213 705.837 400.635 716.329C400.727 716.988 400.68 717.631 400.704 718.282C407.952 716.032 414.867 713.113 421.378 709.591C420.886 709.08 420.359 708.619 419.915 708.047C413.435 699.67 414.971 687.63 423.346 681.15C431.721 674.67 443.763 676.206 450.244 684.581C450.677 685.142 450.984 685.758 451.345 686.349C456.46 680.827 461.028 674.82 464.987 668.418C464.257 668.216 463.517 668.065 462.798 667.77C452.999 663.757 448.309 652.558 452.321 642.761C456.334 632.96 467.53 628.271 477.331 632.285C478.063 632.584 478.707 632.999 479.38 633.376C481.061 626.072 482.038 618.538 482.259 610.857C481.448 611.077 480.653 611.332 479.796 611.445C469.305 612.87 459.642 605.52 458.218 595.027C456.794 584.534 464.149 574.873 474.639 573.45C475.514 573.329 476.37 573.36 477.229 573.359C474.969 565.942 472.003 558.874 468.415 552.22C467.764 552.897 467.123 553.58 466.359 554.171C457.984 560.651 445.942 559.114 439.462 550.739C432.979 542.364 434.518 530.324 442.893 523.842C443.66 523.248 444.487 522.794 445.308 522.334C439.666 517.084 433.513 512.406 426.947 508.365C426.716 509.345 426.475 510.328 426.084 511.289C422.069 521.087 410.87 525.777 401.071 521.764C391.272 517.751 386.582 506.552 390.595 496.753C390.989 495.799 391.5 494.937 392.019 494.08C384.561 492.375 376.868 491.392 369.02 491.206C369.329 492.206 369.612 493.218 369.757 494.289C371.184 504.781 363.83 514.442 353.337 515.866C342.844 517.29 333.184 509.939 331.76 499.446C331.622 498.419 331.634 497.415 331.655 496.412C324.16 498.732 317.026 501.772 310.32 505.45C311.079 506.155 311.827 506.882 312.484 507.729C318.962 516.103 317.425 528.146 309.048 534.625C300.676 541.104 288.634 539.567 282.154 531.192C281.544 530.405 281.076 529.559 280.606 528.713C275.392 534.387 270.764 540.575 266.764 547.164C267.715 547.391 268.666 547.622 269.599 548.006C279.398 552.019 284.091 563.216 280.076 573.015C276.063 582.814 264.866 587.504 255.065 583.491C254.206 583.139 253.445 582.668 252.666 582.211C251.028 589.592 250.101 597.206 249.949 604.962C250.817 604.716 251.681 604.454 252.602 604.326C263.092 602.903 272.754 610.256 274.176 620.748C275.6 631.241 268.251 640.902 257.756 642.325C256.946 642.434 256.158 642.4 255.36 642.408C257.669 649.734 260.668 656.712 264.275 663.281C264.847 662.71 265.384 662.111 266.04 661.604C274.415 655.123 286.456 656.659 292.935 665.036C299.418 673.41 297.879 685.452 289.504 691.932C288.926 692.38 288.293 692.695 287.684 693.068C293.234 698.144 299.27 702.67 305.693 706.587C305.889 705.886 306.033 705.179 306.316 704.486C310.329 694.687 321.525 689.996 331.326 694.012C341.125 698.024 345.815 709.221 341.801 719.019C341.541 719.655 341.175 720.208 340.854 720.8C348.084 722.411 355.533 723.33 363.126 723.516C362.959 722.841 362.733 722.191 362.639 721.486ZM288.636 617.87C282.834 575.111 312.792 535.743 355.552 529.941C398.312 524.137 437.68 554.097 443.482 596.855C449.287 639.615 419.329 678.984 376.569 684.788C333.808 690.59 294.44 660.629 288.636 617.87Z" fill="white"/>
<path d="M362.639 721.486C361.213 710.993 368.569 701.334 379.06 699.909C389.555 698.486 399.213 705.837 400.635 716.329C400.727 716.988 400.68 717.631 400.704 718.282C407.952 716.032 414.867 713.113 421.378 709.591C420.886 709.08 420.359 708.619 419.915 708.047C413.435 699.67 414.971 687.63 423.346 681.15C431.721 674.67 443.763 676.206 450.244 684.581C450.677 685.142 450.984 685.758 451.345 686.349C456.46 680.827 461.028 674.82 464.987 668.418C464.257 668.216 463.517 668.065 462.798 667.77C452.999 663.757 448.309 652.558 452.321 642.761C456.334 632.96 467.53 628.271 477.331 632.285C478.063 632.584 478.707 632.999 479.38 633.376C481.061 626.072 482.038 618.538 482.259 610.857C481.448 611.077 480.653 611.332 479.796 611.445C469.305 612.87 459.642 605.52 458.218 595.027C456.794 584.534 464.149 574.873 474.639 573.45C475.514 573.329 476.37 573.36 477.229 573.359C474.969 565.942 472.003 558.874 468.415 552.22C467.764 552.897 467.123 553.58 466.359 554.171C457.984 560.651 445.942 559.114 439.462 550.739C432.979 542.364 434.518 530.324 442.893 523.842C443.66 523.248 444.487 522.794 445.308 522.334C439.666 517.084 433.513 512.406 426.947 508.365C426.716 509.345 426.475 510.328 426.084 511.289C422.069 521.087 410.87 525.777 401.071 521.764C391.272 517.751 386.582 506.552 390.595 496.753C390.989 495.799 391.5 494.937 392.019 494.08C384.561 492.375 376.868 491.392 369.02 491.206C369.329 492.206 369.612 493.218 369.757 494.289C371.184 504.781 363.83 514.442 353.337 515.866C342.844 517.29 333.184 509.939 331.76 499.446C331.622 498.419 331.634 497.415 331.655 496.412C324.16 498.732 317.026 501.772 310.32 505.45C311.079 506.155 311.827 506.882 312.484 507.729C318.962 516.103 317.425 528.146 309.048 534.625C300.676 541.104 288.634 539.567 282.154 531.192C281.544 530.405 281.076 529.559 280.606 528.713C275.392 534.387 270.764 540.575 266.764 547.164C267.715 547.391 268.666 547.622 269.599 548.006C279.398 552.019 284.091 563.216 280.076 573.015C276.063 582.814 264.866 587.504 255.065 583.491C254.206 583.139 253.445 582.668 252.666 582.211C251.028 589.592 250.101 597.206 249.949 604.962C250.817 604.716 251.681 604.454 252.602 604.326C263.092 602.903 272.754 610.256 274.176 620.748C275.6 631.241 268.251 640.902 257.756 642.325C256.946 642.434 256.158 642.4 255.36 642.408C257.669 649.734 260.668 656.712 264.275 663.281C264.847 662.71 265.384 662.111 266.04 661.604C274.415 655.123 286.456 656.659 292.935 665.036C299.418 673.41 297.879 685.452 289.504 691.932C288.926 692.38 288.293 692.695 287.684 693.068C293.234 698.144 299.27 702.67 305.693 706.587C305.889 705.886 306.033 705.179 306.316 704.486C310.329 694.687 321.525 689.996 331.326 694.012C341.125 698.024 345.815 709.221 341.801 719.019C341.541 719.655 341.175 720.208 340.854 720.8C348.084 722.411 355.533 723.33 363.126 723.516C362.959 722.841 362.733 722.191 362.639 721.486ZM288.636 617.87C282.834 575.111 312.792 535.743 355.552 529.941C398.312 524.137 437.68 554.097 443.482 596.855C449.287 639.615 419.329 678.984 376.569 684.788C333.808 690.59 294.44 660.629 288.636 617.87Z" stroke="#212120" stroke-width="3.3744" stroke-miterlimit="10"/>
<path d="M1780.48 914.89H1759.46V839.207H1780.48V914.89Z" fill="black"/>
<path d="M1832.35 914.89H1811.32V839.207H1832.35V914.89Z" fill="black"/>
<path d="M732.855 771.437V846.282L796.356 807.725L732.855 771.437Z" fill="#212120"/>
<path d="M1190.97 401.991H1053.97V319.793H1190.97V401.991Z" fill="white"/>
<path d="M1190.97 401.991H1053.97V319.793H1190.97V401.991Z" stroke="#212120" stroke-width="2.01568" stroke-miterlimit="10"/>
<path d="M1189.62 323.259L1121.12 364.357L1052.62 323.259" fill="white"/>
<path d="M1189.62 323.259L1121.12 364.357L1052.62 323.259" stroke="#212120" stroke-width="2.01568" stroke-miterlimit="10"/>
<path d="M736.391 366.042C731.928 366.216 728.167 362.741 727.993 358.277L722.885 227.006C722.711 222.54 726.191 218.781 730.654 218.608C735.119 218.434 738.878 221.911 739.052 226.377L744.16 357.648C744.334 362.111 740.856 365.868 736.391 366.042Z" fill="#212120"/>
<path d="M754.936 437.016C755.282 445.914 748.351 453.408 739.451 453.755C730.555 454.101 723.063 447.168 722.717 438.27C722.37 429.372 729.302 421.882 738.197 421.536C747.097 421.19 754.589 428.118 754.936 437.016Z" fill="#212120"/>
<path d="M785.966 387.112C776.284 361.586 780.456 326.981 758.769 307.534C751.297 300.833 741.198 296.696 731.217 297.758C713.743 299.62 701.273 315.499 696.341 331.249C690.333 350.423 693.147 370.628 687.507 389.892C686.058 394.836 670.271 436.512 671.02 436.482L738.681 433.85L806.338 431.217C807.088 431.188 787.791 391.931 785.966 387.112Z" fill="#92E2A9"/>
<path d="M1535.23 388.88C1535.23 431.843 1500.41 466.673 1457.44 466.673C1414.48 466.673 1379.65 431.843 1379.65 388.88C1379.65 345.916 1414.48 311.086 1457.44 311.086C1500.41 311.086 1535.23 345.916 1535.23 388.88Z" stroke="black" stroke-width="3.3744" stroke-miterlimit="10"/>
<path d="M1387.8 394.269L1453.67 385.688L1414.89 336.863" stroke="#212120" stroke-width="3.3744" stroke-miterlimit="10"/>
<path d="M1591.19 401.123L1605.09 388.807L1649.43 438.858L1635.53 451.174L1591.19 401.123Z" fill="#92E2A9"/>
<path d="M1589.12 435.211L1639.18 390.862L1651.5 404.766L1601.44 449.116L1589.12 435.211Z" fill="#92E2A9"/>
</g>
<path d="M1683.09 1230.75H565.955C555.98 1230.75 547.891 1222.66 547.891 1212.68V556.388C547.891 546.413 555.98 538.326 565.955 538.326H1683.09C1693.06 538.326 1701.15 546.413 1701.15 556.388V1212.68C1701.15 1222.66 1693.06 1230.75 1683.09 1230.75Z" fill="white"/>
<path d="M1683.09 1230.75H565.955C555.98 1230.75 547.891 1222.66 547.891 1212.68V556.388C547.891 546.413 555.98 538.326 565.955 538.326H1683.09C1693.06 538.326 1701.15 546.413 1701.15 556.388V1212.68C1701.15 1222.66 1693.06 1230.75 1683.09 1230.75Z" stroke="#050504" stroke-width="4.49994" stroke-miterlimit="10"/>
<path d="M1685.56 1230.75H562.887C554.606 1230.75 547.891 1224.03 547.891 1215.75V553.444C547.891 545.094 554.662 538.326 563.011 538.326H1680.98C1692.12 538.326 1701.15 547.354 1701.15 558.492V1215.16C1701.15 1223.77 1694.17 1230.75 1685.56 1230.75Z" stroke="#050504" stroke-width="4.49994" stroke-miterlimit="10"/>
<path d="M1695.2 1178.2H553.613V592.771H1695.2V1178.2Z" fill="#ABAFAF"/>
<path d="M897.372 952.365H613.012V674.66H897.372V952.365Z" fill="white"/>
<mask id="mask4_1378_1108" style="mask-type:luminance" maskUnits="userSpaceOnUse" x="-1664" y="13" width="4264" height="2398">
<path d="M-1663.2 13.2002H2599.2V2410.8H-1663.2V13.2002Z" fill="white"/>
</mask>
<g mask="url(#mask4_1378_1108)">
<path d="M1137.38 799.717H932.293V674.66H1137.38V799.717Z" fill="white"/>
<path d="M1137.38 950.826H932.293V825.769H1137.38V950.826Z" fill="white"/>
<path d="M1377.42 799.717H1172.34V674.66H1377.42V799.717Z" fill="white"/>
<path d="M1377.42 950.826H1172.34V825.769H1377.42V950.826Z" fill="white"/>
<path d="M1617.46 799.717H1412.38V674.66H1617.46V799.717Z" fill="white"/>
<path d="M1617.46 950.826H1412.38V825.769H1617.46V950.826Z" fill="white"/>
</g>
<mask id="mask5_1378_1108" style="mask-type:luminance" maskUnits="userSpaceOnUse" x="-1664" y="13" width="4264" height="2398">
<path d="M-1663.2 13.2002H2599.2V2410.8H-1663.2V13.2002Z" fill="white"/>
</mask>
<g mask="url(#mask5_1378_1108)">
<path d="M618.84 990.446H872.868" stroke="black" stroke-width="4.49994" stroke-miterlimit="10"/>
<path d="M618.84 1009.09H872.868" stroke="black" stroke-width="4.49994" stroke-miterlimit="10"/>
<path d="M618.84 1027.74H872.868" stroke="black" stroke-width="4.49994" stroke-miterlimit="10"/>
<path d="M618.84 1046.38H872.868" stroke="black" stroke-width="4.49994" stroke-miterlimit="10"/>
<path d="M618.84 1065.02H842.567" stroke="black" stroke-width="4.49994" stroke-miterlimit="10"/>
</g>
<mask id="mask6_1378_1108" style="mask-type:luminance" maskUnits="userSpaceOnUse" x="-1664" y="13" width="4264" height="2398">
<path d="M-1663.2 13.2002H2599.2V2410.8H-1663.2V13.2002Z" fill="white"/>
</mask>
<g mask="url(#mask6_1378_1108)">
<path d="M316.401 1012.37C313.791 976.23 331.232 947.708 345.517 916.132C353.288 898.962 355.619 879.388 365.703 863.464C387.166 926.408 386.987 1004.37 369.453 1068.25C364.242 1087.24 354.962 1104.87 349.038 1123.65C352.026 1114.18 339.87 1093.68 336.597 1085.48C326.803 1060.9 318.164 1036.78 316.401 1012.37Z" fill="#92E2A9"/>
<path d="M348.394 1306.18C349.002 1201.46 349.61 1096.74 350.219 992.014" stroke="black" stroke-width="2.24886" stroke-miterlimit="10"/>
<path d="M262.86 1148.9C234.032 1127.05 207.479 1100.81 188.875 1069.5C179.746 1054.14 172.554 1037.63 167.526 1020.48C165.013 1011.91 163.042 1003.18 161.642 994.361C160.938 989.929 161.89 972.379 159.238 969.611C178.545 989.764 205.426 998.218 225.686 1016.24C246.092 1034.4 265.455 1058.62 279.044 1082.34C287.033 1096.28 293.28 1111.32 296.863 1127C298.533 1134.31 305.427 1161.06 298.798 1167.07C296.746 1168.92 290.115 1165.66 288.122 1164.83C278.889 1160.98 270.776 1154.89 262.86 1148.9Z" fill="white"/>
<path d="M262.86 1148.9C234.032 1127.05 207.479 1100.81 188.875 1069.5C179.746 1054.14 172.554 1037.63 167.526 1020.48C165.013 1011.91 163.042 1003.18 161.642 994.361C160.938 989.929 161.89 972.379 159.238 969.611C178.545 989.764 205.426 998.218 225.686 1016.24C246.092 1034.4 265.455 1058.62 279.044 1082.34C287.033 1096.28 293.28 1111.32 296.863 1127C298.533 1134.31 305.427 1161.06 298.798 1167.07C296.746 1168.92 290.115 1165.66 288.122 1164.83C278.889 1160.98 270.776 1154.89 262.86 1148.9Z" stroke="black" stroke-width="2.24886" stroke-miterlimit="10"/>
<path d="M345.416 1331.48C333.244 1219.92 283.655 1112.77 206.488 1031.28" stroke="black" stroke-width="2.24886" stroke-miterlimit="10"/>
<path d="M284.088 1189.32C267.045 1182.87 248.041 1182.8 230.252 1186.74C212.462 1190.69 195.743 1198.49 179.878 1207.45C160.985 1218.12 143.07 1230.53 126.436 1244.46C143.325 1257.68 165.596 1262.5 187.036 1261.91C204.72 1261.42 222.26 1257.5 238.652 1250.84C262.796 1241.05 284.325 1225.47 308.734 1216.34C312.95 1214.77 316.463 1212.92 320.869 1214.56C311.857 1203.08 297.675 1194.45 284.088 1189.32Z" fill="#92E2A9"/>
<path d="M319.192 1213.47C298.558 1204.18 276.772 1203.55 254.852 1209.17C232.934 1214.8 212.608 1225.25 192.496 1235.62" stroke="black" stroke-width="2.24886" stroke-miterlimit="10"/>
<path d="M382.479 1206.6C389.325 1190.94 398.561 1176.32 409.871 1163.5C433.714 1136.45 466.817 1116.6 482.462 1084.11C481.077 1123.35 478.902 1165.05 456.352 1197.18C430.07 1234.63 385.293 1252.32 360.522 1290.7C364.882 1283.94 364.494 1267.4 366.896 1259.15C369.865 1248.94 371.889 1238.29 374.839 1227.89C376.9 1220.64 379.458 1213.52 382.479 1206.6Z" fill="#92E2A9"/>
<path d="M355.62 1314.21C357.963 1283.97 371.327 1255.3 389.821 1231.26C404.343 1212.39 422.1 1195.92 434.39 1175.52" stroke="black" stroke-width="2.24886" stroke-miterlimit="10"/>
<path d="M220.736 1270.11C219.735 1276.39 219.164 1282.82 219.164 1289.38C219.164 1339.69 249.694 1397.35 293.467 1424.13C296.118 1425.75 299.202 1426.52 302.31 1426.52H386.301C389.407 1426.52 392.491 1425.75 395.141 1424.13C438.915 1397.35 469.447 1339.69 469.447 1289.38C469.447 1282.82 468.874 1276.39 467.873 1270.11H220.736Z" fill="#ABAFAF"/>
<path d="M221.285 1291.91H466.151" stroke="black" stroke-width="2.24886" stroke-miterlimit="10"/>
<path d="M230.961 1342.4H456.477" stroke="black" stroke-width="2.24886" stroke-miterlimit="10"/>
<path d="M271.355 1406.11H416.079" stroke="black" stroke-width="2.24886" stroke-miterlimit="10"/>
<path d="M239.395 1329.15L262.76 1307.48L286.128 1328.51L310.47 1306.21L337.734 1328.51L364.021 1305.57L391.282 1328.51L415.625 1304.94L440.939 1328.51" stroke="black" stroke-width="2.24886" stroke-miterlimit="10"/>
<path d="M262.762 1367.94L286.129 1388.97L310.472 1366.66L337.733 1388.97L364.023 1366.03L391.284 1388.97L415.626 1365.39" stroke="black" stroke-width="2.24886" stroke-miterlimit="10"/>
</g>
<path d="M1863.34 1470.29H145.84V1427.95H1863.34V1470.29Z" fill="#92E2A9"/>
<path d="M269.352 1900.52H244.168V1442.14H269.352V1900.52Z" fill="#92E2A9"/>
<path d="M1762.51 1900.52H1737.33V1442.14H1762.51V1900.52Z" fill="#92E2A9"/>
<mask id="mask7_1378_1108" style="mask-type:luminance" maskUnits="userSpaceOnUse" x="-1664" y="13" width="4264" height="2398">
<path d="M-1663.2 13.2002H2599.2V2410.8H-1663.2V13.2002Z" fill="white"/>
</mask>
<g mask="url(#mask7_1378_1108)">
<path d="M1509.72 1238.34C1494.41 1226.81 1475.54 1214.26 1466.32 1199.42C1459.72 1188.79 1457.99 1175.3 1451.27 1163.96C1435.21 1136.84 1413.35 1112.07 1393.6 1087.62C1352.4 1036.6 1308.7 987.605 1267.91 936.245C1258.22 924.041 1247.79 912.306 1239.95 898.836C1227.59 877.602 1222.36 853.076 1220.85 828.767C1219.35 804.662 1232.55 794.56 1240.36 773.581C1244.92 761.332 1253.92 761.849 1257.45 773.095C1259.35 779.129 1257.78 790.193 1255.95 796.233C1254.89 799.711 1253.19 803.024 1252.71 806.629C1251 819.443 1266.97 845.408 1277.5 826.26C1282.57 817.06 1277.71 796.81 1272.26 788.485C1263.93 775.748 1255.51 758.13 1265.58 746.725C1283.26 726.72 1329.46 787.903 1334.38 798.505C1346.94 825.599 1338.18 857.384 1348.79 882.824C1351.32 888.887 1356.17 893.626 1360.9 898.186C1448.81 982.972 1685.88 1134.01 1712.46 1227.32C1722.35 1262.02 1678.91 1210.46 1669.1 1245.19C1660.3 1276.29 1622.57 1291.65 1590.7 1286.27C1563.79 1281.72 1539.23 1262.77 1518.88 1245.57C1516.07 1243.2 1512.98 1240.8 1509.72 1238.34Z" fill="white"/>
<path d="M1509.72 1238.34C1494.41 1226.81 1475.54 1214.26 1466.32 1199.42C1459.72 1188.79 1457.99 1175.3 1451.27 1163.96C1435.21 1136.84 1413.35 1112.07 1393.6 1087.62C1352.4 1036.6 1308.7 987.605 1267.91 936.245C1258.22 924.041 1247.79 912.306 1239.95 898.836C1227.59 877.602 1222.36 853.076 1220.85 828.767C1219.35 804.662 1232.55 794.56 1240.36 773.581C1244.92 761.332 1253.92 761.849 1257.45 773.095C1259.35 779.129 1257.78 790.193 1255.95 796.233C1254.89 799.711 1253.19 803.024 1252.71 806.629C1251 819.443 1266.97 845.408 1277.5 826.26C1282.57 817.06 1277.71 796.81 1272.26 788.485C1263.93 775.748 1255.51 758.13 1265.58 746.725C1283.26 726.72 1329.46 787.903 1334.38 798.505C1346.94 825.599 1338.18 857.384 1348.79 882.824C1351.32 888.887 1356.17 893.626 1360.9 898.186C1448.81 982.972 1685.88 1134.01 1712.46 1227.32C1722.35 1262.02 1678.91 1210.46 1669.1 1245.19C1660.3 1276.29 1622.57 1291.65 1590.7 1286.27C1563.79 1281.72 1539.23 1262.77 1518.88 1245.57C1516.07 1243.2 1512.98 1240.8 1509.72 1238.34Z" stroke="#212120" stroke-width="4.49994" stroke-miterlimit="10"/>
<path d="M1272.44 820.755L1221.28 649.203" stroke="#212120" stroke-width="17.9975" stroke-miterlimit="10" stroke-linecap="round"/>
<path d="M1183.81 774.998C1183.62 766.437 1183.6 757.933 1183.34 749.628L1025.12 748.851C1025.9 797.79 1023.43 843.198 1020.46 885.574C1019.02 906.126 1017.72 920.556 1010 937.839C1042.63 951.412 1065.74 968.5 1101.11 972.12C1133.06 975.395 1174.24 976.125 1202.6 961.058C1179.33 899.68 1185.15 836.756 1183.81 774.998Z" fill="white"/>
<path d="M1183.81 774.998C1183.62 766.437 1183.6 757.933 1183.34 749.628L1025.12 748.851C1025.9 797.79 1023.43 843.198 1020.46 885.574C1019.02 906.126 1017.72 920.556 1010 937.839C1042.63 951.412 1065.74 968.5 1101.11 972.12C1133.06 975.395 1174.24 976.125 1202.6 961.058C1179.33 899.68 1185.15 836.756 1183.81 774.998Z" stroke="#212120" stroke-width="4.49994" stroke-miterlimit="10"/>
<path d="M984.193 881.513C910.866 893.193 842.148 922.63 782.89 968.602C724.455 1013.93 675.992 1070.72 630.358 1128.92C588.782 1181.94 549.164 1236.5 511.617 1292.45C499.42 1310.62 487.294 1329.25 480.79 1350.15C455.935 1430 530.065 1445.79 591.039 1444.34C641.731 1443.14 692.307 1425.64 731.634 1393.37C747.829 1380.09 762.102 1364.65 776.316 1349.26C802.135 1321.33 828.033 1296.37 845.345 1262.61C857.002 1239.87 869.552 1217.51 881.973 1195.18C889.598 1181.47 933.062 1086.34 953.526 1090.56C964.013 1092.74 974.858 1094.47 985.895 1095.96C985.895 1068.53 987.656 1041.14 988.928 1013.75C989.607 999.087 990.298 984.415 990.437 969.741C990.528 959.759 985.305 945.445 987.734 936.301C993.512 914.523 1004.47 894.141 1019.44 877.302C1007.59 878.257 995.834 879.66 984.193 881.513Z" fill="#FF6F0F"/>
<path d="M1139.44 887.52C1172.91 883.872 1174.89 884.298 1208.06 880.009C1321.72 865.346 1454.28 956.374 1539.47 1020.44C1606.3 1070.7 1731.73 1160.17 1728.1 1255.32C1725.84 1314.72 1659.51 1346.12 1607.43 1349.7C1532.61 1354.83 1468.2 1310.24 1412.73 1265.39C1393.14 1249.56 1226.4 1076.54 1220.62 1079.33C1210.97 1083.99 1200.87 1088.29 1190.52 1092.4L1139.44 887.52Z" fill="#FF6F0F"/>
<path d="M1394.9 1771.62C1411.86 1622.44 1405.73 1476.56 1406.66 1326.43C1406.78 1307.92 1406.9 1289.32 1410.04 1271.09C1413.32 1252.09 1419.81 1233.78 1423.39 1214.85C1441.07 1121.26 1389.12 1005.11 1302.41 961.9C1228.03 924.844 1142.86 914.732 1059.79 916.512C988.144 918.046 830.091 955.935 786.635 1012.91C729.665 1087.61 760.039 1195.89 818.554 1260.18C801.56 1356.62 785.62 1457.19 784.461 1555.32C783.647 1624.57 801.549 1693.1 805.278 1762.3L1394.9 1771.62Z" fill="#FF6F0F"/>
<path d="M801.785 1367.15C809.881 1328.99 815.824 1324.91 823.923 1286.75" stroke="#FF6F0F" stroke-width="4.49994" stroke-miterlimit="10"/>
<path d="M1407.72 1439.4C1404.25 1383.74 1385.68 1324.68 1372.76 1270.44" stroke="#FF6F0F" stroke-width="4.49994" stroke-miterlimit="10"/>
<path d="M999.184 689.215C995.996 674.776 976.755 659.072 958.768 669.574C949.502 674.985 946.381 685.585 948.232 694.873C950.086 704.162 956.002 712.491 961.81 720.572C964.429 724.215 967.045 727.858 969.662 731.501C971.964 734.705 974.752 738.206 979.148 738.974C1001.31 742.832 1001.18 698.252 999.184 689.215Z" fill="white"/>
<path d="M999.184 689.215C995.996 674.776 976.755 659.072 958.768 669.574C949.502 674.985 946.381 685.585 948.232 694.873C950.086 704.162 956.002 712.491 961.81 720.572C964.429 724.215 967.045 727.858 969.662 731.501C971.964 734.705 974.752 738.206 979.148 738.974C1001.31 742.832 1001.18 698.252 999.184 689.215Z" stroke="#212120" stroke-width="4.49994" stroke-miterlimit="10"/>
<path d="M1220.55 734.754C1217.12 738.421 1212.49 742.004 1207.06 741.354C1204.1 740.998 1201.56 739.4 1199.52 737.58C1181.7 721.649 1206.99 665.667 1235.03 665.827C1239.95 665.854 1244.7 668.511 1246.58 672.285C1248.2 675.535 1247.76 679.216 1247.11 682.692C1243.61 701.214 1234.63 719.003 1221.18 734.054C1220.97 734.287 1220.76 734.52 1220.55 734.754Z" fill="white"/>
<path d="M1220.55 734.754C1217.12 738.421 1212.49 742.004 1207.06 741.354C1204.1 740.998 1201.56 739.4 1199.52 737.58C1181.7 721.649 1206.99 665.667 1235.03 665.827C1239.95 665.854 1244.7 668.511 1246.58 672.285C1248.2 675.535 1247.76 679.216 1247.11 682.692C1243.61 701.214 1234.63 719.003 1221.18 734.054C1220.97 734.287 1220.76 734.52 1220.55 734.754Z" stroke="#212120" stroke-width="4.49994" stroke-miterlimit="10"/>
<path d="M1033.11 809.816C1028.63 809.452 1024.43 808.38 1020.72 806.262C1011.9 801.247 1005.69 792.704 1000.44 784.029C969.052 732.216 954.746 666.193 966.869 606.577C972.715 577.828 986.894 548.544 1010.38 530.116C1034.23 511.406 1065.03 508.826 1093.14 506.815C1098.74 506.415 1103.51 502.786 1108.02 499.434C1112.52 496.077 1117.59 492.709 1123.2 492.958C1128.82 493.206 1134.34 499.038 1132.1 504.191C1138.33 502.115 1144.01 498.437 1148.46 493.604C1177.55 519.578 1201.64 551.557 1216.14 587.756C1230.8 624.353 1233.3 665.026 1225.98 703.587C1220.46 732.729 1208.28 760.721 1197.84 788.127C1189.36 810.367 1173.63 814.156 1152.37 806.746C1129.64 798.825 1105.21 798.643 1081.59 801.826C1067.83 803.682 1048.77 811.09 1033.11 809.816Z" fill="#212120"/>
<path d="M1275.13 867.889C1274.66 858.876 1272.82 849.128 1266.03 843.172C1261.95 839.584 1256.6 837.861 1251.39 836.312C1171.55 812.567 1085.98 808.32 1004.18 824.044C992.614 826.269 980.823 829.008 971.02 835.542C954.279 846.697 945.927 867.811 946.631 887.916C947.339 908.025 956.019 927.137 967.43 943.707C1012.41 1009.03 1095.69 1033.25 1171.02 1013C1229.23 997.351 1278.23 927.083 1275.13 867.889Z" fill="#FF6F0F"/>
<path d="M1269.29 918.137C1246.25 961.136 1208.85 996.279 1164.5 1016.58" stroke="#FF6F0F" stroke-width="4.49994" stroke-miterlimit="10"/>
<path d="M1134.32 1023.78C1100.61 1027.65 1065.53 1025.78 1034.3 1012.51C1003.07 999.249 976.129 973.455 966.836 940.823" stroke="#FF6F0F" stroke-width="4.49994" stroke-miterlimit="10"/>
</g>
<path d="M1390.22 1857.4H807.629V1414.6C807.629 1257.58 934.924 1130.28 1091.95 1130.28H1105.9C1262.93 1130.28 1390.22 1257.58 1390.22 1414.6V1857.4Z" fill="#212120"/>
</g>
</g>
</g>
</svg>
