<svg width="1200" height="1200" viewBox="0 0 1200 1200" fill="none" xmlns="http://www.w3.org/2000/svg">
<mask id="mask0_1377_8" style="mask-type:luminance" maskUnits="userSpaceOnUse" x="0" y="0" width="1200" height="1200">
<path d="M0 0H1200V1200H0V0Z" fill="white"/>
</mask>
<g mask="url(#mask0_1377_8)">
<path d="M995.817 958.482C995.817 958.482 1012.99 954.446 1028.97 963.658C1007.64 977.092 995.817 958.482 995.817 958.482Z" fill="#FF6F0F"/>
<path d="M1013.8 968.99C1009.89 968.947 1006.65 967.846 1004.17 966.533C998.5 963.534 995.534 958.935 995.41 958.741C995.327 958.609 995.313 958.446 995.371 958.302C995.429 958.158 995.555 958.05 995.706 958.015C995.88 957.975 1013.25 954.044 1029.21 963.243C1029.36 963.328 1029.45 963.482 1029.45 963.65C1029.46 963.819 1029.37 963.977 1029.23 964.065C1023.33 967.781 1018.15 969.037 1013.8 968.99ZM996.633 958.809C997.62 960.136 1000.36 963.441 1004.65 965.702C1011.75 969.439 1019.61 968.755 1028.03 963.678C1014.4 956.176 999.956 958.2 996.633 958.809Z" fill="black"/>
<path d="M1012.82 943.127C1012.82 943.127 1008.43 924.959 990.138 923.828C986.87 940.274 1012.82 943.127 1012.82 943.127Z" fill="#FF6F0F"/>
<path d="M1012.82 943.607C1012.8 943.607 1012.79 943.607 1012.77 943.606C1012.16 943.538 997.625 941.855 991.755 933.849C989.617 930.932 988.914 927.528 989.669 923.734C989.715 923.498 989.92 923.333 990.169 923.35C1008.6 924.49 1013.25 942.83 1013.29 943.014C1013.33 943.167 1013.29 943.327 1013.18 943.444C1013.09 943.55 1012.96 943.609 1012.82 943.607ZM990.533 924.337C989.964 927.687 990.634 930.694 992.529 933.28C997.425 939.962 1009.14 942.103 1012.16 942.553C1011.13 939.293 1005.9 925.532 990.533 924.337Z" fill="black"/>
<path d="M1017.86 937.285C1017.86 937.285 1037.97 925.386 1052.51 947.486C1029.92 955.955 1017.86 937.285 1017.86 937.285Z" fill="#FF6F0F"/>
<path d="M1040.8 950.151C1034.71 950.084 1029.89 948.086 1026.46 945.97C1020.6 942.345 1017.59 937.738 1017.46 937.544C1017.39 937.435 1017.37 937.301 1017.4 937.173C1017.43 937.046 1017.51 936.938 1017.62 936.872C1017.83 936.748 1022.83 933.83 1029.72 933.617C1036.09 933.414 1045.28 935.618 1052.91 947.222C1052.99 947.343 1053.01 947.497 1052.96 947.635C1052.92 947.774 1052.81 947.885 1052.68 947.935C1048.31 949.572 1044.34 950.19 1040.8 950.151ZM1018.57 937.451C1019.46 938.676 1022.33 942.292 1027 945.174C1034.45 949.765 1042.78 950.462 1051.77 947.245C1045.9 938.581 1038.51 934.316 1029.79 934.577C1024.3 934.739 1019.94 936.741 1018.57 937.451Z" fill="black"/>
<path d="M1029.46 919.545C1029.46 919.545 1045.94 902.788 1066.76 914.477C1052.91 930.858 1035.61 922.884 1029.46 919.545Z" fill="#FF6F0F"/>
<path d="M1046.29 924.896C1040.93 924.837 1035.19 923.203 1029.23 919.969C1029.1 919.897 1029 919.767 1028.98 919.617C1028.96 919.469 1029.01 919.318 1029.12 919.209C1029.28 919.039 1046.1 902.324 1067 914.06C1067.13 914.129 1067.21 914.252 1067.24 914.393C1067.26 914.534 1067.22 914.679 1067.13 914.788C1061.38 921.591 1054.26 924.983 1046.29 924.896ZM1030.27 919.439C1040.3 924.716 1054.4 927.923 1066.02 914.614C1047.92 904.841 1033.08 916.911 1030.27 919.439Z" fill="black"/>
<path d="M1037.23 899.349C1037.23 899.349 1062.23 885.352 1043.63 852.296C1022.12 883.351 1037.23 899.349 1037.23 899.349Z" fill="#FF6F0F"/>
<path d="M1037.22 899.83C1037.09 899.829 1036.97 899.778 1036.88 899.68C1036.72 899.512 1032.98 895.476 1031.89 887.534C1030.88 880.257 1032.03 868.191 1043.23 852.023C1043.33 851.888 1043.49 851.802 1043.65 851.815C1043.81 851.823 1043.96 851.916 1044.05 852.061C1050.51 863.54 1052.48 874.007 1049.9 883.174C1046.73 894.473 1037.55 899.718 1037.46 899.77C1037.39 899.812 1037.3 899.831 1037.22 899.83ZM1043.58 853.206C1032.99 868.761 1031.88 880.33 1032.83 887.33C1033.71 893.823 1036.48 897.677 1037.33 898.727C1038.98 897.681 1046.26 892.596 1048.98 882.896C1051.43 874.168 1049.61 864.182 1043.58 853.206Z" fill="black"/>
<path d="M1037.69 899.855C1037.69 899.855 1016.25 985.875 868.495 1008.01" stroke="black"/>
<path d="M1015.72 903.586C1015.72 903.586 1014.88 930.282 978.764 916.324C986.704 902.341 1015.72 903.586 1015.72 903.586Z" fill="#FF6F0F"/>
<path d="M996.378 920.847C991.297 920.745 985.357 919.387 978.592 916.772C978.462 916.722 978.359 916.618 978.314 916.486C978.266 916.355 978.279 916.208 978.348 916.086C986.339 902.01 1014.55 903.059 1015.74 903.106C1016 903.117 1016.21 903.338 1016.2 903.6C1016.19 903.977 1015.83 912.878 1008.43 917.781C1005.2 919.921 1001.17 920.944 996.378 920.847ZM979.469 916.08C992.044 920.847 1001.61 921.151 1007.9 916.981C1013.93 912.98 1015.02 905.947 1015.2 904.052C1011.41 903.978 986.969 903.986 979.469 916.08Z" fill="black"/>
<path d="M978.763 916.325C978.763 916.325 983.868 889.814 950.465 883.755C952.235 905.395 978.763 916.325 978.763 916.325Z" fill="#FF6F0F"/>
<path d="M978.751 916.805C978.693 916.804 978.634 916.791 978.578 916.768C978.309 916.659 951.758 905.476 949.984 883.794C949.972 883.645 950.03 883.5 950.14 883.398C950.25 883.3 950.401 883.256 950.547 883.283C961.861 885.335 970.034 889.93 974.835 896.941C981.122 906.118 979.253 916.314 979.233 916.415C979.206 916.557 979.116 916.679 978.989 916.748C978.915 916.787 978.833 916.806 978.751 916.805ZM951 884.344C952.999 903.297 974.58 913.905 978.377 915.63C978.658 913.357 979.235 905.053 974.035 897.472C969.47 890.816 961.721 886.4 951 884.344Z" fill="black"/>
<path d="M1022.02 868.219C1022.02 868.219 1020.21 895.252 987.533 889.989C994.555 873.839 1022.02 868.219 1022.02 868.219Z" fill="#FF6F0F"/>
<path d="M994.672 891.142C992.388 891.096 989.982 890.87 987.457 890.464C987.311 890.44 987.183 890.35 987.113 890.22C987.041 890.089 987.036 889.934 987.093 889.798C994.136 873.605 1020.79 867.981 1021.92 867.749C1022.07 867.719 1022.22 867.759 1022.33 867.857C1022.45 867.956 1022.51 868.102 1022.5 868.251C1022.47 868.687 1021.69 878.96 1013.27 885.657C1008.49 889.459 1002.26 891.294 994.672 891.142ZM988.232 889.612C998.568 891.165 1006.79 889.587 1012.66 884.915C1019.57 879.427 1021.15 871.191 1021.47 868.837C1017.35 869.802 994.831 875.658 988.232 889.612Z" fill="black"/>
<path d="M987.532 889.989C987.532 889.989 989.332 859.406 966.85 847.71C956.241 881.667 987.532 889.989 987.532 889.989Z" fill="#FF6F0F"/>
<path d="M987.522 890.469C987.483 890.468 987.445 890.463 987.409 890.453C987.275 890.418 974.1 886.798 967.684 875.165C963.485 867.549 963.048 858.264 966.391 847.566C966.433 847.43 966.532 847.322 966.664 847.266C966.795 847.213 966.944 847.218 967.07 847.283C978.84 853.407 983.908 864.71 986.085 873.113C988.439 882.191 988.016 889.94 988.01 890.018C988.003 890.16 987.93 890.293 987.813 890.378C987.728 890.439 987.625 890.471 987.522 890.469ZM967.137 848.406C964.063 858.61 964.528 867.454 968.526 874.701C973.983 884.596 984.489 888.511 987.072 889.347C987.159 885.024 986.829 859.087 967.137 848.406Z" fill="black"/>
<path d="M994.019 866.12C994.019 866.12 1034.99 837.397 1008.13 802.245C979.623 837.605 994.019 866.12 994.019 866.12Z" fill="#FF6F0F"/>
<path d="M994.01 866.601C993.974 866.6 993.938 866.593 993.903 866.584C993.767 866.551 993.653 866.46 993.591 866.336C993.443 866.041 989.94 858.974 989.905 847.444C989.871 836.83 992.94 820.319 1007.75 801.943C1007.84 801.829 1007.98 801.762 1008.13 801.764L1008.14 801.764C1008.28 801.767 1008.42 801.837 1008.51 801.953C1015.95 811.691 1018.91 821.866 1017.32 832.193C1014.2 852.351 994.494 866.373 994.296 866.513C994.212 866.573 994.11 866.603 994.01 866.601ZM1008.12 803.025C993.813 820.988 990.832 837.074 990.864 847.44C990.895 857.006 993.415 863.554 994.211 865.383C997.2 863.133 1013.58 850.066 1016.37 832.039C1017.89 822.156 1015.12 812.397 1008.12 803.025Z" fill="black"/>
<path d="M994.608 865.781C994.608 865.781 979.745 977.887 866.991 1006.99" stroke="black"/>
<path d="M986.231 990.323C986.231 990.323 1004.67 984.811 1017.06 1004.79C984.389 1012.27 986.231 990.323 986.231 990.323Z" fill="#FF6F0F"/>
<path d="M1005.08 1006.83C998.937 1006.87 994.153 1005.43 990.792 1002.51C985.2 997.661 985.725 990.582 985.75 990.283C985.767 990.086 985.902 989.919 986.091 989.863C986.279 989.807 1005.03 984.478 1017.47 1004.54C1017.55 1004.67 1017.56 1004.83 1017.51 1004.97C1017.45 1005.12 1017.32 1005.22 1017.17 1005.26C1012.69 1006.28 1008.65 1006.81 1005.08 1006.83ZM986.694 990.699C986.668 992.136 986.872 997.846 991.43 1001.8C996.409 1006.11 1004.77 1007.01 1016.29 1004.47C1005.16 987.136 989.178 990.111 986.694 990.699Z" fill="black"/>
<path d="M1011.73 986.407C1011.73 986.407 1012.97 965.282 1055.54 966.366C1044.53 1003.29 1011.73 986.407 1011.73 986.407Z" fill="#FF6F0F"/>
<path d="M1028.5 990.72C1019.33 990.78 1011.62 986.89 1011.52 986.836C1011.35 986.749 1011.25 986.57 1011.26 986.381C1011.27 986.157 1011.64 980.845 1017.35 975.627C1022.55 970.871 1033.4 965.319 1055.55 965.888C1055.7 965.892 1055.84 965.965 1055.93 966.085C1056.02 966.207 1056.04 966.362 1056 966.505C1052.63 977.813 1046.88 985.27 1038.91 988.665C1035.44 990.142 1031.87 990.698 1028.5 990.72ZM1012.25 986.126C1014.34 987.111 1027.08 992.669 1038.54 987.78C1046.09 984.56 1051.59 977.514 1054.9 966.833C1033.55 966.397 1023.09 971.715 1018.06 976.278C1013.37 980.533 1012.43 984.936 1012.25 986.126Z" fill="black"/>
<path d="M1011.4 986.045C1011.4 986.045 903.362 1006.99 868.003 1009" stroke="black"/>
<path d="M897.923 1037.79C897.923 1037.79 845.588 967.295 736.223 967.295C626.858 967.295 605.965 1037.79 605.965 1037.79H897.923Z" fill="#FF6F0F"/>
<path d="M897.923 1038.27H605.965C605.814 1038.27 605.671 1038.2 605.58 1038.08C605.489 1037.96 605.461 1037.8 605.504 1037.65C605.557 1037.48 610.983 1019.7 629.754 1002.19C640.77 991.916 654.163 983.732 669.561 977.862C688.79 970.533 711.219 966.816 736.223 966.816C761.22 966.816 785.293 970.53 807.775 977.854C825.764 983.714 842.779 991.886 858.349 1002.14C884.867 1019.61 898.177 1037.33 898.308 1037.5C898.416 1037.65 898.433 1037.84 898.352 1038.01C898.27 1038.17 898.104 1038.27 897.923 1038.27ZM606.629 1037.31H896.94C894.088 1033.74 881.05 1018.24 857.784 1002.92C833.434 986.887 792.578 967.776 736.223 967.776C679.92 967.776 647.628 986.851 630.453 1002.85C613.814 1018.36 607.759 1034.04 606.629 1037.31Z" fill="black"/>
<path d="M727.535 736.334L754.885 768.948V1038.86H727.535V736.334Z" fill="#1C0311"/>
<path d="M754.887 1039.1H727.537C727.404 1039.1 727.297 1039 727.297 1038.86V736.335C727.297 736.233 727.36 736.144 727.455 736.109C727.549 736.074 727.656 736.102 727.72 736.181L755.071 768.794C755.107 768.837 755.127 768.894 755.127 768.949V1038.86C755.127 1039 755.019 1039.1 754.887 1039.1ZM727.777 1038.62H754.647V769.036L727.777 736.994V1038.62Z" fill="#1A1A1A"/>
<path d="M513.792 1037.79C513.792 1037.79 444.428 962.024 342.675 967.587C240.922 973.15 213.895 1037.79 213.895 1037.79H513.792Z" fill="#FF6F0F"/>
<path d="M513.791 1038.27H213.893C213.733 1038.27 213.583 1038.19 213.494 1038.06C213.405 1037.92 213.389 1037.75 213.451 1037.6C213.518 1037.44 220.474 1021.15 239.812 1004.41C251.16 994.591 264.494 986.532 279.444 980.459C298.12 972.872 319.385 968.38 342.647 967.109C365.913 965.834 389.407 968.744 412.477 975.75C430.929 981.355 449.151 989.577 466.639 1000.19C496.413 1018.26 513.971 1037.27 514.145 1037.46C514.273 1037.6 514.307 1037.81 514.23 1037.98C514.154 1038.16 513.981 1038.27 513.791 1038.27ZM214.639 1037.31H512.673C509.005 1033.51 492.308 1016.89 466.113 1001C438.75 984.391 395.125 965.2 342.7 968.066C290.304 970.93 258.194 989.788 240.484 1005.1C223.504 1019.78 216.152 1034.1 214.639 1037.31Z" fill="black"/>
<path d="M727.537 1037.98V736.334H656.358V795.96H588.977V855.587H521.597V915.213H454.217V974.84H386.836V1038.86H716.407H727.537V1037.98Z" fill="white"/>
<path d="M727.535 1039.34H386.835C386.57 1039.34 386.355 1039.13 386.355 1038.86V974.84C386.355 974.574 386.57 974.36 386.835 974.36H453.735V915.213C453.735 914.947 453.95 914.733 454.215 914.733H521.115V855.587C521.115 855.321 521.33 855.107 521.595 855.107H588.496V795.96C588.496 795.695 588.711 795.481 588.976 795.481H655.876V736.334C655.876 736.069 656.091 735.854 656.357 735.854H727.535C727.801 735.854 728.016 736.069 728.016 736.334V1038.86C728.016 1039.13 727.801 1039.34 727.535 1039.34ZM387.315 1038.38H727.055V736.814H656.836V795.96C656.836 796.226 656.622 796.441 656.357 796.441H589.455V855.587C589.455 855.853 589.241 856.067 588.976 856.067H522.076V915.213C522.076 915.479 521.861 915.694 521.595 915.694H454.695V974.84C454.695 975.106 454.481 975.32 454.215 975.32H387.315V1038.38Z" fill="#1A1A1A"/>
<path d="M990.097 1038.51H134.51C134.112 1038.51 133.789 1038.19 133.789 1037.79C133.789 1037.39 134.112 1037.07 134.51 1037.07H990.097C990.494 1037.07 990.817 1037.39 990.817 1037.79C990.817 1038.19 990.494 1038.51 990.097 1038.51Z" fill="#1A1A1A"/>
<path d="M307.129 831.058C307.129 831.058 564.788 888.166 632.94 675.129" stroke="black" stroke-miterlimit="10" stroke-dasharray="10 10"/>
<path d="M682.287 624.356C682.224 624.356 682.162 624.343 682.102 624.318L509.196 551.583C509.009 551.504 508.891 551.316 508.903 551.114C508.913 550.911 509.051 550.738 509.246 550.679L682.152 499.545C682.295 499.502 682.454 499.53 682.575 499.62C682.697 499.711 682.768 499.854 682.768 500.005V623.875C682.768 624.036 682.687 624.186 682.553 624.275C682.473 624.328 682.381 624.356 682.287 624.356ZM510.808 551.219L681.807 623.153V500.648L510.808 551.219Z" fill="#1A1A1A"/>
<path d="M582.641 686.031H798.449V666.927H582.641V686.031Z" fill="#1C0311"/>
<path d="M798.449 686.271H582.642C582.509 686.271 582.402 686.163 582.402 686.031V666.928C582.402 666.795 582.509 666.687 582.642 666.687H798.449C798.582 666.687 798.69 666.795 798.69 666.928V686.031C798.69 686.163 798.582 686.271 798.449 686.271ZM582.882 685.79H798.209V667.168H582.882V685.79Z" fill="#1A1A1A"/>
<path d="M572.5 565.245C577.666 572.777 580.932 581.422 582.615 590.994L682.288 636.215L800.08 579.882C801.447 573.414 803.34 567.422 805.802 561.943L572.5 565.245Z" fill="#1C0311"/>
<path d="M682.285 636.456C682.251 636.456 682.218 636.448 682.185 636.433L582.514 591.212C582.442 591.18 582.39 591.113 582.376 591.035C580.656 581.253 577.266 572.621 572.3 565.381C572.249 565.307 572.244 565.213 572.284 565.134C572.325 565.056 572.407 565.007 572.495 565.006L805.797 561.702H805.8C805.881 561.702 805.956 561.743 806.001 561.811C806.046 561.879 806.053 561.967 806.019 562.042C803.606 567.41 801.687 573.428 800.313 579.931C800.298 580.004 800.25 580.067 800.182 580.099L682.389 636.431C682.355 636.447 682.32 636.456 682.285 636.456ZM582.828 590.827L682.282 635.951L799.868 579.717C801.219 573.363 803.088 567.468 805.428 562.188L572.948 565.478C577.795 572.669 581.119 581.194 582.828 590.827Z" fill="#1A1A1A"/>
<path d="M805.802 671.926C797.407 635.417 794.957 604.245 800.079 579.882L682.287 636.215L582.615 590.994C586.612 613.657 581.761 641.502 572.5 671.926H805.802Z" fill="white"/>
<path d="M805.798 672.406H572.496C572.344 672.406 572.2 672.334 572.11 672.212C572.019 672.09 571.992 671.931 572.036 671.786C582.404 637.725 585.709 611.326 582.138 591.077C582.107 590.902 582.175 590.723 582.316 590.614C582.457 590.504 582.647 590.483 582.809 590.556L682.277 635.685L799.868 579.448C800.033 579.369 800.229 579.39 800.373 579.504C800.517 579.616 800.583 579.801 800.546 579.98C795.665 603.19 797.59 634.089 806.267 671.818C806.299 671.961 806.266 672.11 806.175 672.224C806.084 672.34 805.944 672.406 805.798 672.406ZM573.143 671.445H805.195C796.72 634.356 794.775 603.845 799.412 580.732L682.49 636.648C682.361 636.709 682.213 636.711 682.085 636.652L583.236 591.804C586.563 611.961 583.258 638.031 573.143 671.445Z" fill="#1A1A1A"/>
<path d="M855.195 551.14L682.289 623.875V500.005L855.195 551.14Z" fill="white"/>
<path d="M682.29 624.356C682.197 624.356 682.104 624.328 682.024 624.274C681.89 624.186 681.809 624.036 681.809 623.875V500.005C681.809 499.854 681.88 499.711 682.002 499.62C682.124 499.529 682.282 499.502 682.425 499.544L855.332 550.679C855.526 550.737 855.664 550.911 855.674 551.113C855.686 551.316 855.569 551.504 855.381 551.583L682.476 624.317C682.416 624.343 682.353 624.356 682.29 624.356ZM682.77 500.648V623.152L853.769 551.219L682.77 500.648Z" fill="#1A1A1A"/>
<path d="M509.383 551.14L682.289 623.875V500.005L509.383 551.14Z" fill="white"/>
<path d="M682.441 543.72C682.441 543.72 564.095 565.846 558.827 572.782C555.811 576.683 552.006 590.37 551.19 611.344C549.376 635.969 550.395 665.204 550.395 665.204L541.582 665.582C541.582 665.582 542.152 636.982 543.595 611.679C544.591 589.057 549.611 575.411 552.462 569.942C557.332 560.633 682.196 537.997 682.196 537.997C682.196 537.997 688.666 542.451 682.441 543.72Z" fill="#1C0311"/>
<path d="M682.441 543.72C682.441 543.72 564.095 565.846 558.827 572.782C555.811 576.683 552.006 590.37 551.19 611.344C549.376 635.969 550.395 665.204 550.395 665.204L541.582 665.582C541.582 665.582 542.152 636.982 543.595 611.679C544.591 589.057 549.611 575.411 552.462 569.942C557.332 560.633 682.196 537.997 682.196 537.997C682.196 537.997 688.666 542.451 682.441 543.72Z" stroke="black" stroke-width="2"/>
<path d="M548.03 657.381C548.03 657.381 553.497 667.837 553.815 682.235L537.071 682.936C537.071 682.936 539.651 663.429 543.183 657.563C546.713 651.696 548.03 657.381 548.03 657.381Z" fill="#1C0311"/>
<path d="M548.03 657.381C548.03 657.381 553.497 667.837 553.815 682.235L537.071 682.936C537.071 682.936 539.651 663.429 543.183 657.563C546.713 651.696 548.03 657.381 548.03 657.381Z" stroke="black" stroke-width="2"/>
</g>
<mask id="mask1_1377_8" style="mask-type:luminance" maskUnits="userSpaceOnUse" x="0" y="0" width="1200" height="1200">
<path d="M0 0H1200V1200H0V0Z" fill="white"/>
</mask>
<g mask="url(#mask1_1377_8)">
<path d="M967.453 1001.32L960.117 1017.4C960.117 1017.4 841.203 998.951 809.966 1036.91L806.061 1022.13C806.061 1022.13 803.222 1003.56 828.425 992.92C853.627 982.275 967.453 1001.32 967.453 1001.32Z" fill="#1C0311"/>
<path d="M967.453 1001.32L960.117 1017.4C960.117 1017.4 841.203 998.951 809.966 1036.91L806.061 1022.13C806.061 1022.13 803.222 1003.56 828.425 992.92C853.627 982.275 967.453 1001.32 967.453 1001.32Z" stroke="black" stroke-miterlimit="10"/>
<path d="M638.988 1017.4L644.194 1031.59C644.194 1031.59 751.868 993.511 809.964 1036.92L803.486 1011.66C803.486 1011.66 744.532 964.89 638.988 1017.4Z" fill="#1C0311"/>
<path d="M638.988 1017.4L644.194 1031.59C644.194 1031.59 751.868 993.511 809.964 1036.92L803.486 1011.66C803.486 1011.66 744.532 964.89 638.988 1017.4Z" stroke="black" stroke-miterlimit="10"/>
<path d="M921.544 829.592C921.544 829.592 788.55 796.95 765.832 852.3C801.802 1015.51 806.061 1022.13 806.061 1022.13C806.061 1022.13 817.421 1005.57 859.07 997.059C900.72 988.543 967.453 1001.32 967.453 1001.32L921.544 829.592Z" fill="white"/>
<path d="M921.544 829.592C921.544 829.592 788.55 796.95 765.832 852.3C801.802 1015.51 806.061 1022.13 806.061 1022.13C806.061 1022.13 817.421 1005.57 859.07 997.059C900.72 988.543 967.453 1001.32 967.453 1001.32L921.544 829.592Z" stroke="black" stroke-miterlimit="10"/>
<path d="M599.707 847.096C599.707 847.096 741.694 814.455 765.832 852.301C782.283 925.868 806.061 1022.13 806.061 1022.13C806.061 1022.13 788.549 998.004 746.426 999.897C704.304 1001.79 638.99 1017.4 638.99 1017.4L599.707 847.096Z" fill="white"/>
<path d="M599.707 847.096C599.707 847.096 741.694 814.455 765.832 852.301C782.283 925.868 806.061 1022.13 806.061 1022.13C806.061 1022.13 788.549 998.004 746.426 999.897C704.304 1001.79 638.99 1017.4 638.99 1017.4L599.707 847.096Z" stroke="black" stroke-miterlimit="10"/>
<path d="M788.492 994.286C788.481 994.286 788.471 994.286 788.46 994.285C788.195 994.268 787.995 994.04 788.013 993.775C788.017 993.689 788.665 985.19 796.623 984.635C804.557 984.084 806.512 992.287 806.531 992.37C806.589 992.629 806.427 992.886 806.168 992.943C805.912 993.001 805.653 992.84 805.594 992.582C805.524 992.275 803.817 985.085 796.689 985.594C789.575 986.09 788.992 993.522 788.971 993.839C788.953 994.093 788.742 994.286 788.492 994.286Z" fill="#1A1A1A"/>
<path d="M784.308 972.907C784.297 972.907 784.287 972.907 784.276 972.906C784.011 972.888 783.811 972.66 783.829 972.395C783.833 972.309 784.48 963.81 792.438 963.255C800.391 962.715 802.329 970.907 802.346 970.99C802.405 971.249 802.243 971.505 801.984 971.563C801.724 971.62 801.468 971.46 801.41 971.201C801.339 970.895 799.632 963.699 792.505 964.214C785.39 964.71 784.808 972.142 784.787 972.459C784.769 972.713 784.558 972.907 784.308 972.907Z" fill="#1A1A1A"/>
<path d="M780.129 951.526C780.118 951.526 780.107 951.527 780.096 951.526C779.831 951.509 779.632 951.281 779.65 951.016C779.655 950.93 780.302 942.43 788.26 941.876C796.204 941.328 798.149 949.528 798.167 949.611C798.226 949.87 798.064 950.126 797.805 950.184C797.548 950.243 797.289 950.081 797.231 949.822C797.161 949.516 795.449 942.332 788.325 942.833C781.211 943.329 780.628 950.763 780.607 951.08C780.59 951.333 780.379 951.526 780.129 951.526Z" fill="#1A1A1A"/>
<path d="M774.437 930.28C774.426 930.28 774.416 930.28 774.405 930.279C774.14 930.261 773.94 930.034 773.958 929.769C773.963 929.683 774.61 921.185 782.567 920.63C790.516 920.08 792.458 928.282 792.476 928.365C792.534 928.624 792.372 928.88 792.114 928.938C791.856 928.995 791.597 928.835 791.54 928.576C791.47 928.27 789.752 921.087 782.634 921.589C775.52 922.085 774.937 929.517 774.916 929.834C774.899 930.087 774.688 930.28 774.437 930.28Z" fill="#1A1A1A"/>
<path d="M768.703 908.834C768.692 908.834 768.682 908.834 768.671 908.833C768.406 908.815 768.206 908.587 768.224 908.322C768.228 908.236 768.876 899.737 776.833 899.182C784.766 898.637 786.724 906.835 786.742 906.917C786.8 907.176 786.638 907.433 786.38 907.49C786.123 907.549 785.864 907.387 785.806 907.129C785.735 906.822 784.027 899.636 776.9 900.141C769.786 900.637 769.203 908.069 769.182 908.386C769.164 908.64 768.953 908.834 768.703 908.834Z" fill="#1A1A1A"/>
<path d="M764.453 887.42C764.442 887.42 764.432 887.42 764.421 887.419C764.156 887.402 763.956 887.174 763.974 886.909C763.978 886.823 764.625 878.323 772.584 877.769C780.518 877.223 782.474 885.42 782.492 885.503C782.55 885.762 782.388 886.019 782.129 886.076C781.87 886.133 781.613 885.973 781.555 885.714C781.486 885.408 779.767 878.227 772.65 878.727C765.535 879.223 764.953 886.655 764.932 886.972C764.914 887.225 764.703 887.42 764.453 887.42Z" fill="#1A1A1A"/>
<path d="M759.316 866.006C759.305 866.006 759.295 866.007 759.284 866.006C759.019 865.988 758.819 865.759 758.837 865.494C758.841 865.409 759.488 856.909 767.446 856.355C775.403 855.813 777.337 864.008 777.354 864.09C777.413 864.349 777.251 864.605 776.992 864.663C776.735 864.72 776.476 864.559 776.418 864.301C776.348 863.994 774.637 856.805 767.512 857.314C760.398 857.81 759.816 865.241 759.795 865.558C759.777 865.812 759.566 866.006 759.316 866.006Z" fill="#1A1A1A"/>
<path d="M906.74 845.741L916.884 886.461C896.982 881.829 878.991 880.66 864.843 886.461L854.699 841.773C871.57 838.154 888.895 839.25 906.74 845.741Z" fill="#FF6F0F"/>
<path d="M906.74 845.741L916.884 886.461C896.982 881.829 878.991 880.66 864.843 886.461L854.699 841.773C871.57 838.154 888.895 839.25 906.74 845.741Z" stroke="black" stroke-miterlimit="10"/>
<path d="M724.765 861.035C691.806 855.854 665.864 857.751 648.309 860.874" stroke="black" stroke-miterlimit="10"/>
<path d="M791.934 858.022C791.934 858.022 801.895 846.953 822.317 844.235" stroke="black" stroke-miterlimit="10"/>
<path d="M797.176 878.092C797.176 878.092 799.196 875.437 804.144 872.373" stroke="black" stroke-miterlimit="10"/>
<path d="M736.383 892.425C729.299 891.311 722.539 890.525 716.117 890.007" stroke="black" stroke-miterlimit="10"/>
<path d="M411.492 692.485C411.492 692.485 348.979 713.9 317.683 706.863C286.386 699.828 272.947 683.971 272.947 683.971L278.277 659.612C278.277 659.612 311.111 686.244 343.585 685.982C376.06 685.72 400.52 678.897 400.52 678.897C400.52 678.897 409.703 682.016 411.492 692.485Z" fill="#FF6F0F"/>
<path d="M411.492 692.485C411.492 692.485 348.979 713.9 317.683 706.863C286.386 699.828 272.947 683.971 272.947 683.971L278.277 659.612C278.277 659.612 311.111 686.244 343.585 685.982C376.06 685.72 400.52 678.897 400.52 678.897C400.52 678.897 409.703 682.016 411.492 692.485Z" stroke="black" stroke-miterlimit="10"/>
<path d="M225.221 1032.76C224.434 1035.34 223.603 1036.96 223.603 1036.96L175.708 1009.6L177.743 1005.44L225.221 1032.76Z" fill="#1C0311"/>
<path d="M225.221 1032.76C224.434 1035.34 223.603 1036.96 223.603 1036.96L175.708 1009.6L177.743 1005.44L225.221 1032.76Z" stroke="black" stroke-miterlimit="10"/>
<path d="M186.961 986.619L191.091 978.184L205.278 985.913L202.972 992.044C197.218 991.614 191.712 989.866 186.961 986.619Z" fill="#1C0311"/>
<path d="M186.961 986.619L191.091 978.184L205.278 985.913L202.972 992.044C197.218 991.614 191.712 989.866 186.961 986.619Z" stroke="black" stroke-miterlimit="10"/>
<path d="M186.959 986.619C191.71 989.866 197.216 991.614 202.969 992.044L201.232 993.856C201.232 993.856 201.599 994.692 217.52 1006.22C228.817 1014.4 227.142 1026.45 225.216 1032.76L177.74 1005.44L186.959 986.619Z" fill="white"/>
<path d="M186.959 986.619C191.71 989.866 197.216 991.614 202.969 992.044L201.232 993.856C201.232 993.856 201.599 994.692 217.52 1006.22C228.817 1014.4 227.142 1026.45 225.216 1032.76L177.74 1005.44L186.959 986.619Z" stroke="black" stroke-miterlimit="10"/>
<path d="M211.448 1007.78C211.387 1007.77 211.333 1007.76 211.287 1007.74C210.47 1007.41 210.832 1006.12 211.488 1003.78C211.966 1002.07 212.858 998.888 212.144 998.474C211.739 998.241 210.009 1000.16 209.081 1001.19C206.827 1003.69 204.023 1006.81 201.808 1005.16C201.228 1004.73 200.928 1004.14 200.942 1003.45C201.002 1000.46 207.139 996.169 207.839 995.69C208.059 995.539 208.357 995.596 208.507 995.815C208.657 996.033 208.6 996.332 208.382 996.482C206.594 997.707 201.944 1001.35 201.903 1003.47C201.894 1003.85 202.048 1004.14 202.383 1004.39C203.898 1005.52 206.374 1002.76 208.367 1000.55C210.211 998.497 211.539 997.015 212.626 997.644C213.982 998.43 213.184 1001.28 212.413 1004.04C212.135 1005.03 211.766 1006.35 211.77 1006.84C212.718 1006.67 216.637 1004.43 219.918 1002.32C220.14 1002.18 220.437 1002.24 220.58 1002.47C220.725 1002.69 220.661 1002.98 220.437 1003.13C216.985 1005.35 212.71 1007.91 211.448 1007.78Z" fill="#1A1A1A"/>
<path d="M266.08 822.237C259.285 865.136 207.802 990.623 207.802 990.623L184.619 978.375C184.619 978.375 212.387 864.472 213.66 818.444C214.934 772.416 231.841 741.642 231.841 741.642L287.73 752.749L266.08 822.237Z" fill="white"/>
<path d="M266.08 822.237C259.285 865.136 207.802 990.623 207.802 990.623L184.619 978.375C184.619 978.375 212.387 864.472 213.66 818.444C214.934 772.416 231.841 741.642 231.841 741.642L287.73 752.749L266.08 822.237Z" stroke="black" stroke-miterlimit="10"/>
<path d="M327.918 1019.95C327.769 1019.95 327.615 1019.91 327.457 1019.84C326.247 1019.31 326.37 1017.28 326.513 1014.93C326.626 1013.07 326.766 1010.76 325.946 1010.47C325.206 1010.2 323.266 1013 321.991 1014.86C319.996 1017.76 318.274 1020.27 316.732 1019.84C316.364 1019.73 316.09 1019.48 315.94 1019.11C315.052 1016.91 319.062 1009.8 319.875 1008.39C320.007 1008.16 320.302 1008.08 320.531 1008.22C320.761 1008.35 320.839 1008.65 320.706 1008.87C318.915 1011.97 316.279 1017.38 316.831 1018.75C316.876 1018.86 316.927 1018.89 316.996 1018.91C317.887 1019.18 319.795 1016.36 321.199 1014.31C323.142 1011.48 324.821 1009.04 326.272 1009.56C327.768 1010.1 327.624 1012.48 327.471 1014.99C327.376 1016.56 327.246 1018.7 327.842 1018.97C328.356 1019.19 329.453 1016.82 330.041 1015.55C330.889 1013.71 331.622 1012.12 332.539 1011.84C332.824 1011.75 333.113 1011.79 333.374 1011.94C335.232 1013.06 335.176 1018.41 335.147 1019.47C335.14 1019.74 334.916 1019.95 334.653 1019.94C334.388 1019.93 334.18 1019.71 334.187 1019.45C334.25 1017.2 333.95 1013.41 332.879 1012.77C332.848 1012.75 332.842 1012.75 332.822 1012.76C332.314 1012.91 331.504 1014.67 330.912 1015.95C329.968 1018 329.07 1019.95 327.918 1019.95Z" fill="#1A1A1A"/>
<path d="M294.066 1010.01L293.703 1001.73H309.859L310.83 1008.63C305.399 1009.2 299.553 1010.06 294.066 1010.01Z" fill="#1C0311"/>
<path d="M294.066 1010.01L293.703 1001.73H309.859L310.83 1008.63C305.399 1009.2 299.553 1010.06 294.066 1010.01Z" stroke="black" stroke-miterlimit="10"/>
<path d="M310.83 1008.63L311.113 1010.64C311.113 1010.64 310.834 1011.2 330.333 1013.7C344.375 1015.51 348.593 1027.2 349.854 1033.61L294.997 1031.24L294.066 1010.01C299.553 1010.06 305.399 1009.2 310.83 1008.63Z" fill="white"/>
<path d="M310.83 1008.63L311.113 1010.64C311.113 1010.64 310.834 1011.2 330.333 1013.7C344.375 1015.51 348.593 1027.2 349.854 1033.61L294.997 1031.24L294.066 1010.01C299.553 1010.06 305.399 1009.2 310.83 1008.63Z" stroke="black" stroke-miterlimit="10"/>
<path d="M350.47 1033.61C350.96 1036.1 351.005 1037.79 351.005 1037.79L295.851 1036.67L295.613 1031.24L350.47 1033.61Z" fill="#1C0311"/>
<path d="M350.47 1033.61C350.96 1036.1 351.005 1037.79 351.005 1037.79L295.851 1036.67L295.613 1031.24L350.47 1033.61Z" stroke="black" stroke-miterlimit="10"/>
<path d="M244.52 774.475C244.52 774.475 240.748 802.021 267.377 848.181C291.502 890 289.805 1004.8 289.805 1004.8H315.433C315.433 1004.8 323.782 956.839 324.655 904.794C325.462 856.635 319.951 804.81 309.611 756.016" fill="white"/>
<path d="M244.52 774.475C244.52 774.475 240.748 802.021 267.377 848.181C291.502 890 289.805 1004.8 289.805 1004.8H315.433C315.433 1004.8 323.782 956.839 324.655 904.794C325.462 856.635 319.951 804.81 309.611 756.016" stroke="black" stroke-miterlimit="10"/>
<path d="M285.504 793.983C285.3 793.983 285.112 793.854 285.046 793.65C284.965 793.398 285.105 793.127 285.358 793.046C289.303 791.783 300.29 777.917 300.4 777.777C300.565 777.569 300.866 777.535 301.075 777.699C301.282 777.863 301.318 778.165 301.154 778.374C300.695 778.954 289.873 792.61 285.65 793.961C285.601 793.976 285.552 793.983 285.504 793.983Z" fill="#1A1A1A"/>
<path d="M433.311 641.183L449.068 614.957L450.49 640.365L465.319 632.562C465.319 632.562 444.16 663.041 441.681 664.013C439.202 664.985 433.311 641.183 433.311 641.183Z" fill="#1C0311"/>
<path d="M441.512 664.282C441.41 664.28 441.292 664.255 441.162 664.188C438.436 662.778 433.296 642.12 433.078 641.241C433.063 641.181 433.072 641.116 433.106 641.062L448.864 614.835C448.917 614.743 449.024 614.701 449.126 614.726C449.229 614.75 449.303 614.84 449.308 614.945L450.709 639.979L465.207 632.35C465.305 632.297 465.426 632.319 465.499 632.402C465.572 632.486 465.579 632.608 465.516 632.699C464.65 633.946 444.286 663.25 441.769 664.239C441.702 664.264 441.616 664.285 441.512 664.282ZM433.568 641.222C435.057 647.221 439.29 662.679 441.382 663.761C441.494 663.819 441.556 663.805 441.594 663.791C443.511 663.038 458.309 642.208 464.56 633.231L450.601 640.578C450.529 640.617 450.442 640.616 450.372 640.574C450.3 640.533 450.255 640.46 450.25 640.379L448.872 615.751L433.568 641.222Z" fill="#1A1A1A"/>
<path d="M517.001 787.451C460.347 702.759 411.136 609.021 369.07 506.605C338.938 502.888 316.923 512.436 305.851 539.872C372.355 627.67 421.121 721.471 453.782 820.718C483.196 825.455 503.483 812.875 517.001 787.451Z" fill="white"/>
<path d="M463.826 822.151C460.552 822.071 457.177 821.752 453.706 821.192C453.529 821.164 453.382 821.038 453.325 820.868C420.311 720.546 370.564 626.103 305.468 540.162C305.366 540.027 305.343 539.849 305.405 539.693C310.834 526.242 319.141 516.631 330.098 511.127C340.504 505.899 353.636 504.217 369.129 506.13C369.301 506.151 369.448 506.261 369.514 506.423C411.661 609.035 461.418 703.497 517.4 787.185C517.498 787.331 517.508 787.521 517.425 787.675C510.473 800.751 501.779 810.219 491.583 815.815C483.443 820.285 474.138 822.405 463.826 822.151ZM454.146 820.29C481.904 824.664 502.284 813.928 516.442 787.478C460.539 703.871 410.84 609.517 368.733 507.047C337.323 503.25 316.927 513.967 306.398 539.8C339.184 583.108 368.296 628.854 392.932 675.778C417.171 721.945 437.765 770.56 454.146 820.29Z" fill="#1A1A1A"/>
<path d="M377.758 657.464C377.758 657.464 429.464 645.866 433.462 635.791C451.487 673.799 450.282 672.771 450.282 672.771C450.282 672.771 408.111 706.256 399.728 695.389C388.332 672.492 377.758 657.464 377.758 657.464Z" fill="white"/>
<path d="M404.707 698.035C404.359 698.027 404.024 698.004 403.698 697.964C401.801 697.733 400.336 696.965 399.347 695.683C399.329 695.659 399.312 695.632 399.298 695.604C388.051 673.006 377.471 657.891 377.365 657.742C377.273 657.61 377.252 657.442 377.31 657.291C377.368 657.143 377.496 657.032 377.652 656.996C378.167 656.881 429.156 645.34 433.014 635.614C433.085 635.437 433.255 635.318 433.445 635.311C433.637 635.304 433.812 635.414 433.894 635.586C440.946 650.454 445.903 661.133 448.627 667.326C451.037 672.808 450.941 672.882 450.585 673.155C450.565 673.171 450.543 673.184 450.519 673.196C448.516 674.783 418.468 698.374 404.707 698.035ZM400.136 695.132C400.963 696.182 402.199 696.814 403.813 697.01C416.264 698.537 446.852 674.849 449.762 672.571C449.42 671.498 447.207 665.914 433.438 636.865C427.334 646.286 384.792 656.346 378.555 657.777C380.604 660.773 390.105 674.985 400.136 695.132Z" fill="#1A1A1A"/>
<path d="M315.671 541.695C314.212 541.659 313.201 541.373 312.775 540.792C308.986 535.616 321.408 526.046 321.938 525.641C322.149 525.479 322.451 525.521 322.611 525.732C322.772 525.943 322.732 526.244 322.521 526.405C319.115 529.005 310.865 536.556 313.551 540.225C313.811 540.58 314.486 540.761 315.494 540.786C322.614 540.96 346.447 533.385 359.493 524.696C363.734 521.872 368.384 517.837 366.461 514.653C360.237 504.347 333.635 514.865 333.366 514.974C333.121 515.072 332.84 514.953 332.741 514.706C332.643 514.46 332.763 514.181 333.009 514.082C334.134 513.631 360.642 503.158 367.283 514.156C369.142 517.234 366.7 521.049 360.024 525.495C347.806 533.633 324.154 541.904 315.671 541.695Z" fill="#1A1A1A"/>
<path d="M275.656 642.287L270.627 624.013C270.627 624.013 288.023 619.699 286.572 609.619C284.092 592.391 264.39 578.854 264.39 578.854C264.39 578.854 244.723 586.99 243.76 597.906C242.799 608.821 248.427 617.953 249.999 622.939C251.993 629.266 253.043 648.983 253.043 648.983L275.656 642.287Z" fill="white"/>
<path d="M275.656 642.287L270.627 624.013C270.627 624.013 288.023 619.699 286.572 609.619C284.092 592.391 264.39 578.854 264.39 578.854C264.39 578.854 244.723 586.99 243.76 597.906C242.799 608.821 248.427 617.953 249.999 622.939C251.993 629.266 253.043 648.983 253.043 648.983L275.656 642.287Z" stroke="black" stroke-miterlimit="10"/>
<path d="M275.313 577.196C275.313 577.196 258.985 591.592 262.189 599.712C265.394 607.832 267.958 609.704 267.958 609.704L262.334 611.893L258.778 603.673C258.778 603.673 252.824 612.985 256.862 616.532C260.902 620.077 250.074 640.151 238.529 628.299C227.733 628.798 217.28 617.943 227.388 610.149C218.443 606.934 221.297 593.998 235.938 592.868C229.587 580.88 238.583 576.208 247.536 581.83C245.43 566.576 256.527 567.144 260.458 572.998C265.238 566.217 279.665 568.691 275.313 577.196Z" fill="#1C0311"/>
<path d="M275.313 577.196C275.313 577.196 258.985 591.592 262.189 599.712C265.394 607.832 267.958 609.704 267.958 609.704L262.334 611.893L258.778 603.673C258.778 603.673 252.824 612.985 256.862 616.532C260.902 620.077 250.074 640.151 238.529 628.299C227.733 628.798 217.28 617.943 227.388 610.149C218.443 606.934 221.297 593.998 235.938 592.868C229.587 580.88 238.583 576.208 247.536 581.83C245.43 566.576 256.527 567.144 260.458 572.998C265.238 566.217 279.665 568.691 275.313 577.196Z" stroke="black" stroke-miterlimit="10"/>
<path d="M312.197 751.995L311.083 762.793C311.083 762.793 230.282 775.332 222.676 764.618L226.242 753.61L312.197 751.995Z" fill="#1C0311"/>
<path d="M312.197 751.995L311.083 762.793C311.083 762.793 230.282 775.332 222.676 764.618L226.242 753.61L312.197 751.995Z" stroke="black" stroke-miterlimit="10"/>
<path d="M276.271 629.005L271.521 625.739L251.119 637.818L244.516 652.701C244.516 652.701 276.611 635.471 276.271 629.005Z" fill="white"/>
<path d="M276.271 629.005L271.521 625.739L251.119 637.818L244.516 652.701C244.516 652.701 276.611 635.471 276.271 629.005Z" stroke="black" stroke-miterlimit="10"/>
<path d="M311.846 753.119C311.846 753.119 230.992 771.808 224.523 759.818C218.349 711.975 228.573 662.266 241.503 650.775C254.432 639.284 276.27 628.221 276.27 628.221C276.27 628.221 318.608 723.143 311.846 753.119Z" fill="#FF6F0F"/>
<path d="M311.846 753.119C311.846 753.119 230.992 771.808 224.523 759.818C218.349 711.975 228.573 662.266 241.503 650.775C254.432 639.284 276.27 628.221 276.27 628.221C276.27 628.221 318.608 723.143 311.846 753.119Z" stroke="black" stroke-miterlimit="10"/>
<path d="M374.357 590.196C374.357 590.196 390.086 577.665 393.933 578.115C397.78 578.564 402.096 600.932 397.638 601.819C393.18 602.707 388.196 600.114 385 599.234C381.804 598.356 376.953 600.063 376.953 600.063C376.953 600.063 373.215 594.125 374.357 590.196Z" fill="white"/>
<path d="M374.357 590.196C374.357 590.196 390.086 577.665 393.933 578.115C397.78 578.564 402.096 600.932 397.638 601.819C393.18 602.707 388.196 600.114 385 599.234C381.804 598.356 376.953 600.063 376.953 600.063C376.953 600.063 373.215 594.125 374.357 590.196Z" stroke="black" stroke-miterlimit="10"/>
<path d="M273.701 666.345C288.264 668.874 359.193 617.016 380.323 600.64C380.323 600.64 379.811 585.095 374.63 588.452C351.344 603.539 316.593 607.077 275.131 629.031" fill="#FF6F0F"/>
<path d="M273.701 666.345C288.264 668.874 359.193 617.016 380.323 600.64C380.323 600.64 379.811 585.095 374.63 588.452C351.344 603.539 316.593 607.077 275.131 629.031" stroke="black" stroke-miterlimit="10"/>
</g>
</svg>
