<svg width="1000" height="622" viewBox="0 0 1000 622" fill="none" xmlns="http://www.w3.org/2000/svg">
<mask id="mask0_1378_1458" style="mask-type:luminance" maskUnits="userSpaceOnUse" x="0" y="0" width="1000" height="622">
<path d="M1000 0H0V622H1000V0Z" fill="white"/>
</mask>
<g mask="url(#mask0_1378_1458)">
<mask id="mask1_1378_1458" style="mask-type:luminance" maskUnits="userSpaceOnUse" x="0" y="-164" width="1000" height="1000">
<path d="M0 -164H1000V836H0V-164Z" fill="white"/>
</mask>
<g mask="url(#mask1_1378_1458)">
<mask id="mask2_1378_1458" style="mask-type:luminance" maskUnits="userSpaceOnUse" x="310" y="100" width="548" height="312">
<path d="M858 100H310V412H858V100Z" fill="white"/>
</mask>
<g mask="url(#mask2_1378_1458)">
<path d="M527.129 143.806L519.839 142.015L525.034 136.595L527.129 143.806Z" stroke="#015E95" stroke-width="1.091" stroke-linecap="round" stroke-linejoin="round"/>
<path d="M761.219 239.102L768.704 238.551L764.486 232.341L761.219 239.102Z" stroke="#015E95" stroke-width="1.091" stroke-linecap="round" stroke-linejoin="round"/>
<path d="M381.832 282.398L377.841 277.674" stroke="#015E95" stroke-width="1.091" stroke-linecap="round" stroke-linejoin="round"/>
<path d="M377.473 282.033L382.198 278.04" stroke="#015E95" stroke-width="1.091" stroke-linecap="round" stroke-linejoin="round"/>
<path d="M745.879 331.263L741.888 326.539" stroke="#015E95" stroke-width="1.091" stroke-linecap="round" stroke-linejoin="round"/>
<path d="M741.524 330.898L746.248 326.904" stroke="#015E95" stroke-width="1.091" stroke-linecap="round" stroke-linejoin="round"/>
<path d="M489.649 259.712C489.649 262.705 487.225 265.132 484.229 265.132C481.239 265.132 478.809 262.705 478.809 259.712C478.809 256.719 481.239 254.292 484.229 254.292C487.225 254.292 489.649 256.719 489.649 259.712Z" stroke="#015E95" stroke-width="1.88438" stroke-linecap="round" stroke-linejoin="round"/>
<path d="M688.516 301.085C688.516 304.078 686.089 306.505 683.096 306.505C680.103 306.505 677.676 304.078 677.676 301.085C677.676 298.092 680.103 295.665 683.096 295.665C686.089 295.665 688.516 298.092 688.516 301.085Z" stroke="#015E95" stroke-width="1.88438" stroke-linecap="round" stroke-linejoin="round"/>
<path d="M616.539 169.789L615.379 169.043C612.625 167.267 612.621 165.969 612.617 165.481C612.613 164.306 613.563 163.353 614.738 163.353C615.478 163.353 616.13 163.731 616.514 164.306C616.893 163.731 617.545 163.353 618.283 163.353C619.46 163.353 620.415 164.306 620.421 165.481C620.423 165.969 620.427 167.267 617.69 169.043L616.539 169.789Z" stroke="#015E95" stroke-width="1.091" stroke-linecap="round" stroke-linejoin="round"/>
<path d="M682.59 253.832C685.05 253.832 685.05 255.674 687.508 255.674C689.97 255.674 689.971 253.832 692.433 253.832C694.895 253.832 694.895 255.674 697.359 255.674C699.821 255.674 699.822 253.832 702.284 253.832C704.752 253.832 704.752 255.674 707.221 255.674C709.685 255.674 709.685 253.832 712.154 253.832" stroke="#015E95" stroke-width="1.091" stroke-linecap="round" stroke-linejoin="round"/>
<path d="M437.84 194.006C439.872 193.8 440.02 192.185 442.327 192.185C444.794 192.185 444.793 194.027 447.26 194.027C449.729 194.027 449.729 192.185 452.195 192.185M422.629 192.185C425.089 192.185 425.089 194.027 427.549 194.027C430.011 194.027 430.012 192.185 432.474 192.185C433.149 192.185 433.639 192.323 434.045 192.524" stroke="#015E95" stroke-width="1.091" stroke-linecap="round" stroke-linejoin="round"/>
</g>
</g>
<path d="M983.518 554.082H16.4805" stroke="#015E95" stroke-width="2.183" stroke-miterlimit="10" stroke-linecap="round"/>
<path d="M704.643 508.365C695.2 501.875 700.897 491.146 696.516 484.047C692.135 476.951 694.94 469.659 699.411 464.973C703.881 460.285 704.979 456.443 701.811 449.814C698.646 443.183 702.201 435.076 705.167 431.364C708.132 427.652 715.278 422.539 718.153 406.819C721.032 391.098 742.253 383.883 742.253 383.883C742.253 383.883 755.929 401.642 749.621 416.326C743.314 431.005 746.428 439.22 746.845 443.955C747.259 448.689 745.729 457.41 739.423 461.177C733.115 464.943 731.901 468.753 733.029 475.13C734.156 481.509 732.459 489.133 724.878 492.616C717.3 496.1 716.106 508.192 704.643 508.365Z" fill="white"/>
<path d="M704.643 508.365C695.2 501.875 700.897 491.146 696.516 484.047C692.135 476.951 694.94 469.659 699.411 464.973C703.881 460.285 704.979 456.443 701.811 449.814C698.646 443.183 702.201 435.076 705.167 431.364C708.132 427.652 715.278 422.539 718.153 406.819C721.032 391.098 742.253 383.883 742.253 383.883C742.253 383.883 755.929 401.642 749.621 416.326C743.314 431.005 746.428 439.22 746.845 443.955C747.259 448.689 745.729 457.41 739.423 461.177C733.115 464.943 731.901 468.753 733.029 475.13C734.156 481.509 732.459 489.133 724.878 492.616C717.3 496.1 716.106 508.192 704.643 508.365Z" stroke="#015E95" stroke-width="2.183" stroke-miterlimit="10"/>
<path d="M704.645 508.365L742.254 383.883" stroke="#015E95" stroke-width="2.183" stroke-miterlimit="10" stroke-linecap="round"/>
<path d="M711.191 486.698L703.496 471.789" stroke="#015E95" stroke-width="2.183" stroke-miterlimit="10" stroke-linecap="round"/>
<path d="M712.569 482.44L728.164 476.264" stroke="#015E95" stroke-width="2.183" stroke-miterlimit="10" stroke-linecap="round"/>
<path d="M732.907 415.203L745.706 410.138" stroke="#015E95" stroke-width="2.183" stroke-miterlimit="10" stroke-linecap="round"/>
<path d="M722.079 450.845L742.71 442.68" stroke="#015E95" stroke-width="2.183" stroke-miterlimit="10" stroke-linecap="round"/>
<path d="M721.046 454.078L711.355 435.287" stroke="#015E95" stroke-width="2.183" stroke-miterlimit="10" stroke-linecap="round"/>
<path d="M731.242 420.334L725.301 408.832" stroke="#015E95" stroke-width="2.183" stroke-miterlimit="10" stroke-linecap="round"/>
<path d="M702.901 502.313C711.661 496.414 706.505 486.482 710.603 479.98C714.702 473.479 712.18 466.737 708.103 462.384C704.026 458.026 703.049 454.476 706.023 448.397C708.998 442.317 705.795 434.817 703.092 431.369C700.393 427.923 693.858 423.148 691.346 408.644C688.833 394.136 669.345 387.303 669.345 387.303C669.345 387.303 656.592 403.543 662.272 417.125C667.955 430.706 665.015 438.248 664.591 442.604C664.166 446.963 665.497 455.008 671.276 458.535C677.054 462.061 678.138 465.579 677.044 471.444C675.948 477.31 677.446 484.351 684.399 487.627C691.351 490.903 692.342 502.05 702.901 502.313Z" fill="white"/>
<path d="M702.901 502.313C711.661 496.414 706.505 486.482 710.603 479.98C714.702 473.479 712.18 466.737 708.103 462.384C704.026 458.026 703.049 454.476 706.023 448.397C708.998 442.317 705.795 434.817 703.092 431.369C700.393 427.923 693.858 423.148 691.346 408.644C688.833 394.136 669.345 387.303 669.345 387.303C669.345 387.303 656.592 403.543 662.272 417.125C667.955 430.706 665.015 438.248 664.591 442.604C664.166 446.963 665.497 455.008 671.276 458.535C677.054 462.061 678.138 465.579 677.044 471.444C675.948 477.31 677.446 484.351 684.399 487.627C691.351 490.903 692.342 502.05 702.901 502.313Z" stroke="#015E95" stroke-width="2.183" stroke-miterlimit="10"/>
<path d="M702.899 502.313L669.344 387.303" stroke="#015E95" stroke-width="2.183" stroke-miterlimit="10" stroke-linecap="round"/>
<path d="M697.059 482.293L704.278 468.627" stroke="#015E95" stroke-width="2.183" stroke-miterlimit="10" stroke-linecap="round"/>
<path d="M695.831 478.361L681.516 472.534" stroke="#015E95" stroke-width="2.183" stroke-miterlimit="10" stroke-linecap="round"/>
<path d="M677.682 416.24L665.938 411.461" stroke="#015E95" stroke-width="2.183" stroke-miterlimit="10" stroke-linecap="round"/>
<path d="M687.343 449.168L668.41 441.465" stroke="#015E95" stroke-width="2.183" stroke-miterlimit="10" stroke-linecap="round"/>
<path d="M688.27 452.156L697.359 434.93" stroke="#015E95" stroke-width="2.183" stroke-miterlimit="10" stroke-linecap="round"/>
<path d="M679.172 420.979L684.746 410.437" stroke="#015E95" stroke-width="2.183" stroke-miterlimit="10" stroke-linecap="round"/>
<path d="M693.101 504.202C696.26 499.116 691.285 495.179 691.896 490.863C692.505 486.547 689.637 483.648 686.516 482.344C683.395 481.037 682.064 479.427 682.192 475.593C682.318 471.758 678.919 468.624 676.722 467.467C674.524 466.311 670.035 465.361 665.366 458.443C660.694 451.523 649.03 452.518 649.03 452.518C649.03 452.518 646.208 463.878 652.299 469.581C658.392 475.286 658.626 479.87 659.419 482.222C660.212 484.573 662.767 488.424 666.575 488.906C670.382 489.388 671.763 490.958 672.557 494.245C673.352 497.531 675.764 500.825 680.119 500.905C684.476 500.983 687.577 506.518 693.101 504.202Z" fill="white"/>
<path d="M693.101 504.202C696.26 499.116 691.285 495.179 691.896 490.863C692.505 486.547 689.637 483.648 686.516 482.344C683.395 481.037 682.064 479.427 682.192 475.593C682.318 471.758 678.919 468.624 676.722 467.467C674.524 466.311 670.035 465.361 665.366 458.443C660.694 451.523 649.03 452.518 649.03 452.518C649.03 452.518 646.208 463.878 652.299 469.581C658.392 475.286 658.626 479.87 659.419 482.222C660.212 484.573 662.767 488.424 666.575 488.906C670.382 489.388 671.763 490.958 672.557 494.245C673.352 497.531 675.764 500.825 680.119 500.905C684.476 500.983 687.577 506.518 693.101 504.202Z" stroke="#015E95" stroke-width="2.183" stroke-miterlimit="10"/>
<path d="M693.102 504.202L649.031 452.518" stroke="#015E95" stroke-width="2.183" stroke-miterlimit="10" stroke-linecap="round"/>
<path d="M685.428 495.205L685.986 486.46" stroke="#015E95" stroke-width="2.183" stroke-miterlimit="10" stroke-linecap="round"/>
<path d="M683.877 493.458L675.122 493.768" stroke="#015E95" stroke-width="2.183" stroke-miterlimit="10" stroke-linecap="round"/>
<path d="M660.063 465.546L652.879 465.803" stroke="#015E95" stroke-width="2.183" stroke-miterlimit="10" stroke-linecap="round"/>
<path d="M672.709 480.331L661.13 480.744" stroke="#015E95" stroke-width="2.183" stroke-miterlimit="10" stroke-linecap="round"/>
<path d="M673.881 481.662L674.581 470.641" stroke="#015E95" stroke-width="2.183" stroke-miterlimit="10" stroke-linecap="round"/>
<path d="M661.933 467.65L662.366 460.903" stroke="#015E95" stroke-width="2.183" stroke-miterlimit="10" stroke-linecap="round"/>
<path d="M713.725 504.207C710.559 499.125 715.53 495.181 714.913 490.866C714.299 486.551 717.163 483.649 720.282 482.341C723.402 481.029 724.731 479.418 724.598 475.585C724.467 471.75 727.862 468.611 730.058 467.452C732.254 466.293 736.742 465.337 741.402 458.413C746.065 451.487 757.73 452.467 757.73 452.467C757.73 452.467 760.567 463.824 754.483 469.535C748.397 475.248 748.169 479.832 747.379 482.184C746.59 484.537 744.039 488.391 740.232 488.878C736.424 489.364 735.046 490.936 734.256 494.224C733.466 497.511 731.057 500.808 726.702 500.894C722.345 500.977 719.252 506.516 713.725 504.207Z" fill="white"/>
<path d="M713.725 504.207C710.559 499.125 715.53 495.181 714.913 490.866C714.299 486.551 717.163 483.649 720.282 482.341C723.402 481.029 724.731 479.418 724.598 475.585C724.467 471.75 727.862 468.611 730.058 467.452C732.254 466.293 736.742 465.337 741.402 458.413C746.065 451.487 757.73 452.467 757.73 452.467C757.73 452.467 760.567 463.824 754.483 469.535C748.397 475.248 748.169 479.832 747.379 482.184C746.59 484.537 744.039 488.391 740.232 488.878C736.424 489.364 735.046 490.936 734.256 494.224C733.466 497.511 731.057 500.808 726.702 500.894C722.345 500.977 719.252 506.516 713.725 504.207Z" stroke="#015E95" stroke-width="2.183" stroke-miterlimit="10"/>
<path d="M713.727 504.207L757.732 452.467" stroke="#015E95" stroke-width="2.183" stroke-miterlimit="10" stroke-linecap="round"/>
<path d="M721.385 495.201L720.816 486.456" stroke="#015E95" stroke-width="2.183" stroke-miterlimit="10" stroke-linecap="round"/>
<path d="M722.934 493.451L731.689 493.75" stroke="#015E95" stroke-width="2.183" stroke-miterlimit="10" stroke-linecap="round"/>
<path d="M746.711 465.509L753.895 465.758" stroke="#015E95" stroke-width="2.183" stroke-miterlimit="10" stroke-linecap="round"/>
<path d="M734.086 480.31L745.666 480.709" stroke="#015E95" stroke-width="2.183" stroke-miterlimit="10" stroke-linecap="round"/>
<path d="M732.917 481.643L732.203 470.623" stroke="#015E95" stroke-width="2.183" stroke-miterlimit="10" stroke-linecap="round"/>
<path d="M744.844 467.615L744.402 460.869" stroke="#015E95" stroke-width="2.183" stroke-miterlimit="10" stroke-linecap="round"/>
<path d="M729.334 541.311H677.488L669.121 495.833H737.701L729.334 541.311Z" fill="white"/>
<path d="M729.334 541.311H677.488L669.121 495.833H737.701L729.334 541.311Z" stroke="#015E95" stroke-width="2.183" stroke-miterlimit="10"/>
<path d="M668.41 561.684H674.92V527.246H668.41V561.684Z" fill="white"/>
<path d="M668.41 561.684H674.92V527.246H668.41V561.684Z" stroke="#015E95" stroke-width="2.183" stroke-miterlimit="10"/>
<path d="M731.898 561.684H738.408V527.246H731.898V561.684Z" fill="white"/>
<path d="M731.898 561.684H738.408V527.246H731.898V561.684Z" stroke="#015E95" stroke-width="2.183" stroke-miterlimit="10"/>
<path d="M731.9 547.314H674.922V541.31H731.9V547.314Z" fill="white"/>
<path d="M731.9 547.314H674.922V541.31H731.9V547.314Z" stroke="#015E95" stroke-width="2.183" stroke-miterlimit="10"/>
<path d="M700.152 561.684H706.662V527.246H700.152V561.684Z" fill="white"/>
<path d="M700.152 561.684H706.662V527.246H700.152V561.684Z" stroke="#015E95" stroke-width="2.183" stroke-miterlimit="10"/>
<path d="M556.499 302.994C520.224 296.343 494.228 307.85 473.948 325.559C453.666 343.27 447.245 371.028 385.611 383.571C323.977 396.116 302.906 425.539 298.587 462.673C294.27 499.809 323.472 554.082 391.853 554.082C460.236 554.082 502.512 554.082 527.362 554.082C552.214 554.082 608.204 548.37 632.199 493.525C656.194 438.678 659.337 321.845 556.499 302.994Z" fill="#FFBC8F"/>
<path d="M556.499 302.994C520.224 296.343 494.228 307.85 473.948 325.559C453.666 343.27 447.245 371.028 385.611 383.571C323.977 396.116 302.906 425.539 298.587 462.673C294.27 499.809 323.472 554.082 391.853 554.082C460.236 554.082 502.512 554.082 527.362 554.082C552.214 554.082 608.204 548.37 632.199 493.525C656.194 438.678 659.337 321.845 556.499 302.994Z" stroke="#FFBC8F" stroke-width="2.183" stroke-miterlimit="10"/>
<path d="M584.26 331.396C577.886 321.093 574.21 317.42 559.501 313.992C544.787 310.564 490.515 328.701 477.291 336.7C464.07 344.699 444.525 372.122 421.387 386.428C398.249 400.736 341.402 410.878 332.342 474.482C325.639 521.56 351.975 543.794 379.096 553.413C383.189 553.846 387.436 554.082 391.853 554.082C416.983 554.082 438.573 554.082 457.086 554.082C464.091 533.429 484.164 498.575 526.889 461.913C585.922 411.257 590.636 341.699 584.26 331.396Z" fill="#FFBC8F"/>
<path d="M556.499 302.994C520.224 296.343 494.228 307.85 473.948 325.559C453.666 343.27 447.245 371.028 385.611 383.571C323.977 396.116 302.906 425.539 298.587 462.673C294.27 499.809 323.472 554.082 391.853 554.082C460.236 554.082 502.512 554.082 527.362 554.082C552.214 554.082 608.204 548.37 632.199 493.525C656.194 438.678 659.337 321.845 556.499 302.994Z" stroke="#FFBC8F" stroke-width="1.637" stroke-linecap="round" stroke-linejoin="round"/>
<path d="M296.087 482.733L268.68 517.795L271.617 530.442L284.711 536.755C284.711 536.755 286.293 531.48 289.951 526.836C293.606 522.192 313.576 497.936 313.576 497.936L296.087 482.733Z" fill="white"/>
<path d="M296.087 482.733L268.68 517.795L271.617 530.442L284.711 536.755C284.711 536.755 286.293 531.48 289.951 526.836C293.606 522.192 313.576 497.936 313.576 497.936L296.087 482.733Z" stroke="#005E95" stroke-width="1.637" stroke-linecap="round" stroke-linejoin="round"/>
<path d="M278.165 556.482L273.392 563.413L199.699 519.214L204.471 512.281L227.698 526.223L278.165 556.482Z" fill="white"/>
<path d="M278.165 556.482L273.392 563.413L199.699 519.214L204.471 512.281L227.698 526.223L278.165 556.482Z" stroke="#005E95" stroke-width="2.183" stroke-miterlimit="10"/>
<path d="M258.392 510.919C264.864 510.268 267.117 507.84 269.177 509.283C271.258 510.754 272.017 515.087 267.865 517.788C266.669 517.02 265.181 516.537 262.999 516.202C258.459 515.467 240.09 512.988 235.991 512.592C231.894 512.194 231.131 514.974 231.131 514.974C231.175 512.611 230.768 510.979 230.531 510.242C230.531 510.242 231.62 508.224 235.247 508.862C238.854 509.498 251.942 511.547 258.392 510.919Z" fill="#EFEFEF"/>
<path d="M235.994 512.592C240.092 512.988 258.461 515.469 263.001 516.202C265.183 516.536 266.67 517.02 267.867 517.788C269.176 518.604 270.123 519.775 271.153 521.567C273.15 525.02 276.167 528.662 280.048 530.862C283.924 533.062 286.026 532.594 286.217 536.005C286.384 539.417 284.011 549.294 278.166 556.483L227.699 526.223C230.309 521.699 231.06 517.828 231.133 514.974C231.133 514.974 231.896 512.194 235.994 512.592Z" fill="white"/>
<path d="M235.994 512.592C240.092 512.988 258.461 515.469 263.001 516.202C265.183 516.536 266.67 517.02 267.867 517.788C269.176 518.604 270.123 519.775 271.153 521.567C273.15 525.02 276.167 528.662 280.048 530.862C283.924 533.062 286.026 532.594 286.217 536.005C286.384 539.417 284.011 549.294 278.166 556.483L227.699 526.223C230.309 521.699 231.06 517.828 231.133 514.974C231.133 514.974 231.896 512.194 235.994 512.592Z" stroke="#005E95" stroke-width="2.183" stroke-miterlimit="10"/>
<path d="M230.531 510.242C230.767 510.979 231.176 512.611 231.131 514.974C231.058 517.828 230.307 521.699 227.698 526.223L204.469 512.282C204.469 512.282 210.59 502.175 230.379 509.819C230.379 509.819 230.443 509.973 230.531 510.242Z" fill="white"/>
<path d="M230.531 510.242C230.767 510.979 231.176 512.611 231.131 514.974C231.058 517.828 230.307 521.699 227.698 526.223L204.469 512.282C204.469 512.282 210.59 502.175 230.379 509.819C230.379 509.819 230.443 509.973 230.531 510.242Z" stroke="#005E95" stroke-width="2.183" stroke-miterlimit="10"/>
<path d="M278.165 556.482L227.698 526.223L204.471 512.281L199.699 519.214L273.392 563.413L278.165 556.482Z" stroke="#005E95" stroke-width="1.637" stroke-linecap="round" stroke-linejoin="round"/>
<path d="M204.469 512.282C204.469 512.282 210.59 502.175 230.379 509.819C230.379 509.819 230.443 509.973 230.531 510.242C230.767 510.979 231.176 512.611 231.131 514.974C231.058 517.828 230.307 521.699 227.698 526.223" stroke="#005E95" stroke-width="1.637" stroke-linecap="round" stroke-linejoin="round"/>
<path d="M231.133 514.974C231.133 514.974 231.896 512.194 235.993 512.592C240.092 512.988 258.46 515.469 263.001 516.202C265.183 516.536 266.671 517.02 267.868 517.788C269.177 518.604 270.122 519.775 271.153 521.567C273.149 525.02 276.167 528.662 280.048 530.862C283.924 533.062 286.026 532.594 286.217 536.005C286.383 539.417 284.011 549.294 278.166 556.483" stroke="#005E95" stroke-width="1.637" stroke-linecap="round" stroke-linejoin="round"/>
<path d="M230.531 510.242C230.531 510.242 231.62 508.224 235.247 508.862C238.854 509.498 251.942 511.547 258.392 510.919C264.864 510.268 267.117 507.84 269.177 509.283C271.258 510.754 272.017 515.087 267.865 517.788" stroke="#005E95" stroke-width="1.637" stroke-linecap="round" stroke-linejoin="round"/>
<path d="M240.421 516.88C240.493 517.827 239.787 518.655 238.84 518.729C237.893 518.802 237.065 518.096 236.994 517.147L236.31 508.352C236.235 507.405 236.943 506.577 237.888 506.504C238.835 506.432 239.663 507.139 239.737 508.083L240.421 516.88Z" fill="white"/>
<path d="M240.421 516.88C240.493 517.827 239.787 518.655 238.84 518.729C237.893 518.802 237.065 518.096 236.994 517.147L236.31 508.352C236.235 507.405 236.943 506.577 237.888 506.504C238.835 506.432 239.663 507.139 239.737 508.083L240.421 516.88Z" stroke="#005E95" stroke-width="1.637" stroke-linecap="round" stroke-linejoin="round"/>
<path d="M247.588 518.261C247.663 519.208 246.954 520.038 246.009 520.111C245.06 520.181 244.233 519.474 244.161 518.527L243.349 508.978C243.275 508.031 243.981 507.205 244.928 507.128C245.875 507.06 246.702 507.764 246.775 508.711L247.588 518.261Z" fill="white"/>
<path d="M247.588 518.261C247.663 519.208 246.954 520.038 246.009 520.111C245.06 520.181 244.233 519.474 244.161 518.527L243.349 508.978C243.275 508.031 243.981 507.205 244.928 507.128C245.875 507.06 246.702 507.764 246.775 508.711L247.588 518.261Z" stroke="#005E95" stroke-width="1.637" stroke-linecap="round" stroke-linejoin="round"/>
<path d="M254.757 519.641C254.829 520.589 254.123 521.417 253.177 521.489C252.23 521.563 251.401 520.854 251.329 519.908L250.388 509.604C250.314 508.658 251.02 507.831 251.968 507.756C252.915 507.684 253.742 508.391 253.815 509.337L254.757 519.641Z" fill="white"/>
<path d="M254.757 519.641C254.829 520.589 254.123 521.417 253.177 521.489C252.23 521.563 251.401 520.854 251.329 519.908L250.388 509.604C250.314 508.658 251.02 507.831 251.968 507.756C252.915 507.684 253.742 508.391 253.815 509.337L254.757 519.641Z" stroke="#005E95" stroke-width="1.637" stroke-linecap="round" stroke-linejoin="round"/>
<path d="M261.921 521.024C261.995 521.965 261.289 522.796 260.341 522.869C259.396 522.945 258.567 522.237 258.495 521.288L257.423 510.231C257.35 509.284 258.055 508.457 259.003 508.383C259.948 508.312 260.776 509.019 260.849 509.963L261.921 521.024Z" fill="white"/>
<path d="M261.921 521.024C261.995 521.965 261.289 522.796 260.341 522.869C259.396 522.945 258.567 522.237 258.495 521.288L257.423 510.231C257.35 509.284 258.055 508.457 259.003 508.383C259.948 508.312 260.776 509.019 260.849 509.963L261.921 521.024Z" stroke="#005E95" stroke-width="1.637" stroke-linecap="round" stroke-linejoin="round"/>
<path d="M358.461 389.279L292.02 485.545L317.334 508.439L375.868 436.519C375.868 436.519 411.633 451.818 420.015 451.818C428.393 451.818 458.294 451.818 462.293 451.818C466.292 451.818 482.497 449.119 488.522 432.393C491.562 423.94 496.282 402.736 469.536 389.284L358.461 389.279Z" fill="white"/>
<path d="M358.461 389.279L292.02 485.545L317.334 508.439L375.868 436.519C375.868 436.519 411.633 451.818 420.015 451.818C428.393 451.818 458.294 451.818 462.293 451.818C466.292 451.818 482.497 449.119 488.522 432.393C491.562 423.94 496.282 402.736 469.536 389.284L358.461 389.279Z" stroke="#005E95" stroke-width="2.183" stroke-miterlimit="10"/>
<path d="M469.538 389.284L358.462 389.279L334.492 424.008L364.419 450.588L375.87 436.519C375.87 436.519 411.635 451.818 420.017 451.818C428.395 451.818 458.295 451.818 462.294 451.818C466.293 451.818 482.498 449.119 488.523 432.393C491.563 423.94 496.284 402.736 469.538 389.284Z" fill="#EFEFEF"/>
<path d="M358.461 389.279L292.02 485.545L317.334 508.439L375.868 436.519C375.868 436.519 411.633 451.818 420.015 451.818C428.393 451.818 458.294 451.818 462.293 451.818C466.292 451.818 482.497 449.119 488.522 432.393C491.562 423.94 496.282 402.736 469.536 389.284L358.461 389.279Z" stroke="#005E95" stroke-width="1.637" stroke-linecap="round" stroke-linejoin="round"/>
<path d="M375.867 436.519C375.867 436.519 381.196 421.018 376.326 408.555" stroke="#005E95" stroke-width="1.637" stroke-linecap="round" stroke-linejoin="round"/>
<path d="M297.891 477.038L323.437 500.942" stroke="#005E95" stroke-width="1.637" stroke-linecap="round" stroke-linejoin="round"/>
<path d="M351.144 570.102L346.644 577.206L271.359 535.887L275.86 528.781L299.587 541.815L351.144 570.102Z" fill="white"/>
<path d="M351.144 570.102L346.644 577.206L271.359 535.887L275.86 528.781L299.587 541.815L351.144 570.102Z" stroke="#005E95" stroke-width="2.183" stroke-miterlimit="10"/>
<path d="M329.659 525.358C336.094 524.459 338.26 521.94 340.365 523.311C342.498 524.701 343.425 529 339.379 531.855C338.157 531.134 336.649 530.726 334.459 530.457C329.899 529.897 311.459 528.127 307.351 527.886C303.243 527.644 302.59 530.452 302.59 530.452C302.545 528.09 302.072 526.476 301.809 525.748C301.809 525.748 302.819 523.689 306.466 524.189C310.092 524.687 323.244 526.254 329.659 525.358Z" fill="#EFEFEF"/>
<path d="M307.35 527.885C311.458 528.125 329.893 529.935 334.458 530.457C336.649 530.708 338.146 531.151 339.378 531.855C340.716 532.62 341.701 533.755 342.804 535.503C344.931 538.875 348.083 542.399 352.04 544.446C355.999 546.495 358.1 545.944 358.399 549.345C358.698 552.746 356.708 562.701 351.143 570.103L299.586 541.816C302.023 537.198 302.623 533.304 302.588 530.452C302.588 530.452 303.241 527.646 307.35 527.885Z" fill="white"/>
<path d="M307.35 527.885C311.458 528.125 329.893 529.935 334.458 530.457C336.649 530.708 338.146 531.151 339.378 531.855C340.716 532.62 341.701 533.755 342.804 535.503C344.931 538.875 348.083 542.399 352.04 544.446C355.999 546.495 358.1 545.944 358.399 549.345C358.698 552.746 356.708 562.701 351.143 570.103L299.586 541.816C302.023 537.198 302.623 533.304 302.588 530.452C302.588 530.452 303.241 527.646 307.35 527.885Z" stroke="#005E95" stroke-width="2.183" stroke-miterlimit="10"/>
<path d="M301.808 525.748C302.071 526.476 302.56 528.089 302.589 530.452C302.624 533.304 302.024 537.198 299.587 541.816L275.859 528.782C275.859 528.782 281.584 518.456 301.639 525.331C301.639 525.331 301.712 525.483 301.808 525.748Z" fill="white"/>
<path d="M301.808 525.748C302.071 526.476 302.56 528.089 302.589 530.452C302.624 533.304 302.024 537.198 299.587 541.816L275.859 528.782C275.859 528.782 281.584 518.456 301.639 525.331C301.639 525.331 301.712 525.483 301.808 525.748Z" stroke="#005E95" stroke-width="2.183" stroke-miterlimit="10"/>
<path d="M351.144 570.102L299.587 541.815L275.86 528.781L271.359 535.887L346.644 577.206L351.144 570.102Z" stroke="#005E95" stroke-width="1.637" stroke-linecap="round" stroke-linejoin="round"/>
<path d="M275.859 528.782C275.859 528.782 281.584 518.456 301.639 525.331C301.639 525.331 301.712 525.483 301.808 525.748C302.071 526.476 302.56 528.089 302.589 530.452C302.624 533.304 302.024 537.198 299.587 541.816" stroke="#005E95" stroke-width="1.637" stroke-linecap="round" stroke-linejoin="round"/>
<path d="M302.59 530.452C302.59 530.452 303.242 527.646 307.351 527.885C311.459 528.125 329.894 529.935 334.459 530.457C336.65 530.708 338.148 531.152 339.379 531.855C340.717 532.62 341.702 533.755 342.804 535.503C344.931 538.875 348.084 542.399 352.041 544.446C356 546.495 358.101 545.944 358.4 549.345C358.699 552.746 356.709 562.701 351.144 570.103" stroke="#005E95" stroke-width="1.637" stroke-linecap="round" stroke-linejoin="round"/>
<path d="M301.809 525.748C301.809 525.748 302.819 523.689 306.466 524.189C310.092 524.687 323.244 526.254 329.659 525.358C336.094 524.459 338.26 521.94 340.365 523.311C342.498 524.701 343.425 529 339.379 531.855" stroke="#005E95" stroke-width="1.637" stroke-linecap="round" stroke-linejoin="round"/>
<path d="M349.385 494.268L337.387 531.911L342.686 544.375L356.925 550.151C356.925 550.151 357.519 544.846 360.293 540.088C363.067 535.33 372.311 504.1 372.311 504.1L349.385 494.268Z" fill="white"/>
<path d="M349.385 494.268L337.387 531.911L342.686 544.375L356.925 550.151C356.925 550.151 357.519 544.846 360.293 540.088C363.067 535.33 372.311 504.1 372.311 504.1L349.385 494.268Z" stroke="#005E95" stroke-width="1.637" stroke-linecap="round" stroke-linejoin="round"/>
<path d="M372.853 391.488L346.555 497.908L380.096 512.964L408.351 431.241C408.351 431.241 443.666 451.818 452.046 451.818C460.424 451.818 490.325 451.818 494.324 451.818C498.323 451.818 514.128 449.119 517.65 432.393C519.432 423.94 520.985 402.736 492.229 389.284L372.853 391.488Z" fill="white"/>
<path d="M372.853 391.488L346.555 497.908L380.096 512.964L408.351 431.241C408.351 431.241 443.666 451.818 452.046 451.818C460.424 451.818 490.325 451.818 494.324 451.818C498.323 451.818 514.128 449.119 517.65 432.393C519.432 423.94 520.985 402.736 492.229 389.284L372.853 391.488Z" stroke="#005E95" stroke-width="1.637" stroke-linecap="round" stroke-linejoin="round"/>
<path d="M408.352 431.241C408.352 431.241 407.391 415.445 397.754 405.026" stroke="#005E95" stroke-width="1.637" stroke-linecap="round" stroke-linejoin="round"/>
<path d="M348.883 488.503L383.043 504.446" stroke="#005E95" stroke-width="1.637" stroke-linecap="round" stroke-linejoin="round"/>
<path d="M566.405 229.918C567.495 249.712 567.375 255.847 575.287 264.348C583.194 272.851 592.367 286.345 583.278 298.734L531.544 308.79L517.754 237.846L566.405 229.918Z" fill="#015E95"/>
<path d="M566.405 229.918C567.495 249.712 567.375 255.847 575.287 264.348C583.194 272.851 592.367 286.345 583.278 298.734L531.544 308.79L517.754 237.846L566.405 229.918Z" stroke="#005E95" stroke-width="2.183" stroke-miterlimit="10"/>
<path d="M504.539 284.929C501.083 287.95 489.372 293.375 486.801 295.089C484.23 296.803 471.565 312.992 469.851 320.131C468.137 327.273 469.758 341.366 468.423 350.697C467.093 360.028 454.238 396.688 454.238 396.688L517.65 432.393C517.65 432.393 521.368 420.014 522.127 409.922C522.89 399.83 525.363 391.259 533.174 380.785C540.98 370.311 564.928 329.701 566.783 318.848C568.642 307.993 567.269 303.28 560.405 297.089C556.086 293.194 542.598 286.521 542.598 286.521L504.539 284.929Z" fill="#FF6F0F"/>
<path d="M504.539 284.929C501.083 287.95 489.372 293.375 486.801 295.089C484.23 296.803 471.565 312.992 469.851 320.131C468.137 327.273 469.758 341.366 468.423 350.697C467.093 360.028 454.238 396.688 454.238 396.688L517.65 432.393C517.65 432.393 521.368 420.014 522.127 409.922C522.89 399.83 525.363 391.259 533.174 380.785C540.98 370.311 564.928 329.701 566.783 318.848C568.642 307.993 567.269 303.28 560.405 297.089C556.086 293.194 542.598 286.521 542.598 286.521L504.539 284.929Z" stroke="#FF6F0F" stroke-width="1.637" stroke-linecap="round" stroke-linejoin="round"/>
<path d="M468.448 383.571H418.172L422.602 389.285H472.876L468.448 383.571Z" fill="#DBEDFF"/>
<path d="M468.448 383.571H418.172L422.602 389.285H472.876L468.448 383.571Z" stroke="#005E95" stroke-width="1.637" stroke-linecap="round" stroke-linejoin="round"/>
<path d="M422.6 389.284H334.045L310.48 315.3H399.031L422.6 389.284Z" fill="white"/>
<path d="M422.6 389.284H334.045L310.48 315.3H399.031L422.6 389.284Z" stroke="#005E95" stroke-width="1.637" stroke-linecap="round" stroke-linejoin="round"/>
<path d="M364.108 360.789L360.744 358.938C352.737 354.54 351.862 351.328 351.53 350.119C350.737 347.209 352.451 344.847 355.363 344.847C357.196 344.847 359.068 345.785 360.398 347.207C360.957 345.785 362.315 344.847 364.146 344.847C367.058 344.847 370.064 347.209 370.857 350.119C371.19 351.328 372.064 354.54 366.466 358.938L364.108 360.789Z" fill="#015E95"/>
<path d="M533.313 343.149L528.848 367.222L473.498 375.158C473.498 375.158 462.589 367.737 461.764 366.918C460.939 366.098 452.151 364.247 451.009 364.201C449.867 364.155 440.335 368.419 438.793 369.428C437.252 370.439 431.139 379.224 430.679 380.063C430.214 380.902 429.849 382.889 431.634 382.96C433.42 383.031 444.177 382.64 445.246 382.683C446.317 382.726 455.398 386.027 457.334 387.676C459.269 389.326 464.23 390.655 474.231 388.981C482.637 389.675 527.648 391.24 534.507 391.322C541.365 391.404 546.651 390.283 548.718 383.885C550.783 377.486 560.881 344.251 560.881 344.251L533.313 343.149Z" fill="white"/>
<path d="M533.313 343.149L528.848 367.222L473.498 375.158C473.498 375.158 462.589 367.737 461.764 366.918C460.939 366.098 452.151 364.247 451.009 364.201C449.867 364.155 440.335 368.419 438.793 369.428C437.252 370.439 431.139 379.224 430.679 380.063C430.214 380.902 429.849 382.889 431.634 382.96C433.42 383.031 444.177 382.64 445.246 382.683C446.317 382.726 455.398 386.027 457.334 387.676C459.269 389.326 464.23 390.655 474.231 388.981C482.637 389.675 527.648 391.24 534.507 391.322C541.365 391.404 546.651 390.283 548.718 383.885C550.783 377.486 560.881 344.251 560.881 344.251L533.313 343.149Z" stroke="#005E95" stroke-width="2.183" stroke-miterlimit="10"/>
<path d="M531.233 354.357C534.684 356.146 542.03 359.275 555.414 362.191C558.257 352.881 560.88 344.251 560.88 344.251L533.313 343.149L531.233 354.357Z" fill="#EFEFEF"/>
<path d="M533.313 343.149L528.848 367.222L473.498 375.158C473.498 375.158 462.589 367.737 461.764 366.918C460.939 366.098 452.151 364.247 451.009 364.201C449.867 364.155 440.335 368.419 438.793 369.428C437.252 370.439 431.139 379.224 430.679 380.063C430.214 380.902 429.849 382.889 431.634 382.96C433.42 383.031 444.177 382.64 445.246 382.683C446.317 382.726 453.965 387.277 457.334 387.676C459.547 388.288 464.23 390.655 474.231 388.981C482.637 389.675 527.648 391.24 534.507 391.322C541.365 391.404 546.651 390.283 548.718 383.885C550.783 377.486 560.881 344.251 560.881 344.251L533.313 343.149Z" stroke="#005E95" stroke-width="1.637" stroke-linecap="round" stroke-linejoin="round"/>
<path d="M534.195 321.121L530.702 348.287C530.702 348.287 552.428 350.68 566.663 349.724C566.663 349.724 570.674 322.578 565.809 304.018C561.626 304.162 536.729 297.641 534.195 321.121Z" fill="#FF6F0F"/>
<path d="M534.195 321.121L530.702 348.287C530.702 348.287 552.428 350.68 566.663 349.724C566.663 349.724 570.674 322.578 565.809 304.018C561.626 304.162 536.729 297.641 534.195 321.121Z" stroke="#FF6F0F" stroke-width="2.183" stroke-miterlimit="10"/>
<path d="M534.194 321.121L530.701 348.287C530.701 348.287 552.427 350.68 566.661 349.724C566.661 349.724 570.672 322.578 565.808 304.018" stroke="#FF6F0F" stroke-width="1.637" stroke-linecap="round" stroke-linejoin="round"/>
<path d="M574.495 312.122L569.053 316.652C569.053 316.652 592.778 325.94 584.208 351.078C574.841 378.552 533.36 388.216 493.37 402.499C453.38 416.782 423.552 443.248 412.803 480.194C402.792 514.597 418.371 549.002 447.551 553.572C454.705 552.598 579.352 531.801 579.352 531.801L611.823 370.831C613.345 327.357 574.495 312.122 574.495 312.122Z" fill="#FFBC8F"/>
<path d="M454.237 554.082C420.815 554.082 402.051 517.14 412.804 480.194C423.553 443.248 453.381 416.782 493.371 402.499C533.361 388.216 574.841 378.552 584.208 351.078C592.778 325.94 569.053 316.652 569.053 316.652" fill="#FFBC8F"/>
<path d="M454.237 554.082C420.815 554.082 402.051 517.14 412.804 480.194C423.553 443.248 453.381 416.782 493.371 402.499C533.361 388.216 574.841 378.552 584.208 351.078C592.778 325.94 569.053 316.652 569.053 316.652" stroke="#FF6F0F" stroke-width="1.637" stroke-linecap="round" stroke-linejoin="round"/>
<path d="M711.593 183.865C711.329 191.822 704.663 198.059 696.706 197.795C688.748 197.531 682.511 190.865 682.775 182.907C683.04 174.95 689.705 168.713 697.663 168.977C705.621 169.241 711.858 175.907 711.593 183.865Z" fill="white"/>
<path d="M711.593 183.865C711.329 191.822 704.663 198.059 696.706 197.795C688.748 197.531 682.511 190.865 682.775 182.907C683.04 174.95 689.705 168.713 697.663 168.977C705.621 169.241 711.858 175.907 711.593 183.865Z" stroke="#015E95" stroke-width="1.637" stroke-linejoin="round"/>
<path d="M696.539 202.795L696.361 208.158" stroke="#015E95" stroke-width="1.637" stroke-linecap="round" stroke-linejoin="round"/>
<path d="M706.332 200.518L708.858 205.251" stroke="#015E95" stroke-width="1.637" stroke-linecap="round" stroke-linejoin="round"/>
<path d="M713.672 193.649L718.226 196.484" stroke="#015E95" stroke-width="1.637" stroke-linecap="round" stroke-linejoin="round"/>
<path d="M716.598 184.029L721.959 184.207" stroke="#015E95" stroke-width="1.637" stroke-linecap="round" stroke-linejoin="round"/>
<path d="M714.317 174.235L719.05 171.708" stroke="#015E95" stroke-width="1.637" stroke-linecap="round" stroke-linejoin="round"/>
<path d="M707.447 166.894L710.282 162.339" stroke="#015E95" stroke-width="1.637" stroke-linecap="round" stroke-linejoin="round"/>
<path d="M697.826 163.972L698.004 158.609" stroke="#015E95" stroke-width="1.637" stroke-linecap="round" stroke-linejoin="round"/>
<path d="M688.034 166.249L685.508 161.516" stroke="#015E95" stroke-width="1.637" stroke-linecap="round" stroke-linejoin="round"/>
<path d="M680.691 173.12L676.141 170.283" stroke="#015E95" stroke-width="1.637" stroke-linecap="round" stroke-linejoin="round"/>
<path d="M677.767 182.741L672.406 182.561" stroke="#015E95" stroke-width="1.637" stroke-linecap="round" stroke-linejoin="round"/>
<path d="M680.05 192.534L675.317 195.059" stroke="#015E95" stroke-width="1.637" stroke-linecap="round" stroke-linejoin="round"/>
<path d="M686.919 199.875L684.084 204.428" stroke="#015E95" stroke-width="1.637" stroke-linecap="round" stroke-linejoin="round"/>
<path d="M702.027 37.4855L698.292 149.953" stroke="#015E95" stroke-width="1.637" stroke-linejoin="round"/>
<path d="M652.62 185.227C644.222 184.948 643.105 180.959 650.142 176.363L685.672 153.154C692.709 148.559 703.959 148.933 710.676 153.985L744.588 179.499C751.305 184.552 749.927 188.459 741.527 188.18L652.62 185.227Z" fill="white"/>
<path d="M652.62 185.227C644.222 184.948 643.105 180.959 650.142 176.363L685.672 153.154C692.709 148.559 703.959 148.933 710.676 153.985L744.588 179.499C751.305 184.552 749.927 188.459 741.527 188.18L652.62 185.227Z" stroke="#015E95" stroke-width="1.637" stroke-linejoin="round"/>
<path d="M543.669 255.67C543.669 255.67 542.435 267.476 542.908 274.238C543.383 281 549.097 286.521 549.097 286.521C549.097 286.521 539.958 301.471 519.007 297.568C509.915 295.873 509.011 287.664 510.343 285.76C511.677 283.856 519.77 277.702 519.77 255.67H543.669Z" fill="white"/>
<path d="M543.669 255.67C543.669 255.67 542.435 267.476 542.908 274.238C543.383 281 549.097 286.521 549.097 286.521C549.097 286.521 539.958 301.471 519.007 297.568C509.915 295.873 509.011 287.664 510.343 285.76C511.677 283.856 519.77 277.702 519.77 255.67H543.669Z" stroke="#005E95" stroke-width="2.183" stroke-miterlimit="10"/>
<path d="M542.803 270.247C542.837 263.651 543.671 255.67 543.671 255.67H519.771C519.771 277.702 511.678 283.856 510.344 285.76C509.709 286.668 509.599 289.008 510.622 291.394C525.932 289.028 537.768 276.489 542.803 270.247Z" fill="#EFEFEF"/>
<path d="M500.919 207.828C486.255 220.787 475.034 248.884 505.403 247.432L514.565 245.652L506.984 206.65L500.919 207.828Z" fill="#015E95"/>
<path d="M500.919 207.828C486.255 220.787 475.034 248.884 505.403 247.432L514.565 245.652L506.984 206.65L500.919 207.828Z" stroke="#005E95" stroke-width="2.183" stroke-miterlimit="10"/>
<path d="M507.639 212.751C498.056 222.084 497.725 232.863 499.851 243.8C501.977 254.736 502.114 255.074 502.644 260.791C503.173 266.508 511.247 279.755 518.344 279.552C526.447 279.324 543.255 272.102 548.611 258.475C556.756 253.982 562.435 245.621 559.616 227.383C556.206 205.35 526.173 194.7 507.639 212.751Z" fill="white"/>
<path d="M507.639 212.751C498.056 222.084 497.725 232.863 499.851 243.8C501.977 254.736 502.114 255.074 502.644 260.791C503.173 266.508 511.247 279.755 518.344 279.552C526.447 279.324 543.255 272.102 548.611 258.475C556.756 253.982 562.435 245.621 559.616 227.383C556.206 205.35 526.173 194.7 507.639 212.751Z" stroke="#005E95" stroke-width="1.637" stroke-linecap="round" stroke-linejoin="round"/>
<path d="M499.935 208.818C496.792 212.292 505.179 230.299 524.41 237.911C542.149 244.932 555.681 243.086 555.681 243.086C555.681 243.086 566.172 241.51 566.486 233.806C566.938 222.66 561.333 205.807 541.387 199.499C523.989 193.996 505.684 202.465 499.935 208.818Z" fill="#015E95"/>
<path d="M499.935 208.818C496.792 212.292 505.179 230.299 524.41 237.911C542.149 244.932 555.681 243.086 555.681 243.086C555.681 243.086 566.172 241.51 566.486 233.806C566.938 222.66 561.333 205.807 541.387 199.499C523.989 193.996 505.684 202.465 499.935 208.818Z" stroke="#005E95" stroke-width="2.183" stroke-miterlimit="10"/>
<path d="M548.765 245.058C548.765 245.058 551.001 238.222 556.535 237.511C562.073 236.797 561.715 245.816 559.124 250.831C556.536 255.845 551.046 258.293 548.61 258.476C548.61 258.476 547.299 252.111 548.765 245.058Z" fill="white"/>
<path d="M548.765 245.058C548.765 245.058 551.001 238.222 556.535 237.511C562.073 236.797 561.715 245.816 559.124 250.831C556.536 255.845 551.046 258.293 548.61 258.476C548.61 258.476 547.299 252.111 548.765 245.058Z" stroke="#005E95" stroke-width="2.183" stroke-miterlimit="10"/>
<path d="M548.764 245.058C548.764 245.058 551.001 238.222 556.535 237.511C562.073 236.797 561.715 245.816 559.124 250.831C556.535 255.845 551.046 258.293 548.61 258.476" stroke="#005E95" stroke-width="1.637" stroke-linecap="round" stroke-linejoin="round"/>
<path d="M512.669 261.096C512.669 261.096 510.881 260.499 511.204 257.671" stroke="#005E95" stroke-width="1.637" stroke-linecap="round" stroke-linejoin="round"/>
<path d="M513.606 268.625C513.606 268.625 518.69 269.238 523.107 265.398" stroke="#005E95" stroke-width="1.637" stroke-linecap="round" stroke-linejoin="round"/>
<path d="M505.265 276.338C505.265 276.338 512.6 276.98 514.537 277.15C516.474 277.319 518.231 277.997 519.533 279.497C520.836 280.997 524.075 283.861 524.822 284.595C525.569 285.33 526.888 286.114 526.638 286.762C526.393 287.41 524.058 288.804 521.271 287.403C518.488 286.002 517.206 284.788 516.286 284.375C515.366 283.96 512.758 283.733 512.758 283.733C512.758 283.733 511.729 295.496 511.646 296.443C511.564 297.391 504.849 303.687 503.704 304.207C502.558 304.728 499.271 304.059 498.533 303.755C497.796 303.451 492.702 301.603 492.702 301.603C492.702 301.603 479.536 335.163 476.812 342.284C474.083 349.404 463.269 353.937 456.975 352.703C450.678 351.468 450.769 340.577 451.961 335.713C453.152 330.848 485.17 289.357 486.839 287.752C488.507 286.149 503.872 276.217 505.265 276.338Z" fill="white"/>
<path d="M505.265 276.338C505.265 276.338 512.6 276.98 514.537 277.15C516.474 277.319 518.231 277.997 519.533 279.497C520.836 280.997 524.075 283.861 524.822 284.595C525.569 285.33 526.888 286.114 526.638 286.762C526.393 287.41 524.058 288.804 521.271 287.403C518.488 286.002 517.206 284.788 516.286 284.375C515.366 283.96 512.758 283.733 512.758 283.733C512.758 283.733 511.729 295.496 511.646 296.443C511.564 297.391 504.849 303.687 503.704 304.207C502.558 304.728 499.271 304.059 498.533 303.755C497.796 303.451 492.702 301.603 492.702 301.603C492.702 301.603 479.536 335.163 476.812 342.284C474.083 349.404 463.269 353.937 456.975 352.703C450.678 351.468 450.769 340.577 451.961 335.713C453.152 330.848 485.17 289.357 486.839 287.752C488.507 286.149 503.872 276.217 505.265 276.338Z" stroke="#005E95" stroke-width="1.637" stroke-linecap="round" stroke-linejoin="round"/>
<path d="M526.311 245.173C526.953 246.76 526.464 248.452 525.219 248.955C523.977 249.457 522.45 248.579 521.809 246.992C521.168 245.406 521.656 243.712 522.898 243.21C524.143 242.707 525.671 243.587 526.311 245.173Z" fill="#005E95"/>
<path d="M506.516 249.108C507.08 250.502 506.714 251.96 505.703 252.369C504.691 252.777 503.417 251.982 502.854 250.588C502.293 249.198 502.655 247.737 503.666 247.328C504.678 246.92 505.955 247.718 506.516 249.108Z" fill="#005E95"/>
<path d="M518.96 239.974C518.96 239.974 520.836 237.752 526.969 236.738" stroke="#005E95" stroke-width="1.637" stroke-linecap="round" stroke-linejoin="round"/>
<path d="M505.006 240.877C505.006 240.877 503.215 240.63 501.297 241.407" stroke="#005E95" stroke-width="1.637" stroke-linecap="round" stroke-linejoin="round"/>
</g>
</svg>
