<svg width="35" height="35" viewBox="0 0 35 35" fill="none" xmlns="http://www.w3.org/2000/svg">
<g clip-path="url(#clip0_330_220)">
<path d="M10.0943 20.9747L9.16843 24.4312L5.78426 24.5028C4.77289 22.627 4.19922 20.4807 4.19922 18.2C4.19922 15.9945 4.73558 13.9147 5.68633 12.0834H5.68705L8.69992 12.6358L10.0197 15.6306C9.7435 16.4359 9.59294 17.3004 9.59294 18.2C9.59304 19.1763 9.76989 20.1117 10.0943 20.9747Z" fill="#FBBB00"/>
<path d="M30.5663 15.7153C30.719 16.5199 30.7986 17.3508 30.7986 18.1999C30.7986 19.1521 30.6985 20.081 30.5078 20.9769C29.8604 24.0257 28.1686 26.6878 25.8251 28.5718L25.8243 28.571L22.0295 28.3774L21.4924 25.0246C23.0474 24.1126 24.2627 22.6854 24.9029 20.9769H17.791V15.7153H25.0066H30.5663Z" fill="#518EF8"/>
<path d="M25.8258 28.5711L25.8265 28.5718C23.5473 30.4038 20.6519 31.5 17.5001 31.5C12.4352 31.5 8.03156 28.669 5.78516 24.5029L10.0952 20.9747C11.2184 23.9723 14.1101 26.1062 17.5001 26.1062C18.9573 26.1062 20.3224 25.7123 21.4938 25.0246L25.8258 28.5711Z" fill="#28B446"/>
<path d="M25.9878 7.96187L21.6792 11.4893C20.4668 10.7315 19.0338 10.2937 17.4984 10.2937C14.0317 10.2937 11.0859 12.5255 10.019 15.6306L5.68627 12.0834H5.68555C7.89906 7.81573 12.3582 4.89996 17.4984 4.89996C20.7255 4.89996 23.6844 6.04948 25.9878 7.96187Z" fill="#F14336"/>
</g>
<defs>
<clipPath id="clip0_330_220">
<rect width="26.6" height="26.6" fill="white" transform="translate(4.19922 4.89996)"/>
</clipPath>
</defs>
</svg>
