<svg width="979" height="469" viewBox="0 0 979 469" fill="none" xmlns="http://www.w3.org/2000/svg">
<g clip-path="url(#clip0_1114_5)">
<path fill-rule="evenodd" clip-rule="evenodd" d="M489.23 304.414H489.226H442.7H442.696H396.172H396.17H256.585H256.583H163.524H163.522H23.9373H23.9351H-22.5921H-22.5961H-69.118H-69.1221H-115.649H-115.652H-162.179H-162.182H-208.71H-208.712H-242.862C-242.959 304.414 -243.038 304.493 -243.038 304.59C-243.038 304.686 -242.959 304.765 -242.862 304.765H-210.307L-230.456 309.248H-242.863C-242.96 309.248 -243.038 309.326 -243.038 309.423C-243.038 309.52 -242.96 309.599 -242.863 309.599H-232.033L-242.902 312.017C-242.996 312.038 -243.056 312.132 -243.035 312.226C-243.014 312.321 -242.92 312.38 -242.826 312.359L-230.418 309.599H-182.919L-202.94 314.609H-242.863C-242.96 314.609 -243.038 314.687 -243.038 314.784C-243.038 314.881 -242.96 314.96 -242.863 314.96H-204.341L-226.837 320.589H-242.863C-242.96 320.589 -243.038 320.668 -243.038 320.765C-243.038 320.862 -242.96 320.94 -242.863 320.94H-228.238L-242.906 324.611C-243 324.634 -243.057 324.73 -243.034 324.823C-243.01 324.917 -242.915 324.975 -242.821 324.951L-226.794 320.94H-173.456L-195.704 327.303H-242.863C-242.96 327.303 -243.038 327.382 -243.038 327.479C-243.038 327.576 -242.96 327.654 -242.863 327.654H-196.931L-222.254 334.897H-242.863C-242.96 334.897 -243.038 334.976 -243.038 335.072C-243.038 335.169 -242.96 335.248 -242.863 335.248H-223.481L-242.912 340.805C-243.005 340.832 -243.059 340.929 -243.032 341.022C-243.005 341.115 -242.908 341.169 -242.815 341.142L-222.205 335.248H-161.556L-186.461 343.558H-242.863C-242.96 343.558 -243.038 343.636 -243.038 343.733C-243.038 343.83 -242.96 343.909 -242.863 343.909H-187.512L-216.317 353.52H-242.863C-242.96 353.52 -243.038 353.598 -243.038 353.695C-243.038 353.792 -242.96 353.871 -242.863 353.871H-217.368L-242.919 362.396C-243.011 362.427 -243.06 362.526 -243.03 362.618C-242.999 362.71 -242.9 362.759 -242.808 362.729L-216.26 353.871H-146.149L-174.203 365.103H-242.863C-242.96 365.103 -243.038 365.182 -243.038 365.278C-243.038 365.375 -242.96 365.454 -242.863 365.454H-175.079L-208.258 378.738H-242.863C-242.96 378.738 -243.038 378.817 -243.038 378.913C-243.038 379.01 -242.96 379.089 -242.863 379.089H-209.134L-242.927 392.619C-243.017 392.655 -243.061 392.757 -243.025 392.847C-242.989 392.937 -242.887 392.981 -242.797 392.945L-208.19 379.089H-125.325L-157.174 395.027H-242.863C-242.96 395.027 -243.038 395.106 -243.038 395.203C-243.038 395.3 -242.96 395.378 -242.863 395.378H-157.875L-196.741 414.828H-242.863C-242.96 414.828 -243.038 414.906 -243.038 415.003C-243.038 415.1 -242.96 415.178 -242.863 415.178H-197.442L-242.941 437.948C-243.027 437.991 -243.062 438.096 -243.019 438.183C-242.976 438.27 -242.87 438.305 -242.784 438.261L-196.658 415.178H-95.6127L-131.932 439.409H-242.863C-242.96 439.409 -243.038 439.487 -243.038 439.584C-243.038 439.681 -242.96 439.76 -242.863 439.76H-132.458L-178.895 470.74H-242.863C-242.96 470.74 -243.038 470.818 -243.038 470.915C-243.038 471.012 -242.96 471.091 -242.863 471.091H-179.42L-240.802 512.041H-242.863C-242.96 512.041 -243.038 512.12 -243.038 512.217C-243.038 512.314 -242.96 512.392 -242.863 512.392H-241.328L-242.96 513.481C-243.041 513.535 -243.063 513.644 -243.009 513.724C-242.955 513.805 -242.846 513.827 -242.766 513.773L-240.696 512.392H-90.967L-147.531 568.981H-242.863C-242.96 568.981 -243.038 569.06 -243.038 569.157C-243.038 569.253 -242.96 569.332 -242.863 569.332H-147.882L-242.794 664.286C-242.86 664.351 -242.863 664.455 -242.803 664.524C-242.771 664.562 -242.723 664.586 -242.67 664.586H662.158C662.206 664.586 662.251 664.565 662.283 664.533C662.314 664.501 662.333 664.458 662.333 664.41C662.333 664.379 662.325 664.35 662.311 664.325C662.303 664.311 662.293 664.298 662.281 664.286L567.532 569.332H663.129C663.226 569.332 663.304 569.253 663.304 569.157C663.304 569.06 663.226 568.981 663.129 568.981H567.182L510.714 512.392H660.444L663.032 514.121C663.113 514.175 663.222 514.153 663.275 514.072C663.329 513.992 663.307 513.883 663.227 513.829L661.075 512.392H663.129C663.226 512.392 663.304 512.314 663.304 512.217C663.304 512.12 663.226 512.041 663.129 512.041H660.55L599.239 471.091H663.129C663.226 471.091 663.304 471.012 663.304 470.915C663.304 470.818 663.226 470.74 663.129 470.74H598.714L552.331 439.76H663.129C663.226 439.76 663.304 439.681 663.304 439.584C663.304 439.487 663.226 439.409 663.129 439.409H551.806L515.529 415.178H616.573L663.051 438.458C663.138 438.501 663.243 438.466 663.286 438.38C663.33 438.293 663.295 438.188 663.208 438.144L617.356 415.178H663.129C663.226 415.178 663.304 415.1 663.304 415.003C663.304 414.906 663.226 414.828 663.129 414.828H616.656L577.824 395.378H663.129C663.226 395.378 663.304 395.3 663.304 395.203C663.304 395.106 663.226 395.027 663.129 395.027H577.124L545.302 379.089H628.175L663.065 393.067C663.155 393.103 663.257 393.059 663.293 392.969C663.329 392.88 663.285 392.777 663.195 392.741L629.118 379.089H663.129C663.226 379.089 663.304 379.01 663.304 378.913C663.304 378.817 663.226 378.738 663.129 378.738H628.243L595.085 365.454H663.129C663.226 365.454 663.304 365.375 663.304 365.278C663.304 365.182 663.226 365.103 663.129 365.103H594.21L566.174 353.871H636.278L663.074 362.817C663.166 362.848 663.265 362.798 663.296 362.706C663.327 362.615 663.277 362.515 663.185 362.485L637.385 353.871H663.129C663.226 353.871 663.304 353.792 663.304 353.695C663.304 353.598 663.226 353.52 663.129 353.52H636.335L607.548 343.909H663.129C663.226 343.909 663.304 343.83 663.304 343.733C663.304 343.636 663.226 343.558 663.129 343.558H606.497L581.607 335.248H642.253L663.081 341.208C663.175 341.235 663.272 341.181 663.298 341.088C663.325 340.995 663.271 340.898 663.178 340.871L643.528 335.248H663.129C663.226 335.248 663.304 335.169 663.304 335.072C663.304 334.976 663.226 334.897 663.129 334.897H642.302L616.992 327.654H663.129C663.226 327.654 663.304 327.576 663.304 327.479C663.304 327.382 663.226 327.303 663.129 327.303H615.767L593.531 320.94H646.875L663.087 324.999C663.181 325.022 663.276 324.965 663.3 324.871C663.323 324.777 663.266 324.682 663.172 324.658L648.32 320.94H663.129C663.226 320.94 663.304 320.862 663.304 320.765C663.304 320.668 663.226 320.589 663.129 320.589H646.919L624.432 314.96H663.129C663.226 314.96 663.304 314.881 663.304 314.784C663.304 314.687 663.226 314.609 663.129 314.609H623.031L603.018 309.599H650.516L663.091 312.397C663.186 312.418 663.279 312.359 663.3 312.264C663.321 312.169 663.262 312.076 663.167 312.055L652.13 309.599H663.129C663.226 309.599 663.304 309.52 663.304 309.423C663.304 309.326 663.226 309.248 663.129 309.248H650.554L630.409 304.765H663.13C663.226 304.765 663.305 304.686 663.305 304.59C663.305 304.493 663.226 304.414 663.13 304.414H628.815H628.813H582.29H582.287H535.76H535.756H489.23ZM598.083 470.74L551.7 439.76H438.238L469.151 470.74H598.083ZM468.656 470.74L437.742 439.76H324.161L339.604 470.74H468.656ZM339.779 471.091H469.006L509.869 512.041H360.193L339.779 471.091ZM339.213 470.74L323.769 439.76H210.112L210.085 470.74H339.213ZM210.085 471.091H339.387L359.801 512.041H210.049L210.085 471.091ZM209.734 470.74L209.761 439.76H96.1049L80.6082 470.74H209.734ZM80.4327 471.091H209.734L209.699 512.041H59.9484L80.4327 471.091ZM80.216 470.74L95.7128 439.76H-17.8704L-48.837 470.74H80.216ZM-49.1876 471.091H80.0406L59.5563 512.041H-90.1205L-49.1876 471.091ZM-49.3329 470.74L-18.3663 439.76H-131.826L-178.263 470.74H-49.3329ZM-178.788 471.091H-49.6835L-90.6164 512.041H-240.17L-178.788 471.091ZM469.501 471.091H598.608L659.919 512.041H510.364L469.501 471.091ZM-131.3 439.409H-18.0157L6.20411 415.178H-94.9807L-131.3 439.409ZM-17.5198 439.409H95.8882L108.009 415.178H6.70002L-17.5198 439.409ZM96.2804 439.409H209.761L209.782 415.178H108.401L96.2804 439.409ZM210.112 439.409H323.594L311.516 415.178H210.133L210.112 439.409ZM323.986 439.409H437.392L413.214 415.178H311.908L323.986 439.409ZM437.888 439.409H551.175L514.897 415.178H413.709L437.888 439.409ZM615.873 414.828L577.041 395.378H485.884L515.003 414.828H615.873ZM514.372 414.828L485.252 395.378H393.951L413.359 414.828H514.372ZM412.864 414.828L393.456 395.378H302.037L311.733 414.828H412.864ZM311.341 414.828L301.645 395.378H210.15L210.133 414.828H311.341ZM209.783 414.828L209.799 395.378H118.305L108.576 414.828H209.783ZM108.184 414.828L117.913 395.378H26.4917L7.0506 414.828H108.184ZM6.55469 414.828L25.9958 395.378H-65.3016L-94.455 414.828H6.55469ZM-95.0869 414.828L-65.9336 395.378H-157.092L-195.957 414.828H-95.0869ZM-147.036 568.981L-90.4711 512.392H59.3808L31.074 568.981H-147.036ZM31.4661 568.981L59.773 512.392H209.698L209.649 568.981H31.4661ZM210 568.981L210.049 512.392H359.976L388.185 568.981H210ZM388.577 568.981L360.368 512.392H510.219L566.686 568.981H388.577ZM576.341 395.027L544.519 379.089H461.496L485.359 395.027H576.341ZM484.727 395.027L460.864 379.089H377.697L393.602 395.027H484.727ZM393.106 395.027L377.202 379.089H293.917L301.862 395.027H393.106ZM301.471 395.027L293.525 379.089H210.164L210.151 395.027H301.471ZM209.8 395.027L209.814 379.089H126.453L118.481 395.027H209.8ZM118.089 395.027L126.061 379.089H42.7739L26.8423 395.027H118.089ZM26.3464 395.027L42.278 379.089H-40.8852L-64.7759 395.027H26.3464ZM-65.4078 395.027L-41.5172 379.089H-124.541L-156.391 395.027H-65.4078ZM-124.624 378.738H-207.314L-174.136 365.454H-98.0784L-124.624 378.738ZM-40.9914 378.738H-123.84L-97.2946 365.454H-21.0793L-40.9914 378.738ZM42.6286 378.738H-40.3594L-20.4473 365.454H55.9071L42.6286 378.738ZM43.1245 378.738H126.237L132.882 365.454H56.403L43.1245 378.738ZM126.629 378.738H209.814L209.825 365.454H133.274L126.629 378.738ZM210.165 378.738H293.35L286.728 365.454H210.176L210.165 378.738ZM293.742 378.738H376.852L363.596 365.454H287.12L293.742 378.738ZM460.339 378.738H377.347L364.091 365.454H440.45L460.339 378.738ZM543.819 378.738H460.97L441.081 365.454H517.296L543.819 378.738ZM627.3 378.738H544.602L518.08 365.454H594.142L627.3 378.738ZM535.733 304.765H490.307L503.734 309.248H551.399L535.733 304.765ZM537.008 304.765L552.673 309.248H600.173L582.267 304.765H537.008ZM583.711 304.765L601.617 309.248H648.94L628.795 304.765H583.711ZM-208.692 304.765L-228.841 309.248H-181.517L-163.604 304.765H-208.692ZM-162.159 304.765L-180.073 309.248H-132.575L-116.901 304.765H-162.159ZM-115.626 304.765L-131.3 309.248H-83.6349L-70.1996 304.765H-115.626ZM-69.0915 304.765L-82.5267 309.248H-34.7003L-23.5038 304.765H-69.0915ZM-22.5602 304.765L-33.7567 309.248H14.236L23.1941 304.765H-22.5602ZM23.9778 304.765L15.0197 309.248H63.1688L69.8884 304.765H23.9778ZM70.5203 304.765L63.8008 309.248H112.088L116.569 304.765H70.5203ZM117.065 304.765L112.584 309.248H160.997L163.239 304.765H117.065ZM163.631 304.765L161.389 309.248H209.874L209.878 304.765H163.631ZM210.229 304.765L210.225 309.248H258.71L256.475 304.765H210.229ZM256.867 304.765L259.102 309.248H307.511L303.037 304.765H256.867ZM303.533 304.765L308.006 309.248H356.299L349.587 304.765H303.533ZM350.219 304.765L356.931 309.248H405.08L396.129 304.765H350.219ZM396.913 304.765L405.863 309.248H453.853L442.664 304.765H396.913ZM443.607 304.765L454.796 309.248H502.626L489.199 304.765H443.607ZM580.5 335.248L605.39 343.558H540.434L519.692 335.248H580.5ZM518.748 335.248L539.49 343.558H474.364L457.773 335.248H518.748ZM540.366 343.909H475.064L494.253 353.52H564.355L540.366 343.909ZM456.989 335.248L473.581 343.558H408.299L395.857 335.248H456.989ZM474.281 343.909H408.824L423.214 353.52H493.47L474.281 343.909ZM395.226 335.248L407.668 343.558H342.243L333.95 335.248H395.226ZM408.193 343.909H342.593L352.183 353.52H422.583L408.193 343.909ZM333.455 335.248L341.747 343.558H276.205L272.063 335.248H333.455ZM342.097 343.909H276.38L281.171 353.52H351.688L342.097 343.909ZM271.671 335.248L275.813 343.558H210.195L210.202 335.248H271.671ZM275.988 343.909H210.195L210.186 353.52H280.779L275.988 343.909ZM209.852 335.248L209.844 343.558H144.227L148.383 335.248H209.852ZM209.844 343.909H144.051L139.243 353.52H209.836L209.844 343.909ZM147.991 335.248L143.834 343.558H78.2893L86.5958 335.248H147.991ZM143.659 343.909H77.9388L68.3318 353.52H138.851L143.659 343.909ZM86.0999 335.248L77.7934 343.558H12.3728L24.829 335.248H86.0999ZM77.4428 343.909H11.8471L-2.55931 353.52H67.8358L77.4428 343.909ZM24.1971 335.248L11.7408 343.558H-53.5408L-36.935 335.248H24.1971ZM11.2151 343.909H-54.2417L-73.4474 353.52H-3.19128L11.2151 343.909ZM-37.7187 335.248L-54.3246 343.558H-119.449L-98.6936 335.248H-37.7187ZM-55.0255 343.909H-120.325L-144.33 353.52H-74.2312L-55.0255 343.909ZM-99.6372 335.248L-120.392 343.558H-185.353L-160.448 335.248H-99.6372ZM-121.268 343.909H-186.404L-215.209 353.52H-145.273L-121.268 343.909ZM606.44 343.909H541.309L565.298 353.52H635.227L606.44 343.909ZM-173.26 365.103H-97.3775L-74.932 353.871H-145.205L-173.26 365.103ZM-96.5938 365.103H-20.5536L-3.71702 353.871H-74.1483L-96.5938 365.103ZM-19.9216 365.103H56.2577L67.4853 353.871H-3.08503L-19.9216 365.103ZM133.057 365.103H56.7536L67.9812 353.871H138.676L133.057 365.103ZM209.826 365.103H133.449L139.068 353.871H209.835L209.826 365.103ZM286.553 365.103H210.176L210.186 353.871H280.954L286.553 365.103ZM363.246 365.103H286.945L281.346 353.871H352.038L363.246 365.103ZM363.741 365.103H439.925L423.108 353.871H352.533L363.741 365.103ZM440.556 365.103H516.596L494.17 353.871H423.739L440.556 365.103ZM517.379 365.103H593.267L565.231 353.871H494.953L517.379 365.103ZM388.36 569.332H210L209.918 664.235H435.669L388.36 569.332ZM209.649 569.332H31.2907L-16.1813 664.235H209.567L209.649 569.332ZM30.8985 569.332H-147.386L-242.248 664.235H-16.5734L30.8985 569.332ZM567.036 569.332H388.752L436.06 664.235H661.735L567.036 569.332ZM-202.897 314.96L-225.392 320.589H-172.229L-152.546 314.96H-202.897ZM-151.32 314.609H-201.495L-181.474 309.599H-133.802L-151.32 314.609ZM-151.27 314.96L-170.954 320.589H-117.625L-100.753 314.96H-151.27ZM-99.7018 314.609H-150.044L-132.526 309.599H-84.686L-99.7018 314.609ZM-99.6448 314.96L-116.517 320.589H-63.0265L-48.966 314.96H-99.6448ZM-48.09 314.609H-98.5937L-83.5779 309.599H-35.5763L-48.09 314.609ZM-48.0224 314.96L-62.0829 320.589H-8.42727L2.8223 314.96H-48.0224ZM3.52317 314.609H-47.1463L-34.6327 309.599H13.5351L3.52317 314.609ZM3.60602 314.96L-7.64354 320.589H46.1689L54.6073 314.96H3.60602ZM55.133 314.609H4.3069L14.3189 309.599H62.6431L55.133 314.609ZM55.2393 314.96L46.8008 320.589H100.752L106.379 314.96H55.2393ZM106.73 314.609H55.765L63.2751 309.599H111.738L106.73 314.609ZM106.875 314.96L101.248 320.589H155.324L158.14 314.96H106.875ZM158.315 314.609H107.226L112.234 309.599H160.821L158.315 314.609ZM158.532 314.96L155.716 320.589H209.864L209.869 314.96H158.532ZM209.869 314.609H158.707L161.214 309.599H209.874L209.869 314.609ZM210.22 314.96L210.215 320.589H264.364L261.557 314.96H210.22ZM261.382 314.609H210.22L210.224 309.599H258.885L261.382 314.609ZM261.949 314.96L264.756 320.589H318.828L313.21 314.96H261.949ZM312.86 314.609H261.774L259.277 309.599H307.861L312.86 314.609ZM313.706 314.96L319.323 320.589H373.279L364.851 314.96H313.706ZM364.326 314.609H313.356L308.356 309.599H356.824L364.326 314.609ZM365.482 314.96L373.911 320.589H427.723L416.484 314.96H365.482ZM415.783 314.609H364.957L357.456 309.599H405.78L415.783 314.609ZM417.267 314.96L428.507 320.589H482.161L468.11 314.96H417.267ZM467.234 314.609H416.566L406.563 309.599H454.728L467.234 314.609ZM469.053 314.96L483.104 320.589H536.596L519.734 314.96H469.053ZM518.683 314.609H468.177L455.672 309.599H503.677L518.683 314.609ZM520.841 314.96L537.703 320.589H591.03L571.358 314.96H520.841ZM570.132 314.609H519.791L504.784 309.599H552.624L570.132 314.609ZM572.633 314.96L592.305 320.589H645.475L622.988 314.96H572.633ZM621.587 314.609H571.407L553.899 309.599H601.574L621.587 314.609ZM-220.979 334.897H-160.505L-138.798 327.654H-195.655L-220.979 334.897ZM-98.7612 334.897H-159.397L-137.69 327.654H-80.6715L-98.7612 334.897ZM-37.0179 334.897H-97.8176L-79.7279 327.654H-22.5446L-37.0179 334.897ZM24.7228 334.897H-36.2341L-21.7609 327.654H35.5793L24.7228 334.897ZM86.4505 334.897H25.3548L36.2113 327.654H93.6902L86.4505 334.897ZM148.167 334.897H86.9464L94.1861 327.654H151.79L148.167 334.897ZM209.852 334.897H148.559L152.182 327.654H209.858L209.852 334.897ZM271.496 334.897H210.203L210.209 327.654H267.885L271.496 334.897ZM333.105 334.897H271.888L268.277 327.654H325.877L333.105 334.897ZM394.701 334.897H333.6L326.373 327.654H383.857L394.701 334.897ZM456.289 334.897H395.332L384.488 327.654H441.828L456.289 334.897ZM517.873 334.897H457.072L442.612 327.654H499.795L517.873 334.897ZM579.449 334.897H518.816L500.738 327.654H557.756L579.449 334.897ZM580.557 334.897H641.027L615.718 327.654H558.863L580.557 334.897ZM592.256 320.94L614.492 327.303H557.813L538.754 320.94H592.256ZM537.646 320.94L556.705 327.303H499.863L483.98 320.94H537.646ZM483.037 320.94L498.919 327.303H441.911L429.207 320.94H483.037ZM428.424 320.94L441.128 327.303H383.963L374.436 320.94H428.424ZM373.805 320.94L383.332 327.303H326.023L319.673 320.94H373.805ZM319.178 320.94L325.527 327.303H268.103L264.93 320.94H319.178ZM264.539 320.94L267.711 327.303H210.209L210.215 320.94H264.539ZM209.864 320.94L209.858 327.303H152.357L155.54 320.94H209.864ZM155.148 320.94L151.965 327.303H94.5367L100.897 320.94H155.148ZM100.401 320.94L94.0408 327.303H36.737L46.2751 320.94H100.401ZM45.6431 320.94L36.105 327.303H-21.06L-8.3444 320.94H45.6431ZM-9.12814 320.94L-21.8438 327.303H-78.8518L-62.9589 320.94H-9.12814ZM-63.9025 320.94L-79.7955 327.303H-136.639L-117.568 320.94H-63.9025ZM-118.676 320.94L-137.747 327.303H-194.429L-172.18 320.94H-118.676Z" fill="url(#paint0_linear_1114_5)" fill-opacity="0.7"/>
<path fill-rule="evenodd" clip-rule="evenodd" d="M489.23 304.414H489.226H442.7H442.696H396.172H396.17H256.585H256.583H163.524H163.522H23.9373H23.9351H-22.5921H-22.5961H-69.118H-69.1221H-115.649H-115.652H-162.179H-162.182H-208.71H-208.712H-242.862C-242.959 304.414 -243.038 304.493 -243.038 304.59C-243.038 304.686 -242.959 304.765 -242.862 304.765H-210.307L-230.456 309.248H-242.863C-242.96 309.248 -243.038 309.326 -243.038 309.423C-243.038 309.52 -242.96 309.599 -242.863 309.599H-232.033L-242.902 312.017C-242.996 312.038 -243.056 312.132 -243.035 312.226C-243.014 312.321 -242.92 312.38 -242.826 312.359L-230.418 309.599H-182.919L-202.94 314.609H-242.863C-242.96 314.609 -243.038 314.687 -243.038 314.784C-243.038 314.881 -242.96 314.96 -242.863 314.96H-204.341L-226.837 320.589H-242.863C-242.96 320.589 -243.038 320.668 -243.038 320.765C-243.038 320.862 -242.96 320.94 -242.863 320.94H-228.238L-242.906 324.611C-243 324.634 -243.057 324.73 -243.034 324.823C-243.01 324.917 -242.915 324.975 -242.821 324.951L-226.794 320.94H-173.456L-195.704 327.303H-242.863C-242.96 327.303 -243.038 327.382 -243.038 327.479C-243.038 327.576 -242.96 327.654 -242.863 327.654H-196.931L-222.254 334.897H-242.863C-242.96 334.897 -243.038 334.976 -243.038 335.072C-243.038 335.169 -242.96 335.248 -242.863 335.248H-223.481L-242.912 340.805C-243.005 340.832 -243.059 340.929 -243.032 341.022C-243.005 341.115 -242.908 341.169 -242.815 341.142L-222.205 335.248H-161.556L-186.461 343.558H-242.863C-242.96 343.558 -243.038 343.636 -243.038 343.733C-243.038 343.83 -242.96 343.909 -242.863 343.909H-187.512L-216.317 353.52H-242.863C-242.96 353.52 -243.038 353.598 -243.038 353.695C-243.038 353.792 -242.96 353.871 -242.863 353.871H-217.368L-242.919 362.396C-243.011 362.427 -243.06 362.526 -243.03 362.618C-242.999 362.71 -242.9 362.759 -242.808 362.729L-216.26 353.871H-146.149L-174.203 365.103H-242.863C-242.96 365.103 -243.038 365.182 -243.038 365.278C-243.038 365.375 -242.96 365.454 -242.863 365.454H-175.079L-208.258 378.738H-242.863C-242.96 378.738 -243.038 378.817 -243.038 378.913C-243.038 379.01 -242.96 379.089 -242.863 379.089H-209.134L-242.927 392.619C-243.017 392.655 -243.061 392.757 -243.025 392.847C-242.989 392.937 -242.887 392.981 -242.797 392.945L-208.19 379.089H-125.325L-157.174 395.027H-242.863C-242.96 395.027 -243.038 395.106 -243.038 395.203C-243.038 395.3 -242.96 395.378 -242.863 395.378H-157.875L-196.741 414.828H-242.863C-242.96 414.828 -243.038 414.906 -243.038 415.003C-243.038 415.1 -242.96 415.178 -242.863 415.178H-197.442L-242.941 437.948C-243.027 437.991 -243.062 438.096 -243.019 438.183C-242.976 438.27 -242.87 438.305 -242.784 438.261L-196.658 415.178H-95.6127L-131.932 439.409H-242.863C-242.96 439.409 -243.038 439.487 -243.038 439.584C-243.038 439.681 -242.96 439.76 -242.863 439.76H-132.458L-178.895 470.74H-242.863C-242.96 470.74 -243.038 470.818 -243.038 470.915C-243.038 471.012 -242.96 471.091 -242.863 471.091H-179.42L-240.802 512.041H-242.863C-242.96 512.041 -243.038 512.12 -243.038 512.217C-243.038 512.314 -242.96 512.392 -242.863 512.392H-241.328L-242.96 513.481C-243.041 513.535 -243.063 513.644 -243.009 513.724C-242.955 513.805 -242.846 513.827 -242.766 513.773L-240.696 512.392H-90.967L-147.531 568.981H-242.863C-242.96 568.981 -243.038 569.06 -243.038 569.157C-243.038 569.253 -242.96 569.332 -242.863 569.332H-147.882L-242.794 664.286C-242.86 664.351 -242.863 664.455 -242.803 664.524C-242.771 664.562 -242.723 664.586 -242.67 664.586H662.158C662.206 664.586 662.251 664.565 662.283 664.533C662.314 664.501 662.333 664.458 662.333 664.41C662.333 664.379 662.325 664.35 662.311 664.325C662.303 664.311 662.293 664.298 662.281 664.286L567.532 569.332H663.129C663.226 569.332 663.304 569.253 663.304 569.157C663.304 569.06 663.226 568.981 663.129 568.981H567.182L510.714 512.392H660.444L663.032 514.121C663.113 514.175 663.222 514.153 663.275 514.072C663.329 513.992 663.307 513.883 663.227 513.829L661.075 512.392H663.129C663.226 512.392 663.304 512.314 663.304 512.217C663.304 512.12 663.226 512.041 663.129 512.041H660.55L599.239 471.091H663.129C663.226 471.091 663.304 471.012 663.304 470.915C663.304 470.818 663.226 470.74 663.129 470.74H598.714L552.331 439.76H663.129C663.226 439.76 663.304 439.681 663.304 439.584C663.304 439.487 663.226 439.409 663.129 439.409H551.806L515.529 415.178H616.573L663.051 438.458C663.138 438.501 663.243 438.466 663.286 438.38C663.33 438.293 663.295 438.188 663.208 438.144L617.356 415.178H663.129C663.226 415.178 663.304 415.1 663.304 415.003C663.304 414.906 663.226 414.828 663.129 414.828H616.656L577.824 395.378H663.129C663.226 395.378 663.304 395.3 663.304 395.203C663.304 395.106 663.226 395.027 663.129 395.027H577.124L545.302 379.089H628.175L663.065 393.067C663.155 393.103 663.257 393.059 663.293 392.969C663.329 392.88 663.285 392.777 663.195 392.741L629.118 379.089H663.129C663.226 379.089 663.304 379.01 663.304 378.913C663.304 378.817 663.226 378.738 663.129 378.738H628.243L595.085 365.454H663.129C663.226 365.454 663.304 365.375 663.304 365.278C663.304 365.182 663.226 365.103 663.129 365.103H594.21L566.174 353.871H636.278L663.074 362.817C663.166 362.848 663.265 362.798 663.296 362.706C663.327 362.615 663.277 362.515 663.185 362.485L637.385 353.871H663.129C663.226 353.871 663.304 353.792 663.304 353.695C663.304 353.598 663.226 353.52 663.129 353.52H636.335L607.548 343.909H663.129C663.226 343.909 663.304 343.83 663.304 343.733C663.304 343.636 663.226 343.558 663.129 343.558H606.497L581.607 335.248H642.253L663.081 341.208C663.175 341.235 663.272 341.181 663.298 341.088C663.325 340.995 663.271 340.898 663.178 340.871L643.528 335.248H663.129C663.226 335.248 663.304 335.169 663.304 335.072C663.304 334.976 663.226 334.897 663.129 334.897H642.302L616.992 327.654H663.129C663.226 327.654 663.304 327.576 663.304 327.479C663.304 327.382 663.226 327.303 663.129 327.303H615.767L593.531 320.94H646.875L663.087 324.999C663.181 325.022 663.276 324.965 663.3 324.871C663.323 324.777 663.266 324.682 663.172 324.658L648.32 320.94H663.129C663.226 320.94 663.304 320.862 663.304 320.765C663.304 320.668 663.226 320.589 663.129 320.589H646.919L624.432 314.96H663.129C663.226 314.96 663.304 314.881 663.304 314.784C663.304 314.687 663.226 314.609 663.129 314.609H623.031L603.018 309.599H650.516L663.091 312.397C663.186 312.418 663.279 312.359 663.3 312.264C663.321 312.169 663.262 312.076 663.167 312.055L652.13 309.599H663.129C663.226 309.599 663.304 309.52 663.304 309.423C663.304 309.326 663.226 309.248 663.129 309.248H650.554L630.409 304.765H663.13C663.226 304.765 663.305 304.686 663.305 304.59C663.305 304.493 663.226 304.414 663.13 304.414H628.815H628.813H582.29H582.287H535.76H535.756H489.23ZM598.083 470.74L551.7 439.76H438.238L469.151 470.74H598.083ZM468.656 470.74L437.742 439.76H324.161L339.604 470.74H468.656ZM339.779 471.091H469.006L509.869 512.041H360.193L339.779 471.091ZM339.213 470.74L323.769 439.76H210.112L210.085 470.74H339.213ZM210.085 471.091H339.387L359.801 512.041H210.049L210.085 471.091ZM209.734 470.74L209.761 439.76H96.1049L80.6082 470.74H209.734ZM80.4327 471.091H209.734L209.699 512.041H59.9484L80.4327 471.091ZM80.216 470.74L95.7128 439.76H-17.8704L-48.837 470.74H80.216ZM-49.1876 471.091H80.0406L59.5563 512.041H-90.1205L-49.1876 471.091ZM-49.3329 470.74L-18.3663 439.76H-131.826L-178.263 470.74H-49.3329ZM-178.788 471.091H-49.6835L-90.6164 512.041H-240.17L-178.788 471.091ZM469.501 471.091H598.608L659.919 512.041H510.364L469.501 471.091ZM-131.3 439.409H-18.0157L6.20411 415.178H-94.9807L-131.3 439.409ZM-17.5198 439.409H95.8882L108.009 415.178H6.70002L-17.5198 439.409ZM96.2804 439.409H209.761L209.782 415.178H108.401L96.2804 439.409ZM210.112 439.409H323.594L311.516 415.178H210.133L210.112 439.409ZM323.986 439.409H437.392L413.214 415.178H311.908L323.986 439.409ZM437.888 439.409H551.175L514.897 415.178H413.709L437.888 439.409ZM615.873 414.828L577.041 395.378H485.884L515.003 414.828H615.873ZM514.372 414.828L485.252 395.378H393.951L413.359 414.828H514.372ZM412.864 414.828L393.456 395.378H302.037L311.733 414.828H412.864ZM311.341 414.828L301.645 395.378H210.15L210.133 414.828H311.341ZM209.783 414.828L209.799 395.378H118.305L108.576 414.828H209.783ZM108.184 414.828L117.913 395.378H26.4917L7.0506 414.828H108.184ZM6.55469 414.828L25.9958 395.378H-65.3016L-94.455 414.828H6.55469ZM-95.0869 414.828L-65.9336 395.378H-157.092L-195.957 414.828H-95.0869ZM-147.036 568.981L-90.4711 512.392H59.3808L31.074 568.981H-147.036ZM31.4661 568.981L59.773 512.392H209.698L209.649 568.981H31.4661ZM210 568.981L210.049 512.392H359.976L388.185 568.981H210ZM388.577 568.981L360.368 512.392H510.219L566.686 568.981H388.577ZM576.341 395.027L544.519 379.089H461.496L485.359 395.027H576.341ZM484.727 395.027L460.864 379.089H377.697L393.602 395.027H484.727ZM393.106 395.027L377.202 379.089H293.917L301.862 395.027H393.106ZM301.471 395.027L293.525 379.089H210.164L210.151 395.027H301.471ZM209.8 395.027L209.814 379.089H126.453L118.481 395.027H209.8ZM118.089 395.027L126.061 379.089H42.7739L26.8423 395.027H118.089ZM26.3464 395.027L42.278 379.089H-40.8852L-64.7759 395.027H26.3464ZM-65.4078 395.027L-41.5172 379.089H-124.541L-156.391 395.027H-65.4078ZM-124.624 378.738H-207.314L-174.136 365.454H-98.0784L-124.624 378.738ZM-40.9914 378.738H-123.84L-97.2946 365.454H-21.0793L-40.9914 378.738ZM42.6286 378.738H-40.3594L-20.4473 365.454H55.9071L42.6286 378.738ZM43.1245 378.738H126.237L132.882 365.454H56.403L43.1245 378.738ZM126.629 378.738H209.814L209.825 365.454H133.274L126.629 378.738ZM210.165 378.738H293.35L286.728 365.454H210.176L210.165 378.738ZM293.742 378.738H376.852L363.596 365.454H287.12L293.742 378.738ZM460.339 378.738H377.347L364.091 365.454H440.45L460.339 378.738ZM543.819 378.738H460.97L441.081 365.454H517.296L543.819 378.738ZM627.3 378.738H544.602L518.08 365.454H594.142L627.3 378.738ZM535.733 304.765H490.307L503.734 309.248H551.399L535.733 304.765ZM537.008 304.765L552.673 309.248H600.173L582.267 304.765H537.008ZM583.711 304.765L601.617 309.248H648.94L628.795 304.765H583.711ZM-208.692 304.765L-228.841 309.248H-181.517L-163.604 304.765H-208.692ZM-162.159 304.765L-180.073 309.248H-132.575L-116.901 304.765H-162.159ZM-115.626 304.765L-131.3 309.248H-83.6349L-70.1996 304.765H-115.626ZM-69.0915 304.765L-82.5267 309.248H-34.7003L-23.5038 304.765H-69.0915ZM-22.5602 304.765L-33.7567 309.248H14.236L23.1941 304.765H-22.5602ZM23.9778 304.765L15.0197 309.248H63.1688L69.8884 304.765H23.9778ZM70.5203 304.765L63.8008 309.248H112.088L116.569 304.765H70.5203ZM117.065 304.765L112.584 309.248H160.997L163.239 304.765H117.065ZM163.631 304.765L161.389 309.248H209.874L209.878 304.765H163.631ZM210.229 304.765L210.225 309.248H258.71L256.475 304.765H210.229ZM256.867 304.765L259.102 309.248H307.511L303.037 304.765H256.867ZM303.533 304.765L308.006 309.248H356.299L349.587 304.765H303.533ZM350.219 304.765L356.931 309.248H405.08L396.129 304.765H350.219ZM396.913 304.765L405.863 309.248H453.853L442.664 304.765H396.913ZM443.607 304.765L454.796 309.248H502.626L489.199 304.765H443.607ZM580.5 335.248L605.39 343.558H540.434L519.692 335.248H580.5ZM518.748 335.248L539.49 343.558H474.364L457.773 335.248H518.748ZM540.366 343.909H475.064L494.253 353.52H564.355L540.366 343.909ZM456.989 335.248L473.581 343.558H408.299L395.857 335.248H456.989ZM474.281 343.909H408.824L423.214 353.52H493.47L474.281 343.909ZM395.226 335.248L407.668 343.558H342.243L333.95 335.248H395.226ZM408.193 343.909H342.593L352.183 353.52H422.583L408.193 343.909ZM333.455 335.248L341.747 343.558H276.205L272.063 335.248H333.455ZM342.097 343.909H276.38L281.171 353.52H351.688L342.097 343.909ZM271.671 335.248L275.813 343.558H210.195L210.202 335.248H271.671ZM275.988 343.909H210.195L210.186 353.52H280.779L275.988 343.909ZM209.852 335.248L209.844 343.558H144.227L148.383 335.248H209.852ZM209.844 343.909H144.051L139.243 353.52H209.836L209.844 343.909ZM147.991 335.248L143.834 343.558H78.2893L86.5958 335.248H147.991ZM143.659 343.909H77.9388L68.3318 353.52H138.851L143.659 343.909ZM86.0999 335.248L77.7934 343.558H12.3728L24.829 335.248H86.0999ZM77.4428 343.909H11.8471L-2.55931 353.52H67.8358L77.4428 343.909ZM24.1971 335.248L11.7408 343.558H-53.5408L-36.935 335.248H24.1971ZM11.2151 343.909H-54.2417L-73.4474 353.52H-3.19128L11.2151 343.909ZM-37.7187 335.248L-54.3246 343.558H-119.449L-98.6936 335.248H-37.7187ZM-55.0255 343.909H-120.325L-144.33 353.52H-74.2312L-55.0255 343.909ZM-99.6372 335.248L-120.392 343.558H-185.353L-160.448 335.248H-99.6372ZM-121.268 343.909H-186.404L-215.209 353.52H-145.273L-121.268 343.909ZM606.44 343.909H541.309L565.298 353.52H635.227L606.44 343.909ZM-173.26 365.103H-97.3775L-74.932 353.871H-145.205L-173.26 365.103ZM-96.5938 365.103H-20.5536L-3.71702 353.871H-74.1483L-96.5938 365.103ZM-19.9216 365.103H56.2577L67.4853 353.871H-3.08503L-19.9216 365.103ZM133.057 365.103H56.7536L67.9812 353.871H138.676L133.057 365.103ZM209.826 365.103H133.449L139.068 353.871H209.835L209.826 365.103ZM286.553 365.103H210.176L210.186 353.871H280.954L286.553 365.103ZM363.246 365.103H286.945L281.346 353.871H352.038L363.246 365.103ZM363.741 365.103H439.925L423.108 353.871H352.533L363.741 365.103ZM440.556 365.103H516.596L494.17 353.871H423.739L440.556 365.103ZM517.379 365.103H593.267L565.231 353.871H494.953L517.379 365.103ZM388.36 569.332H210L209.918 664.235H435.669L388.36 569.332ZM209.649 569.332H31.2907L-16.1813 664.235H209.567L209.649 569.332ZM30.8985 569.332H-147.386L-242.248 664.235H-16.5734L30.8985 569.332ZM567.036 569.332H388.752L436.06 664.235H661.735L567.036 569.332ZM-202.897 314.96L-225.392 320.589H-172.229L-152.546 314.96H-202.897ZM-151.32 314.609H-201.495L-181.474 309.599H-133.802L-151.32 314.609ZM-151.27 314.96L-170.954 320.589H-117.625L-100.753 314.96H-151.27ZM-99.7018 314.609H-150.044L-132.526 309.599H-84.686L-99.7018 314.609ZM-99.6448 314.96L-116.517 320.589H-63.0265L-48.966 314.96H-99.6448ZM-48.09 314.609H-98.5937L-83.5779 309.599H-35.5763L-48.09 314.609ZM-48.0224 314.96L-62.0829 320.589H-8.42727L2.8223 314.96H-48.0224ZM3.52317 314.609H-47.1463L-34.6327 309.599H13.5351L3.52317 314.609ZM3.60602 314.96L-7.64354 320.589H46.1689L54.6073 314.96H3.60602ZM55.133 314.609H4.3069L14.3189 309.599H62.6431L55.133 314.609ZM55.2393 314.96L46.8008 320.589H100.752L106.379 314.96H55.2393ZM106.73 314.609H55.765L63.2751 309.599H111.738L106.73 314.609ZM106.875 314.96L101.248 320.589H155.324L158.14 314.96H106.875ZM158.315 314.609H107.226L112.234 309.599H160.821L158.315 314.609ZM158.532 314.96L155.716 320.589H209.864L209.869 314.96H158.532ZM209.869 314.609H158.707L161.214 309.599H209.874L209.869 314.609ZM210.22 314.96L210.215 320.589H264.364L261.557 314.96H210.22ZM261.382 314.609H210.22L210.224 309.599H258.885L261.382 314.609ZM261.949 314.96L264.756 320.589H318.828L313.21 314.96H261.949ZM312.86 314.609H261.774L259.277 309.599H307.861L312.86 314.609ZM313.706 314.96L319.323 320.589H373.279L364.851 314.96H313.706ZM364.326 314.609H313.356L308.356 309.599H356.824L364.326 314.609ZM365.482 314.96L373.911 320.589H427.723L416.484 314.96H365.482ZM415.783 314.609H364.957L357.456 309.599H405.78L415.783 314.609ZM417.267 314.96L428.507 320.589H482.161L468.11 314.96H417.267ZM467.234 314.609H416.566L406.563 309.599H454.728L467.234 314.609ZM469.053 314.96L483.104 320.589H536.596L519.734 314.96H469.053ZM518.683 314.609H468.177L455.672 309.599H503.677L518.683 314.609ZM520.841 314.96L537.703 320.589H591.03L571.358 314.96H520.841ZM570.132 314.609H519.791L504.784 309.599H552.624L570.132 314.609ZM572.633 314.96L592.305 320.589H645.475L622.988 314.96H572.633ZM621.587 314.609H571.407L553.899 309.599H601.574L621.587 314.609ZM-220.979 334.897H-160.505L-138.798 327.654H-195.655L-220.979 334.897ZM-98.7612 334.897H-159.397L-137.69 327.654H-80.6715L-98.7612 334.897ZM-37.0179 334.897H-97.8176L-79.7279 327.654H-22.5446L-37.0179 334.897ZM24.7228 334.897H-36.2341L-21.7609 327.654H35.5793L24.7228 334.897ZM86.4505 334.897H25.3548L36.2113 327.654H93.6902L86.4505 334.897ZM148.167 334.897H86.9464L94.1861 327.654H151.79L148.167 334.897ZM209.852 334.897H148.559L152.182 327.654H209.858L209.852 334.897ZM271.496 334.897H210.203L210.209 327.654H267.885L271.496 334.897ZM333.105 334.897H271.888L268.277 327.654H325.877L333.105 334.897ZM394.701 334.897H333.6L326.373 327.654H383.857L394.701 334.897ZM456.289 334.897H395.332L384.488 327.654H441.828L456.289 334.897ZM517.873 334.897H457.072L442.612 327.654H499.795L517.873 334.897ZM579.449 334.897H518.816L500.738 327.654H557.756L579.449 334.897ZM580.557 334.897H641.027L615.718 327.654H558.863L580.557 334.897ZM592.256 320.94L614.492 327.303H557.813L538.754 320.94H592.256ZM537.646 320.94L556.705 327.303H499.863L483.98 320.94H537.646ZM483.037 320.94L498.919 327.303H441.911L429.207 320.94H483.037ZM428.424 320.94L441.128 327.303H383.963L374.436 320.94H428.424ZM373.805 320.94L383.332 327.303H326.023L319.673 320.94H373.805ZM319.178 320.94L325.527 327.303H268.103L264.93 320.94H319.178ZM264.539 320.94L267.711 327.303H210.209L210.215 320.94H264.539ZM209.864 320.94L209.858 327.303H152.357L155.54 320.94H209.864ZM155.148 320.94L151.965 327.303H94.5367L100.897 320.94H155.148ZM100.401 320.94L94.0408 327.303H36.737L46.2751 320.94H100.401ZM45.6431 320.94L36.105 327.303H-21.06L-8.3444 320.94H45.6431ZM-9.12814 320.94L-21.8438 327.303H-78.8518L-62.9589 320.94H-9.12814ZM-63.9025 320.94L-79.7955 327.303H-136.639L-117.568 320.94H-63.9025ZM-118.676 320.94L-137.747 327.303H-194.429L-172.18 320.94H-118.676Z" fill="url(#paint1_linear_1114_5)"/>
<g style="mix-blend-mode:screen" filter="url(#filter0_f_1114_5)">
<path d="M157.796 288.547C313.418 -151.567 648.422 -360.529 732.453 -418.512L-338.774 -86.8901L-181.212 853.979C49.1999 801.009 10.7382 704.445 157.796 288.547Z" fill="url(#paint2_radial_1114_5)" fill-opacity="0.25"/>
</g>
<circle cx="229.892" cy="7.71437" r="1.50268" transform="rotate(-180 229.892 7.71437)" fill="#3EC5FF" fill-opacity="0.15"/>
<circle cx="65.6712" cy="4.09278" r="1.50268" transform="rotate(-180 65.6712 4.09278)" fill="#3EC5FF" fill-opacity="0.3"/>
<circle cx="41.3244" cy="151.395" r="2.2537" transform="rotate(-180 41.3244 151.395)" fill="#3EC5FF" fill-opacity="0.3"/>
<circle cx="140.869" cy="178.803" r="2.2537" transform="rotate(-180 140.869 178.803)" fill="#3EC5FF" fill-opacity="0.3"/>
<circle cx="178.555" cy="0.451739" r="2.2537" transform="rotate(-180 178.555 0.451739)" fill="#3EC5FF" fill-opacity="0.15"/>
<circle cx="78.383" cy="202.796" r="2.2537" transform="rotate(-180 78.383 202.796)" fill="#3EC5FF" fill-opacity="0.1"/>
<circle cx="129.063" cy="159.866" r="2.2537" transform="rotate(-180 129.063 159.866)" fill="#3EC5FF" fill-opacity="0.15"/>
<circle cx="78.1076" cy="54.9758" r="2.2537" transform="rotate(-180 78.1076 54.9758)" fill="#3EC5FF" fill-opacity="0.1"/>
<circle cx="35.2658" cy="25.1258" r="2.2537" transform="rotate(-180 35.2658 25.1258)" fill="#3EC5FF" fill-opacity="0.3"/>
<circle cx="357.358" cy="237.355" r="0.751028" transform="rotate(-180 357.358 237.355)" fill="#3EC5FF" fill-opacity="0.15"/>
<circle cx="289.077" cy="203.251" r="0.751028" transform="rotate(-180 289.077 203.251)" fill="#3EC5FF" fill-opacity="0.3"/>
<circle cx="363.036" cy="144.454" r="0.751028" transform="rotate(-180 363.036 144.454)" fill="#3EC5FF" fill-opacity="0.1"/>
<circle cx="185.833" cy="77.5173" r="0.751028" transform="rotate(-180 185.833 77.5173)" fill="#3EC5FF" fill-opacity="0.3"/>
<circle cx="350.829" cy="179.734" r="0.751028" transform="rotate(-180 350.829 179.734)" fill="#3EC5FF" fill-opacity="0.6"/>
<circle cx="135.892" cy="189.437" r="0.751028" transform="rotate(-180 135.892 189.437)" fill="#3EC5FF" fill-opacity="0.1"/>
<circle cx="135.06" cy="111.841" r="0.751028" transform="rotate(-180 135.06 111.841)" fill="#3EC5FF" fill-opacity="0.1"/>
<circle cx="369.38" cy="35.0104" r="0.751028" transform="rotate(-180 369.38 35.0104)" fill="#3EC5FF" fill-opacity="0.3"/>
<circle cx="269.849" cy="257.3" r="0.751028" transform="rotate(-180 269.849 257.3)" fill="#3EC5FF" fill-opacity="0.3"/>
<circle cx="262.903" cy="59.5369" r="0.751028" transform="rotate(-180 262.903 59.5369)" fill="#3EC5FF" fill-opacity="0.772549"/>
<circle cx="393.421" cy="89.1026" r="0.751028" transform="rotate(-180 393.421 89.1026)" fill="#3EC5FF" fill-opacity="0.15"/>
<circle cx="44.8271" cy="95.1129" r="0.751028" transform="rotate(-180 44.8271 95.1129)" fill="#3EC5FF" fill-opacity="0.1"/>
<circle cx="88.5009" cy="139.721" r="0.751028" transform="rotate(-180 88.5009 139.721)" fill="#3EC5FF" fill-opacity="0.3"/>
<circle cx="261.235" cy="147.763" r="0.751028" transform="rotate(-180 261.235 147.763)" fill="#3EC5FF" fill-opacity="0.15"/>
<circle cx="100.921" cy="4.9593" r="0.751028" transform="rotate(-180 100.921 4.9593)" fill="#3EC5FF" fill-opacity="0.3"/>
<circle cx="261.186" cy="44.812" r="0.751028" transform="rotate(-180 261.186 44.812)" fill="#3EC5FF" fill-opacity="0.1"/>
<circle cx="283.911" cy="53.8612" r="0.751028" transform="rotate(-180 283.911 53.8612)" fill="#3EC5FF" fill-opacity="0.3"/>
<circle cx="40.8193" cy="71.072" r="0.751028" transform="rotate(-180 40.8193 71.072)" fill="#3EC5FF" fill-opacity="0.15"/>
<circle cx="34.8095" cy="229.342" r="0.751028" transform="rotate(-180 34.8095 229.342)" fill="#3EC5FF" fill-opacity="0.3"/>
<circle cx="126.966" cy="57.048" r="0.751028" transform="rotate(-180 126.966 57.048)" fill="#3EC5FF" fill-opacity="0.1"/>
<path d="M326.056 1.20337L325.737 0.0194587L324.553 -0.299307L325.737 -0.618073L326.056 -1.80198L326.375 -0.618073L327.559 -0.299307L326.375 0.0194588L326.056 1.20337Z" fill="#3EC5FF" fill-opacity="0.6"/>
<path d="M212.263 65.1676L211.944 63.9837L210.76 63.6649L211.944 63.3462L212.263 62.1623L212.582 63.3462L213.766 63.6649L212.582 63.9837L212.263 65.1676Z" fill="#3EC5FF" fill-opacity="0.1"/>
<path d="M263.197 172.644L262.878 171.46L261.694 171.142L262.878 170.823L263.197 169.639L263.515 170.823L264.699 171.142L263.515 171.46L263.197 172.644Z" fill="#3EC5FF" fill-opacity="0.15"/>
<path d="M134.878 24.9236L134.559 23.7397L133.376 23.4209L134.559 23.1021L134.878 21.9182L135.197 23.1021L136.381 23.4209L135.197 23.7397L134.878 24.9236Z" fill="#3EC5FF" fill-opacity="0.3"/>
<circle cx="389.413" cy="43.0241" r="0.751028" transform="rotate(-180 389.413 43.0241)" fill="#3EC5FF" fill-opacity="0.3"/>
<path d="M404.832 176.891C387.797 113.884 334.269 -25.1639 256.438 -77.3015" stroke="url(#paint3_linear_1114_5)" stroke-opacity="0.1" stroke-width="4.00683"/>
<path d="M146.463 -83.7283C145.971 -33.6728 110.366 91.0792 -28.1198 189.643" stroke="url(#paint4_linear_1114_5)" stroke-opacity="0.1" stroke-width="4.00683"/>
</g>
<rect x="1.00171" y="467.998" width="466.997" height="976.997" rx="31.0529" transform="rotate(-90 1.00171 467.998)" stroke="url(#paint5_linear_1114_5)" stroke-width="2.00341"/>
<defs>
<filter id="filter0_f_1114_5" x="-486.975" y="-566.714" width="1367.63" height="1568.89" filterUnits="userSpaceOnUse" color-interpolation-filters="sRGB">
<feFlood flood-opacity="0" result="BackgroundImageFix"/>
<feBlend mode="normal" in="SourceGraphic" in2="BackgroundImageFix" result="shape"/>
<feGaussianBlur stdDeviation="74.1009" result="effect1_foregroundBlur_1114_5"/>
</filter>
<linearGradient id="paint0_linear_1114_5" x1="210.133" y1="323.753" x2="210.133" y2="605.232" gradientUnits="userSpaceOnUse">
<stop offset="0.0640087" stop-color="white" stop-opacity="0"/>
<stop offset="0.258526" stop-color="white" stop-opacity="0.8"/>
<stop offset="0.486011" stop-color="white" stop-opacity="0"/>
<stop offset="1" stop-color="white" stop-opacity="0"/>
</linearGradient>
<linearGradient id="paint1_linear_1114_5" x1="-9.01548" y1="384.857" x2="423.722" y2="384.857" gradientUnits="userSpaceOnUse">
<stop stop-color="#DB6736"/>
<stop offset="0.52582" stop-color="#DB6736"/>
<stop offset="1"/>
</linearGradient>
<radialGradient id="paint2_radial_1114_5" cx="0" cy="0" r="1" gradientUnits="userSpaceOnUse" gradientTransform="translate(448.64 186.475) rotate(-150.409) scale(615.014 615.032)">
<stop offset="0.409332" stop-color="#DB6736" stop-opacity="0.5"/>
<stop offset="1" stop-opacity="0"/>
<stop offset="1" stop-color="#2D2E32" stop-opacity="0"/>
</radialGradient>
<linearGradient id="paint3_linear_1114_5" x1="315.231" y1="-84.0672" x2="386.819" y2="118.204" gradientUnits="userSpaceOnUse">
<stop stop-color="white"/>
<stop offset="1" stop-color="white" stop-opacity="0"/>
</linearGradient>
<linearGradient id="paint4_linear_1114_5" x1="147.358" y1="-88.9147" x2="41.1567" y2="184.24" gradientUnits="userSpaceOnUse">
<stop stop-color="white"/>
<stop offset="1" stop-color="white" stop-opacity="0"/>
</linearGradient>
<linearGradient id="paint5_linear_1114_5" x1="469" y1="956.773" x2="123.788" y2="956.773" gradientUnits="userSpaceOnUse">
<stop stop-opacity="0.26"/>
<stop offset="1" stop-color="#0D0D0E"/>
<stop offset="1" stop-color="#DB6736"/>
</linearGradient>
<clipPath id="clip0_1114_5">
<rect y="469" width="469" height="979" rx="32.0546" transform="rotate(-90 0 469)" fill="white"/>
</clipPath>
</defs>
</svg>
