<svg width="52" height="53" viewBox="0 0 52 53" fill="none" xmlns="http://www.w3.org/2000/svg">
<ellipse cx="26" cy="26.5" rx="26" ry="26.5" fill="#FF7C1D"/>
<path d="M38.9344 16.0001H15.0656C14.524 15.9957 14.0024 16.1625 13.6151 16.4639C13.2279 16.7653 13.0067 17.1766 13 17.6077V36.6831C13.0079 37.1136 13.2296 37.524 13.6167 37.8246C14.0038 38.1252 14.5248 38.2915 15.0656 38.2871H38.9344C39.476 38.2905 39.9973 38.1231 40.3844 37.8216C40.7714 37.52 40.9927 37.1087 41 36.6777V17.6022C40.9903 17.1724 40.7679 16.763 40.3812 16.463C39.9944 16.163 39.4745 15.9966 38.9344 16.0001Z" fill="#FF7C1D"/>
<path d="M17.2328 24.4034H21.3892V35.0482H17.2328V24.4034ZM19.3122 19.1057C19.7889 19.1057 20.2549 19.2183 20.6513 19.4291C21.0476 19.64 21.3565 19.9396 21.5388 20.2902C21.7211 20.6408 21.7687 21.0266 21.6755 21.3987C21.5824 21.7709 21.3526 22.1126 21.0154 22.3808C20.6781 22.649 20.2485 22.8316 19.7809 22.9054C19.3133 22.9792 18.8287 22.9409 18.3884 22.7955C17.9481 22.65 17.5719 22.4039 17.3074 22.0882C17.0428 21.7725 16.9019 21.4015 16.9023 21.022C16.903 20.5136 17.1571 20.0262 17.609 19.6669C18.0608 19.3076 18.6735 19.1057 19.3122 19.1057ZM23.9964 24.4034H27.9807V25.8649H28.0358C28.5912 25.0282 29.9453 24.1459 31.9673 24.1459C36.1764 24.1386 36.9568 26.3435 36.9568 29.2024V35.0482H32.8004V29.8692C32.8004 28.6361 32.7728 27.0486 30.6407 27.0486C28.5086 27.0486 28.146 28.3932 28.146 29.7889V35.0482H23.9964V24.4034Z" fill="black"/>
</svg>
