<svg width="16" height="16" viewBox="0 0 16 16" fill="none" xmlns="http://www.w3.org/2000/svg">
<path d="M7.99935 0.666656C3.93268 0.666656 0.666016 3.93332 0.666016 7.99999C0.666016 12.0667 3.93268 15.3333 7.99935 15.3333C12.066 15.3333 15.3327 12.0667 15.3327 7.99999C15.3327 3.93332 12.066 0.666656 7.99935 0.666656ZM7.99935 14C4.66602 14 1.99935 11.3333 1.99935 7.99999C1.99935 4.66666 4.66602 1.99999 7.99935 1.99999C11.3327 1.99999 13.9993 4.66666 13.9993 7.99999C13.9993 11.3333 11.3327 14 7.99935 14Z" fill="#576871"/>
<path d="M8.00065 7.33334C7.60065 7.33334 7.33398 7.60001 7.33398 8.00001V10.6667C7.33398 11.0667 7.60065 11.3333 8.00065 11.3333C8.40065 11.3333 8.66732 11.0667 8.66732 10.6667V8.00001C8.66732 7.60001 8.40065 7.33334 8.00065 7.33334ZM8.60065 5.06667C8.60065 5.00001 8.53398 5.00001 8.53398 4.93334C8.53398 4.86667 8.46732 4.86667 8.46732 4.86667C8.26732 4.66667 8.00065 4.60001 7.73398 4.73334C7.66732 4.80001 7.60065 4.80001 7.53398 4.86667L7.46732 4.93334C7.46732 5.00001 7.40065 5.00001 7.40065 5.06667C7.40065 5.13334 7.40065 5.13334 7.33398 5.20001V5.33334C7.33398 5.53334 7.40065 5.66667 7.53398 5.80001C7.60065 5.86667 7.66732 5.93334 7.73398 5.93334C7.80065 6.00001 7.93398 6.00001 8.00065 6.00001H8.13398C8.20065 6.00001 8.20065 6.00001 8.26732 5.93334C8.33398 5.93334 8.33398 5.86667 8.40065 5.86667L8.46732 5.80001C8.60065 5.66667 8.66732 5.53334 8.66732 5.33334V5.20001C8.66732 5.13334 8.60065 5.13334 8.60065 5.06667Z" fill="#576871"/>
</svg>
