<svg width="14" height="14" viewBox="0 0 14 14" fill="none" xmlns="http://www.w3.org/2000/svg">
<path d="M5.81836 8.11127C6.06416 8.43987 6.37775 8.71176 6.73786 8.90851C7.09797 9.10525 7.49619 9.22226 7.90549 9.25158C8.3148 9.2809 8.72562 9.22186 9.1101 9.07846C9.49458 8.93505 9.84373 8.71064 10.1339 8.42044L11.4464 7.10794C11.9711 6.5688 12.2624 5.84474 12.2572 5.09244C12.2521 4.34014 11.951 3.62012 11.4189 3.08819C10.8869 2.55626 10.1669 2.25521 9.41457 2.25019C8.66227 2.24516 7.93825 2.53657 7.39919 3.06135" stroke="white" stroke-width="1.5" stroke-linecap="round" stroke-linejoin="round"/>
<path d="M8.18195 5.88993C7.93615 5.56134 7.62256 5.28945 7.26245 5.0927C6.90233 4.89595 6.50412 4.77895 6.09481 4.74963C5.68551 4.7203 5.27468 4.77935 4.8902 4.92275C4.50572 5.06616 4.15657 5.29057 3.86645 5.58077L2.55395 6.89327C2.03324 7.43313 1.7453 8.15583 1.75207 8.90586C1.75884 9.65588 2.0598 10.3733 2.59016 10.9036C3.12053 11.434 3.83792 11.735 4.58794 11.7417C5.33796 11.7485 6.06067 11.4606 6.60053 10.9399" stroke="white" stroke-width="1.5" stroke-linecap="round" stroke-linejoin="round"/>
</svg>
