<svg width="225" height="200" viewBox="0 0 225 200" fill="none" xmlns="http://www.w3.org/2000/svg">
<g clip-path="url(#clip0_1314_50)">
<path d="M184.638 64.7577C182.248 63.938 179.838 63.1784 177.41 62.4797C177.818 60.813 178.193 59.1665 178.527 57.549C183.999 30.9867 180.421 9.58757 168.203 2.54195C156.488 -4.21243 137.329 2.83055 117.98 19.67C116.073 21.3325 114.209 23.043 112.388 24.7998C111.169 23.6317 109.929 22.4862 108.668 21.3639C88.389 3.35862 68.0627 -4.22998 55.8574 2.83581C44.153 9.61125 40.6872 29.7279 45.6136 54.9016C46.1037 57.3948 46.6571 59.8751 47.2732 62.3402C44.396 63.1577 41.6197 64.0279 38.9627 64.9542C15.1872 73.2437 0.00390625 86.234 0.00390625 99.7086C0.00390625 113.625 16.3039 127.584 41.0671 136.048C43.0747 136.731 45.099 137.365 47.1381 137.947C46.4761 140.602 45.8881 143.275 45.375 145.963C40.6785 170.7 44.346 190.341 56.0188 197.074C68.075 204.026 88.31 196.881 108.013 179.657C109.61 178.256 111.173 176.817 112.699 175.338C114.67 177.241 116.694 179.088 118.769 180.877C137.855 197.3 156.704 203.931 168.365 197.181C180.41 190.208 184.325 169.108 179.243 143.437C178.842 141.426 178.393 139.424 177.896 137.435C179.317 137.014 180.712 136.581 182.071 136.13C207.815 127.601 224.565 113.811 224.565 99.7086C224.565 86.1849 208.892 73.1069 184.638 64.7577ZM179.055 127.024C177.826 127.43 176.568 127.824 175.283 128.204C172.441 119.207 168.606 109.64 163.912 99.7551C168.391 90.106 172.078 80.6612 174.841 71.7226C177.138 72.3876 179.367 73.0884 181.516 73.8279C202.297 80.9823 214.972 91.5586 214.972 99.7086C214.972 108.389 201.283 119.659 179.055 127.024ZM169.832 145.3C172.079 156.651 172.4 166.914 170.911 174.938C169.574 182.147 166.885 186.953 163.558 188.879C156.482 192.975 141.348 187.651 125.026 173.605C123.096 171.941 121.214 170.224 119.379 168.456C125.707 161.536 132.031 153.491 138.203 144.556C149.059 143.593 159.315 142.017 168.616 139.867C169.075 141.717 169.481 143.527 169.832 145.3ZM76.5618 188.171C69.6478 190.612 64.1407 190.682 60.8118 188.763C53.7285 184.678 50.7837 168.907 54.8004 147.752C55.2779 145.253 55.8246 142.767 56.4399 140.297C65.6381 142.332 75.8197 143.795 86.7013 144.678C92.9153 153.421 99.4214 161.457 105.978 168.494C104.585 169.842 103.158 171.156 101.7 172.434C92.9872 180.05 84.2565 185.453 76.5618 188.171ZM44.1706 126.971C33.2206 123.228 24.1776 118.364 17.9793 113.056C12.4092 108.287 9.59777 103.551 9.59777 99.7086C9.59777 91.5314 21.7881 81.1016 42.1206 74.013C44.5881 73.1533 47.1706 72.3419 49.8504 71.5805C52.6609 80.7209 56.3469 90.2779 60.7951 99.9419C56.289 109.749 52.5504 119.459 49.7127 128.707C47.8514 128.174 46.0035 127.595 44.1706 126.971ZM55.0285 53.0586C50.8083 31.4911 53.6109 15.2218 60.6644 11.1384C68.1767 6.78932 84.789 12.9902 102.299 28.5376C103.44 29.5536 104.564 30.5904 105.668 31.6472C99.1434 38.6534 92.6969 46.6297 86.5381 55.3209C75.9767 56.2998 65.8671 57.8718 56.5723 59.9779C55.9995 57.6851 55.4848 55.3774 55.0285 53.0586ZM151.894 76.9788C149.699 73.1866 147.422 69.4422 145.065 65.7481C152.23 66.6542 159.095 67.8569 165.542 69.327C163.607 75.5305 161.194 82.0156 158.355 88.6648C156.279 84.7268 154.125 80.8307 151.894 76.9788ZM112.393 38.5042C116.817 43.2981 121.249 48.6498 125.607 54.4569C116.765 54.0392 107.908 54.0375 99.0662 54.4516C103.429 48.6981 107.899 43.3534 112.393 38.5042ZM72.6372 77.0437C70.434 80.8646 68.3202 84.7364 66.2978 88.656C63.5048 82.0305 61.1144 75.5156 59.1627 69.2244C65.5697 67.7911 72.4022 66.6191 79.5215 65.7297C77.1386 69.4464 74.8432 73.2194 72.6372 77.0437ZM79.7258 134.369C72.3706 133.548 65.4355 132.437 59.0302 131.042C61.0127 124.638 63.4557 117.985 66.3092 111.217C68.3397 115.14 70.4622 119.014 72.675 122.837C74.9504 126.767 77.3065 130.616 79.7258 134.369ZM112.657 161.588C108.11 156.683 103.575 151.256 99.146 145.419C103.446 145.588 107.829 145.674 112.285 145.674C116.862 145.674 121.386 145.571 125.84 145.373C121.467 151.315 117.052 156.75 112.657 161.588ZM158.445 110.872C161.447 117.714 163.977 124.332 165.985 130.626C159.475 132.112 152.445 133.309 145.038 134.197C147.412 130.435 149.71 126.625 151.932 122.771C154.191 118.853 156.363 114.886 158.445 110.872ZM143.622 117.978C140.221 123.887 136.628 129.684 132.85 135.359C126.005 135.845 119.146 136.085 112.285 136.081C105.296 136.081 98.4986 135.864 91.953 135.439C88.0759 129.777 84.4145 123.97 80.9767 118.031C77.5546 112.123 74.3594 106.087 71.396 99.9367C74.3519 93.7847 77.5384 87.7462 80.9486 81.8341L80.9478 81.8349C84.3563 75.9209 87.9885 70.1387 91.8364 64.5007C98.5144 63.9955 105.363 63.7323 112.284 63.7323C119.236 63.7323 126.094 63.9981 132.771 64.5069C136.58 70.1364 140.189 75.8988 143.591 81.7832C147.012 87.6826 150.24 93.6916 153.271 99.8007C150.272 105.972 147.053 112.035 143.622 117.978ZM163.412 10.8516C170.931 15.1884 173.856 32.677 169.131 55.6112C168.828 57.0756 168.492 58.5639 168.122 60.0762C158.805 57.9253 148.688 56.3262 138.096 55.3323C131.926 46.5455 125.532 38.5569 119.114 31.6411C120.796 30.0196 122.518 28.4402 124.278 26.9042C140.857 12.477 156.352 6.78055 163.412 10.8516ZM112.285 79.656C123.359 79.656 132.337 88.634 132.337 99.7086C132.337 110.783 123.359 119.761 112.285 119.761C101.21 119.761 92.232 110.783 92.232 99.7086C92.232 88.634 101.21 79.656 112.285 79.656Z" fill="#00D8FF"/>
</g>
<defs>
<clipPath id="clip0_1314_50">
<rect width="224.57" height="200" fill="white"/>
</clipPath>
</defs>
</svg>
