<svg width="200" height="200" viewBox="0 0 200 200" fill="none" xmlns="http://www.w3.org/2000/svg">
<path d="M12.5 12.5H187.5V187.5H12.5V12.5Z" fill="#F5DE19"/>
<path d="M130.055 149.219C131.549 152.246 133.866 154.79 136.741 156.559C139.615 158.328 142.93 159.25 146.305 159.219C153.118 159.219 157.474 155.812 157.474 151.094C157.474 145.469 152.999 143.456 145.499 140.175L141.387 138.412C129.512 133.356 121.637 127.025 121.637 113.637C121.637 101.306 131.012 91.9125 145.718 91.9125C150.479 91.5695 155.235 92.6353 159.394 94.9771C163.552 97.3188 166.93 100.833 169.105 105.081L156.249 113.3C155.411 111.194 153.953 109.392 152.068 108.133C150.183 106.874 147.96 106.217 145.693 106.25C144.704 106.151 143.705 106.259 142.76 106.567C141.815 106.876 140.945 107.377 140.205 108.041C139.465 108.704 138.871 109.514 138.461 110.42C138.051 111.325 137.834 112.306 137.824 113.3C137.824 118.231 140.88 120.231 147.937 123.3L152.049 125.062C166.024 131.056 173.924 137.162 173.924 150.894C173.924 165.7 162.293 173.812 146.674 173.812C140.589 174.196 134.523 172.813 129.206 169.829C123.889 166.845 119.548 162.388 116.705 156.994L130.055 149.219ZM71.9617 150.644C74.543 155.225 76.893 159.1 82.543 159.1C87.943 159.1 91.3555 156.987 91.3555 148.769V92.85H107.799V148.987C107.799 166.012 97.7992 173.762 83.243 173.762C78.0977 174.044 72.9877 172.761 68.5848 170.084C64.1818 167.407 60.6921 163.46 58.5742 158.762L71.9617 150.644Z" fill="black"/>
</svg>
