<svg width="200" height="200" viewBox="0 0 200 200" fill="none" xmlns="http://www.w3.org/2000/svg">
<path fill-rule="evenodd" clip-rule="evenodd" d="M136.344 156.467C136.608 155.959 136.861 155.511 137.077 155.047C137.212 154.75 137.422 154.691 137.717 154.698C139.487 154.748 141.258 154.803 143.03 154.82C144.534 154.836 146.042 154.808 147.548 154.791C149.245 154.77 150.942 154.681 152.637 154.73C154.895 154.795 157.095 155.237 159.137 156.242C161.577 157.444 163.422 159.273 164.68 161.684C165.471 163.213 165.964 164.878 166.134 166.591C166.403 169.103 166.227 171.558 165.43 173.961C164.442 176.939 162.567 179.219 159.962 180.927C157.958 182.241 155.759 183.017 153.403 183.461C150.909 183.931 148.408 183.78 145.906 183.787C143.162 183.798 140.42 183.739 137.677 183.708C137.197 183.703 137.128 183.612 137.255 183.155L137.372 182.733C137.639 181.892 137.783 181.855 138.636 181.714C139.241 181.62 139.82 181.4 140.334 181.069C140.622 180.878 140.741 180.381 140.853 179.998C140.95 179.664 140.955 179.297 140.958 178.944C140.997 173.592 141.037 168.242 141.059 162.894C141.065 161.541 141.032 160.188 140.958 158.837C140.905 157.892 140.4 157.245 139.275 157.022C138.4 156.848 137.519 156.714 136.639 156.559L136.344 156.467ZM161.462 169.425C161.344 168.359 161.286 167.284 161.095 166.234C160.639 163.714 159.536 161.519 157.598 159.798C154.466 157.019 150.694 156.591 146.741 156.922C145.841 156.997 145.647 157.305 145.633 158.23C145.611 159.542 145.589 160.855 145.588 162.167C145.581 166.33 145.581 170.492 145.588 174.655C145.588 175.84 145.604 177.023 145.636 178.205C145.673 179.414 146.112 180.437 147.297 180.906C149.164 181.645 151.128 181.733 153.087 181.431C156.217 180.952 158.406 179.128 159.875 176.395C161.037 174.227 161.366 171.859 161.462 169.425ZM169.07 183.598C169.033 182.95 169.298 182.414 169.627 181.922C169.716 181.789 170.022 181.795 170.233 181.753L172.023 181.398C172.656 181.264 172.989 180.839 173.078 180.219C173.137 179.809 173.194 179.395 173.198 178.981C173.241 175.705 173.272 172.428 173.291 169.152C173.306 165.87 173.294 162.589 173.294 159.308L173.28 158.681C173.216 157.627 172.706 157.08 171.659 156.925L169.389 156.58C169.109 156.542 169.008 156.408 169.109 156.159C169.284 155.736 169.452 155.297 169.698 154.916C169.791 154.775 170.102 154.72 170.311 154.725C171.395 154.741 172.48 154.822 173.564 154.82L183.003 154.764C184.822 154.762 186.578 155.08 188.209 155.95C190.005 156.906 191.009 158.386 191.297 160.402C191.597 162.519 190.955 164.303 189.408 165.72C188.772 166.305 187.948 166.686 187.211 167.161L186.97 167.311C187.655 167.562 188.306 167.78 188.941 168.039C190.797 168.8 192.273 169.989 193.055 171.887C193.672 173.386 193.672 174.948 193.306 176.502C192.737 178.933 191.136 180.55 189.053 181.773C187.098 182.922 184.983 183.591 182.73 183.703C180.652 183.808 178.564 183.769 176.481 183.792L175.275 183.798C173.268 183.752 171.26 183.702 169.253 183.648L169.07 183.598ZM177.722 174.084H177.742C177.742 175.112 177.728 176.141 177.747 177.169C177.759 177.834 177.736 178.519 177.88 179.159C178.095 180.117 178.533 180.981 179.608 181.256C181.045 181.633 182.546 181.699 184.011 181.45C185.85 181.13 187.317 180.208 188.122 178.456C188.719 177.155 188.808 175.775 188.603 174.366C188.331 172.509 187.345 171.162 185.706 170.28C184.631 169.7 183.484 169.345 182.263 169.298C180.894 169.247 179.523 169.244 178.155 169.202C177.77 169.191 177.717 169.386 177.719 169.702C177.727 171.161 177.722 172.622 177.722 174.084ZM180.636 167.092C181.384 167.055 182.231 167.044 183.073 166.959C184.686 166.798 185.822 165.987 186.414 164.445C186.716 163.662 186.703 162.856 186.711 162.042C186.734 159.922 185.497 158.184 183.483 157.466C181.928 156.911 180.325 156.902 178.712 156.945C178.059 156.962 177.767 157.248 177.758 157.906L177.661 166.483C177.656 166.823 177.803 166.97 178.134 166.981L180.636 167.092Z" fill="#94795D"/>
<path fill-rule="evenodd" clip-rule="evenodd" d="M16.475 181.95L16.361 183.425C15.2985 183.425 14.3188 183.417 13.3391 183.428C11.4938 183.447 9.64847 183.477 7.8016 183.503L7.62347 183.514C7.35941 183.483 6.87972 183.483 6.86722 183.405C6.7891 182.966 6.8141 182.505 6.83441 182.05C6.83597 181.998 7.01566 181.933 7.12035 181.908L8.55628 181.588C9.4516 181.355 9.76722 180.969 9.80941 180.044C9.85785 179.002 9.90628 177.958 9.91097 176.916C9.92503 174.35 9.90941 171.788 9.92035 169.222C9.92191 168.622 9.71409 168.175 9.15472 167.931C8.49 167.636 7.82065 167.352 7.14691 167.078C6.82816 166.95 6.4141 166.88 6.4516 166.452C6.4891 166.016 6.89066 165.902 7.26878 165.816C8.83441 165.458 10.4016 165.109 11.9625 164.728C12.4657 164.605 12.9469 164.397 13.5485 164.188C13.5797 164.513 13.6375 164.822 13.6313 165.131L13.5391 166.602C13.5375 166.767 13.6235 166.989 13.7469 167.081C13.8219 167.139 14.0735 167.034 14.1985 166.937C15.5328 165.922 16.9453 165.045 18.5563 164.534C21.0516 163.742 23.1938 164.477 24.6938 166.628C25.2219 167.386 25.2235 167.386 25.9563 166.856C27.2141 165.942 28.5297 165.136 30.0016 164.605C33.2328 163.437 36.3375 164.919 37.461 168.173C37.8703 169.355 38.0266 170.575 38.0235 171.822L37.9938 180.1C37.9922 180.783 38.2188 181.172 38.8688 181.384C39.5985 181.623 40.3547 181.788 41.1766 182.003L40.986 183.427C40.0516 183.427 39.1922 183.42 38.3328 183.428C36.2328 183.447 34.1328 183.458 32.0344 183.506C31.6688 183.516 31.5735 183.425 31.5547 183.083C31.4938 181.987 31.4844 181.989 32.5157 181.742L32.8625 181.653C33.8703 181.378 34.2063 181.069 34.2141 180.047C34.2375 177.113 34.2985 174.17 34.15 171.242C33.9953 168.205 31.5844 166.587 28.6407 167.366C27.6906 167.626 26.7959 168.057 26 168.637C25.7266 168.833 25.675 169.058 25.6969 169.4C25.7813 170.694 25.8297 171.989 25.8422 173.284C25.861 175.552 25.8328 177.819 25.8422 180.087C25.8453 181.006 26.1594 181.358 27.0672 181.57L28.4157 181.881L28.6657 181.938C28.6844 182.369 28.7016 182.8 28.6813 183.231C28.6688 183.502 28.4594 183.525 28.225 183.52C26.9141 183.488 25.6016 183.444 24.2907 183.447C22.6953 183.45 21.1016 183.495 19.5078 183.523H19.1328C19.1328 183.066 19.111 182.628 19.1485 182.192C19.1563 182.087 19.3407 181.941 19.4672 181.908L21.0391 181.575C21.7063 181.411 22.025 181.069 22.0625 180.391C22.2407 177.25 22.3688 174.108 22.0735 170.969C22.0014 170.349 21.8293 169.745 21.5641 169.18C20.7594 167.402 18.9485 166.659 16.8594 167.194C15.8672 167.447 14.9719 167.902 14.125 168.475C13.9409 168.589 13.7896 168.749 13.6861 168.94C13.5825 169.13 13.5303 169.344 13.5344 169.561C13.5365 172.694 13.5433 175.827 13.5547 178.958L13.5719 180.166C13.5907 181.008 13.9485 181.452 14.7844 181.633C15.3219 181.755 15.8657 181.837 16.475 181.95Z" fill="#50382B"/>
<path fill-rule="evenodd" clip-rule="evenodd" d="M110.939 164.508C111.181 165.686 111.176 166.745 110.311 167.549C109.451 168.347 108.364 168.078 107.303 167.9C107.401 168.459 107.511 168.934 107.564 169.416C107.95 172.992 106.411 175.647 103.094 177.164C101.84 177.736 100.511 177.949 99.1529 178.058C98.4779 178.111 97.8873 178.627 97.8232 179.181C97.7576 179.744 98.1107 180.322 98.817 180.491C99.6498 180.689 100.519 180.745 101.373 180.844C103.208 181.053 105.062 181.149 106.875 181.477C109.615 181.97 111.145 184.363 110.662 187.116C110.233 189.566 108.814 191.349 106.836 192.716C103.503 195.025 99.8467 195.7 95.9529 194.522C93.7264 193.847 92.156 192.383 91.6139 190.014C91.342 188.828 91.6311 187.755 92.5232 186.95C93.5842 185.997 94.7389 185.147 95.8498 184.247L96.2092 183.886L95.7967 183.597C94.6639 183.059 93.7576 182.324 93.406 181.045C93.2857 180.613 93.4107 180.328 93.7779 180.106C94.4029 179.73 95.0243 179.348 95.642 178.958C95.9326 178.777 96.2201 178.589 96.4904 178.38C96.8592 178.099 96.8264 177.889 96.3857 177.727C95.3607 177.349 94.4498 176.8 93.7435 175.956C92.5639 174.549 92.2295 172.872 92.3264 171.102C92.4779 168.336 93.9795 166.514 96.4201 165.342C99.3217 163.95 102.233 163.863 105.19 165.131C106.284 165.6 107.437 165.7 108.611 165.619C109.487 165.556 110.253 165.225 110.939 164.508ZM100.247 184.322C98.0685 184.303 97.3857 184.572 96.1076 185.874C94.6764 187.333 94.6842 189.356 96.1123 190.822C97.1967 191.933 98.5498 192.453 100.054 192.609C101.812 192.791 103.544 192.717 105.14 191.838C106.844 190.895 107.69 189.145 107.308 187.383C106.99 185.928 105.919 185.263 104.614 184.88C103.129 184.445 101.595 184.363 100.247 184.322ZM95.9685 170.403C96.0482 171.008 96.081 171.62 96.2154 172.213C96.5639 173.747 97.2311 175.095 98.7576 175.778C100.55 176.583 102.839 176.238 103.623 173.722C104.159 172.048 104.097 170.239 103.447 168.606C103.172 167.859 102.676 167.214 102.025 166.756C100.469 165.67 97.6607 165.527 96.517 167.927C96.1451 168.706 95.9998 169.536 95.9685 170.403Z" fill="#4F382B"/>
<path fill-rule="evenodd" clip-rule="evenodd" d="M73.983 164.122C74.0408 164.389 74.1564 164.692 74.1595 164.997C74.1642 165.577 74.1017 166.156 74.0689 166.736V167.239L74.5595 166.864C75.9033 165.758 77.347 164.816 79.0283 164.308C82.0627 163.394 85.0939 165.055 86.083 168.145C86.458 169.32 86.6064 170.528 86.6205 171.756C86.6517 174.484 86.6705 177.212 86.6986 179.941C86.708 180.92 86.8205 181.095 87.747 181.378C88.2743 181.536 88.8121 181.655 89.3564 181.736C89.6549 181.783 89.783 181.9 89.7674 182.192L89.7705 182.461C89.7595 183.591 89.6814 183.642 88.5861 183.639C85.9642 183.634 83.3439 183.65 80.722 183.672C79.9408 183.678 79.9392 183.702 79.8611 182.93L79.8455 182.486C79.8939 181.82 79.9095 181.827 80.5642 181.73C81.0049 181.664 81.4424 181.562 81.872 181.45C82.3142 181.336 82.5267 181.009 82.5861 180.572C82.6158 180.35 82.6549 180.128 82.6533 179.906C82.6158 176.925 82.6642 173.941 82.5017 170.964C82.3705 168.556 80.533 167.122 78.1158 167.286C76.9507 167.367 75.8307 167.769 74.8799 168.447C74.2345 168.898 74.1049 169.55 74.108 170.252C74.1226 173.039 74.1455 175.827 74.1767 178.616C74.183 179.227 74.2002 179.837 74.258 180.444C74.3189 181.106 74.5517 181.373 75.2017 181.517C75.8236 181.655 76.458 181.734 77.122 181.845L77.1783 182.358C77.2002 183.553 77.0752 183.642 75.9142 183.637C73.2033 183.627 70.4924 183.644 67.783 183.673C67.3564 183.68 67.1752 183.545 67.1861 183.13L67.1799 182.952C67.1095 181.875 67.1408 181.834 68.1595 181.659L68.6408 181.562C69.7439 181.314 70.0267 181.02 70.0424 179.9C70.0939 176.352 70.1127 172.805 70.1486 169.256C70.1533 168.747 69.9611 168.352 69.4861 168.141C68.8195 167.849 68.1491 167.565 67.4752 167.291C67.1033 167.137 66.6783 167.041 66.6642 166.527C66.6549 166.164 67.0424 165.844 67.572 165.736C68.6361 165.52 69.7095 165.341 70.7611 165.077C71.808 164.816 72.8361 164.466 73.983 164.122Z" fill="#4F372B"/>
<path fill-rule="evenodd" clip-rule="evenodd" d="M132.603 173.391C132.553 176.705 131.692 179.384 129.348 181.395C126.379 183.947 121.748 184.814 117.962 182.906C116.347 182.092 115.159 180.844 114.386 179.224C113.2 176.731 112.903 174.111 113.522 171.427C114.134 168.772 115.742 166.849 118.148 165.603C120.623 164.324 123.229 163.824 125.978 164.495C129.454 165.344 131.953 168.178 132.45 171.788C132.539 172.42 132.573 173.061 132.603 173.391ZM128.576 175.186L128.442 175.17C128.442 174.858 128.459 174.545 128.439 174.233C128.325 172.286 127.887 170.431 126.759 168.802C125.689 167.258 124.231 166.347 122.334 166.214C120.211 166.064 118.426 167.252 117.8 169.42C116.859 172.677 117.178 175.85 118.831 178.833C119.551 180.133 120.619 181.092 122.048 181.597C124.85 182.583 127.334 181.306 128.064 178.438C128.333 177.378 128.411 176.27 128.576 175.186Z" fill="#4F382B"/>
<path fill-rule="evenodd" clip-rule="evenodd" d="M63.7784 173.647C63.7205 176.025 63.1596 178.224 61.6909 180.134C60.1174 182.181 57.9549 183.275 55.4955 183.736C52.5877 184.28 49.8565 183.786 47.5205 181.834C46.4112 180.906 45.6534 179.717 45.1534 178.364C44.333 176.145 44.1284 173.872 44.633 171.555C45.1721 169.075 46.5721 167.18 48.7424 165.908C51.2518 164.441 53.9596 163.786 56.8518 164.445C60.5705 165.295 62.7174 167.719 63.5112 171.388C63.6705 172.128 63.6924 172.894 63.7784 173.647ZM59.7065 175.216L59.5987 175.2V174.753C59.5377 172.572 59.1112 170.494 57.8096 168.681C56.8455 167.336 55.5549 166.492 53.9002 166.256C51.2034 165.872 49.4409 167.472 48.8565 169.645C48.094 172.484 48.333 175.289 49.5127 177.981C50.2487 179.659 51.4112 180.967 53.1971 181.602C55.9815 182.591 58.5034 181.281 59.208 178.424C59.4674 177.378 59.5455 176.288 59.7065 175.216Z" fill="#4F372B"/>
<path fill-rule="evenodd" clip-rule="evenodd" d="M128.692 52.4126C130.609 57.9548 131.987 63.6126 132.442 69.4751C133.005 76.7501 132.748 83.9751 131.214 91.1298L131.017 91.7017C130.536 91.7032 130.045 91.6423 129.575 91.7157C125.602 92.3407 121.633 92.9876 117.662 93.6314C113.558 94.297 109.45 94.936 105.353 95.6454C103.902 95.8954 102.105 95.597 101.519 97.6032L101.237 97.6985L101.436 85.7017L101.234 56.7548L103.147 56.4267C106.273 55.9157 109.4 55.3954 112.531 54.897C116.266 54.3048 120.003 53.7267 123.741 53.1485C125.391 52.8954 127.042 52.6595 128.692 52.4126Z" fill="#439934"/>
<path fill-rule="evenodd" clip-rule="evenodd" d="M97.2874 132.673C95.2702 130.939 93.1827 129.281 91.2499 127.456C80.8468 117.644 73.2358 106.092 69.4874 92.1657C68.4546 88.3344 67.7671 84.4391 67.5452 80.4797C67.3889 77.7079 67.1655 74.9125 67.3624 72.1547C67.8827 64.8219 68.9436 57.5594 71.0936 50.4954L71.2124 50.3313C71.4218 50.6094 71.7218 50.8563 71.828 51.1704C73.927 57.3516 76.0124 63.5386 78.0842 69.7313C84.5983 89.186 91.1046 108.645 97.6296 128.097C97.7577 128.477 98.0874 128.788 98.3249 129.13L97.2874 132.673Z" fill="#45A538"/>
<path fill-rule="evenodd" clip-rule="evenodd" d="M128.689 52.4125C127.038 52.6578 125.386 52.8953 123.738 53.1484C120 53.7266 116.263 54.3047 112.528 54.8969C109.399 55.3937 106.272 55.9141 103.144 56.4266L101.231 56.7547L101.216 55.5078C101.152 54.4828 101.045 53.4578 101.031 52.4328L100.817 32.8172C100.767 28.725 100.692 24.6328 100.609 20.5422C100.567 17.9997 100.494 15.4579 100.389 12.9172C100.327 11.5531 100.106 10.1953 100.019 8.83125C99.9673 8.04688 100.036 7.25625 100.053 6.46875C101.028 8.35781 101.983 10.2609 102.984 12.1359C104.567 15.1 107.091 17.2844 109.364 19.6672C118.342 29.0906 124.716 40.0406 128.689 52.4125Z" fill="#46A037"/>
<path fill-rule="evenodd" clip-rule="evenodd" d="M101.238 97.6983L101.52 97.603C102.105 95.5968 103.902 95.8952 105.354 95.6452C109.451 94.9358 113.559 94.2968 117.663 93.6311C121.634 92.9889 125.602 92.3421 129.576 91.7155C130.046 91.6421 130.537 91.703 131.018 91.7014C130.276 94.3514 129.691 97.0593 128.749 99.6358C127.679 102.558 126.385 105.411 125.012 108.208C122.954 112.379 120.409 116.29 117.429 119.861C115.138 122.614 112.585 125.162 110.027 127.676C108.612 129.066 106.946 130.198 105.393 131.448L104.99 131.173L103.541 129.936L102.043 126.648C101.02 122.815 100.461 118.872 100.379 114.905L100.407 114.236L100.612 111.339C100.679 110.35 100.77 109.362 100.812 108.373C100.962 104.817 101.096 101.258 101.238 97.6983Z" fill="#409433"/>
<path fill-rule="evenodd" clip-rule="evenodd" d="M101.238 97.6983C101.098 101.258 100.963 104.819 100.812 108.378C100.77 109.369 100.68 110.356 100.612 111.344L99.6992 111.689C97.6711 105.719 95.6414 99.8108 93.657 93.889C90.3742 84.0905 87.132 74.278 83.8539 64.4765C81.2068 56.5661 78.5411 48.6619 75.857 40.764C75.7305 40.3952 75.3711 40.1046 75.1211 39.778L80.9648 29.0327C81.1664 29.3812 81.4305 29.7077 81.557 30.0827C84.2602 38.0827 86.9586 46.0843 89.6336 54.0937C93.1148 64.5155 96.5727 74.9421 100.051 85.3655C100.19 85.7812 100.418 86.1655 100.637 86.6327L101.437 85.7015L101.238 97.6983Z" fill="#4FAA41"/>
<path fill-rule="evenodd" clip-rule="evenodd" d="M75.1172 39.7781C75.3687 40.1046 75.7281 40.3953 75.8531 40.764C78.5375 48.6619 81.2031 56.566 83.85 64.4765C87.1281 74.2781 90.3703 84.0906 93.6531 93.889C95.6375 99.8109 97.6672 105.717 99.6953 111.689L100.608 111.344L100.403 114.241L100.217 114.908C99.9 118.078 99.6328 121.255 99.2453 124.419C99.0516 126.005 98.6375 127.561 98.3234 129.13C98.0875 128.787 97.7563 128.477 97.6281 128.097C91.1016 108.645 84.5969 89.1859 78.0828 69.7312C76.0103 63.5399 73.9249 57.3529 71.8266 51.1703C71.7203 50.8562 71.4203 50.6093 71.2109 50.3312L75.1172 39.7781Z" fill="#4AA73C"/>
<path fill-rule="evenodd" clip-rule="evenodd" d="M101.433 85.7016L100.633 86.6329C100.414 86.1657 100.186 85.7813 100.047 85.3657C96.5687 74.9422 93.1109 64.5157 89.6297 54.0938C86.9515 46.0854 84.2594 38.0818 81.5531 30.0829C81.4266 29.7079 81.1625 29.3813 80.9609 29.0329L88.1875 19.5266C88.4156 19.8297 88.7406 20.1 88.8578 20.4422C90.863 26.3172 92.8536 32.1969 94.8297 38.0813C96.6766 43.5782 98.4953 49.0813 100.364 54.5688C100.489 54.936 100.925 55.1954 101.216 55.5079L101.231 56.7547L101.433 85.7016Z" fill="#57AE47"/>
<path fill-rule="evenodd" clip-rule="evenodd" d="M101.216 55.5077C100.923 55.1968 100.489 54.9374 100.364 54.5687C98.4969 49.0812 96.6766 43.578 94.8297 38.0812C92.8531 32.1967 90.8625 26.317 88.8578 20.4421C88.7406 20.0999 88.4156 19.8296 88.1875 19.5265C90.5375 17.2249 92.8141 14.8405 95.2594 12.6452C97.4328 10.6952 99.1797 8.60459 99.2609 5.52178L99.4328 4.90771L100.052 6.46709C100.036 7.25459 99.9656 8.04521 100.017 8.82959C100.106 10.1937 100.327 11.5515 100.387 12.9155C100.502 15.4546 100.556 17.9983 100.608 20.5405C100.691 24.6312 100.766 28.7233 100.816 32.8155L101.03 52.4312C101.045 53.4577 101.153 54.4827 101.216 55.5077Z" fill="#60B24F"/>
<path fill-rule="evenodd" clip-rule="evenodd" d="M98.3281 129.128C98.6422 127.559 99.0563 126.003 99.25 124.417C99.6375 121.255 99.9047 118.077 100.222 114.906L100.302 114.894L100.38 114.908C100.462 118.875 101.021 122.818 102.044 126.652C101.833 126.93 101.538 127.175 101.425 127.488C100.558 129.934 99.7391 132.402 98.8672 134.847C98.7484 135.181 98.4141 135.442 98.1812 135.734L97.2891 132.672L98.3281 129.128Z" fill="#A9AA88"/>
<path fill-rule="evenodd" clip-rule="evenodd" d="M98.1797 135.736C98.4125 135.442 98.7469 135.183 98.8656 134.848C99.7375 132.403 100.556 129.936 101.423 127.489C101.534 127.177 101.831 126.931 102.042 126.653L103.541 129.941C103.245 130.359 102.836 130.739 102.672 131.206L99.8031 139.631C99.6844 139.97 99.2828 140.208 99.0109 140.494L98.1797 135.736Z" fill="#B6B598"/>
<path fill-rule="evenodd" clip-rule="evenodd" d="M99.0117 140.492C99.282 140.206 99.6852 139.969 99.8039 139.63L102.673 131.205C102.835 130.737 103.246 130.358 103.541 129.939L104.991 131.175C104.291 131.867 103.902 132.667 104.137 133.678L103.696 135.12C103.496 135.367 103.205 135.583 103.107 135.866C102.105 138.734 101.151 141.619 100.141 144.486C100.013 144.848 99.6586 145.134 99.4102 145.456L99.0117 140.492Z" fill="#C2C1A7"/>
<path fill-rule="evenodd" clip-rule="evenodd" d="M99.4095 145.455C99.6595 145.133 100.014 144.847 100.141 144.484C101.15 141.617 102.106 138.733 103.106 135.864C103.205 135.581 103.495 135.367 103.695 135.119L103.088 141.737C102.925 141.925 102.691 142.089 102.613 142.306L100.591 148.1C100.449 148.495 100.177 148.848 99.9642 149.219C99.7752 148.972 99.4377 148.733 99.422 148.476C99.3627 147.473 99.4048 146.462 99.4095 145.455Z" fill="#CECDB7"/>
<path fill-rule="evenodd" clip-rule="evenodd" d="M99.9648 149.22C100.177 148.85 100.449 148.497 100.591 148.102L102.613 142.308C102.691 142.089 102.927 141.927 103.088 141.739L103.104 146.083L101.649 149.812L99.9648 149.22Z" fill="#DBDAC7"/>
<path fill-rule="evenodd" clip-rule="evenodd" d="M101.648 149.812L103.103 146.083L103.403 150.495L101.648 149.812Z" fill="#EBE9DC"/>
<path fill-rule="evenodd" clip-rule="evenodd" d="M104.134 133.678C103.901 132.669 104.289 131.869 104.989 131.175L105.392 131.45L104.134 133.678Z" fill="#CECDB7"/>
<path fill-rule="evenodd" clip-rule="evenodd" d="M100.377 114.909L100.298 114.895L100.219 114.908L100.405 114.241L100.377 114.909Z" fill="#4FAA41"/>
</svg>
