<svg width="610" height="200" viewBox="0 0 610 200" fill="none" xmlns="http://www.w3.org/2000/svg">
<path d="M590.539 122.229L607.449 133.501C601.961 141.584 588.835 155.454 566.141 155.454C537.96 155.454 516.973 133.65 516.973 105.913C516.973 76.3976 538.182 56.3738 563.768 56.3738C589.501 56.3738 602.108 76.8416 606.188 87.8916L608.413 93.5285L542.113 120.968C547.156 130.906 555.018 135.949 566.141 135.949C577.266 135.949 584.977 130.461 590.539 122.229ZM538.554 104.357L582.827 85.9643C580.38 79.8095 573.113 75.4345 564.435 75.4345C553.386 75.4345 538.035 85.2238 538.554 104.357Z" fill="#FF302F"/>
<path d="M485.012 5.87012H506.369V150.93H485.012V5.87012Z" fill="#20B15A"/>
<path d="M451.342 60.2298H471.959V148.333C471.959 184.894 450.378 199.949 424.866 199.949C400.838 199.949 386.378 183.782 380.963 170.656L399.874 162.794C403.285 170.877 411.517 180.445 424.866 180.445C441.255 180.445 451.342 170.285 451.342 151.3V144.181H450.6C445.705 150.113 436.361 155.452 424.496 155.452C399.725 155.452 377.031 133.871 377.031 106.062C377.031 78.1024 399.725 56.3 424.496 56.3C436.287 56.3 445.705 61.5655 450.6 67.3501H451.342V60.2298ZM452.824 106.062C452.824 88.5596 441.181 75.8036 426.349 75.8036C411.368 75.8036 398.761 88.5596 398.761 106.062C398.761 123.341 411.368 135.874 426.349 135.874C441.182 135.949 452.825 123.341 452.825 106.062" fill="#3686F7"/>
<path d="M259.786 105.69C259.786 134.243 237.538 155.23 210.246 155.23C182.956 155.23 160.707 134.169 160.707 105.69C160.707 76.9905 182.956 56.0774 210.246 56.0774C237.538 56.0774 259.786 76.9905 259.786 105.69ZM238.131 105.69C238.131 87.8929 225.226 75.6548 210.246 75.6548C195.267 75.6548 182.362 87.8929 182.362 105.69C182.362 123.34 195.267 135.726 210.246 135.726C225.227 135.726 238.131 123.34 238.131 105.69Z" fill="#FF302F"/>
<path d="M367.985 105.913C367.985 134.465 345.736 155.452 318.446 155.452C291.154 155.452 268.906 134.464 268.906 105.913C268.906 77.2131 291.154 56.3738 318.446 56.3738C345.736 56.3738 367.985 77.1393 367.985 105.913ZM346.255 105.913C346.255 88.1154 333.351 75.8773 318.371 75.8773C303.39 75.8773 290.486 88.1154 290.486 105.913C290.486 123.563 303.391 135.949 318.371 135.949C333.425 135.949 346.255 123.489 346.255 105.913Z" fill="#FFBA40"/>
<path d="M79.2787 133.724C48.2049 133.724 23.8811 108.657 23.8811 77.5833C23.8811 46.5107 48.2049 21.444 79.2787 21.444C96.0394 21.444 108.275 28.044 117.323 36.4988L132.23 21.5928C119.623 9.50475 102.788 0.307129 79.2787 0.307129C36.7109 0.308319 0.890625 35.0166 0.890625 77.5833C0.890625 120.15 36.7109 154.86 79.2787 154.86C102.269 154.86 119.623 147.295 133.194 133.205C147.136 119.262 151.437 99.6833 151.437 83.8131C151.437 78.844 150.844 73.7274 150.176 69.9452H79.2787V90.5619H129.782C128.299 103.467 124.22 112.292 118.213 118.298C110.945 125.64 99.4513 133.724 79.2787 133.724Z" fill="#3686F7"/>
</svg>
