<svg width="931" height="200" viewBox="0 0 931 200" fill="none" xmlns="http://www.w3.org/2000/svg">
<g clip-path="url(#clip0_1285_19)">
<path d="M930.908 89.9073V73.5346H910.577V48.0837L909.894 48.2928L890.797 54.1364L890.423 54.2509V73.5346H860.283V62.7928C860.283 57.7909 861.401 53.9618 863.607 51.4109C865.796 48.8873 868.926 47.6055 872.919 47.6055C875.792 47.6055 878.763 48.2818 881.756 49.6146L882.505 49.9491V32.7091L882.152 32.5818C879.361 31.5764 875.565 31.0728 870.861 31.0728C864.93 31.0728 859.543 32.3618 854.843 34.92C850.143 37.4782 846.443 41.1364 843.852 45.7855C841.27 50.4291 839.961 55.7909 839.961 61.7255V73.5364H825.805V89.9091H839.961V158.878H860.283V89.9073H890.423V133.736C890.423 151.787 898.936 160.936 915.728 160.936C918.63 160.919 921.523 160.598 924.357 159.976C927.376 159.327 929.43 158.678 930.641 157.985L930.908 157.827V141.304L930.083 141.851C928.979 142.587 927.606 143.187 925.996 143.633C924.377 144.087 923.026 144.316 921.981 144.316C918.046 144.316 915.137 143.256 913.33 141.164C911.505 139.055 910.577 135.362 910.577 130.198V89.9073H930.908ZM780.421 144.318C773.045 144.318 767.23 141.871 763.13 137.055C759.008 132.211 756.917 125.309 756.917 116.536C756.917 107.487 759.008 100.405 763.134 95.4764C767.234 90.5818 772.994 88.0964 780.256 88.0964C787.301 88.0964 792.91 90.4691 796.928 95.1546C800.966 99.8618 803.016 106.887 803.016 116.042C803.016 125.309 801.088 132.429 797.288 137.191C793.516 141.918 787.841 144.318 780.421 144.318ZM781.326 71.4782C767.254 71.4782 756.076 75.6018 748.108 83.7346C740.143 91.8691 736.105 103.124 736.105 117.193C736.105 130.555 740.046 141.302 747.821 149.133C755.596 156.964 766.177 160.933 779.266 160.933C792.908 160.933 803.863 156.753 811.83 148.507C819.794 140.271 823.83 129.122 823.83 115.38C823.83 101.811 820.043 90.9837 812.572 83.2055C805.096 75.4237 794.581 71.4782 781.326 71.4782ZM703.337 71.4782C693.765 71.4782 685.846 73.9273 679.797 78.7546C673.714 83.6109 670.626 89.9818 670.626 97.6891C670.626 101.695 671.292 105.253 672.605 108.271C673.923 111.3 675.965 113.965 678.677 116.204C681.368 118.424 685.523 120.749 691.03 123.113C695.657 125.018 699.11 126.631 701.303 127.9C703.446 129.145 704.968 130.396 705.826 131.615C706.661 132.805 707.085 134.438 707.085 136.451C707.085 142.185 702.792 144.975 693.957 144.975C690.679 144.975 686.941 144.291 682.846 142.942C678.782 141.612 674.945 139.666 671.47 137.173L670.626 136.569V156.133L670.936 156.278C673.812 157.605 677.437 158.724 681.71 159.605C685.976 160.485 689.848 160.935 693.216 160.935C703.603 160.935 711.968 158.475 718.07 153.618C724.216 148.727 727.328 142.209 727.328 134.233C727.328 128.482 725.652 123.547 722.346 119.569C719.068 115.624 713.374 112 705.432 108.798C699.105 106.258 695.05 104.151 693.379 102.533C691.766 100.969 690.948 98.7582 690.948 95.96C690.948 93.4764 691.959 91.4891 694.034 89.8782C696.125 88.26 699.034 87.4364 702.681 87.4364C706.068 87.4364 709.532 87.9709 712.977 89.0182C716.421 90.0673 719.443 91.4728 721.968 93.1891L722.797 93.7564V75.1964L722.479 75.06C720.152 74.06 717.079 73.2055 713.352 72.5146C709.636 71.8273 706.266 71.4782 703.337 71.4782ZM617.646 144.318C610.272 144.318 604.456 141.871 600.357 137.055C596.234 132.211 594.148 125.309 594.148 116.536C594.148 107.487 596.236 100.405 600.363 95.4764C604.459 90.5818 610.217 88.0964 617.483 88.0964C624.528 88.0964 630.137 90.4691 634.156 95.1546C638.194 99.8618 640.243 106.887 640.243 116.042C640.243 125.309 638.316 132.429 634.516 137.191C630.741 141.918 625.068 144.318 617.646 144.318ZM618.554 71.4782C604.477 71.4782 593.299 75.6018 585.336 83.7346C577.372 91.8691 573.33 103.124 573.33 117.193C573.33 130.56 577.276 141.302 585.048 149.133C592.821 156.964 603.403 160.933 616.496 160.933C630.132 160.933 641.092 156.753 649.059 148.507C657.021 140.271 661.059 129.122 661.059 115.38C661.059 101.811 657.27 90.9837 649.797 83.2055C642.319 75.4237 631.806 71.4782 618.554 71.4782ZM542.481 88.3146V73.5346H522.406V158.875H542.479V115.218C542.479 107.795 544.163 101.696 547.485 97.0909C550.763 92.54 555.134 90.2328 560.466 90.2328C562.276 90.2328 564.305 90.5309 566.503 91.1218C568.679 91.7073 570.256 92.3437 571.185 93.0128L572.028 93.6255V73.3891L571.701 73.2491C569.834 72.4546 567.188 72.0546 563.843 72.0546C558.797 72.0546 554.283 73.6746 550.417 76.8655C547.023 79.6709 544.568 83.5182 542.694 88.3146H542.481ZM486.457 71.4782C477.248 71.4782 469.032 73.4546 462.045 77.3473C455.045 81.2473 449.628 86.82 445.945 93.9018C442.277 100.969 440.416 109.224 440.416 118.429C440.416 126.491 442.221 133.891 445.788 140.411C449.359 146.944 454.414 152.055 460.81 155.6C467.199 159.14 474.583 160.935 482.756 160.935C492.296 160.935 500.441 159.027 506.974 155.267L507.236 155.115V136.724L506.394 137.34C503.388 139.517 500.079 141.24 496.572 142.453C493.023 143.691 489.79 144.316 486.954 144.316C479.076 144.316 472.754 141.853 468.163 136.995C463.563 132.127 461.23 125.296 461.23 116.698C461.23 108.047 463.663 101.04 468.456 95.8673C473.236 90.7128 479.57 88.0982 487.285 88.0982C493.883 88.0982 500.312 90.3328 506.394 94.7455L507.236 95.3564V75.9782L506.965 75.8255C504.674 74.5437 501.554 73.4855 497.677 72.6837C493.819 71.8837 490.045 71.4782 486.457 71.4782ZM426.59 73.5346H406.514V158.875H426.59V73.5346ZM416.757 37.18C413.454 37.18 410.572 38.3055 408.205 40.5328C405.826 42.7691 404.619 45.5837 404.619 48.9037C404.619 52.1728 405.812 54.9346 408.165 57.1109C410.505 59.28 413.396 60.38 416.757 60.38C420.117 60.38 423.019 59.28 425.386 57.1146C427.768 54.9346 428.977 52.1728 428.977 48.9037C428.977 45.7 427.801 42.9128 425.485 40.6237C423.17 38.3382 420.232 37.18 416.757 37.18ZM366.67 67.24V158.873H387.157V39.7928H358.803L322.761 128.242L287.786 39.7928H258.277V158.875H277.53V67.2309H278.192L315.125 158.875H329.652L366.008 67.2382L366.67 67.24Z" fill="white"/>
<path d="M94.4345 94.4345H0V0H94.4345V94.4345Z" fill="#F1511B"/>
<path d="M198.704 94.4345H104.27V0H198.704V94.4345Z" fill="#80CC28"/>
<path d="M94.4327 198.74H0V104.305H94.4327V198.74Z" fill="#00ADEF"/>
<path d="M198.704 198.74H104.27V104.305H198.704V198.74Z" fill="#FBBC09"/>
</g>
<defs>
<clipPath id="clip0_1285_19">
<rect width="930.91" height="200" fill="white"/>
</clipPath>
</defs>
</svg>
