<svg width="404" height="200" viewBox="0 0 404 200" fill="none" xmlns="http://www.w3.org/2000/svg">
<g clip-path="url(#clip0_1287_37)">
<path d="M0 199.434H203.751L403.15 0H0V199.434Z" fill="url(#paint0_linear_1287_37)"/>
<path d="M239.251 39.8866H199.434L199.567 133.532L164.897 39.8512H130.519L100.923 118.087C97.7761 98.1795 77.1943 91.3103 60.9998 86.1646C50.3061 82.7299 38.9557 77.6772 39.0706 72.0937C39.1596 67.511 45.1431 63.2607 57.0336 63.8945C65.0108 64.3244 72.0572 64.967 86.0754 71.7386L99.8588 47.7181C87.0769 41.2118 69.4029 37.104 54.9108 37.0906H54.8218C37.9234 37.0906 23.8525 42.563 15.1305 51.5827C9.05017 57.8756 5.77064 65.8796 5.63836 74.7299C5.41631 86.9087 9.8793 95.5426 19.2573 102.443C27.1817 108.249 37.3171 112.016 46.247 114.781C57.2604 118.194 66.2572 121.163 66.1462 127.483C66.058 129.787 65.1887 131.941 63.532 133.679C60.784 136.515 56.5738 137.579 50.7454 137.695C39.5013 137.933 31.1706 136.165 17.8919 128.317L5.62891 152.647C18.8935 160.191 32.9738 163.975 48.973 163.975L52.5714 163.948C66.4966 163.696 77.7974 160.358 86.7761 153.135C87.2911 152.722 87.7517 152.306 88.2305 151.884L86.7234 159.65L120.317 159.543L126.345 144.111C132.682 146.274 139.888 147.471 147.538 147.471C154.992 147.471 162.003 146.336 168.221 144.298L172.423 159.543L232.696 159.601L232.842 124.42H245.668C276.669 124.42 294.995 108.643 294.995 82.1843C294.985 52.7173 277.17 39.8827 239.251 39.8827V39.8866ZM147.538 119.935C142.906 119.935 138.563 119.128 134.827 117.71L147.396 78.0229H147.64L160.004 117.821C156.282 119.151 152.04 119.935 147.533 119.935H147.538ZM241.582 97.1331H232.834V65.1496H241.586C253.242 65.1496 262.549 69.0315 262.549 80.9355C262.539 93.2559 253.242 97.1339 241.586 97.1339" fill="white"/>
</g>
<defs>
<linearGradient id="paint0_linear_1287_37" x1="20157.5" y1="0" x2="20157.5" y2="19943.8" gradientUnits="userSpaceOnUse">
<stop stop-color="#00AEEF"/>
<stop offset="0.212" stop-color="#0097DC"/>
<stop offset="0.519" stop-color="#007CC5"/>
<stop offset="0.792" stop-color="#006CB8"/>
<stop offset="1" stop-color="#0066B3"/>
</linearGradient>
<clipPath id="clip0_1287_37">
<rect width="403.15" height="200" fill="white"/>
</clipPath>
</defs>
</svg>
