<svg width="188" height="68" viewBox="0 0 188 68" fill="none" xmlns="http://www.w3.org/2000/svg">
<path d="M49.7748 29.8441V26.5987H62.6697V29.8441H58.2072V41.4351H54.2373V29.8441H49.7748ZM67.9616 41.6379C66.7736 41.6379 65.7497 41.4109 64.8901 40.9569C64.0352 40.4981 63.376 39.8413 62.9124 38.9865C62.4535 38.1268 62.2241 37.0981 62.2241 35.9004C62.2241 34.751 62.456 33.7464 62.9196 32.8868C63.3832 32.0271 64.0376 31.3582 64.8828 30.8801C65.728 30.402 66.7253 30.1629 67.8747 30.1629C68.7151 30.1629 69.4757 30.2933 70.1567 30.5541C70.8376 30.8149 71.4196 31.194 71.9026 31.6914C72.3855 32.1841 72.7574 32.7829 73.0182 33.488C73.279 34.1932 73.4094 34.9876 73.4094 35.8714V36.7987H63.4702V34.5964H69.7293C69.7244 34.2777 69.6423 33.9976 69.4829 33.7561C69.3284 33.5098 69.1183 33.319 68.8527 33.1838C68.5919 33.0437 68.2949 32.9737 67.9616 32.9737C67.6381 32.9737 67.341 33.0437 67.0706 33.1838C66.8001 33.319 66.5828 33.5074 66.4186 33.7488C66.2592 33.9903 66.1747 34.2728 66.1651 34.5964V36.9726C66.1651 37.3299 66.2399 37.6487 66.3896 37.9288C66.5393 38.2089 66.7543 38.4287 67.0344 38.588C67.3145 38.7474 67.6526 38.8271 68.0486 38.8271C68.3239 38.8271 68.575 38.7885 68.802 38.7112C69.0338 38.6339 69.2318 38.5228 69.396 38.378C69.5602 38.2282 69.681 38.0495 69.7582 37.8419H73.4094C73.2838 38.6146 72.9868 39.2859 72.5183 39.8558C72.0499 40.4209 71.4293 40.8603 70.6565 41.1743C69.8886 41.4834 68.9903 41.6379 67.9616 41.6379ZM80.4019 41.6379C79.1946 41.6379 78.161 41.3988 77.3014 40.9207C76.4417 40.4378 75.7825 39.7665 75.3237 38.9068C74.8649 38.0423 74.6355 37.0402 74.6355 35.9004C74.6355 34.7606 74.8649 33.7609 75.3237 32.9013C75.7825 32.0368 76.4417 31.3655 77.3014 30.8873C78.161 30.4044 79.1946 30.1629 80.4019 30.1629C81.4934 30.1629 82.4376 30.3609 83.2345 30.7569C84.0362 31.1481 84.6568 31.7035 85.0963 32.4231C85.5358 33.1379 85.7579 33.9782 85.7627 34.9441H82.0537C82.0005 34.3598 81.8315 33.9155 81.5466 33.6112C81.2664 33.3021 80.9042 33.1476 80.4599 33.1476C80.1122 33.1476 79.8079 33.249 79.5471 33.4518C79.2863 33.6498 79.0835 33.9517 78.9386 34.3574C78.7937 34.7582 78.7213 35.2629 78.7213 35.8714C78.7213 36.4799 78.7937 36.987 78.9386 37.3927C79.0835 37.7936 79.2863 38.0954 79.5471 38.2983C79.8079 38.4963 80.1122 38.5953 80.4599 38.5953C80.7545 38.5953 81.0153 38.5277 81.2423 38.3924C81.4693 38.2524 81.6528 38.0495 81.7929 37.7839C81.9377 37.5135 82.0247 37.1851 82.0537 36.7987H85.7627C85.7483 37.7791 85.5237 38.6339 85.089 39.3632C84.6544 40.0876 84.0386 40.6478 83.2417 41.0439C82.4497 41.4399 81.5031 41.6379 80.4019 41.6379ZM91.4115 35.176V41.4351H87.4126V26.5987H91.2666V32.4231H91.3825C91.6337 31.7132 92.0514 31.1602 92.6358 30.7642C93.2202 30.3633 93.9229 30.1629 94.7439 30.1629C95.5311 30.1629 96.2145 30.3416 96.794 30.699C97.3784 31.0564 97.83 31.549 98.1487 32.1768C98.4723 32.8047 98.6317 33.5243 98.6268 34.3356V41.4351H94.628V35.176C94.6328 34.6254 94.4952 34.1932 94.2151 33.8792C93.9398 33.5653 93.5462 33.4084 93.0342 33.4084C92.7107 33.4084 92.4257 33.4808 92.1794 33.6257C91.9379 33.7657 91.7496 33.9686 91.6143 34.2342C91.4839 34.495 91.4163 34.8089 91.4115 35.176ZM105.962 41.6379C104.754 41.6379 103.721 41.3988 102.861 40.9207C102.001 40.4378 101.342 39.7665 100.883 38.9068C100.425 38.0423 100.195 37.0402 100.195 35.9004C100.195 34.7606 100.425 33.7609 100.883 32.9013C101.342 32.0368 102.001 31.3655 102.861 30.8873C103.721 30.4044 104.754 30.1629 105.962 30.1629C107.053 30.1629 107.997 30.3609 108.794 30.7569C109.596 31.1481 110.217 31.7035 110.656 32.4231C111.096 33.1379 111.318 33.9782 111.323 34.9441H107.613C107.56 34.3598 107.391 33.9155 107.106 33.6112C106.826 33.3021 106.464 33.1476 106.02 33.1476C105.672 33.1476 105.368 33.249 105.107 33.4518C104.846 33.6498 104.643 33.9517 104.498 34.3574C104.353 34.7582 104.281 35.2629 104.281 35.8714C104.281 36.4799 104.353 36.987 104.498 37.3927C104.643 37.7936 104.846 38.0954 105.107 38.2983C105.368 38.4963 105.672 38.5953 106.02 38.5953C106.314 38.5953 106.575 38.5277 106.802 38.3924C107.029 38.2524 107.213 38.0495 107.353 37.7839C107.498 37.5135 107.584 37.1851 107.613 36.7987H111.323C111.308 37.7791 111.083 38.6339 110.649 39.3632C110.214 40.0876 109.598 40.6478 108.801 41.0439C108.009 41.4399 107.063 41.6379 105.962 41.6379ZM120.188 36.5669V30.3078H124.187V41.4351H120.391V39.3197H120.275C120.033 40.0297 119.611 40.5851 119.007 40.9859C118.403 41.3819 117.686 41.5799 116.855 41.5799C116.078 41.5799 115.397 41.4013 114.812 41.0439C114.233 40.6865 113.781 40.1939 113.458 39.566C113.139 38.9382 112.977 38.2186 112.972 37.4072V30.3078H116.971V36.5669C116.976 37.1174 117.116 37.5497 117.391 37.8636C117.672 38.1775 118.063 38.3345 118.565 38.3345C118.898 38.3345 119.186 38.2645 119.427 38.1244C119.673 37.9795 119.862 37.7767 119.992 37.5159C120.127 37.2503 120.193 36.9339 120.188 36.5669ZM126.22 41.4351V30.3078H130.103V32.4231H130.219C130.422 31.6407 130.743 31.0684 131.183 30.7062C131.627 30.344 132.146 30.1629 132.74 30.1629C132.914 30.1629 133.086 30.1774 133.255 30.2064C133.429 30.2305 133.595 30.2667 133.755 30.315V33.7271C133.557 33.6595 133.313 33.6088 133.023 33.575C132.733 33.5412 132.484 33.5243 132.277 33.5243C131.886 33.5243 131.533 33.6136 131.219 33.7923C130.91 33.9662 130.666 34.2125 130.487 34.5312C130.309 34.8451 130.219 35.2146 130.219 35.6396V41.4351H126.22ZM137.648 41.6089C136.938 41.6089 136.311 41.493 135.765 41.2612C135.224 41.0245 134.799 40.6672 134.49 40.189C134.181 39.7109 134.026 39.1024 134.026 38.3635C134.026 37.7549 134.13 37.2358 134.338 36.8059C134.545 36.3713 134.835 36.0163 135.207 35.741C135.579 35.4657 136.011 35.2557 136.504 35.1108C137.001 34.9659 137.537 34.8717 138.112 34.8282C138.735 34.7799 139.235 34.722 139.612 34.6544C139.993 34.5819 140.268 34.4829 140.437 34.3574C140.606 34.227 140.691 34.0555 140.691 33.843V33.814C140.691 33.5243 140.58 33.3021 140.358 33.1476C140.136 32.993 139.851 32.9157 139.503 32.9157C139.121 32.9157 138.81 33.0003 138.568 33.1693C138.332 33.3335 138.189 33.587 138.141 33.9299H134.461C134.509 33.2538 134.724 32.6308 135.106 32.0609C135.492 31.4862 136.055 31.0274 136.794 30.6845C137.532 30.3368 138.455 30.1629 139.561 30.1629C140.358 30.1629 141.073 30.2571 141.705 30.4454C142.338 30.6289 142.876 30.8873 143.321 31.2206C143.765 31.549 144.103 31.9353 144.335 32.3797C144.572 32.8191 144.69 33.2973 144.69 33.814V41.4351H140.952V39.8703H140.865C140.643 40.2856 140.372 40.6213 140.053 40.8772C139.74 41.1332 139.38 41.3191 138.974 41.4351C138.573 41.551 138.131 41.6089 137.648 41.6089ZM138.952 39.0879C139.257 39.0879 139.542 39.0251 139.807 38.8995C140.078 38.774 140.297 38.5929 140.466 38.3562C140.635 38.1196 140.72 37.8322 140.72 37.4941V36.5669C140.614 36.6103 140.5 36.6514 140.379 36.69C140.264 36.7287 140.138 36.7649 140.003 36.7987C139.872 36.8325 139.732 36.8639 139.583 36.8929C139.438 36.9218 139.286 36.9484 139.126 36.9726C138.817 37.0209 138.564 37.1005 138.366 37.2116C138.172 37.3179 138.027 37.4507 137.931 37.6101C137.839 37.7646 137.793 37.9385 137.793 38.1316C137.793 38.4407 137.902 38.6774 138.119 38.8416C138.337 39.0058 138.614 39.0879 138.952 39.0879ZM153.236 30.3078V33.2055H145.905V30.3078H153.236ZM147.325 27.6419H151.324V37.8564C151.324 38.0109 151.35 38.1413 151.404 38.2476C151.457 38.349 151.539 38.4263 151.65 38.4794C151.761 38.5277 151.903 38.5518 152.077 38.5518C152.198 38.5518 152.338 38.5373 152.497 38.5084C152.662 38.4794 152.782 38.4552 152.86 38.4359L153.439 41.2467C153.26 41.2998 153.005 41.365 152.671 41.4423C152.343 41.5196 151.952 41.5703 151.498 41.5944C150.58 41.6427 149.81 41.5486 149.187 41.3119C148.564 41.0704 148.095 40.6913 147.781 40.1745C147.467 39.6578 147.315 39.0106 147.325 38.2331V27.6419ZM160.109 41.6379C158.902 41.6379 157.868 41.3988 157.009 40.9207C156.149 40.4378 155.49 39.7665 155.031 38.9068C154.572 38.0423 154.343 37.0402 154.343 35.9004C154.343 34.7606 154.572 33.7609 155.031 32.9013C155.49 32.0368 156.149 31.3655 157.009 30.8873C157.868 30.4044 158.902 30.1629 160.109 30.1629C161.317 30.1629 162.35 30.4044 163.21 30.8873C164.07 31.3655 164.729 32.0368 165.188 32.9013C165.646 33.7609 165.876 34.7606 165.876 35.9004C165.876 37.0402 165.646 38.0423 165.188 38.9068C164.729 39.7665 164.07 40.4378 163.21 40.9207C162.35 41.3988 161.317 41.6379 160.109 41.6379ZM160.138 38.6822C160.476 38.6822 160.769 38.5687 161.015 38.3417C161.261 38.1147 161.452 37.7912 161.587 37.371C161.722 36.9508 161.79 36.451 161.79 35.8714C161.79 35.287 161.722 34.7872 161.587 34.3718C161.452 33.9517 161.261 33.6281 161.015 33.4011C160.769 33.1741 160.476 33.0606 160.138 33.0606C159.781 33.0606 159.474 33.1741 159.218 33.4011C158.962 33.6281 158.767 33.9517 158.632 34.3718C158.496 34.7872 158.429 35.287 158.429 35.8714C158.429 36.451 158.496 36.9508 158.632 37.371C158.767 37.7912 158.962 38.1147 159.218 38.3417C159.474 38.5687 159.781 38.6822 160.138 38.6822ZM167.499 41.4351V30.3078H171.382V32.4231H171.497C171.7 31.6407 172.021 31.0684 172.461 30.7062C172.905 30.344 173.424 30.1629 174.018 30.1629C174.192 30.1629 174.364 30.1774 174.533 30.2064C174.707 30.2305 174.873 30.2667 175.033 30.315V33.7271C174.835 33.6595 174.591 33.6088 174.301 33.575C174.011 33.5412 173.763 33.5243 173.555 33.5243C173.164 33.5243 172.811 33.6136 172.497 33.7923C172.188 33.9662 171.944 34.2125 171.765 34.5312C171.587 34.8451 171.497 35.2146 171.497 35.6396V41.4351H167.499ZM186.515 33.9299H182.835C182.815 33.703 182.736 33.5074 182.596 33.3432C182.456 33.1789 182.275 33.0534 182.052 32.9664C181.835 32.8747 181.594 32.8288 181.328 32.8288C180.985 32.8288 180.69 32.8916 180.444 33.0172C180.198 33.1427 180.077 33.3214 180.082 33.5532C180.077 33.7174 180.147 33.8696 180.292 34.0096C180.442 34.1497 180.729 34.2584 181.154 34.3356L183.414 34.7413C184.554 34.949 185.402 35.2991 185.957 35.7917C186.517 36.2795 186.8 36.9339 186.805 37.7549C186.8 38.547 186.563 39.2352 186.095 39.8196C185.631 40.3991 184.996 40.8483 184.189 41.167C183.388 41.4809 182.473 41.6379 181.444 41.6379C179.744 41.6379 178.413 41.2902 177.452 40.5947C176.496 39.8993 175.962 38.9816 175.851 37.8419H179.821C179.874 38.1944 180.048 38.4673 180.343 38.6605C180.642 38.8488 181.019 38.943 181.473 38.943C181.84 38.943 182.142 38.8802 182.378 38.7547C182.62 38.6291 182.743 38.4504 182.748 38.2186C182.743 38.0061 182.637 37.837 182.429 37.7115C182.226 37.5859 181.908 37.4845 181.473 37.4072L179.502 37.0595C178.367 36.8615 177.517 36.4848 176.952 35.9294C176.387 35.374 176.107 34.6592 176.112 33.7851C176.107 33.0123 176.31 32.3579 176.721 31.8218C177.136 31.2809 177.728 30.8704 178.495 30.5903C179.268 30.3054 180.183 30.1629 181.241 30.1629C182.849 30.1629 184.117 30.4961 185.044 31.1626C185.976 31.8291 186.467 32.7515 186.515 33.9299Z" fill="#0D74BD"/>
<path d="M83.1851 53.21H82.1093L84.068 47.6463H85.3122L87.2736 53.21H86.1978L84.7118 48.7873H84.6684L83.1851 53.21ZM83.2204 51.0285H86.1544V51.8381H83.2204V51.0285ZM87.963 53.21V49.0372H88.9029V49.7463H88.9518C89.0387 49.5072 89.1827 49.3207 89.3837 49.1866C89.5848 49.0508 89.8247 48.9829 90.1037 48.9829C90.3862 48.9829 90.6243 49.0517 90.8181 49.1894C91.0137 49.3252 91.1514 49.5108 91.2311 49.7463H91.2745C91.3669 49.5145 91.5226 49.3297 91.7418 49.1921C91.9627 49.0526 92.2244 48.9829 92.5269 48.9829C92.9108 48.9829 93.2241 49.1042 93.4668 49.3469C93.7095 49.5896 93.8309 49.9437 93.8309 50.4091V53.21H92.8447V50.5613C92.8447 50.3023 92.7759 50.113 92.6383 49.9935C92.5006 49.8721 92.3322 49.8115 92.133 49.8115C91.8957 49.8115 91.7101 49.8857 91.5761 50.0342C91.4439 50.1809 91.3777 50.372 91.3777 50.6074V53.21H90.4133V50.5205C90.4133 50.305 90.3481 50.1329 90.2178 50.0044C90.0892 49.8758 89.9207 49.8115 89.7125 49.8115C89.5712 49.8115 89.4426 49.8477 89.3267 49.9201C89.2108 49.9908 89.1184 50.0913 89.0496 50.2217C88.9808 50.3503 88.9464 50.5006 88.9464 50.6726V53.21H87.963ZM96.0293 53.2942C95.7649 53.2942 95.5267 53.2471 95.3148 53.1529C95.1047 53.0569 94.9381 52.9157 94.815 52.7291C94.6936 52.5426 94.6329 52.3126 94.6329 52.0391C94.6329 51.8037 94.6764 51.609 94.7633 51.455C94.8503 51.3011 94.9689 51.1779 95.1192 51.0856C95.2695 50.9932 95.4389 50.9235 95.6272 50.8764C95.8174 50.8275 96.0139 50.7922 96.2167 50.7704C96.4612 50.7451 96.6595 50.7224 96.8117 50.7025C96.9638 50.6808 97.0743 50.6482 97.1431 50.6047C97.2137 50.5594 97.249 50.4897 97.249 50.3955V50.3792C97.249 50.1746 97.1884 50.0161 97.067 49.9038C96.9457 49.7915 96.7709 49.7354 96.5427 49.7354C96.3018 49.7354 96.1108 49.7879 95.9695 49.893C95.8301 49.998 95.7359 50.1221 95.687 50.2651L94.7688 50.1347C94.8412 49.8812 94.9607 49.6693 95.1274 49.4991C95.294 49.327 95.4977 49.1984 95.7386 49.1133C95.9795 49.0264 96.2457 48.9829 96.5373 48.9829C96.7383 48.9829 96.9384 49.0064 97.1377 49.0535C97.3369 49.1006 97.5189 49.1785 97.6837 49.2872C97.8485 49.394 97.9807 49.5398 98.0803 49.7245C98.1817 49.9093 98.2325 50.1402 98.2325 50.4173V53.21H97.2871V52.6368H97.2545C97.1947 52.7527 97.1105 52.8613 97.0018 52.9627C96.895 53.0624 96.76 53.143 96.5971 53.2045C96.4359 53.2643 96.2466 53.2942 96.0293 53.2942ZM96.2846 52.5716C96.482 52.5716 96.6532 52.5326 96.7981 52.4547C96.943 52.3751 97.0544 52.27 97.1322 52.1396C97.2119 52.0092 97.2518 51.867 97.2518 51.7131V51.2214C97.221 51.2468 97.1684 51.2703 97.0942 51.292C97.0218 51.3138 96.9403 51.3328 96.8497 51.3491C96.7591 51.3654 96.6695 51.3799 96.5808 51.3925C96.492 51.4052 96.415 51.4161 96.3498 51.4251C96.2031 51.4451 96.0718 51.4777 95.9559 51.5229C95.84 51.5682 95.7486 51.6316 95.6816 51.7131C95.6145 51.7928 95.581 51.896 95.581 52.0228C95.581 52.2039 95.6471 52.3406 95.7794 52.433C95.9116 52.5254 96.08 52.5716 96.2846 52.5716ZM99.167 53.21V52.5851L101.319 49.8875V49.8522H99.2376V49.0372H102.522V49.7082L100.474 52.3597V52.395H102.593V53.21H99.167ZM105.218 53.2915C104.81 53.2915 104.457 53.2018 104.158 53.0225C103.859 52.8432 103.627 52.5924 103.463 52.27C103.3 51.9476 103.218 51.5709 103.218 51.1399C103.218 50.7089 103.3 50.3312 103.463 50.0071C103.627 49.6829 103.859 49.4311 104.158 49.2518C104.457 49.0725 104.81 48.9829 105.218 48.9829C105.625 48.9829 105.978 49.0725 106.277 49.2518C106.576 49.4311 106.807 49.6829 106.97 50.0071C107.135 50.3312 107.217 50.7089 107.217 51.1399C107.217 51.5709 107.135 51.9476 106.97 52.27C106.807 52.5924 106.576 52.8432 106.277 53.0225C105.978 53.2018 105.625 53.2915 105.218 53.2915ZM105.223 52.5036C105.444 52.5036 105.629 52.443 105.777 52.3216C105.926 52.1985 106.036 52.0337 106.109 51.8272C106.183 51.6207 106.22 51.3907 106.22 51.1372C106.22 50.8818 106.183 50.6509 106.109 50.4444C106.036 50.2362 105.926 50.0705 105.777 49.9473C105.629 49.8241 105.444 49.7626 105.223 49.7626C104.997 49.7626 104.808 49.8241 104.658 49.9473C104.509 50.0705 104.398 50.2362 104.324 50.4444C104.251 50.6509 104.215 50.8818 104.215 51.1372C104.215 51.3907 104.251 51.6207 104.324 51.8272C104.398 52.0337 104.509 52.1985 104.658 52.3216C104.808 52.443 104.997 52.5036 105.223 52.5036ZM109.035 50.765V53.21H108.052V49.0372H108.992V49.7463H109.041C109.137 49.5126 109.29 49.327 109.5 49.1894C109.712 49.0517 109.973 48.9829 110.285 48.9829C110.573 48.9829 110.824 49.0445 111.037 49.1676C111.253 49.2908 111.419 49.4692 111.537 49.7028C111.657 49.9364 111.715 50.2199 111.714 50.5531V53.21H110.73V50.7052C110.73 50.4263 110.658 50.2081 110.513 50.0505C110.37 49.893 110.172 49.8142 109.918 49.8142C109.746 49.8142 109.593 49.8522 109.459 49.9283C109.327 50.0025 109.223 50.1103 109.146 50.2516C109.072 50.3928 109.035 50.564 109.035 50.765ZM119.626 50.4281C119.626 51.0276 119.514 51.5411 119.289 51.9685C119.066 52.3941 118.762 52.7201 118.376 52.9464C117.992 53.1728 117.557 53.286 117.069 53.286C116.582 53.286 116.146 53.1728 115.76 52.9464C115.376 52.7183 115.072 52.3914 114.847 51.9657C114.625 51.5383 114.513 51.0258 114.513 50.4281C114.513 49.8287 114.625 49.3161 114.847 48.8905C115.072 48.4631 115.376 48.1362 115.76 47.9098C116.146 47.6835 116.582 47.5703 117.069 47.5703C117.557 47.5703 117.992 47.6835 118.376 47.9098C118.762 48.1362 119.066 48.4631 119.289 48.8905C119.514 49.3161 119.626 49.8287 119.626 50.4281ZM118.613 50.4281C118.613 50.0062 118.546 49.6503 118.414 49.3605C118.284 49.0689 118.103 48.8489 117.871 48.7004C117.639 48.5501 117.372 48.4749 117.069 48.4749C116.767 48.4749 116.5 48.5501 116.268 48.7004C116.036 48.8489 115.854 49.0689 115.722 49.3605C115.592 49.6503 115.526 50.0062 115.526 50.4281C115.526 50.8501 115.592 51.2069 115.722 51.4985C115.854 51.7883 116.036 52.0083 116.268 52.1586C116.5 52.3071 116.767 52.3814 117.069 52.3814C117.372 52.3814 117.639 52.3071 117.871 52.1586C118.103 52.0083 118.284 51.7883 118.414 51.4985C118.546 51.2069 118.613 50.8501 118.613 50.4281ZM122.649 49.0372V49.7979H120.182V49.0372H122.649ZM120.799 53.21V48.6433C120.799 48.3626 120.857 48.129 120.973 47.9424C121.09 47.7559 121.248 47.6164 121.445 47.5241C121.643 47.4317 121.862 47.3855 122.103 47.3855C122.273 47.3855 122.424 47.3991 122.556 47.4263C122.689 47.4534 122.786 47.4779 122.85 47.4996L122.654 48.2603C122.613 48.2476 122.56 48.2349 122.497 48.2222C122.433 48.2078 122.363 48.2005 122.285 48.2005C122.102 48.2005 121.972 48.2449 121.896 48.3336C121.822 48.4206 121.785 48.5455 121.785 48.7085V53.21H120.799ZM126.074 53.21H124.999L126.957 47.6463H128.202L130.163 53.21H129.087L127.601 48.7873H127.558L126.074 53.21ZM126.11 51.0285H129.044V51.8381H126.11V51.0285ZM134.083 50.1402L133.187 50.238C133.161 50.1474 133.117 50.0623 133.053 49.9826C132.992 49.9029 132.909 49.8386 132.803 49.7897C132.698 49.7408 132.57 49.7164 132.418 49.7164C132.213 49.7164 132.041 49.7608 131.902 49.8495C131.764 49.9382 131.696 50.0532 131.698 50.1945C131.696 50.3159 131.74 50.4146 131.831 50.4906C131.923 50.5667 132.075 50.6292 132.287 50.6781L132.999 50.8302C133.394 50.9153 133.687 51.0502 133.879 51.235C134.073 51.4197 134.171 51.6615 134.173 51.9603C134.171 52.2229 134.094 52.4547 133.942 52.6558C133.791 52.855 133.582 53.0107 133.314 53.123C133.046 53.2353 132.738 53.2915 132.391 53.2915C131.88 53.2915 131.469 53.1846 131.157 52.9709C130.846 52.7554 130.66 52.4556 130.6 52.0717L131.559 51.9793C131.603 52.1677 131.695 52.3099 131.836 52.4058C131.978 52.5018 132.161 52.5498 132.388 52.5498C132.621 52.5498 132.809 52.5018 132.95 52.4058C133.093 52.3099 133.165 52.1912 133.165 52.05C133.165 51.9304 133.119 51.8317 133.026 51.7539C132.936 51.676 132.794 51.6162 132.602 51.5746L131.891 51.4251C131.49 51.3418 131.194 51.2015 131.002 51.0041C130.81 50.8048 130.715 50.5531 130.717 50.2488C130.715 49.9917 130.785 49.7689 130.926 49.5806C131.069 49.3904 131.268 49.2437 131.521 49.1405C131.777 49.0354 132.071 48.9829 132.404 48.9829C132.893 48.9829 133.278 49.087 133.559 49.2953C133.841 49.5036 134.016 49.7852 134.083 50.1402ZM138.282 50.1402L137.385 50.238C137.36 50.1474 137.315 50.0623 137.252 49.9826C137.19 49.9029 137.107 49.8386 137.002 49.7897C136.897 49.7408 136.768 49.7164 136.616 49.7164C136.412 49.7164 136.24 49.7608 136.1 49.8495C135.962 49.9382 135.895 50.0532 135.896 50.1945C135.895 50.3159 135.939 50.4146 136.029 50.4906C136.122 50.5667 136.274 50.6292 136.486 50.6781L137.198 50.8302C137.592 50.9153 137.886 51.0502 138.078 51.235C138.272 51.4197 138.369 51.6615 138.371 51.9603C138.369 52.2229 138.292 52.4547 138.14 52.6558C137.99 52.855 137.781 53.0107 137.513 53.123C137.245 53.2353 136.937 53.2915 136.589 53.2915C136.078 53.2915 135.667 53.1846 135.356 52.9709C135.044 52.7554 134.859 52.4556 134.799 52.0717L135.758 51.9793C135.801 52.1677 135.894 52.3099 136.035 52.4058C136.176 52.5018 136.36 52.5498 136.586 52.5498C136.82 52.5498 137.007 52.5018 137.149 52.4058C137.292 52.3099 137.363 52.1912 137.363 52.05C137.363 51.9304 137.317 51.8317 137.225 51.7539C137.134 51.676 136.993 51.6162 136.801 51.5746L136.089 51.4251C135.689 51.3418 135.393 51.2015 135.201 51.0041C135.009 50.8048 134.914 50.5531 134.916 50.2488C134.914 49.9917 134.984 49.7689 135.125 49.5806C135.268 49.3904 135.466 49.2437 135.72 49.1405C135.975 49.0354 136.269 48.9829 136.603 48.9829C137.092 48.9829 137.477 49.087 137.757 49.2953C138.04 49.5036 138.215 49.7852 138.282 50.1402ZM141.029 53.2915C140.611 53.2915 140.25 53.2045 139.945 53.0307C139.643 52.855 139.41 52.6069 139.247 52.2863C139.084 51.9639 139.003 51.5845 139.003 51.148C139.003 50.7188 139.084 50.3421 139.247 50.0179C139.412 49.6919 139.642 49.4384 139.937 49.2573C140.233 49.0744 140.579 48.9829 140.978 48.9829C141.235 48.9829 141.478 49.0246 141.706 49.1079C141.936 49.1894 142.139 49.3161 142.314 49.4882C142.492 49.6602 142.631 49.8794 142.733 50.1456C142.834 50.41 142.885 50.7252 142.885 51.091V51.3925H139.465V50.7297H141.942C141.94 50.5413 141.9 50.3738 141.82 50.2271C141.74 50.0786 141.629 49.9618 141.486 49.8767C141.345 49.7915 141.18 49.749 140.991 49.749C140.79 49.749 140.614 49.7979 140.462 49.8957C140.309 49.9917 140.191 50.1184 140.106 50.276C140.022 50.4318 139.98 50.6029 139.978 50.7895V51.3681C139.978 51.6108 140.022 51.8191 140.111 51.9929C140.2 52.165 140.324 52.2972 140.483 52.3895C140.643 52.4801 140.829 52.5254 141.043 52.5254C141.186 52.5254 141.316 52.5055 141.431 52.4656C141.547 52.424 141.648 52.3633 141.733 52.2836C141.818 52.2039 141.882 52.1052 141.926 51.9875L142.844 52.0907C142.786 52.3334 142.676 52.5453 142.513 52.7264C142.351 52.9057 142.145 53.0452 141.893 53.1448C141.642 53.2426 141.354 53.2915 141.029 53.2915ZM147.015 50.1402L146.118 50.238C146.093 50.1474 146.049 50.0623 145.985 49.9826C145.924 49.9029 145.84 49.8386 145.735 49.7897C145.63 49.7408 145.502 49.7164 145.35 49.7164C145.145 49.7164 144.973 49.7608 144.833 49.8495C144.696 49.9382 144.628 50.0532 144.63 50.1945C144.628 50.3159 144.672 50.4146 144.763 50.4906C144.855 50.5667 145.007 50.6292 145.219 50.6781L145.931 50.8302C146.326 50.9153 146.619 51.0502 146.811 51.235C147.005 51.4197 147.103 51.6615 147.104 51.9603C147.103 52.2229 147.026 52.4547 146.874 52.6558C146.723 52.855 146.514 53.0107 146.246 53.123C145.978 53.2353 145.67 53.2915 145.322 53.2915C144.812 53.2915 144.4 53.1846 144.089 52.9709C143.777 52.7554 143.592 52.4556 143.532 52.0717L144.491 51.9793C144.535 52.1677 144.627 52.3099 144.768 52.4058C144.909 52.5018 145.093 52.5498 145.32 52.5498C145.553 52.5498 145.741 52.5018 145.882 52.4058C146.025 52.3099 146.097 52.1912 146.097 52.05C146.097 51.9304 146.05 51.8317 145.958 51.7539C145.867 51.676 145.726 51.6162 145.534 51.5746L144.822 51.4251C144.422 51.3418 144.126 51.2015 143.934 51.0041C143.742 50.8048 143.647 50.5531 143.649 50.2488C143.647 49.9917 143.717 49.7689 143.858 49.5806C144.001 49.3904 144.199 49.2437 144.453 49.1405C144.708 49.0354 145.003 48.9829 145.336 48.9829C145.825 48.9829 146.21 49.087 146.49 49.2953C146.773 49.5036 146.948 49.7852 147.015 50.1402ZM151.213 50.1402L150.317 50.238C150.291 50.1474 150.247 50.0623 150.184 49.9826C150.122 49.9029 150.039 49.8386 149.934 49.7897C149.829 49.7408 149.7 49.7164 149.548 49.7164C149.343 49.7164 149.171 49.7608 149.032 49.8495C148.894 49.9382 148.826 50.0532 148.828 50.1945C148.826 50.3159 148.871 50.4146 148.961 50.4906C149.054 50.5667 149.206 50.6292 149.418 50.6781L150.129 50.8302C150.524 50.9153 150.818 51.0502 151.01 51.235C151.203 51.4197 151.301 51.6615 151.303 51.9603C151.301 52.2229 151.224 52.4547 151.072 52.6558C150.922 52.855 150.713 53.0107 150.445 53.123C150.176 53.2353 149.869 53.2915 149.521 53.2915C149.01 53.2915 148.599 53.1846 148.288 52.9709C147.976 52.7554 147.79 52.4556 147.731 52.0717L148.69 51.9793C148.733 52.1677 148.825 52.3099 148.967 52.4058C149.108 52.5018 149.292 52.5498 149.518 52.5498C149.752 52.5498 149.939 52.5018 150.081 52.4058C150.224 52.3099 150.295 52.1912 150.295 52.05C150.295 51.9304 150.249 51.8317 150.157 51.7539C150.066 51.676 149.925 51.6162 149.733 51.5746L149.021 51.4251C148.621 51.3418 148.325 51.2015 148.133 51.0041C147.941 50.8048 147.846 50.5531 147.847 50.2488C147.846 49.9917 147.915 49.7689 148.057 49.5806C148.2 49.3904 148.398 49.2437 148.652 49.1405C148.907 49.0354 149.201 48.9829 149.534 48.9829C150.023 48.9829 150.408 49.087 150.689 49.2953C150.972 49.5036 151.146 49.7852 151.213 50.1402ZM152.114 53.21V49.0372H153.054V49.7463H153.103C153.19 49.5072 153.334 49.3207 153.535 49.1866C153.736 49.0508 153.976 48.9829 154.255 48.9829C154.537 48.9829 154.775 49.0517 154.969 49.1894C155.165 49.3252 155.302 49.5108 155.382 49.7463H155.425C155.518 49.5145 155.674 49.3297 155.893 49.1921C156.114 49.0526 156.375 48.9829 156.678 48.9829C157.062 48.9829 157.375 49.1042 157.618 49.3469C157.86 49.5896 157.982 49.9437 157.982 50.4091V53.21H156.996V50.5613C156.996 50.3023 156.927 50.113 156.789 49.9935C156.652 49.8721 156.483 49.8115 156.284 49.8115C156.047 49.8115 155.861 49.8857 155.727 50.0342C155.595 50.1809 155.529 50.372 155.529 50.6074V53.21H154.564V50.5205C154.564 50.305 154.499 50.1329 154.369 50.0044C154.24 49.8758 154.072 49.8115 153.863 49.8115C153.722 49.8115 153.594 49.8477 153.478 49.9201C153.362 49.9908 153.269 50.0913 153.201 50.2217C153.132 50.3503 153.097 50.5006 153.097 50.6726V53.21H152.114ZM160.827 53.2915C160.408 53.2915 160.047 53.2045 159.743 53.0307C159.44 52.855 159.208 52.6069 159.045 52.2863C158.882 51.9639 158.8 51.5845 158.8 51.148C158.8 50.7188 158.882 50.3421 159.045 50.0179C159.209 49.6919 159.439 49.4384 159.735 49.2573C160.03 49.0744 160.377 48.9829 160.775 48.9829C161.032 48.9829 161.275 49.0246 161.503 49.1079C161.733 49.1894 161.936 49.3161 162.112 49.4882C162.289 49.6602 162.429 49.8794 162.53 50.1456C162.632 50.41 162.682 50.7252 162.682 51.091V51.3925H159.262V50.7297H161.74C161.738 50.5413 161.697 50.3738 161.617 50.2271C161.538 50.0786 161.426 49.9618 161.283 49.8767C161.142 49.7915 160.977 49.749 160.789 49.749C160.588 49.749 160.411 49.7979 160.259 49.8957C160.107 49.9917 159.988 50.1184 159.903 50.276C159.82 50.4318 159.777 50.6029 159.775 50.7895V51.3681C159.775 51.6108 159.82 51.8191 159.909 51.9929C159.997 52.165 160.121 52.2972 160.281 52.3895C160.44 52.4801 160.627 52.5254 160.84 52.5254C160.983 52.5254 161.113 52.5055 161.229 52.4656C161.345 52.424 161.445 52.3633 161.53 52.2836C161.615 52.2039 161.68 52.1052 161.723 51.9875L162.641 52.0907C162.584 52.3334 162.473 52.5453 162.31 52.7264C162.149 52.9057 161.942 53.0452 161.691 53.1448C161.439 53.2426 161.151 53.2915 160.827 53.2915ZM164.498 50.765V53.21H163.514V49.0372H164.454V49.7463H164.503C164.599 49.5126 164.752 49.327 164.962 49.1894C165.174 49.0517 165.436 48.9829 165.747 48.9829C166.035 48.9829 166.286 49.0445 166.5 49.1676C166.715 49.2908 166.882 49.4692 167 49.7028C167.119 49.9364 167.178 50.2199 167.176 50.5531V53.21H166.193V50.7052C166.193 50.4263 166.12 50.2081 165.975 50.0505C165.832 49.893 165.634 49.8142 165.38 49.8142C165.208 49.8142 165.055 49.8522 164.921 49.9283C164.789 50.0025 164.685 50.1103 164.609 50.2516C164.535 50.3928 164.498 50.564 164.498 50.765ZM170.26 49.0372V49.7979H167.861V49.0372H170.26ZM168.453 48.0375H169.436V51.9549C169.436 52.0871 169.456 52.1885 169.496 52.2591C169.538 52.328 169.592 52.3751 169.659 52.4004C169.726 52.4258 169.8 52.4384 169.882 52.4384C169.944 52.4384 170 52.4339 170.05 52.4249C170.103 52.4158 170.143 52.4077 170.17 52.4004L170.336 53.1692C170.283 53.1873 170.208 53.2072 170.11 53.229C170.014 53.2507 169.896 53.2634 169.757 53.267C169.511 53.2743 169.289 53.2371 169.091 53.1556C168.894 53.0723 168.737 52.9437 168.621 52.7699C168.507 52.596 168.451 52.3787 168.453 52.1179V48.0375ZM174.32 50.1402L173.424 50.238C173.398 50.1474 173.354 50.0623 173.291 49.9826C173.229 49.9029 173.146 49.8386 173.041 49.7897C172.936 49.7408 172.807 49.7164 172.655 49.7164C172.45 49.7164 172.278 49.7608 172.139 49.8495C172.001 49.9382 171.933 50.0532 171.935 50.1945C171.933 50.3159 171.978 50.4146 172.068 50.4906C172.16 50.5667 172.313 50.6292 172.525 50.6781L173.236 50.8302C173.631 50.9153 173.924 51.0502 174.116 51.235C174.31 51.4197 174.408 51.6615 174.41 51.9603C174.408 52.2229 174.331 52.4547 174.179 52.6558C174.029 52.855 173.819 53.0107 173.551 53.123C173.283 53.2353 172.975 53.2915 172.628 53.2915C172.117 53.2915 171.706 53.1846 171.394 52.9709C171.083 52.7554 170.897 52.4556 170.838 52.0717L171.796 51.9793C171.84 52.1677 171.932 52.3099 172.074 52.4058C172.215 52.5018 172.399 52.5498 172.625 52.5498C172.859 52.5498 173.046 52.5018 173.187 52.4058C173.33 52.3099 173.402 52.1912 173.402 52.05C173.402 51.9304 173.356 51.8317 173.263 51.7539C173.173 51.676 173.032 51.6162 172.84 51.5746L172.128 51.4251C171.728 51.3418 171.432 51.2015 171.24 51.0041C171.048 50.8048 170.953 50.5531 170.954 50.2488C170.953 49.9917 171.022 49.7689 171.164 49.5806C171.307 49.3904 171.505 49.2437 171.758 49.1405C172.014 49.0354 172.308 48.9829 172.641 48.9829C173.13 48.9829 173.515 49.087 173.796 49.2953C174.078 49.5036 174.253 49.7852 174.32 50.1402Z" fill="#EEAD2E"/>
<path d="M44.725 14.4045V0.000488281C63.3987 1.90562 70.2485 7.55249 76.2345 25.3167H60.4797C56.5477 18.7617 53.2924 16.1808 44.725 14.4045Z" fill="#AEAEAE"/>
<path d="M37.8477 52.1964C47.0385 53.707 51.7641 52.7537 59.2916 46.9586H75.0463C71.6078 55.0975 68.5255 58.8902 59.2916 63.1086C57.4491 63.6022 56.3928 63.5348 54.4776 63.1086C46.2718 60.6398 42.874 57.9988 37.8477 52.1964Z" fill="#AEAEAE"/>
<g filter="url(#filter0_d_576_262)">
<path d="M41.3868 0H2V14.4041H13.816V39.7203C13.816 54 27.8252 64.4914 51.0147 64.6C38.7742 58.0315 28.6955 47.5 28.6955 37.9743V14.4041H41.3868V0Z" fill="#0D74BD"/>
</g>
<defs>
<filter id="filter0_d_576_262" x="0.3" y="0" width="52.4156" height="68.0001" filterUnits="userSpaceOnUse" color-interpolation-filters="sRGB">
<feFlood flood-opacity="0" result="BackgroundImageFix"/>
<feColorMatrix in="SourceAlpha" type="matrix" values="0 0 0 0 0 0 0 0 0 0 0 0 0 0 0 0 0 0 127 0" result="hardAlpha"/>
<feOffset dy="1.7"/>
<feGaussianBlur stdDeviation="0.85"/>
<feComposite in2="hardAlpha" operator="out"/>
<feColorMatrix type="matrix" values="0 0 0 0 0 0 0 0 0 0 0 0 0 0 0 0 0 0 0.25 0"/>
<feBlend mode="normal" in2="BackgroundImageFix" result="effect1_dropShadow_576_262"/>
<feBlend mode="normal" in="SourceGraphic" in2="effect1_dropShadow_576_262" result="shape"/>
</filter>
</defs>
</svg>
