<svg width="201" height="200" viewBox="0 0 201 200" fill="none" xmlns="http://www.w3.org/2000/svg">
<g clip-path="url(#clip0_1314_124)">
<path d="M99.5454 0.0563965C48.6968 0.0563965 51.8717 22.1074 51.8717 22.1074L51.9282 44.9529H100.452V51.8117H32.6552C32.6552 51.8117 0.117188 48.1215 0.117188 99.4274C0.117188 150.735 28.5172 148.915 28.5172 148.915H45.4662V125.107C45.4662 125.107 44.5525 96.7066 73.4129 96.7066H121.54C121.54 96.7066 148.579 97.1435 148.579 70.574V26.6431C148.579 26.6431 152.686 0.0563965 99.5454 0.0563965ZM72.7893 15.4195C73.936 15.4185 75.0716 15.6436 76.1312 16.0819C77.1907 16.5202 78.1535 17.1632 78.9643 17.974C79.7751 18.7848 80.418 19.7476 80.8564 20.8071C81.2947 21.8667 81.5198 23.0023 81.5188 24.1489C81.5198 25.2956 81.2947 26.4312 80.8564 27.4908C80.418 28.5503 79.7751 29.5131 78.9643 30.3239C78.1535 31.1347 77.1907 31.7776 76.1312 32.216C75.0716 32.6543 73.936 32.8794 72.7893 32.8784C71.6427 32.8794 70.5071 32.6543 69.4475 32.216C68.388 31.7776 67.4252 31.1347 66.6144 30.3239C65.8036 29.5131 65.1606 28.5503 64.7223 27.4908C64.284 26.4312 64.0589 25.2956 64.0599 24.1489C64.0589 23.0023 64.284 21.8667 64.7223 20.8071C65.1606 19.7476 65.8036 18.7848 66.6144 17.974C67.4252 17.1632 68.388 16.5202 69.4475 16.0819C70.5071 15.6436 71.6427 15.4185 72.7893 15.4195Z" fill="url(#paint0_linear_1314_124)"/>
<path d="M100.987 199.315C151.836 199.315 148.661 177.264 148.661 177.264L148.604 154.419H100.08V147.56H167.876C167.876 147.56 200.414 151.25 200.414 99.9428C200.414 48.6361 172.014 50.4557 172.014 50.4557H155.065V74.2636C155.065 74.2636 155.979 102.664 127.119 102.664H78.9917C78.9917 102.664 51.9525 102.227 51.9525 128.797V172.729C51.9525 172.729 47.8466 199.315 100.986 199.315M127.742 183.953C126.596 183.954 125.46 183.729 124.4 183.291C123.341 182.852 122.378 182.209 121.567 181.399C120.757 180.588 120.114 179.625 119.675 178.565C119.237 177.506 119.012 176.37 119.013 175.224C119.012 174.077 119.237 172.941 119.675 171.882C120.113 170.822 120.756 169.859 121.567 169.048C122.378 168.237 123.341 167.594 124.4 167.156C125.46 166.717 126.596 166.492 127.742 166.493C128.889 166.492 130.025 166.717 131.084 167.156C132.144 167.594 133.106 168.237 133.917 169.048C134.728 169.859 135.371 170.821 135.809 171.881C136.248 172.941 136.473 174.076 136.472 175.223C136.473 176.369 136.248 177.505 135.809 178.565C135.371 179.624 134.728 180.587 133.917 181.398C133.106 182.209 132.144 182.851 131.084 183.29C130.025 183.728 128.889 183.954 127.742 183.953Z" fill="url(#paint1_linear_1314_124)"/>
</g>
<defs>
<linearGradient id="paint0_linear_1314_124" x1="1924.99" y1="1792.26" x2="11851.2" y2="11619.5" gradientUnits="userSpaceOnUse">
<stop stop-color="#387EB8"/>
<stop offset="1" stop-color="#366994"/>
</linearGradient>
<linearGradient id="paint1_linear_1314_124" x1="2893.07" y1="3113.98" x2="13552.7" y2="13190.9" gradientUnits="userSpaceOnUse">
<stop stop-color="#FFE052"/>
<stop offset="1" stop-color="#FFC331"/>
</linearGradient>
<clipPath id="clip0_1314_124">
<rect width="200.79" height="200" fill="white"/>
</clipPath>
</defs>
</svg>
