<svg width="157" height="96" viewBox="0 0 157 96" fill="none" xmlns="http://www.w3.org/2000/svg">
<g filter="url(#filter0_d_307_1088)">
<path d="M75.0293 22.151L88.586 2.3429H124.471L130.851 10.8321L94.9656 11.5395L76.6242 38.4219L88.586 56.8151H124.471L130.054 48.326L95.7631 47.6185L87.7886 37.7145" stroke="url(#paint0_linear_307_1088)" stroke-width="2.93933"/>
</g>
<g filter="url(#filter1_d_307_1088)">
<path d="M111.491 66.704C113.48 64.2794 115.188 64.0997 118.913 65.1312C117.258 65.641 116.217 66.3865 115.882 67.4522C115.544 69.0692 115.265 69.8735 114.433 70.9202C115.249 70.8095 115.698 70.5874 116.475 69.762C116.02 71.7586 115.454 72.5453 114.054 73.5291C117.856 73.8537 120.457 73.1923 122.829 69.1098C124.323 75.7841 120.177 78.4219 113.732 78.2918C115.043 77.6779 115.607 77.2765 115.59 76.2191C112.449 77.584 110.816 77.7288 108.12 76.9317C110.343 74.9324 111.096 73.4217 111.48 69.9709C110.675 70.6214 110.152 70.8851 109.112 71.2083C110.425 69.9663 110.213 68.5604 111.491 66.704Z" fill="#F2C31E" fill-opacity="0.785749" shape-rendering="crispEdges"/>
</g>
<g filter="url(#filter2_d_307_1088)">
<path d="M87.6323 0H33.7916C31.7555 1.76343 32.2859 2.47894 33.7916 3.66348H45.5551C47.6051 5.48296 46.8755 6.33397 45.5551 7.85032H35.3751C34.2052 8.90459 33.8882 9.60471 35.3751 11.5138H39.4471C40.8494 12.6723 40.8907 13.4648 39.4471 15.1773H24.9689C23.4638 17.1439 23.7856 17.7523 24.9689 18.5791H50.9844C52.5483 20.2137 52.6358 21.1314 50.9844 22.7659H44.6502C42.926 24.0945 42.7502 24.8392 44.6502 26.1677H56.8662C58.2492 27.4071 58.111 28.2963 56.8662 30.0929H18.1823C16.3248 31.6636 16.3663 32.4635 18.1823 33.7564H46.0075C48.174 35.7081 47.7296 36.56 46.0075 37.9432H29.9458C28.5301 39.1389 28.3964 39.8712 29.9458 41.345H51.6631C52.7404 42.6088 52.7099 43.4541 51.6631 45.2702H39.4471C37.9326 46.7638 37.8084 47.4725 39.4471 48.4103H47.1386C48.5205 50.4647 48.3052 51.4399 47.5911 53.1205H41.9355C40.2892 54.8362 40.9385 55.4283 41.9355 56.5223L58.2235 55.9989L67.5245 15.6681L76.678 15.8145L87.6323 0Z" fill="url(#paint1_linear_307_1088)"/>
</g>
<g filter="url(#filter3_d_307_1088)">
<path d="M114.576 37.5059L127.656 50.9162L134.671 44.5557L128.005 37.8473L114.576 37.5059Z" fill="#53759E"/>
</g>
<g filter="url(#filter4_d_307_1088)">
<path d="M9.63876 71.3808C8.8482 71.6724 8.0544 71.8182 7.25736 71.8182C6.46032 71.8182 5.8836 71.6594 5.5272 71.3419C5.17728 71.0244 5.00232 70.5351 5.00232 69.8742C5.00232 69.5955 5.04768 69.184 5.1384 68.6397C5.3328 67.5122 5.67624 66.699 6.16872 66.2C6.6612 65.701 7.47768 65.4516 8.61816 65.4516C8.8644 65.4516 9.1722 65.4775 9.54156 65.5293C9.91092 65.5812 10.1831 65.6395 10.358 65.7043L9.82344 67.1914C9.33744 67.1007 8.89032 67.0554 8.48208 67.0554C8.08032 67.0554 7.79196 67.0878 7.617 67.1526C7.44204 67.2174 7.33836 67.347 7.30596 67.5414L6.82968 70.2921H7.44204C7.66236 70.2921 7.82436 70.2694 7.92804 70.2241C8.0382 70.1722 8.10948 70.0588 8.14188 69.8839L8.19048 69.6214H7.72392L7.98636 68.1343H10.2122L9.63876 71.3808ZM4.86624 68.5911C4.85328 68.643 4.84032 68.7142 4.82736 68.805L1.0074 68.3967H4.8954L4.86624 68.5911ZM4.75932 69.3298C4.73988 69.4789 4.73016 69.615 4.73016 69.7381L0.90048 69.3298H4.75932ZM5.12868 67.4636L5.01204 67.8621L1.24068 67.4636H5.12868ZM4.73988 70.263C4.7658 70.4444 4.78848 70.5805 4.80792 70.6712L1.02684 70.263H4.73988ZM5.5272 66.5305C5.43648 66.699 5.37168 66.8286 5.3328 66.9193L1.69752 66.5305H5.5272ZM5.03148 71.2058C5.11572 71.3548 5.21292 71.4747 5.32308 71.5654L1.95996 71.2058H5.03148ZM6.4506 65.5974C6.26268 65.714 6.11688 65.8209 6.0132 65.9181L3.03888 65.5974H6.4506ZM15.7974 66.5305C16.7434 66.5305 17.2165 66.9582 17.2165 67.8135C17.2165 68.2023 17.1387 68.6073 16.9832 69.0285C16.8277 69.4432 16.5652 69.7543 16.1959 69.9616L16.7499 71.6724H14.9323L14.5629 70.1755H14.3296L14.0672 71.6724H12.4342L13.3285 66.5305H15.7974ZM15.4377 68.212C15.4377 68.2056 15.441 68.1732 15.4474 68.1148C15.4474 68.0047 15.2757 67.9496 14.9323 67.9496H14.7184L14.5629 68.8438H14.874C15.172 68.8438 15.3405 68.7466 15.3794 68.5522L15.4377 68.212ZM12.1135 71.6432L7.99221 71.2058H12.1912L12.1135 71.6432ZM12.444 69.7672L8.32269 69.3298H12.5217L12.444 69.7672ZM12.6092 68.8341L8.48793 68.3967H12.687L12.6092 68.8341ZM12.7744 67.901L8.65317 67.4636H12.8522L12.7744 67.901ZM12.9397 66.9679L8.81841 66.5305H13.0077L12.9397 66.9679ZM12.2787 70.7004L8.15745 70.263H12.3565L12.2787 70.7004ZM22.4041 66.4333C23.1039 66.4333 23.6029 66.5694 23.901 66.8415C24.199 67.1072 24.3481 67.5252 24.3481 68.0954C24.3481 68.374 24.3124 68.711 24.2412 69.1063C24.0792 70.0394 23.794 70.7198 23.3858 71.1475C22.9776 71.5752 22.336 71.789 21.4612 71.789C20.7744 71.789 20.2851 71.6562 19.9935 71.3905C19.7019 71.1183 19.5561 70.7004 19.5561 70.1366C19.5561 69.845 19.5918 69.5016 19.663 69.1063C19.825 68.1732 20.1069 67.496 20.5087 67.0748C20.9104 66.6471 21.5422 66.4333 22.4041 66.4333ZM21.7431 70.3116C21.931 70.3116 22.0704 70.2889 22.1611 70.2435C22.2583 70.1982 22.3231 70.0977 22.3555 69.9422L22.7248 67.9107H22.1319C21.9505 67.9107 21.8079 67.9334 21.7042 67.9788C21.607 68.0241 21.5487 68.1213 21.5293 68.2704L21.1696 70.3116H21.7431ZM19.3228 69.3298C19.2969 69.5307 19.2807 69.6668 19.2742 69.7381L15.4446 69.3298H19.3228ZM19.5075 68.3967L19.42 68.805L15.6195 68.3967H19.5075ZM19.2645 70.263C19.2645 70.3666 19.2775 70.5027 19.3034 70.6712L15.4834 70.263H19.2645ZM19.8477 67.4636C19.77 67.6321 19.7149 67.7617 19.6825 67.8524L16.0083 67.4636H19.8477ZM19.4686 71.2058C19.5464 71.3613 19.6306 71.4812 19.7214 71.5654L16.3291 71.2058H19.4686ZM20.6934 66.5305C20.5378 66.6212 20.405 66.7281 20.2948 66.8512L17.3108 66.5305H20.6934ZM27.2912 71.6724V66.5305H29.0602V69.3104H29.1088L30.1975 66.5305H31.6749V69.3104H31.7138L32.608 66.5305H34.4646L32.5692 71.6724H30.4599L30.3141 69.8547H30.2461L29.4976 71.6724H27.2912ZM26.9704 66.5305V66.9679L23.1505 66.5305H26.9704ZM26.9704 67.4636V67.901L23.1505 67.4636H26.9704ZM26.9704 68.3967V68.8341L23.1505 68.3967H26.9704ZM26.9704 69.3298V69.7672L23.1505 69.3298H26.9704ZM26.9704 70.263V70.7004L23.1505 70.263H26.9704ZM26.9704 71.2058V71.6432L23.1505 71.2058H26.9704ZM42.944 71.6724H41L41.7193 67.5414H40.0961L40.3391 66.1028L42.5455 65.5974H44.0035L42.944 71.6724ZM40.6987 71.6432L36.5774 71.2058H40.7765L40.6987 71.6432ZM41.0292 69.7672L36.9079 69.3298H41.107L41.0292 69.7672ZM41.1944 68.8341L37.0732 68.3967H41.2722L41.1944 68.8341ZM39.7364 67.901L35.6152 67.4636H39.8142L39.7364 67.901ZM39.892 66.9679L35.7707 66.5305H39.96L39.892 66.9679ZM40.864 70.7004L36.7427 70.263H40.9417L40.864 70.7004ZM40.0572 65.9473L37.0246 65.5974H41.2236L40.0766 65.8598L40.0572 65.9473ZM46.725 68.8341L42.6037 68.3967H46.8027L46.725 68.8341ZM46.6278 69.7672L42.5065 69.3298H46.6666C46.6537 69.44 46.6407 69.5858 46.6278 69.7672ZM47.0263 67.4636L46.9096 67.901L42.8272 67.4636H47.0263ZM46.6278 70.263C46.6407 70.4185 46.6602 70.5643 46.6861 70.7004L42.5745 70.263H46.6278ZM47.3859 66.5305C47.2952 66.7119 47.2304 66.8545 47.1915 66.9582L43.2063 66.5305H47.3859ZM48.2316 65.5974C48.0436 65.7205 47.8881 65.8533 47.765 65.9959L44.052 65.5974H48.2316ZM47.211 71.6432L43.0897 71.2058H46.861C46.9518 71.3808 47.0684 71.5266 47.211 71.6432ZM50.0978 65.4516C50.8495 65.4516 51.3808 65.6006 51.6919 65.8987C52.0029 66.1903 52.1584 66.6471 52.1584 67.2692C52.1584 67.6126 52.1066 68.0695 52.0029 68.6397C51.9057 69.2035 51.7923 69.67 51.6627 70.0394C51.5331 70.4023 51.3549 70.7263 51.1281 71.0114C50.694 71.5492 49.9779 71.8182 48.98 71.8182C48.2283 71.8182 47.697 71.6724 47.3859 71.3808C47.0749 71.0892 46.9194 70.6323 46.9194 70.0102C46.9194 69.615 46.968 69.1484 47.0652 68.6106C47.1624 68.0662 47.2758 67.6094 47.4054 67.24C47.5414 66.8707 47.7229 66.5467 47.9497 66.268C48.3838 65.7237 49.0999 65.4516 50.0978 65.4516ZM49.0675 70.2532C49.3461 70.2532 49.547 70.2241 49.6701 70.1658C49.7932 70.101 49.8742 69.9584 49.9131 69.7381L50.3894 67.0165H49.952C49.6798 67.0165 49.4887 67.0456 49.3785 67.104C49.2748 67.1623 49.2036 67.3048 49.1647 67.5316L48.6787 70.2532H49.0675ZM54.2428 68.8341L50.1215 68.3967H54.3205L54.2428 68.8341ZM54.1456 69.7672L50.0243 69.3298H54.1845C54.1715 69.44 54.1585 69.5858 54.1456 69.7672ZM54.5441 67.4636L54.4275 67.901L50.3451 67.4636H54.5441ZM54.1456 70.263C54.1585 70.4185 54.178 70.5643 54.2039 70.7004L50.0923 70.263H54.1456ZM54.9037 66.5305C54.813 66.7119 54.7482 66.8545 54.7093 66.9582L50.7241 66.5305H54.9037ZM55.7494 65.5974C55.5615 65.7205 55.4059 65.8533 55.2828 65.9959L51.5698 65.5974H55.7494ZM54.7288 71.6432L50.6075 71.2058H54.3789C54.4696 71.3808 54.5862 71.5266 54.7288 71.6432ZM57.6156 65.4516C58.3673 65.4516 58.8987 65.6006 59.2097 65.8987C59.5207 66.1903 59.6763 66.6471 59.6763 67.2692C59.6763 67.6126 59.6244 68.0695 59.5207 68.6397C59.4235 69.2035 59.3101 69.67 59.1805 70.0394C59.0509 70.4023 58.8727 70.7263 58.6459 71.0114C58.2118 71.5492 57.4957 71.8182 56.4978 71.8182C55.7461 71.8182 55.2148 71.6724 54.9037 71.3808C54.5927 71.0892 54.4372 70.6323 54.4372 70.0102C54.4372 69.615 54.4858 69.1484 54.583 68.6106C54.6802 68.0662 54.7936 67.6094 54.9232 67.24C55.0593 66.8707 55.2407 66.5467 55.4675 66.268C55.9017 65.7237 56.6177 65.4516 57.6156 65.4516ZM56.5853 70.2532C56.8639 70.2532 57.0648 70.2241 57.1879 70.1658C57.3111 70.101 57.3921 69.9584 57.4309 69.7381L57.9072 67.0165H57.4698C57.1977 67.0165 57.0065 67.0456 56.8963 67.104C56.7927 67.1623 56.7214 67.3048 56.6825 67.5316L56.1965 70.2532H56.5853ZM61.3329 71.2058L61.0608 71.6238L57.1339 71.2058H61.3329ZM62.5674 69.3298L62.2952 69.7478L58.3683 69.3298H62.5674ZM57.756 70.263H61.955L61.6828 70.6809L57.756 70.263ZM62.1202 66.9679L57.999 66.5305H61.9842L62.1202 66.9679ZM58.5822 68.3967H62.5576L62.6937 68.8341L58.5822 68.3967ZM58.3003 67.4636H62.2758L62.4118 67.901L58.3003 67.4636ZM64.2295 66.5305L64.4822 67.6774H64.5697L65.2598 66.5305H67.126L65.425 69.0771L66.2318 71.6724H64.3267L64.0254 70.4671H63.9379L63.2186 71.6724H61.3718L63.0728 69.0771L62.2758 66.5305H64.2295Z" fill="#093B77"/>
</g>
<g filter="url(#filter5_d_307_1088)">
<path d="M152.762 49.0383L154.104 43.3994L125.448 69.2994L127.883 71.4742L152.762 49.0383Z" fill="black"/>
<path d="M152.762 49.0383L154.104 43.3994L125.448 69.2994L127.883 71.4742L152.762 49.0383Z" fill="url(#paint2_linear_307_1088)"/>
<path d="M154.818 40.4287L155.899 35.8196L150.435 36.7232L120.036 64.1182L124.207 68.0569L154.818 40.4287Z" fill="black"/>
<path d="M154.818 40.4287L155.899 35.8196L150.435 36.7232L120.036 64.1182L124.207 68.0569L154.818 40.4287Z" fill="url(#paint3_linear_307_1088)"/>
<path d="M141.7 38.2924L147.638 37.1711L118.916 63.0673L116.62 60.7778L141.7 38.2924Z" fill="black"/>
<path d="M141.7 38.2924L147.638 37.1711L118.916 63.0673L116.62 60.7778L141.7 38.2924Z" fill="url(#paint4_linear_307_1088)"/>
<path d="M117.54 53.4534L122.355 53.4334L113.065 61.734L108.459 61.5819L117.54 53.4534Z" fill="black"/>
<path d="M117.54 53.4534L122.355 53.4334L113.065 61.734L108.459 61.5819L117.54 53.4534Z" fill="url(#paint5_linear_307_1088)"/>
<path d="M135.641 70.7691L135.914 66.4192L126.624 74.7198L126.556 78.9589L135.641 70.7691Z" fill="black"/>
<path d="M135.641 70.7691L135.914 66.4192L126.624 74.7198L126.556 78.9589L135.641 70.7691Z" fill="url(#paint6_linear_307_1088)"/>
</g>
<g filter="url(#filter6_d_307_1088)">
<path d="M145.325 55.5837L138.317 61.9148L142.461 66.2317L155.846 66.7693L145.325 55.5837Z" fill="#53759E"/>
</g>
<defs>
<filter id="filter0_d_307_1088" x="73.0388" y="0.873291" width="61.4907" height="58.9667" filterUnits="userSpaceOnUse" color-interpolation-filters="sRGB">
<feFlood flood-opacity="0" result="BackgroundImageFix"/>
<feColorMatrix in="SourceAlpha" type="matrix" values="0 0 0 0 0 0 0 0 0 0 0 0 0 0 0 0 0 0 127 0" result="hardAlpha"/>
<feOffset dy="0.7776"/>
<feGaussianBlur stdDeviation="0.3888"/>
<feComposite in2="hardAlpha" operator="out"/>
<feColorMatrix type="matrix" values="0 0 0 0 0 0 0 0 0 0 0 0 0 0 0 0 0 0 0.25 0"/>
<feBlend mode="normal" in2="BackgroundImageFix" result="effect1_dropShadow_307_1088"/>
<feBlend mode="normal" in="SourceGraphic" in2="effect1_dropShadow_307_1088" result="shape"/>
</filter>
<filter id="filter1_d_307_1088" x="107.342" y="64.536" width="16.5708" height="15.3156" filterUnits="userSpaceOnUse" color-interpolation-filters="sRGB">
<feFlood flood-opacity="0" result="BackgroundImageFix"/>
<feColorMatrix in="SourceAlpha" type="matrix" values="0 0 0 0 0 0 0 0 0 0 0 0 0 0 0 0 0 0 127 0" result="hardAlpha"/>
<feOffset dy="0.7776"/>
<feGaussianBlur stdDeviation="0.3888"/>
<feComposite in2="hardAlpha" operator="out"/>
<feColorMatrix type="matrix" values="0 0 0 0 0 0 0 0 0 0 0 0 0 0 0 0 0 0 0.25 0"/>
<feBlend mode="normal" in2="BackgroundImageFix" result="effect1_dropShadow_307_1088"/>
<feBlend mode="normal" in="SourceGraphic" in2="effect1_dropShadow_307_1088" result="shape"/>
</filter>
<filter id="filter2_d_307_1088" x="16.0271" y="0" width="72.3833" height="58.0775" filterUnits="userSpaceOnUse" color-interpolation-filters="sRGB">
<feFlood flood-opacity="0" result="BackgroundImageFix"/>
<feColorMatrix in="SourceAlpha" type="matrix" values="0 0 0 0 0 0 0 0 0 0 0 0 0 0 0 0 0 0 127 0" result="hardAlpha"/>
<feOffset dy="0.7776"/>
<feGaussianBlur stdDeviation="0.3888"/>
<feComposite in2="hardAlpha" operator="out"/>
<feColorMatrix type="matrix" values="0 0 0 0 0 0 0 0 0 0 0 0 0 0 0 0 0 0 0.25 0"/>
<feBlend mode="normal" in2="BackgroundImageFix" result="effect1_dropShadow_307_1088"/>
<feBlend mode="normal" in="SourceGraphic" in2="effect1_dropShadow_307_1088" result="shape"/>
</filter>
<filter id="filter3_d_307_1088" x="113.799" y="37.5059" width="21.6489" height="14.9656" filterUnits="userSpaceOnUse" color-interpolation-filters="sRGB">
<feFlood flood-opacity="0" result="BackgroundImageFix"/>
<feColorMatrix in="SourceAlpha" type="matrix" values="0 0 0 0 0 0 0 0 0 0 0 0 0 0 0 0 0 0 127 0" result="hardAlpha"/>
<feOffset dy="0.7776"/>
<feGaussianBlur stdDeviation="0.3888"/>
<feComposite in2="hardAlpha" operator="out"/>
<feColorMatrix type="matrix" values="0 0 0 0 0 0 0 0 0 0 0 0 0 0 0 0 0 0 0.25 0"/>
<feBlend mode="normal" in2="BackgroundImageFix" result="effect1_dropShadow_307_1088"/>
<feBlend mode="normal" in="SourceGraphic" in2="effect1_dropShadow_307_1088" result="shape"/>
</filter>
<filter id="filter4_d_307_1088" x="0.122791" y="65.4515" width="67.7818" height="7.92178" filterUnits="userSpaceOnUse" color-interpolation-filters="sRGB">
<feFlood flood-opacity="0" result="BackgroundImageFix"/>
<feColorMatrix in="SourceAlpha" type="matrix" values="0 0 0 0 0 0 0 0 0 0 0 0 0 0 0 0 0 0 127 0" result="hardAlpha"/>
<feOffset dy="0.7776"/>
<feGaussianBlur stdDeviation="0.3888"/>
<feComposite in2="hardAlpha" operator="out"/>
<feColorMatrix type="matrix" values="0 0 0 0 0 0 0 0 0 0 0 0 0 0 0 0 0 0 0.25 0"/>
<feBlend mode="normal" in2="BackgroundImageFix" result="effect1_dropShadow_307_1088"/>
<feBlend mode="normal" in="SourceGraphic" in2="effect1_dropShadow_307_1088" result="shape"/>
</filter>
<filter id="filter5_d_307_1088" x="107.681" y="35.8196" width="48.9947" height="44.6946" filterUnits="userSpaceOnUse" color-interpolation-filters="sRGB">
<feFlood flood-opacity="0" result="BackgroundImageFix"/>
<feColorMatrix in="SourceAlpha" type="matrix" values="0 0 0 0 0 0 0 0 0 0 0 0 0 0 0 0 0 0 127 0" result="hardAlpha"/>
<feOffset dy="0.7776"/>
<feGaussianBlur stdDeviation="0.3888"/>
<feComposite in2="hardAlpha" operator="out"/>
<feColorMatrix type="matrix" values="0 0 0 0 0 0 0 0 0 0 0 0 0 0 0 0 0 0 0.25 0"/>
<feBlend mode="normal" in2="BackgroundImageFix" result="effect1_dropShadow_307_1088"/>
<feBlend mode="normal" in="SourceGraphic" in2="effect1_dropShadow_307_1088" result="shape"/>
</filter>
<filter id="filter6_d_307_1088" x="137.539" y="55.5837" width="19.0845" height="12.7407" filterUnits="userSpaceOnUse" color-interpolation-filters="sRGB">
<feFlood flood-opacity="0" result="BackgroundImageFix"/>
<feColorMatrix in="SourceAlpha" type="matrix" values="0 0 0 0 0 0 0 0 0 0 0 0 0 0 0 0 0 0 127 0" result="hardAlpha"/>
<feOffset dy="0.7776"/>
<feGaussianBlur stdDeviation="0.3888"/>
<feComposite in2="hardAlpha" operator="out"/>
<feColorMatrix type="matrix" values="0 0 0 0 0 0 0 0 0 0 0 0 0 0 0 0 0 0 0.25 0"/>
<feBlend mode="normal" in2="BackgroundImageFix" result="effect1_dropShadow_307_1088"/>
<feBlend mode="normal" in="SourceGraphic" in2="effect1_dropShadow_307_1088" result="shape"/>
</filter>
<linearGradient id="paint0_linear_307_1088" x1="102.94" y1="2.3429" x2="102.94" y2="56.8151" gradientUnits="userSpaceOnUse">
<stop stop-color="#0D74BD"/>
<stop offset="0.8" stop-color="#DB6736"/>
</linearGradient>
<linearGradient id="paint1_linear_307_1088" x1="52.2185" y1="51.2893" x2="52.2185" y2="5.23293" gradientUnits="userSpaceOnUse">
<stop stop-color="#DB6736"/>
<stop offset="0.978986" stop-color="#0D74BD"/>
</linearGradient>
<linearGradient id="paint2_linear_307_1088" x1="133.072" y1="34.4564" x2="130.401" y2="79.1885" gradientUnits="userSpaceOnUse">
<stop stop-color="#F2C31E" stop-opacity="0.79"/>
<stop offset="0.3" stop-color="#DB6736"/>
</linearGradient>
<linearGradient id="paint3_linear_307_1088" x1="133.072" y1="34.4564" x2="130.401" y2="79.1885" gradientUnits="userSpaceOnUse">
<stop stop-color="#F2C31E" stop-opacity="0.79"/>
<stop offset="0.3" stop-color="#DB6736"/>
</linearGradient>
<linearGradient id="paint4_linear_307_1088" x1="133.072" y1="34.4564" x2="130.401" y2="79.1885" gradientUnits="userSpaceOnUse">
<stop stop-color="#F2C31E" stop-opacity="0.79"/>
<stop offset="0.3" stop-color="#DB6736"/>
</linearGradient>
<linearGradient id="paint5_linear_307_1088" x1="133.072" y1="34.4564" x2="130.401" y2="79.1885" gradientUnits="userSpaceOnUse">
<stop stop-color="#F2C31E" stop-opacity="0.79"/>
<stop offset="0.3" stop-color="#DB6736"/>
</linearGradient>
<linearGradient id="paint6_linear_307_1088" x1="133.072" y1="34.4564" x2="130.401" y2="79.1885" gradientUnits="userSpaceOnUse">
<stop stop-color="#F2C31E" stop-opacity="0.79"/>
<stop offset="0.3" stop-color="#DB6736"/>
</linearGradient>
</defs>
</svg>
