<svg width="200" height="200" viewBox="0 0 200 200" fill="none" xmlns="http://www.w3.org/2000/svg">
<g clip-path="url(#clip0_1314_58)">
<path d="M100.008 40.0031C73.3406 40.0031 56.6797 53.3312 50.0078 79.9984C60.0047 66.6687 71.675 61.6703 85.0047 65.0031C92.6156 66.9 98.0547 72.4187 104.078 78.5344C113.881 88.4828 125.228 100 150.008 100C176.673 100 193.336 86.6703 200.008 59.9969C190.008 73.3333 178.342 78.3344 165.009 75C157.4 73.1016 151.967 67.5844 145.936 61.4687C136.139 51.5203 124.795 40.0031 100.008 40.0031ZM50.0078 100C23.3422 100 6.67969 113.33 0.0078125 140.003C10.0068 126.667 21.6724 121.666 35.0047 125C42.6156 126.898 48.0547 132.416 54.0781 138.531C63.8812 148.48 75.2281 159.997 100.008 159.997C126.673 159.997 143.336 146.669 150.008 120.002C140.008 133.332 128.342 138.33 115.009 134.997C107.4 133.1 101.967 127.581 95.9359 121.466C86.1391 111.517 74.7953 100 50.0078 100Z" fill="#38BDF8"/>
</g>
<defs>
<clipPath id="clip0_1314_58">
<rect width="200" height="200" fill="white"/>
</clipPath>
</defs>
</svg>
