<svg width="194" height="200" viewBox="0 0 194 200" fill="none" xmlns="http://www.w3.org/2000/svg">
<g clip-path="url(#clip0_1314_114)">
<path d="M193.189 119.762C192.026 116.24 188.98 113.787 185.041 113.198C183.183 112.921 181.056 113.039 178.538 113.558C174.151 114.464 170.895 114.808 168.52 114.875C177.487 99.7349 184.779 82.4697 188.976 66.2174C195.764 39.9379 192.137 27.9659 187.898 22.5508C176.681 8.21743 160.315 0.517433 140.571 0.281827C130.038 0.153039 120.792 2.23258 115.969 3.72804C111.478 2.93562 106.649 2.49319 101.582 2.41137C92.0847 2.25986 83.693 4.33031 76.5226 8.58562C72.5529 7.24319 66.1817 5.35077 58.8241 4.14319C41.5196 1.30228 27.5726 3.51592 17.3711 10.7227C5.01804 19.4485 -0.708476 34.6091 0.350615 55.7833C0.686978 62.5061 4.44758 82.9606 10.3688 102.359C13.7718 113.509 17.4006 122.768 21.1544 129.882C26.4779 139.969 32.1741 145.909 38.5688 148.042C42.1529 149.236 48.665 150.073 55.5143 144.368C56.3824 145.42 57.5408 146.464 59.0779 147.435C61.0302 148.666 63.4173 149.672 65.8014 150.268C74.393 152.416 82.4408 151.879 89.3067 148.868C89.3491 150.089 89.3817 151.256 89.4089 152.264C89.4544 153.898 89.4999 155.5 89.5597 156.998C89.9665 167.13 90.6559 175.008 92.6983 180.52C92.8105 180.823 92.9612 181.286 93.1203 181.776C94.1393 184.895 95.843 190.118 100.178 194.208C104.667 198.445 110.096 199.745 115.069 199.745C117.563 199.745 119.942 199.417 122.029 198.97C129.469 197.376 137.918 194.947 144.03 186.244C149.809 178.017 152.618 165.625 153.126 146.1C153.192 145.547 153.254 145.02 153.311 144.518L153.432 143.486L154.794 143.606L155.145 143.63C162.722 143.975 171.987 142.368 177.677 139.725C182.173 137.639 196.582 130.032 193.189 119.762Z" fill="black"/>
<path d="M180.232 121.759C157.702 126.407 156.152 118.779 156.152 118.779C179.94 83.481 189.885 38.6757 181.304 27.7098C157.892 -2.20312 117.365 11.9439 116.689 12.3105L116.471 12.3499C112.02 11.4257 107.039 10.8757 101.439 10.784C91.2455 10.6173 83.5122 13.4567 77.644 17.9067C77.644 17.9067 5.34856 -11.8766 8.71144 55.3643C9.42659 69.6689 29.2145 163.601 52.816 135.229C61.4425 124.854 69.7781 116.082 69.7781 116.082C73.9175 118.832 78.8736 120.236 84.069 119.732L84.4728 119.389C84.347 120.677 84.4046 121.937 84.6342 123.429C78.5539 130.222 80.341 131.414 68.1864 133.917C55.8872 136.451 63.1122 140.964 67.8296 142.144C73.5486 143.573 86.7789 145.599 95.7183 133.085L95.3622 134.513C97.744 136.421 99.4167 146.924 99.1364 156.446C98.8561 165.967 98.669 172.504 100.546 177.611C102.424 182.717 104.294 194.205 120.273 190.782C133.624 187.92 140.543 180.506 141.505 168.138C142.188 159.345 143.734 160.645 143.831 152.784L145.071 149.063C146.501 137.144 145.299 133.298 153.524 135.087L155.524 135.263C161.577 135.538 169.501 134.289 174.152 132.127C184.165 127.48 190.105 119.72 180.23 121.759H180.232Z" fill="#336791"/>
<path d="M81.8752 61.7614C79.8449 61.4788 78.0062 61.7401 77.0759 62.4447C76.5532 62.8409 76.3911 63.3 76.3471 63.6159C76.2305 64.453 76.8168 65.3788 77.1774 65.856C78.1971 67.2076 79.6865 68.1364 81.1608 68.3409C81.3744 68.3707 81.587 68.3853 81.7986 68.3848C84.257 68.3848 86.4926 66.4704 86.6896 65.0576C86.9358 63.2879 84.3668 62.1076 81.8752 61.7614ZM149.136 61.8174C148.942 60.4303 146.474 60.0348 144.131 60.3606C141.792 60.6864 139.524 61.7424 139.713 63.1326C139.865 64.2136 141.817 66.0591 144.127 66.0591C144.323 66.0591 144.52 66.0454 144.718 66.0182C146.261 65.8045 147.393 64.825 147.93 64.2606C148.749 63.4 149.223 62.4409 149.136 61.8174Z" fill="white"/>
<path d="M187.731 121.231C186.872 118.633 184.107 117.798 179.513 118.746C165.873 121.561 160.988 119.611 159.384 118.43C169.986 102.279 178.708 82.7544 183.413 64.5385C185.642 55.9097 186.873 47.8961 186.974 41.3643C187.085 34.1954 185.864 28.9272 183.346 25.709C173.193 12.7355 158.291 5.77642 140.254 5.58551C127.853 5.44611 117.376 8.6196 115.345 9.51202C111.067 8.44839 106.404 7.79536 101.328 7.71202C92.0188 7.56126 83.9718 9.79005 77.3097 14.3332C74.4157 13.256 66.9369 10.6885 57.7907 9.21505C41.9786 6.6696 29.4134 8.59839 20.4468 14.9507C9.74754 22.531 4.80814 36.081 5.76496 55.2234C6.08693 61.6635 9.75663 81.4757 15.5475 100.449C23.1703 125.422 31.4566 139.559 40.1748 142.467C41.1953 142.807 42.3718 143.045 43.6695 143.045C46.8498 143.045 50.7491 141.612 54.8059 136.735C59.7541 130.799 64.8726 125.007 70.1551 119.367C73.5824 121.206 77.3475 122.233 81.1983 122.336C81.2064 122.437 81.2152 122.538 81.2248 122.638C80.562 123.428 79.9129 124.23 79.2778 125.043C76.6097 128.43 76.0544 129.136 67.4657 130.904C65.0225 131.408 58.5339 132.745 58.4384 137.294C58.3354 142.264 66.1089 144.351 66.9945 144.572C70.0809 145.345 73.0544 145.726 75.89 145.726C82.7862 145.726 88.8551 143.459 93.7051 139.073C93.5559 156.79 94.2945 174.248 96.4218 179.567C98.1642 183.921 102.42 194.563 115.864 194.562C117.837 194.562 120.008 194.332 122.397 193.82C136.428 190.813 142.521 184.611 144.878 170.939C146.139 163.632 148.304 146.185 149.322 136.826C151.47 137.496 154.236 137.803 157.226 137.802C163.463 137.802 170.659 136.477 175.172 134.382C180.241 132.028 189.39 126.251 187.731 121.231ZM154.317 57.9885C154.271 60.7514 153.891 63.2597 153.488 65.8779C153.054 68.6938 152.605 71.6052 152.492 75.1393C152.381 78.5787 152.81 82.1544 153.226 85.6128C154.065 92.5976 154.926 99.7885 151.592 106.884C151.039 105.902 150.546 104.888 150.115 103.847C149.701 102.842 148.801 101.229 147.554 98.9953C142.707 90.3014 131.354 69.9423 137.166 61.6347C138.897 59.162 143.29 56.6196 154.317 57.9885ZM140.951 11.1802C157.113 11.537 169.898 17.5832 178.949 29.1499C185.891 38.0219 178.247 78.3908 156.116 113.217C155.893 112.934 155.669 112.652 155.445 112.371L155.164 112.021C160.883 102.576 159.765 93.2317 158.77 84.9469C158.36 81.5469 157.974 78.3355 158.073 75.3188C158.174 72.1219 158.597 69.3794 159.006 66.7279C159.508 63.4605 160.02 60.0794 159.879 56.0938C159.984 55.6757 160.026 55.1817 159.971 54.5954C159.611 50.7734 155.248 39.3347 146.354 28.9817C141.488 23.3188 134.394 16.9817 124.707 12.7075C128.873 11.8438 134.571 11.0385 140.951 11.1802ZM50.5127 133.165C46.043 138.539 42.9566 137.509 41.9415 137.171C35.3278 134.965 27.6536 120.986 20.8877 98.8196C15.0331 79.6393 11.6119 60.3522 11.3407 54.9438C10.4862 37.8393 14.6324 25.9188 23.665 19.5128C38.365 9.08854 62.5331 15.3279 72.2445 18.4923C72.1051 18.6302 71.9597 18.759 71.8218 18.8991C55.8854 34.9931 56.2634 62.4901 56.3028 64.1711C56.3013 64.8196 56.3559 65.7378 56.4301 67.0007C56.7044 71.6257 57.215 80.2332 55.8513 89.981C54.5847 99.0393 57.3771 107.905 63.5112 114.306C64.1405 114.962 64.8021 115.586 65.4937 116.176C62.7634 119.1 56.8294 125.567 50.5127 133.165ZM67.5422 110.443C62.5983 105.284 60.3528 98.1082 61.3809 90.7537C62.8203 80.4567 62.2892 71.4885 62.0036 66.6704C61.9634 65.9961 61.9278 65.4052 61.9074 64.9393C64.2354 62.8749 75.0241 57.0946 82.718 58.8575C86.2286 59.6613 88.368 62.0522 89.2574 66.1643C93.8604 87.4544 89.8665 96.3279 86.6574 103.459C85.996 104.928 85.371 106.317 84.8377 107.753L84.4241 108.864C83.3771 111.671 82.4028 114.282 81.7991 116.76C76.543 116.745 71.4301 114.5 67.5422 110.442M68.3491 139.154C66.8142 138.771 65.4339 138.105 64.6241 137.553C65.3006 137.235 66.5044 136.801 68.5922 136.371C78.696 134.292 80.2566 132.823 83.6642 128.497C84.4453 127.504 85.3309 126.38 86.5574 125.011L86.5589 125.009C88.3854 122.964 89.221 123.311 90.7362 123.939C91.9642 124.447 93.1604 125.986 93.6453 127.68C93.8748 128.48 94.1324 129.998 93.2892 131.18C86.171 141.147 75.7983 141.019 68.3491 139.154ZM121.227 188.361C108.866 191.009 104.49 184.702 101.606 177.492C99.7445 172.838 98.8294 151.848 99.4786 128.669C99.4869 128.361 99.443 128.063 99.3581 127.782C99.2824 127.229 99.1669 126.682 99.0127 126.145C98.0475 122.772 95.6953 119.951 92.8733 118.781C91.7521 118.317 89.6945 117.464 87.2218 118.097C87.7491 115.924 88.6634 113.47 89.6551 110.814L90.071 109.696C90.5392 108.436 91.1271 107.131 91.7483 105.749C95.1066 98.2885 99.7059 88.0696 94.7142 64.984C92.8445 56.337 86.6006 52.1143 77.1354 53.0954C71.4612 53.6825 66.2695 55.9719 63.6801 57.2847C63.1233 57.5666 62.6142 57.8393 62.1384 58.1044C62.8612 49.3923 65.5915 33.1105 75.8051 22.809C82.2362 16.3241 90.8006 13.1211 101.235 13.2938C121.796 13.6302 134.981 24.1817 142.422 32.9749C148.834 40.5514 152.306 48.184 153.691 52.3007C143.271 51.2408 136.184 53.2976 132.591 58.434C124.776 69.6067 136.867 91.2916 142.679 101.714C143.745 103.623 144.664 105.274 144.954 105.976C146.846 110.562 149.296 113.624 151.085 115.859C151.633 116.544 152.165 117.208 152.57 117.789C149.413 118.698 143.745 120.801 144.261 131.309C143.845 136.582 140.882 161.268 139.376 169.99C137.389 181.513 133.149 185.804 121.227 188.361ZM172.821 129.319C169.594 130.817 164.193 131.94 159.063 132.182C153.396 132.447 150.511 131.547 149.832 130.993C149.514 124.445 151.951 123.761 154.531 123.036C154.936 122.923 155.332 122.811 155.713 122.678C155.95 122.871 156.211 123.062 156.495 123.251C161.05 126.257 169.173 126.581 180.642 124.214L180.768 124.189C179.221 125.635 176.574 127.576 172.821 129.319Z" fill="white"/>
</g>
<defs>
<clipPath id="clip0_1314_114">
<rect width="193.94" height="200" fill="white"/>
</clipPath>
</defs>
</svg>
