<svg width="200" height="200" viewBox="0 0 200 200" fill="none" xmlns="http://www.w3.org/2000/svg">
<path d="M100 187.5C97.6392 187.501 95.3197 186.88 93.2751 185.7L71.8751 173.031C68.6813 171.244 70.2376 170.612 71.2938 170.244C74.6912 169.196 77.9437 167.726 80.9751 165.869C81.2284 165.749 81.5083 165.698 81.7876 165.719C82.0668 165.739 82.3359 165.832 82.5688 165.987L99.0126 175.756C99.3188 175.918 99.6599 176.003 100.006 176.003C100.353 176.003 100.694 175.918 101 175.756L165.125 138.744C165.426 138.565 165.676 138.311 165.848 138.006C166.02 137.701 166.109 137.356 166.106 137.006V62.9687C166.107 62.6132 166.016 62.2636 165.842 61.9537C165.668 61.6438 165.417 61.3841 165.113 61.1999L100.988 24.2187C100.686 24.0466 100.344 23.9561 99.9969 23.9561C99.6495 23.9561 99.3081 24.0466 99.0063 24.2187L34.9188 61.2124C34.6131 61.3932 34.3593 61.6499 34.1819 61.9576C34.0045 62.2653 33.9096 62.6135 33.9063 62.9687V136.975C33.9104 137.323 34.0053 137.665 34.1818 137.965C34.3583 138.265 34.6102 138.514 34.9126 138.687L52.5001 148.837C62.0313 153.6 67.8688 147.987 67.8688 142.35V69.2812C67.8688 68.7839 68.0664 68.307 68.418 67.9554C68.7696 67.6037 69.2465 67.4062 69.7438 67.4062H77.8688C78.3661 67.4062 78.843 67.6037 79.1946 67.9554C79.5463 68.307 79.7438 68.7839 79.7438 69.2812V142.356C79.7438 155.075 72.8188 162.356 60.7563 162.356C55.5529 162.443 50.4316 161.052 45.9876 158.344L29.1313 148.675C27.0867 147.481 25.3901 145.773 24.2103 143.721C23.0305 141.668 22.4086 139.342 22.4063 136.975V62.9687C22.399 60.5967 23.0167 58.2647 24.1973 56.2075C25.3779 54.1502 27.0797 52.4403 29.1313 51.2499L93.2626 14.2249C95.3291 13.097 97.6457 12.5059 100 12.5059C102.354 12.5059 104.671 13.097 106.738 14.2249L170.863 51.2499C172.907 52.4417 174.603 54.1474 175.784 56.1976C176.965 58.2479 177.589 60.5714 177.594 62.9374V136.975C177.591 139.343 176.968 141.669 175.787 143.722C174.606 145.774 172.908 147.482 170.863 148.675L106.738 185.7C104.689 186.882 102.365 187.503 100 187.5Z" fill="#83CD29"/>
<path d="M87.8359 112.206C87.8359 111.709 88.0335 111.232 88.3851 110.88C88.7367 110.529 89.2137 110.331 89.7109 110.331H98.0047C98.4478 110.333 98.8761 110.491 99.2137 110.778C99.5512 111.065 99.7761 111.463 99.8484 111.9C101.098 120.344 104.848 124.6 121.805 124.6C135.311 124.6 141.067 121.544 141.067 114.375C141.067 110.244 139.436 107.175 118.442 105.119C100.892 103.381 90.0422 99.4938 90.0422 85.4688C90.0422 72.5313 100.948 64.8125 119.23 64.8125C139.773 64.8125 149.942 71.9437 151.23 87.2437C151.249 87.4992 151.216 87.7559 151.133 87.9982C151.05 88.2404 150.917 88.463 150.745 88.6521C150.572 88.8413 150.362 88.9931 150.129 89.098C149.895 89.203 149.642 89.259 149.386 89.2625H141.036C140.617 89.2566 140.212 89.1107 139.886 88.8478C139.56 88.585 139.331 88.2205 139.236 87.8125C137.242 78.9313 132.361 76.0938 119.236 76.0938C104.486 76.0938 102.773 81.2313 102.773 85.0813C102.773 89.7438 104.798 91.1063 124.711 93.7375C144.417 96.3438 153.78 100.031 153.78 113.881C153.78 127.856 142.13 135.856 121.811 135.856C93.7172 135.894 87.8359 123.012 87.8359 112.206Z" fill="#83CD29"/>
</svg>
