<svg width="142" height="200" viewBox="0 0 142 200" fill="none" xmlns="http://www.w3.org/2000/svg">
<g clip-path="url(#clip0_1314_52)">
<path d="M141.581 39.2056L128.705 183.449L70.8273 199.495L13.1087 183.471L0.246094 39.2056H141.581Z" fill="#E44D26"/>
<path d="M70.9141 187.23L117.682 174.264L128.685 51.0011H70.9141V187.23Z" fill="#F16529"/>
<path d="M45.8837 86.3889H70.9142V68.6953H26.5469L26.9701 73.4421L31.3192 122.201H70.9142V104.508H47.5009L45.8837 86.3889ZM49.8715 131.048H32.1098L34.5884 158.83L70.8327 168.891L70.9142 168.869V150.46L70.8366 150.48L51.1314 145.16L49.8715 131.048Z" fill="#EBEBEB"/>
<path d="M13.3984 0H22.3901V8.88366H30.6156V0H39.6079V26.9019H30.6162V17.8936H22.3907V26.9019H13.399L13.3984 0ZM51.4317 8.92133H43.517V0H68.3447V8.92133H60.425V26.9019H51.4333V8.92133H51.4317ZM72.2849 0H81.6605L87.4278 9.45263L93.1896 0H102.569V26.9019H93.614V13.5679L87.4278 23.133H87.2727L81.0827 13.5679V26.9019H72.2849V0ZM107.044 0H116.038V18.01H128.683V26.9019H107.043L107.044 0Z" fill="black"/>
<path d="M70.8521 122.201H92.6399L90.5856 145.149L70.8516 150.475V168.883L107.125 158.83L107.391 155.84L111.549 109.259L111.981 104.508H70.8521V122.201ZM70.8521 86.3457V86.3889H113.591L113.945 82.4122L114.752 73.4421L115.175 68.6953H70.8521V86.3457Z" fill="white"/>
</g>
<defs>
<clipPath id="clip0_1314_52">
<rect width="141.83" height="200" fill="white"/>
</clipPath>
</defs>
</svg>
