<svg width="150" height="200" viewBox="0 0 150 200" fill="none" xmlns="http://www.w3.org/2000/svg">
<g clip-path="url(#clip0_1314_67)">
<mask id="mask0_1314_67" style="mask-type:luminance" maskUnits="userSpaceOnUse" x="0" y="0" width="150" height="200">
<path d="M83.1708 8.31696C83.1708 3.72398 86.8947 0 91.4877 0H141.391C145.984 0 149.708 3.72398 149.708 8.31696V191.294C149.708 195.887 145.984 199.61 141.391 199.61H8.31696C3.72398 199.61 0 195.887 0 191.293V108.123C0 103.529 3.72398 99.8058 8.31696 99.8058H41.586V58.2199C41.586 53.6263 45.3094 49.9023 49.9029 49.9023H83.1708V8.31696Z" fill="white"/>
</mask>
<g mask="url(#mask0_1314_67)">
<path d="M149.709 0V199.61H83.1719V0H149.709Z" fill="url(#paint0_linear_1314_67)"/>
</g>
<mask id="mask1_1314_67" style="mask-type:luminance" maskUnits="userSpaceOnUse" x="0" y="0" width="150" height="200">
<path d="M83.1708 8.31696C83.1708 3.72398 86.8947 0 91.4877 0H141.391C145.984 0 149.708 3.72398 149.708 8.31696V191.294C149.708 195.887 145.984 199.61 141.391 199.61H8.31696C3.72398 199.61 0 195.887 0 191.293V108.123C0 103.529 3.72398 99.8058 8.31696 99.8058H41.586V58.2199C41.586 53.6263 45.3094 49.9023 49.9029 49.9023H83.1708V8.31696Z" fill="white"/>
</mask>
<g mask="url(#mask1_1314_67)">
<path d="M108.123 59.0513V200.442H41.5859V50.7344H99.8058C104.399 50.7344 108.123 54.4578 108.123 59.0513" fill="black" fill-opacity="0.2"/>
</g>
<mask id="mask2_1314_67" style="mask-type:luminance" maskUnits="userSpaceOnUse" x="0" y="0" width="150" height="200">
<path d="M83.1708 8.31696C83.1708 3.72398 86.8947 0 91.4877 0H141.391C145.984 0 149.708 3.72398 149.708 8.31696V191.294C149.708 195.887 145.984 199.61 141.391 199.61H8.31696C3.72398 199.61 0 195.887 0 191.293V108.123C0 103.529 3.72398 99.8058 8.31696 99.8058H41.586V58.2199C41.586 53.6263 45.3094 49.9023 49.9029 49.9023H83.1708V8.31696Z" fill="white"/>
</mask>
<g mask="url(#mask2_1314_67)">
<path d="M108.123 62.3783V203.768H41.5859V54.0608H99.8058C104.399 54.0608 108.123 57.7848 108.123 62.3783" fill="black" fill-opacity="0.18"/>
</g>
<mask id="mask3_1314_67" style="mask-type:luminance" maskUnits="userSpaceOnUse" x="0" y="0" width="150" height="200">
<path d="M83.1708 8.31696C83.1708 3.72398 86.8947 0 91.4877 0H141.391C145.984 0 149.708 3.72398 149.708 8.31696V191.294C149.708 195.887 145.984 199.61 141.391 199.61H8.31696C3.72398 199.61 0 195.887 0 191.293V108.123C0 103.529 3.72398 99.8058 8.31696 99.8058H41.586V58.2199C41.586 53.6263 45.3094 49.9023 49.9029 49.9023H83.1708V8.31696Z" fill="white"/>
</mask>
<g mask="url(#mask3_1314_67)">
<path d="M108.123 58.2199V199.61H41.5859V49.9023H99.8058C104.399 49.9023 108.123 53.6263 108.123 58.2199" fill="url(#paint1_linear_1314_67)"/>
</g>
<mask id="mask4_1314_67" style="mask-type:luminance" maskUnits="userSpaceOnUse" x="0" y="0" width="150" height="200">
<path d="M83.1708 8.31696C83.1708 3.72398 86.8947 0 91.4877 0H141.391C145.984 0 149.708 3.72398 149.708 8.31696V191.294C149.708 195.887 145.984 199.61 141.391 199.61H8.31696C3.72398 199.61 0 195.887 0 191.293V108.123C0 103.529 3.72398 99.8058 8.31696 99.8058H41.586V58.2199C41.586 53.6263 45.3094 49.9023 49.9029 49.9023H83.1708V8.31696Z" fill="white"/>
</mask>
<g mask="url(#mask4_1314_67)">
<path d="M0 99.8052V199.61H66.5368V108.123C66.5368 103.529 62.8129 99.8058 58.2199 99.8058L0 99.8052Z" fill="url(#paint2_linear_1314_67)"/>
</g>
</g>
<defs>
<linearGradient id="paint0_linear_1314_67" x1="2917.18" y1="-4.84752e-05" x2="10271.4" y2="15588.9" gradientUnits="userSpaceOnUse">
<stop stop-color="#E6AD10"/>
<stop offset="1" stop-color="#C87E0E"/>
</linearGradient>
<linearGradient id="paint1_linear_1314_67" x1="2711.2" y1="49.9022" x2="8846.42" y2="11948.9" gradientUnits="userSpaceOnUse">
<stop stop-color="#F6D751"/>
<stop offset="1" stop-color="#E6AD10"/>
</linearGradient>
<linearGradient id="paint2_linear_1314_67" x1="1847.99" y1="99.8052" x2="5583.31" y2="8952.28" gradientUnits="userSpaceOnUse">
<stop stop-color="#F9E589"/>
<stop offset="1" stop-color="#F6D751"/>
</linearGradient>
<clipPath id="clip0_1314_67">
<rect width="149.71" height="200" fill="white"/>
</clipPath>
</defs>
</svg>
