<svg width="200" height="200" viewBox="0 0 200 200" fill="none" xmlns="http://www.w3.org/2000/svg">
<path d="M99.6902 19.85C4.61517 21.8416 -15.1682 149.417 73.7652 180.017C77.9152 180.792 79.4652 178.192 79.4652 176.033V162.033C56.2152 167.042 51.2985 151.058 51.2985 151.058C49.7383 146.056 46.4199 141.787 41.9568 139.042C34.4402 133.942 42.5568 134.025 42.5568 134.025C45.2151 134.375 47.7555 135.339 49.9771 136.84C52.1987 138.342 54.0405 140.339 55.3568 142.675C57.7141 146.778 61.5879 149.793 66.1449 151.069C70.7018 152.345 75.5777 151.782 79.7235 149.5C80.1568 145.333 82.0152 141.458 84.9985 138.525C66.4152 136.442 46.9652 129.358 46.9652 97.9C46.8501 89.7034 49.956 81.7889 55.6152 75.8583C52.9974 68.7144 53.3059 60.8259 56.4735 53.9083C56.4735 53.9083 63.4735 51.7416 79.4735 62.55C93.1703 58.8331 107.61 58.8331 121.307 62.55C137.207 51.9166 144.207 53.9 144.207 53.9C147.249 60.8 147.524 68.5916 144.982 75.6833C150.639 81.6147 153.742 89.5294 153.623 97.725C153.623 129.275 134.09 136.275 115.507 138.267C124.157 142.85 120.523 172.317 121.04 175.95C121.04 178.108 122.507 180.7 126.832 179.925C215.515 149.592 194.765 21.8416 99.6902 19.85Z" fill="black"/>
</svg>
