<svg width="200" height="200" viewBox="0 0 200 200" fill="none" xmlns="http://www.w3.org/2000/svg">
<g clip-path="url(#clip0_1314_129)">
<path d="M15.625 0H184.375C193.005 0 200 6.99531 200 15.625V184.375C200 193.005 193.005 200 184.375 200H15.625C6.99531 200 0 193.005 0 184.375V15.625C0 6.99531 6.99531 0 15.625 0Z" fill="#3178C6"/>
<path d="M117.592 156.621V178.199C121.102 179.998 125.252 181.346 130.044 182.245C134.835 183.144 139.886 183.594 145.195 183.594C150.368 183.594 155.284 183.099 159.94 182.11C164.596 181.121 168.679 179.492 172.188 177.222C175.698 174.952 178.476 171.984 180.523 168.32C182.57 164.657 183.594 160.128 183.594 154.734C183.594 150.822 183.009 147.394 181.839 144.45C180.681 141.526 178.962 138.857 176.777 136.595C174.573 134.302 171.93 132.245 168.848 130.424C165.767 128.603 162.291 126.884 158.421 125.266C155.587 124.097 153.045 122.962 150.795 121.861C148.546 120.76 146.634 119.636 145.059 118.489C143.484 117.343 142.27 116.129 141.415 114.848C140.56 113.566 140.133 112.116 140.133 110.498C140.133 109.015 140.515 107.678 141.28 106.487C142.045 105.295 143.125 104.272 144.52 103.419C145.914 102.565 147.624 101.902 149.648 101.429C151.673 100.957 153.922 100.721 156.397 100.721C158.197 100.721 160.098 100.856 162.099 101.126C164.101 101.395 166.115 101.811 168.14 102.373C170.158 102.934 172.132 103.644 174.045 104.498C175.899 105.319 177.672 106.313 179.342 107.464V87.3023C176.058 86.0435 172.47 85.1107 168.578 84.5039C164.686 83.8971 160.221 83.5937 155.182 83.5938C150.053 83.5938 145.195 84.1445 140.605 85.2461C136.016 86.3471 131.978 88.0664 128.491 90.4039C125.005 92.7425 122.249 95.7208 120.224 99.3391C118.2 102.958 117.188 107.285 117.188 112.32C117.188 118.748 119.043 124.232 122.755 128.773C126.467 133.313 132.102 137.157 139.66 140.303C142.45 141.44 145.218 142.631 147.961 143.877C150.526 145.046 152.741 146.26 154.609 147.518C156.476 148.776 157.949 150.147 159.029 151.631C160.109 153.115 160.648 154.801 160.648 156.689C160.657 158.048 160.308 159.385 159.636 160.566C158.961 161.758 157.938 162.791 156.566 163.668C155.193 164.545 153.484 165.23 151.437 165.724C149.39 166.218 146.994 166.466 144.249 166.466C139.571 166.466 134.937 165.646 130.348 164.005C125.759 162.364 121.507 159.902 117.592 156.621ZM81.6266 102.923H109.375V85.1562H32.0312V102.923H59.6445V182.031H81.6266V102.923Z" fill="white"/>
</g>
<defs>
<clipPath id="clip0_1314_129">
<rect width="200" height="200" fill="white"/>
</clipPath>
</defs>
</svg>
