<svg width="200" height="200" viewBox="0 0 200 200" fill="none" xmlns="http://www.w3.org/2000/svg">
<g clip-path="url(#clip0_1314_60)">
<path d="M153.125 0H46.875C20.9867 0 0 20.9867 0 46.875V153.125C0 179.013 20.9867 200 46.875 200H153.125C179.013 200 200 179.013 200 153.125V46.875C200 20.9867 179.013 0 153.125 0Z" fill="#F4F2ED"/>
<path d="M26.7578 47.7539L99.4727 21.875L174.102 47.3531L162.041 143.516L99.4727 178.125L37.9203 143.965L26.7578 47.7539Z" fill="#E23237"/>
<path d="M174.102 47.3539L99.4727 21.875V178.125L162.041 143.516L174.102 47.3539Z" fill="#B52E31"/>
<path d="M99.5859 40.1367L54.2734 140.918L71.1828 140.576L80.3133 117.803H120.841L130.762 140.752L146.885 141.094L99.5859 40.1367ZM99.6977 72.4898L115.03 104.507H86.3289L99.7422 72.4898H99.6977Z" fill="white"/>
</g>
<defs>
<clipPath id="clip0_1314_60">
<rect width="200" height="200" fill="white"/>
</clipPath>
</defs>
</svg>
