<svg width="74" height="74" viewBox="0 0 74 74" fill="none" xmlns="http://www.w3.org/2000/svg">
<g opacity="0.25" clip-path="url(#clip0_719_1070)">
<mask id="mask0_719_1070" style="mask-type:luminance" maskUnits="userSpaceOnUse" x="0" y="0" width="74" height="74">
<path d="M74 0H0V74H74V0Z" fill="white"/>
</mask>
<g mask="url(#mask0_719_1070)">
<mask id="mask1_719_1070" style="mask-type:luminance" maskUnits="userSpaceOnUse" x="0" y="0" width="74" height="74">
<path d="M74 0H0V74H74V0Z" fill="white"/>
</mask>
<g mask="url(#mask1_719_1070)">
<path d="M67.3557 52.2779L68.1266 46.4659C68.1851 46.028 68.1489 45.5827 68.0204 45.1601C67.8919 44.7375 67.674 44.3475 67.3817 44.0163C67.0893 43.6853 66.7292 43.4208 66.3258 43.241C65.9224 43.0611 65.4849 42.9701 65.0433 42.974H50.5053V40.4071C52.9258 39.4858 55.066 37.9525 56.7169 35.957C58.3678 33.9616 59.4731 31.572 59.9249 29.0219H61.0426C61.7994 29.0204 62.54 28.8031 63.1775 28.3954C63.8151 27.9878 64.3231 27.4066 64.642 26.7203C64.9608 26.034 65.0773 25.2711 64.9777 24.5209C64.8781 23.7706 64.5666 23.0645 64.0797 22.4852C64.8537 22.2629 65.5222 21.77 65.9635 21.0964C66.4048 20.4227 66.5894 19.6129 66.4839 18.8145C66.3783 18.0162 65.9897 17.2823 65.3886 16.7463C64.7874 16.2104 64.0138 15.9081 63.2086 15.8945H61.7981C61.6663 11.5972 59.8501 7.52397 56.7417 4.55378C53.6331 1.58359 49.4815 -0.0453969 45.1827 0.018343C40.8837 0.0820825 36.7823 1.83343 33.7632 4.89447C30.7442 7.95549 29.0496 12.0808 29.0453 16.3801V21.09C28.0099 21.1526 27.04 21.6181 26.3435 22.3867C25.6468 23.1554 25.2787 24.1662 25.318 25.2029C25.3572 26.2395 25.8008 27.2196 26.5536 27.9333C27.3063 28.6471 28.3086 29.0378 29.3459 29.0219H30.4637C30.9154 31.572 32.0206 33.9616 33.6717 35.957C35.3226 37.9525 37.4627 39.4858 39.8833 40.4071V42.974H25.7847C25.3429 42.9701 24.9056 43.0611 24.5021 43.241C24.0987 43.4208 23.7386 43.6853 23.4462 44.0163C23.1539 44.3475 22.9361 44.7375 22.8075 45.1601C22.6791 45.5827 22.6427 46.028 22.7014 46.4659L23.4722 52.2471C22.7014 53.9197 22.8555 53.7888 19.9033 73.1133C19.8865 73.2237 19.8939 73.3368 19.925 73.4444C19.9561 73.5512 20.0103 73.6506 20.0837 73.7348C20.157 73.8192 20.2477 73.8869 20.3498 73.9321C20.4516 73.9781 20.5623 74.0013 20.6741 74H70.1461C70.2579 74.0013 70.3688 73.9781 70.4702 73.9321C70.5723 73.8869 70.6635 73.8192 70.7368 73.7348C70.81 73.6506 70.8642 73.5512 70.8951 73.4444C70.9265 73.3368 70.9334 73.2237 70.917 73.1133C68.0186 53.9584 68.1882 54.1741 67.3557 52.2779ZM61.0426 27.4801H60.1253C60.187 26.7711 60.1715 26.6631 60.1715 22.6163H61.0657C61.3966 22.5976 61.7279 22.6466 62.0391 22.7605C62.3504 22.8743 62.6351 23.0503 62.876 23.278C63.1168 23.5057 63.3087 23.7801 63.4398 24.0845C63.5709 24.3888 63.6386 24.7167 63.6386 25.0482C63.6386 25.3797 63.5709 25.7075 63.4398 26.012C63.3087 26.3163 63.1168 26.5907 62.876 26.8184C62.6351 27.0461 62.3504 27.2221 62.0391 27.3359C61.7279 27.4498 61.3966 27.4988 61.0657 27.4801H61.0426ZM63.1778 17.4593C63.6602 17.4593 64.123 17.651 64.4641 17.9922C64.8054 18.3333 64.997 18.7962 64.997 19.2785C64.997 19.7611 64.8054 20.2238 64.4641 20.5649C64.123 20.9061 63.6602 21.0977 63.1778 21.0977H44.4003C47.7191 18.7252 51.6982 17.4528 55.7778 17.4593H63.1778ZM34.3178 19.3325H41.5019V21.0745H34.3178V19.3325ZM34.3641 17.7908C34.5005 16.9486 34.9321 16.1827 35.5819 15.6298C36.2316 15.0769 37.0568 14.7733 37.9099 14.7733C38.7629 14.7733 39.5883 15.0769 40.2378 15.6298C40.8876 16.1827 41.3193 16.9486 41.4557 17.7908H34.3641ZM30.587 16.3801C30.585 12.4855 32.1143 8.74627 34.845 5.96916C37.5756 3.19209 41.2885 1.59991 45.1827 1.53619C49.0768 1.47243 52.8398 2.94226 55.66 5.62847C58.4799 8.31467 60.1308 12.0019 60.2563 15.8945H55.7778C51.4165 15.8843 47.1601 17.2312 43.5986 19.7488L43.0437 20.1341V18.5617C43.0437 17.2001 42.5028 15.8944 41.54 14.9315C40.5773 13.9687 39.2714 13.4279 37.9099 13.4279C36.5483 13.4279 35.2426 13.9687 34.2797 14.9315C33.317 15.8944 32.7761 17.2001 32.7761 18.5617V21.0745H30.587V16.3801ZM29.3459 27.4801C29.0151 27.4988 28.6837 27.4498 28.3726 27.3359C28.0614 27.2221 27.7766 27.0461 27.5356 26.8184C27.2948 26.5907 27.103 26.3163 26.9718 26.012C26.8407 25.7075 26.7732 25.3797 26.7732 25.0482C26.7732 24.7167 26.8407 24.3888 26.9718 24.0845C27.103 23.7801 27.2948 23.5057 27.5356 23.278C27.7766 23.0503 28.0614 22.8743 28.3726 22.7605C28.6837 22.6466 29.0151 22.5976 29.3459 22.6163H30.2401C30.2401 26.4704 30.2401 26.7556 30.2863 27.4801H29.3459ZM32.0361 29.0219C31.7278 27.4801 31.7818 26.7093 31.7818 22.6163H58.5837V26.4319C58.5812 29.7622 57.34 32.9723 55.1013 35.438C52.8628 37.9036 49.7869 39.4483 46.4723 39.7713C43.1578 40.0944 39.8417 39.1729 37.1689 37.186C34.4963 35.199 32.6584 32.289 32.013 29.0219H32.0361ZM41.4249 40.9081C43.8975 41.5441 46.4909 41.5441 48.9637 40.9081V42.974H47.7919C44.3849 42.2031 44.6161 42.2725 47.7919 42.974H42.8741C44.3155 42.6501 45.1326 42.4575 45.1866 42.4575H45.0633C42.3577 43.0588 43.1823 42.9585 41.4018 42.9585L41.4249 40.9081ZM25.7847 44.5156H65.0971C65.3184 44.5136 65.5375 44.5592 65.7395 44.6493C65.9415 44.7395 66.1218 44.872 66.268 45.0381C66.4142 45.2041 66.5231 45.3995 66.5871 45.6113C66.6511 45.8231 66.6688 46.0461 66.6389 46.2655C65.7447 52.9717 66.793 45.1168 63.7327 68.0723H27.1645L24.2507 46.25C24.2233 46.0327 24.2426 45.8118 24.3072 45.6025C24.3719 45.3932 24.4803 45.2 24.6256 45.0359C24.7706 44.8717 24.9491 44.7405 25.149 44.6508C25.3489 44.561 25.5655 44.515 25.7847 44.5156ZM24.0426 56.3711C25.9927 70.9626 25.7153 67.71 25.7153 72.4584H21.5837L24.0426 56.3711ZM27.257 69.6142H32.2211V72.4584H27.257V69.6142ZM33.7627 72.4584V69.6142H57.1037V72.4584H33.7627ZM58.6453 72.4584V69.6142H63.6018V72.4584H58.6453ZM65.1434 72.4584C65.1434 67.6715 64.8659 70.9167 66.8161 56.3556L69.2753 72.4584H65.1434Z" fill="#738F93"/>
<path d="M7.52065 17.4472L5.46342 19.5045C5.43667 19.5312 5.43667 19.5747 5.46342 19.6014L7.52065 21.6587" fill="#738F93"/>
<path d="M14.4395 17.4472L16.4967 19.5045C16.5235 19.5312 16.5235 19.5747 16.4967 19.6014L14.4395 21.6587" fill="#738F93"/>
<path d="M26.5089 35.7514L22.6548 31.3886C22.5001 31.2174 22.4148 30.9948 22.4159 30.764V13.7595C22.4159 13.1005 22.1546 12.4684 21.6893 12.0017C21.2241 11.535 20.5927 11.2717 19.9337 11.2697H2.48979C1.82946 11.2697 1.19617 11.532 0.729243 11.999C0.262316 12.4659 0 13.0992 0 13.7595V35.9595C0 36.6198 0.262316 37.2531 0.729243 37.72C1.19617 38.1869 1.82946 38.4494 2.48979 38.4494H25.2833C25.5961 38.4497 25.9022 38.3599 26.1652 38.1907C26.4281 38.0216 26.6368 37.7803 26.7661 37.4955C26.8954 37.2109 26.9399 36.8949 26.8944 36.5856C26.8487 36.2762 26.715 35.9866 26.5089 35.7514ZM1.54167 35.9595V13.7595C1.54368 13.5087 1.64422 13.2687 1.8216 13.0913C1.99896 12.9139 2.23896 12.8134 2.48979 12.8114H19.9645C20.2147 12.8134 20.4539 12.9142 20.6301 13.0918C20.8063 13.2694 20.9049 13.5094 20.9049 13.7595V30.764C20.9141 31.3584 21.1357 31.9299 21.5295 32.3752C25.5763 37.0002 25.3836 36.7458 25.3836 36.8228C25.3836 36.8999 27.064 36.8768 2.51292 36.8768C2.26329 36.8811 2.02194 36.7874 1.84043 36.616C1.65893 36.4446 1.55169 36.2089 1.54167 35.9595Z" fill="#738F93"/>
<path d="M16.1876 28.5825H15.9255V27.75C15.9255 25.6611 13.0734 24.9981 13.0734 26.4396C13.0734 26.6441 13.1546 26.8401 13.2992 26.9846C13.4437 27.1293 13.6398 27.2104 13.8443 27.2104C13.9873 27.2104 14.1246 27.2673 14.2258 27.3685C14.327 27.4696 14.3839 27.607 14.3839 27.75V30.9181C14.3848 30.9897 14.3717 31.0606 14.345 31.127C14.3184 31.1934 14.2787 31.2537 14.2285 31.3046C14.1783 31.3556 14.1185 31.396 14.0525 31.4236C13.9866 31.4512 13.9157 31.4655 13.8443 31.4653C13.6398 31.4653 13.4437 31.5466 13.2992 31.6911C13.1546 31.8358 13.0734 32.0318 13.0734 32.2363C13.0734 33.6623 15.9255 33.0071 15.9255 30.9181V30.1241H16.1876C16.392 30.1241 16.5881 30.043 16.7326 29.8983C16.8771 29.7538 16.9584 29.5578 16.9584 29.3533C16.9584 29.149 16.8771 28.9528 16.7326 28.8082C16.5881 28.6637 16.392 28.5825 16.1876 28.5825ZM7.06094 27.75C7.06094 27.607 7.11775 27.4696 7.21894 27.3685C7.32015 27.2673 7.45739 27.2104 7.60053 27.2104C7.80491 27.2104 8.00102 27.1293 8.14559 26.9846C8.2901 26.8401 8.37136 26.6441 8.37136 26.4396C8.37136 25.0136 5.51925 25.6687 5.51925 27.75V28.5671H5.25717C5.05273 28.5671 4.85666 28.6484 4.71211 28.7929C4.56755 28.9374 4.48633 29.1335 4.48633 29.3379C4.48633 29.5424 4.56755 29.7385 4.71211 29.883C4.85666 30.0275 5.05273 30.1087 5.25717 30.1087H5.51925V30.9181C5.51925 33.0148 8.37136 33.67 8.37136 32.2363C8.37136 32.0318 8.2901 31.8358 8.14559 31.6911C8.00102 31.5466 7.80491 31.4653 7.60053 31.4653C7.529 31.4655 7.45821 31.4512 7.39224 31.4236C7.32625 31.396 7.26644 31.3556 7.21621 31.3046C7.16597 31.2537 7.12645 31.1934 7.09973 31.127C7.07307 31.0606 7.05991 30.9897 7.06094 30.9181V27.75ZM11.6089 27.38L8.76445 30.232C8.6209 30.3765 8.54033 30.5719 8.54033 30.7755C8.54033 30.9792 8.6209 31.1746 8.76445 31.3189C8.90889 31.4626 9.10424 31.5431 9.30787 31.5431C9.51151 31.5431 9.70692 31.4626 9.85136 31.3189L12.7034 28.4745C12.8486 28.3295 12.9301 28.1326 12.9301 27.9273C12.9301 27.722 12.8486 27.5252 12.7034 27.38C12.5583 27.2349 12.3614 27.1533 12.1561 27.1533C11.9508 27.1533 11.754 27.2349 11.6089 27.38Z" fill="#738F93"/>
</g>
</g>
</g>
<defs>
<clipPath id="clip0_719_1070">
<rect width="74" height="74" fill="white"/>
</clipPath>
</defs>
</svg>
