<svg width="52" height="53" viewBox="0 0 52 53" fill="none" xmlns="http://www.w3.org/2000/svg">
<ellipse cx="26" cy="26.5" rx="26" ry="26.5" fill="#FF7C1D"/>
<path d="M20.7563 27.2667V39.0001M20.7563 27.2667C20.7563 27.2667 17.8783 27.2667 16.4392 27.2667C15.0002 27.2667 15.0002 27.2668 15.0002 28.7334C15.0002 30.2 14.9997 36.0667 15.0002 37.5334C15.0008 39.0001 15 39.0003 17.1587 39.0001C19.3175 38.9998 20.7563 39.0001 20.7563 39.0001M20.7563 27.2667C23.0607 21.7603 20.5 13 23.5 13.0001C26.4206 13.3408 28.2422 20.0933 28.6708 25.0667H35.8659C36.2864 30.9101 35.7583 33.943 33.7073 39.0001H20.7563" stroke="black" stroke-width="2"/>
</svg>
