<svg width="14" height="14" viewBox="0 0 14 14" fill="none" xmlns="http://www.w3.org/2000/svg">
<path d="M10.2552 3.46638C10.6963 3.46653 11.1193 3.64181 11.4311 3.95368C11.743 4.26556 11.9183 4.68852 11.9184 5.12958V7.01006C10.3759 7.86226 8.63722 8.29625 6.87509 8.26894C5.11492 8.29624 3.37827 7.86222 1.83789 7.01006V5.12902C1.83789 4.68791 2.01312 4.26487 2.32503 3.95296C2.63694 3.64105 3.05998 3.46582 3.50109 3.46582H10.2547L10.2552 3.46638Z" stroke="white" stroke-width="1.44" stroke-linecap="round" stroke-linejoin="round"/>
<path d="M6.87812 9.65163V8.26843M8.78604 3.46419V3.19987C8.78589 2.8804 8.65896 2.57404 8.43311 2.34808C8.20725 2.12213 7.90096 1.99505 7.58148 1.99475H6.1742C5.85473 1.99505 5.54843 2.12213 5.32258 2.34808C5.09673 2.57404 4.96979 2.8804 4.96964 3.19987V3.46419M1.85156 9.00147L1.9546 10.369C1.98793 10.8135 2.18797 11.2291 2.51466 11.5324C2.84135 11.8357 3.27057 12.0044 3.71636 12.0048H10.0404C10.4861 12.0045 10.9153 11.8358 11.242 11.5326C11.5686 11.2294 11.7687 10.814 11.8022 10.3696L11.9047 9.00147" stroke="white" stroke-width="1.44" stroke-linecap="round" stroke-linejoin="round"/>
</svg>
